# Blender 5.2.0 LTS
# www.blender.org
o Eyes
v -0.177260 0.748014 0.355961
v -0.173505 0.744261 0.350390
v -0.175107 0.744618 0.356699
v -0.175658 0.747656 0.349651
v -0.172420 0.742948 0.350740
v -0.178971 0.751652 0.355320
v -0.177369 0.751294 0.349011
v -0.174030 0.743039 0.357062
v -0.179692 0.753872 0.355011
v -0.121732 0.744233 0.363534
v -0.123334 0.744590 0.369843
v -0.125159 0.742127 0.369519
v -0.119579 0.747626 0.363888
v -0.121181 0.747983 0.370197
v -0.117868 0.751262 0.364117
v -0.119470 0.751620 0.370426
v -0.116627 0.755085 0.364215
v -0.118228 0.755442 0.370525
v -0.117475 0.759390 0.370492
v -0.115874 0.759033 0.364183
v -0.117223 0.763402 0.370329
v -0.115621 0.763045 0.364020
v -0.117475 0.767414 0.370038
v -0.115874 0.767057 0.363729
v -0.118228 0.771363 0.369623
v -0.116627 0.771006 0.363314
v -0.119470 0.775187 0.369091
v -0.117868 0.774830 0.362782
v -0.118982 0.777199 0.362365
v -0.120585 0.777559 0.368674
v -0.170944 0.741162 0.351067
v -0.178089 0.753513 0.348703
v -0.130474 0.736026 0.361260
v -0.128835 0.738210 0.368471
v -0.132086 0.735849 0.367574
v -0.127223 0.738387 0.362157
v -0.125906 0.740961 0.369296
v -0.124294 0.741137 0.362982
v -0.123549 0.742037 0.363197
v -0.172556 0.740986 0.357381
v -0.169627 0.738232 0.358052
v -0.168014 0.738409 0.351738
v -0.166376 0.735868 0.358816
v -0.164764 0.736044 0.352502
v -0.162855 0.733929 0.359662
v -0.161242 0.734106 0.353348
v -0.159119 0.732447 0.360574
v -0.157506 0.732624 0.354261
v -0.155227 0.731446 0.361541
v -0.153614 0.731622 0.355227
v -0.151240 0.730940 0.362545
v -0.149628 0.731116 0.356231
v -0.147222 0.730937 0.363571
v -0.145609 0.731114 0.357257
v -0.143236 0.731439 0.364603
v -0.141623 0.731616 0.358289
v -0.139344 0.732437 0.365625
v -0.137731 0.732613 0.359311
v -0.135607 0.733914 0.366621
v -0.133995 0.734091 0.360307
v -0.119579 0.778468 0.362141
v -0.181219 0.763442 0.354074
v -0.179364 0.759067 0.348060
v -0.180967 0.759430 0.354368
v -0.179616 0.763080 0.347765
v -0.178611 0.755118 0.348478
v -0.180214 0.755481 0.354786
v -0.121183 0.778831 0.368449
v -0.123336 0.782226 0.367707
v -0.121732 0.781864 0.361398
v -0.123421 0.783907 0.360852
v -0.125017 0.784451 0.367151
v -0.170944 0.784988 0.348711
v -0.172547 0.785350 0.355019
v -0.172339 0.785720 0.355051
v -0.175108 0.782254 0.354546
v -0.173505 0.781891 0.348238
v -0.177261 0.778861 0.354194
v -0.175658 0.778499 0.347885
v -0.178972 0.775224 0.353968
v -0.177369 0.774862 0.347659
v -0.180214 0.771402 0.353872
v -0.178611 0.771040 0.347563
v -0.179364 0.767091 0.347599
v -0.180967 0.767454 0.353907
v -0.124294 0.784962 0.360509
v -0.125880 0.785687 0.366791
v -0.127223 0.787716 0.359452
v -0.128809 0.788440 0.365733
v -0.130474 0.790080 0.358358
v -0.132060 0.790805 0.364639
v -0.133995 0.792019 0.357245
v -0.135582 0.792743 0.363526
v -0.137731 0.793501 0.356130
v -0.139318 0.794225 0.362411
v -0.141623 0.794502 0.355031
v -0.143210 0.795227 0.361313
v -0.145609 0.795008 0.353966
v -0.147196 0.795733 0.360247
v -0.149628 0.795011 0.352951
v -0.151214 0.795735 0.359232
v -0.153614 0.794509 0.352001
v -0.155201 0.795233 0.358283
v -0.157506 0.793511 0.351133
v -0.159093 0.794236 0.357415
v -0.161242 0.792033 0.350360
v -0.162829 0.792758 0.356641
v -0.164764 0.790099 0.349694
v -0.166350 0.790823 0.355975
v -0.168014 0.787738 0.349145
v -0.169601 0.788462 0.355426
v -0.123334 0.744590 0.369843
v -0.174030 0.743039 0.357062
v -0.125159 0.742127 0.369519
v -0.175107 0.744618 0.356699
v -0.121181 0.747983 0.370197
v -0.177260 0.748014 0.355961
v -0.119470 0.751620 0.370426
v -0.178971 0.751652 0.355320
v -0.118228 0.755442 0.370525
v -0.179692 0.753872 0.355011
v -0.120585 0.777559 0.368674
v -0.117475 0.759390 0.370492
v -0.117223 0.763402 0.370329
v -0.117475 0.767414 0.370038
v -0.118228 0.771363 0.369623
v -0.119470 0.775187 0.369091
v -0.143236 0.731439 0.364603
v -0.151240 0.730940 0.362545
v -0.147222 0.730937 0.363571
v -0.155227 0.731446 0.361541
v -0.139344 0.732437 0.365625
v -0.159119 0.732447 0.360574
v -0.135607 0.733914 0.366621
v -0.162855 0.733929 0.359662
v -0.132086 0.735849 0.367574
v -0.166376 0.735868 0.358816
v -0.128835 0.738210 0.368471
v -0.169627 0.738232 0.358052
v -0.125906 0.740961 0.369296
v -0.172556 0.740986 0.357381
v -0.180214 0.755481 0.354786
v -0.180967 0.759430 0.354368
v -0.181219 0.763442 0.354074
v -0.180967 0.767454 0.353907
v -0.180214 0.771402 0.353872
v -0.178972 0.775224 0.353968
v -0.177261 0.778861 0.354194
v -0.121183 0.778831 0.368449
v -0.123336 0.782226 0.367707
v -0.175108 0.782254 0.354546
v -0.125017 0.784451 0.367151
v -0.172547 0.785350 0.355019
v -0.172339 0.785720 0.355051
v -0.125880 0.785687 0.366791
v -0.128809 0.788440 0.365733
v -0.169601 0.788462 0.355426
v -0.132060 0.790805 0.364639
v -0.166350 0.790823 0.355975
v -0.135582 0.792743 0.363526
v -0.162829 0.792758 0.356641
v -0.139318 0.794225 0.362411
v -0.159093 0.794236 0.357415
v -0.143210 0.795227 0.361313
v -0.155201 0.795233 0.358283
v -0.147196 0.795733 0.360247
v -0.151214 0.795735 0.359232
v 0.186511 0.747656 0.349651
v 0.188113 0.748014 0.355961
v 0.184358 0.744261 0.350390
v 0.185960 0.744618 0.356699
v 0.183273 0.742948 0.350740
v 0.188222 0.751294 0.349011
v 0.189824 0.751652 0.355320
v 0.184883 0.743039 0.357062
v 0.190545 0.753872 0.355011
v 0.136012 0.742127 0.369519
v 0.134187 0.744590 0.369843
v 0.132585 0.744233 0.363534
v 0.130432 0.747626 0.363888
v 0.132034 0.747983 0.370197
v 0.128721 0.751262 0.364117
v 0.130323 0.751620 0.370426
v 0.127480 0.755085 0.364215
v 0.129081 0.755442 0.370525
v 0.126727 0.759033 0.364183
v 0.128328 0.759390 0.370492
v 0.126474 0.763045 0.364020
v 0.128076 0.763402 0.370329
v 0.126727 0.767057 0.363729
v 0.128328 0.767414 0.370038
v 0.127480 0.771006 0.363314
v 0.129081 0.771363 0.369623
v 0.128721 0.774830 0.362782
v 0.130323 0.775187 0.369091
v 0.131438 0.777559 0.368674
v 0.129835 0.777199 0.362365
v 0.181797 0.741162 0.351067
v 0.188942 0.753513 0.348703
v 0.138076 0.738387 0.362157
v 0.141327 0.736026 0.361260
v 0.139688 0.738210 0.368471
v 0.142939 0.735849 0.367574
v 0.135147 0.741137 0.362982
v 0.136759 0.740961 0.369296
v 0.134402 0.742037 0.363197
v 0.183409 0.740986 0.357381
v 0.178868 0.738409 0.351738
v 0.180480 0.738232 0.358052
v 0.175617 0.736044 0.352502
v 0.177229 0.735868 0.358816
v 0.172095 0.734106 0.353348
v 0.173708 0.733929 0.359662
v 0.168359 0.732624 0.354261
v 0.169972 0.732447 0.360574
v 0.164467 0.731622 0.355227
v 0.166080 0.731446 0.361541
v 0.160481 0.731116 0.356231
v 0.162093 0.730940 0.362545
v 0.156462 0.731114 0.357257
v 0.158075 0.730937 0.363571
v 0.152476 0.731616 0.358289
v 0.154089 0.731439 0.364603
v 0.148584 0.732613 0.359311
v 0.150197 0.732437 0.365625
v 0.144848 0.734091 0.360307
v 0.146461 0.733914 0.366621
v 0.130432 0.778468 0.362141
v 0.190469 0.763080 0.347765
v 0.192072 0.763442 0.354074
v 0.190217 0.759067 0.348060
v 0.191820 0.759430 0.354368
v 0.189464 0.755118 0.348478
v 0.191067 0.755481 0.354786
v 0.132036 0.778831 0.368449
v 0.132585 0.781864 0.361398
v 0.134189 0.782226 0.367707
v 0.135870 0.784451 0.367151
v 0.134274 0.783907 0.360852
v 0.183192 0.785720 0.355051
v 0.183400 0.785350 0.355019
v 0.181797 0.784988 0.348711
v 0.184358 0.781891 0.348238
v 0.185961 0.782254 0.354546
v 0.186511 0.778499 0.347885
v 0.188115 0.778861 0.354194
v 0.188222 0.774862 0.347659
v 0.189825 0.775224 0.353968
v 0.189464 0.771040 0.347563
v 0.191067 0.771402 0.353872
v 0.190217 0.767091 0.347599
v 0.191820 0.767454 0.353907
v 0.135147 0.784962 0.360509
v 0.136733 0.785687 0.366791
v 0.138076 0.787716 0.359452
v 0.139663 0.788440 0.365733
v 0.141327 0.790080 0.358358
v 0.142913 0.790805 0.364639
v 0.144848 0.792019 0.357245
v 0.146435 0.792743 0.363526
v 0.148584 0.793501 0.356130
v 0.150171 0.794225 0.362411
v 0.152476 0.794502 0.355031
v 0.154063 0.795227 0.361313
v 0.156462 0.795008 0.353966
v 0.158049 0.795733 0.360247
v 0.160481 0.795011 0.352951
v 0.162068 0.795735 0.359232
v 0.164467 0.794509 0.352001
v 0.166054 0.795233 0.358283
v 0.168359 0.793511 0.351133
v 0.169946 0.794236 0.357415
v 0.172095 0.792033 0.350360
v 0.173682 0.792758 0.356641
v 0.175617 0.790099 0.349694
v 0.177203 0.790823 0.355975
v 0.178868 0.787738 0.349145
v 0.180454 0.788462 0.355426
v 0.130323 0.775187 0.369091
v 0.129081 0.771363 0.369623
v 0.131438 0.777559 0.368674
v 0.128328 0.767414 0.370038
v 0.128076 0.763402 0.370329
v 0.128328 0.759390 0.370492
v 0.129081 0.755442 0.370525
v 0.190545 0.753872 0.355011
v 0.189824 0.751652 0.355320
v 0.130323 0.751620 0.370426
v 0.188113 0.748014 0.355961
v 0.132034 0.747983 0.370197
v 0.185960 0.744618 0.356699
v 0.134187 0.744590 0.369843
v 0.184883 0.743039 0.357062
v 0.136012 0.742127 0.369519
v 0.183409 0.740986 0.357381
v 0.136759 0.740961 0.369296
v 0.180480 0.738232 0.358052
v 0.139688 0.738210 0.368471
v 0.177229 0.735868 0.358816
v 0.142939 0.735849 0.367574
v 0.173708 0.733929 0.359662
v 0.146461 0.733914 0.366621
v 0.169972 0.732447 0.360574
v 0.150197 0.732437 0.365625
v 0.166080 0.731446 0.361541
v 0.154089 0.731439 0.364603
v 0.162093 0.730940 0.362545
v 0.158075 0.730937 0.363571
v 0.183192 0.785720 0.355051
v 0.135870 0.784451 0.367151
v 0.183400 0.785350 0.355019
v 0.185961 0.782254 0.354546
v 0.134189 0.782226 0.367707
v 0.188115 0.778861 0.354194
v 0.132036 0.778831 0.368449
v 0.189825 0.775224 0.353968
v 0.191067 0.771402 0.353872
v 0.191820 0.767454 0.353907
v 0.192072 0.763442 0.354074
v 0.191820 0.759430 0.354368
v 0.191067 0.755481 0.354786
v 0.162068 0.795735 0.359232
v 0.158049 0.795733 0.360247
v 0.166054 0.795233 0.358283
v 0.154063 0.795227 0.361313
v 0.169946 0.794236 0.357415
v 0.150171 0.794225 0.362411
v 0.173682 0.792758 0.356641
v 0.146435 0.792743 0.363526
v 0.177203 0.790823 0.355975
v 0.142913 0.790805 0.364639
v 0.180454 0.788462 0.355426
v 0.139663 0.788440 0.365733
v 0.136733 0.785687 0.366791
vn -0.8453 -0.5007 -0.1862
vn -0.7793 -0.6050 -0.1636
vn -0.7982 -0.5746 -0.1806
vn -0.8453 -0.5008 -0.1862
vn -0.7465 -0.6435 -0.1693
vn -0.8984 -0.3878 -0.2061
vn -0.8984 -0.3877 -0.2061
vn -0.7798 -0.5932 -0.2000
vn -0.9197 -0.3287 -0.2148
vn 0.7799 -0.5853 0.2215
vn 0.7889 -0.5689 0.2325
vn 0.7827 -0.5835 0.2167
vn 0.8419 -0.4827 0.2411
vn 0.8969 -0.3659 0.2484
vn 0.9369 -0.2426 0.2516
vn 0.9612 -0.1153 0.2505
vn 0.9694 0.0138 0.2453
vn 0.9613 0.1422 0.2360
vn 0.9374 0.2676 0.2228
vn 0.8985 0.3877 0.2061
vn 0.8984 0.3877 0.2061
vn 0.8735 0.4454 0.1965
vn 0.8736 0.4453 0.1965
vn -0.7021 -0.6869 -0.1878
vn -0.9197 -0.3286 -0.2149
vn 0.5117 -0.8525 0.1069
vn 0.6093 -0.7816 0.1338
vn 0.7309 -0.6587 0.1785
vn 0.6982 -0.6981 0.1588
vn 0.7442 -0.6412 0.1870
vn -0.7170 -0.6672 -0.2018
vn -0.6034 -0.7778 -0.1759
vn -0.5040 -0.8501 -0.1525
vn -0.5041 -0.8501 -0.1525
vn -0.3976 -0.9087 -0.1270
vn -0.3977 -0.9087 -0.1270
vn -0.2859 -0.9531 -0.0997
vn -0.1704 -0.9828 -0.0710
vn -0.0529 -0.9977 -0.0414
vn 0.0652 -0.9978 -0.0113
vn 0.0651 -0.9978 -0.0113
vn 0.1822 -0.9831 0.0190
vn 0.1821 -0.9831 0.0190
vn 0.2966 -0.9538 0.0491
vn 0.4069 -0.9101 0.0785
vn 0.4070 -0.9101 0.0785
vn 0.8453 0.5009 0.1861
vn -0.9693 -0.0140 -0.2455
vn -0.9612 -0.1424 -0.2361
vn -0.9693 -0.0140 -0.2456
vn -0.9374 -0.2678 -0.2229
vn -0.9374 -0.2678 -0.2228
vn 0.8453 0.5008 0.1861
vn 0.7901 0.5918 0.1599
vn 0.7793 0.6051 0.1633
vn 0.7464 0.6506 0.1401
vn 0.7799 0.6106 0.1372
vn -0.6987 0.6766 -0.2325
vn -0.7890 0.5684 -0.2332
vn -0.7597 0.6054 -0.2372
vn -0.7731 0.5909 -0.2304
vn -0.8419 0.4826 -0.2417
vn -0.8968 0.3657 -0.2489
vn -0.9369 0.2424 -0.2520
vn -0.9612 0.1151 -0.2509
vn 0.7102 0.6957 0.1075
vn 0.7341 0.6704 0.1081
vn 0.6224 0.7798 0.0673
vn 0.5277 0.8487 0.0354
vn 0.4255 0.9049 0.0031
vn 0.3171 0.9479 -0.0293
vn 0.2038 0.9771 -0.0612
vn 0.2037 0.9771 -0.0612
vn 0.0869 0.9919 -0.0925
vn -0.0319 0.9920 -0.1225
vn -0.0320 0.9920 -0.1225
vn -0.1512 0.9769 -0.1509
vn -0.2692 0.9466 -0.1772
vn -0.3840 0.9012 -0.2010
vn -0.3841 0.9012 -0.2010
vn -0.4937 0.8409 -0.2217
vn -0.4938 0.8409 -0.2217
vn -0.5961 0.7665 -0.2390
vn -0.6061 0.7603 -0.2337
vn -0.2457 0.0548 0.9678
vn -0.2463 0.0308 0.9687
vn -0.2464 0.0292 0.9687
vn -0.2458 0.0552 0.9677
vn -0.2458 0.0552 0.9678
vn -0.2456 0.0548 0.9678
vn -0.2474 -0.0271 0.9685
vn -0.2474 -0.0270 0.9685
vn -0.2460 0.0556 0.9677
vn -0.2459 0.0556 0.9677
vn -0.2460 0.0555 0.9677
vn -0.2453 0.0715 0.9668
vn -0.2453 0.0714 0.9668
vn -0.2434 0.1112 0.9635
vn -0.2434 0.1111 0.9635
vn -0.2434 0.1110 0.9636
vn 0.8453 -0.5008 -0.1862
vn 0.8453 -0.5007 -0.1862
vn 0.7793 -0.6050 -0.1636
vn 0.7982 -0.5746 -0.1806
vn 0.7465 -0.6435 -0.1693
vn 0.8984 -0.3877 -0.2061
vn 0.7798 -0.5932 -0.2000
vn 0.9197 -0.3287 -0.2148
vn -0.7827 -0.5835 0.2167
vn -0.7889 -0.5689 0.2325
vn -0.7799 -0.5853 0.2215
vn -0.8419 -0.4827 0.2411
vn -0.8969 -0.3659 0.2484
vn -0.9369 -0.2426 0.2516
vn -0.9612 -0.1153 0.2505
vn -0.9694 0.0138 0.2453
vn -0.9613 0.1422 0.2360
vn -0.9374 0.2676 0.2228
vn -0.8984 0.3877 0.2061
vn -0.8985 0.3877 0.2061
vn -0.8735 0.4453 0.1965
vn -0.8735 0.4454 0.1965
vn 0.7021 -0.6869 -0.1878
vn 0.9197 -0.3286 -0.2149
vn -0.6093 -0.7816 0.1338
vn -0.5117 -0.8525 0.1069
vn -0.6982 -0.6981 0.1588
vn -0.7309 -0.6587 0.1785
vn -0.7442 -0.6412 0.1870
vn 0.7170 -0.6672 -0.2018
vn 0.6034 -0.7778 -0.1759
vn 0.5041 -0.8501 -0.1525
vn 0.5040 -0.8501 -0.1525
vn 0.3976 -0.9087 -0.1270
vn 0.2858 -0.9531 -0.0997
vn 0.2859 -0.9531 -0.0997
vn 0.1704 -0.9828 -0.0710
vn 0.0529 -0.9977 -0.0414
vn -0.0652 -0.9978 -0.0113
vn -0.1821 -0.9831 0.0190
vn -0.1822 -0.9831 0.0190
vn -0.2966 -0.9538 0.0491
vn -0.4069 -0.9101 0.0785
vn -0.8453 0.5009 0.1861
vn 0.9693 -0.0140 -0.2456
vn 0.9612 -0.1424 -0.2361
vn 0.9374 -0.2678 -0.2229
vn 0.9374 -0.2678 -0.2228
vn -0.8453 0.5008 0.1861
vn -0.7793 0.6051 0.1633
vn -0.7901 0.5918 0.1599
vn -0.7799 0.6106 0.1372
vn -0.7464 0.6506 0.1401
vn 0.7597 0.6055 -0.2372
vn 0.7890 0.5684 -0.2332
vn 0.6987 0.6766 -0.2325
vn 0.7731 0.5909 -0.2304
vn 0.8419 0.4826 -0.2417
vn 0.8968 0.3657 -0.2489
vn 0.9369 0.2424 -0.2520
vn 0.9612 0.1151 -0.2509
vn -0.7103 0.6957 0.1075
vn -0.7341 0.6704 0.1081
vn -0.6224 0.7798 0.0673
vn -0.5277 0.8487 0.0354
vn -0.4256 0.9049 0.0031
vn -0.4255 0.9049 0.0031
vn -0.3171 0.9479 -0.0293
vn -0.2038 0.9771 -0.0612
vn -0.2037 0.9771 -0.0612
vn -0.0869 0.9919 -0.0925
vn 0.0319 0.9920 -0.1225
vn 0.0320 0.9920 -0.1225
vn 0.1512 0.9769 -0.1509
vn 0.1513 0.9769 -0.1509
vn 0.2692 0.9466 -0.1772
vn 0.3840 0.9012 -0.2010
vn 0.3841 0.9012 -0.2010
vn 0.4937 0.8409 -0.2217
vn 0.4938 0.8409 -0.2217
vn 0.5961 0.7665 -0.2390
vn 0.6061 0.7603 -0.2337
vn 0.2456 0.0548 0.9678
vn 0.2456 0.0549 0.9678
vn 0.2458 0.0552 0.9678
vn 0.2457 0.0548 0.9678
vn 0.2458 0.0552 0.9677
vn 0.2463 0.0308 0.9687
vn 0.2464 0.0292 0.9687
vn 0.2474 -0.0271 0.9685
vn 0.2474 -0.0270 0.9685
vn 0.2473 -0.0270 0.9686
vn 0.2474 -0.0272 0.9685
vn 0.2453 0.0714 0.9668
vn 0.2453 0.0715 0.9668
vn 0.2460 0.0556 0.9677
vn 0.2459 0.0556 0.9677
vn 0.2459 0.0555 0.9677
vn 0.2433 0.1110 0.9636
vn 0.2434 0.1112 0.9635
vn 0.2434 0.1111 0.9635
vt 0.793333 0.460000
vt 0.873333 0.460000
vt 0.833333 0.540000
s 1
f 1/1/1 2/2/2 3/3/3
f 2/1/2 1/2/1 4/3/4
f 2/1/2 5/2/5 3/3/3
f 6/1/6 4/2/4 1/3/1
f 4/1/4 6/2/6 7/3/7
f 5/1/5 8/2/8 3/3/3
f 7/1/7 6/2/6 9/3/9
f 10/1/10 11/2/11 12/3/12
f 11/1/11 13/2/13 14/3/13
f 13/1/13 11/2/11 10/3/10
f 14/1/13 15/2/14 16/3/14
f 15/1/14 14/2/13 13/3/13
f 16/1/14 17/2/15 18/3/15
f 17/1/15 16/2/14 15/3/14
f 17/1/15 19/2/16 18/3/15
f 19/1/16 17/2/15 20/3/16
f 20/1/16 21/2/17 19/3/16
f 21/1/17 20/2/16 22/3/17
f 22/1/17 23/2/18 21/3/17
f 23/1/18 22/2/17 24/3/18
f 24/1/18 25/2/19 23/3/18
f 25/1/19 24/2/18 26/3/19
f 26/1/19 27/2/20 25/3/19
f 27/1/20 26/2/19 28/3/21
f 29/1/22 30/2/23 27/3/20
f 5/1/5 31/2/24 8/3/8
f 32/1/25 7/2/7 9/3/9
f 33/1/26 34/2/27 35/3/26
f 34/1/27 33/2/26 36/3/27
f 36/1/27 37/2/28 34/3/27
f 37/1/28 36/2/27 38/3/29
f 39/1/30 12/2/12 37/3/28
f 31/1/24 40/2/31 8/3/8
f 31/1/24 41/2/32 40/3/31
f 41/1/32 31/2/24 42/3/32
f 42/1/32 43/2/33 41/3/32
f 43/1/33 42/2/32 44/3/34
f 44/1/34 45/2/35 43/3/33
f 45/1/35 44/2/34 46/3/36
f 46/1/36 47/2/37 45/3/35
f 47/1/37 46/2/36 48/3/37
f 48/1/37 49/2/38 47/3/37
f 49/1/38 48/2/37 50/3/38
f 50/1/38 51/2/39 49/3/38
f 51/1/39 50/2/38 52/3/39
f 52/1/39 53/2/40 51/3/39
f 53/1/40 52/2/39 54/3/41
f 54/1/41 55/2/42 53/3/40
f 55/1/42 54/2/41 56/3/43
f 56/1/43 57/2/44 55/3/42
f 57/1/44 56/2/43 58/3/44
f 58/1/44 59/2/45 57/3/44
f 59/1/45 58/2/44 60/3/46
f 60/1/46 35/2/26 59/3/45
f 35/1/26 60/2/46 33/3/26
f 39/1/30 10/2/10 12/3/12
f 29/1/22 27/2/20 28/3/21
f 61/1/47 30/2/23 29/3/22
f 62/1/48 63/2/49 64/3/49
f 63/1/49 62/2/48 65/3/50
f 64/1/49 66/2/51 67/3/52
f 66/1/51 64/2/49 63/3/49
f 32/1/25 9/2/9 67/3/52
f 61/1/47 68/2/53 30/3/23
f 61/1/47 69/2/54 68/3/53
f 69/1/54 61/2/47 70/3/55
f 71/1/56 72/2/57 69/3/54
f 73/1/58 74/2/59 75/3/60
f 73/1/58 76/2/61 74/3/59
f 76/1/61 73/2/58 77/3/61
f 77/1/61 78/2/62 76/3/61
f 78/1/62 77/2/61 79/3/62
f 79/1/62 80/2/63 78/3/62
f 80/1/63 79/2/62 81/3/63
f 81/1/63 82/2/64 80/3/63
f 82/1/64 81/2/63 83/3/64
f 82/1/64 84/2/65 85/3/65
f 84/1/65 82/2/64 83/3/64
f 85/1/65 65/2/50 62/3/48
f 65/1/50 85/2/65 84/3/65
f 38/1/29 39/2/30 37/3/28
f 66/1/51 32/2/25 67/3/52
f 71/1/56 69/2/54 70/3/55
f 86/1/66 72/2/57 71/3/56
f 86/1/66 87/2/67 72/3/57
f 87/1/67 88/2/68 89/3/68
f 88/1/68 87/2/67 86/3/66
f 89/1/68 90/2/69 91/3/69
f 90/1/69 89/2/68 88/3/68
f 91/1/69 92/2/70 93/3/70
f 92/1/70 91/2/69 90/3/69
f 93/1/70 94/2/71 95/3/71
f 94/1/71 93/2/70 92/3/70
f 95/1/71 96/2/72 97/3/73
f 96/1/72 95/2/71 94/3/71
f 97/1/73 98/2/74 99/3/74
f 98/1/74 97/2/73 96/3/72
f 99/1/74 100/2/75 101/3/76
f 100/1/75 99/2/74 98/3/74
f 101/1/76 102/2/77 103/3/77
f 102/1/77 101/2/76 100/3/75
f 103/1/77 104/2/78 105/3/78
f 104/1/78 103/2/77 102/3/77
f 105/1/78 106/2/79 107/3/80
f 106/1/79 105/2/78 104/3/78
f 107/1/80 108/2/81 109/3/82
f 108/1/81 107/2/80 106/3/79
f 109/1/82 110/2/83 111/3/84
f 110/1/83 109/2/82 108/3/81
f 111/1/84 73/2/58 75/3/60
f 110/1/83 73/2/58 111/3/84
f 112/1/85 113/2/86 114/3/87
f 113/1/86 112/2/85 115/3/85
f 115/1/85 112/2/85 116/3/85
f 115/1/85 116/2/85 117/3/85
f 117/1/85 116/2/85 118/3/85
f 117/1/85 118/2/85 119/3/85
f 119/1/85 118/2/85 120/3/85
f 119/1/85 120/2/85 121/3/88
f 121/1/88 120/2/85 122/3/89
f 122/1/89 120/2/85 123/3/85
f 122/1/89 123/2/85 124/3/85
f 122/1/89 124/2/85 125/3/85
f 122/1/89 125/2/85 126/3/90
f 122/1/89 126/2/90 127/3/90
f 128/1/91 129/2/92 130/3/91
f 129/1/92 128/2/91 131/3/91
f 131/1/91 128/2/91 132/3/91
f 131/1/91 132/2/91 133/3/92
f 133/1/92 132/2/91 134/3/91
f 133/1/92 134/2/91 135/3/91
f 135/1/91 134/2/91 136/3/91
f 135/1/91 136/2/91 137/3/91
f 137/1/91 136/2/91 138/3/91
f 137/1/91 138/2/91 139/3/91
f 139/1/91 138/2/91 140/3/91
f 139/1/91 140/2/91 141/3/91
f 141/1/91 140/2/91 114/3/87
f 141/1/91 114/2/87 113/3/86
f 122/1/89 142/2/93 121/3/88
f 142/1/93 122/2/89 143/3/94
f 143/1/94 122/2/89 144/3/93
f 144/1/93 122/2/89 145/3/93
f 145/1/93 122/2/89 146/3/93
f 146/1/93 122/2/89 147/3/93
f 147/1/93 122/2/89 148/3/93
f 148/1/93 122/2/89 149/3/95
f 148/1/93 149/2/95 150/3/94
f 148/1/93 150/2/94 151/3/93
f 151/1/93 150/2/94 152/3/96
f 151/1/93 152/2/96 153/3/93
f 153/1/93 152/2/96 154/3/97
f 155/1/98 154/2/97 152/3/96
f 154/1/97 155/2/98 156/3/98
f 154/1/97 156/2/98 157/3/99
f 157/1/99 156/2/98 158/3/98
f 157/1/99 158/2/98 159/3/99
f 159/1/99 158/2/98 160/3/98
f 159/1/99 160/2/98 161/3/99
f 161/1/99 160/2/98 162/3/99
f 161/1/99 162/2/99 163/3/98
f 163/1/98 162/2/99 164/3/98
f 163/1/98 164/2/98 165/3/98
f 165/1/98 164/2/98 166/3/98
f 165/1/98 166/2/98 167/3/100
f 168/1/101 169/2/102 170/3/103
f 171/1/104 170/2/103 169/3/102
f 171/1/104 172/2/105 170/3/103
f 173/1/106 174/2/106 168/3/101
f 169/1/102 168/2/101 174/3/106
f 171/1/104 175/2/107 172/3/105
f 176/1/108 174/2/106 173/3/106
f 177/1/109 178/2/110 179/3/111
f 179/1/111 178/2/110 180/3/112
f 181/1/112 180/2/112 178/3/110
f 180/1/112 181/2/112 182/3/113
f 183/1/113 182/2/113 181/3/112
f 182/1/113 183/2/113 184/3/114
f 185/1/114 184/2/114 183/3/113
f 186/1/115 184/2/114 187/3/115
f 185/1/114 187/2/115 184/3/114
f 188/1/116 186/2/115 189/3/116
f 187/1/115 189/2/116 186/3/115
f 190/1/117 188/2/116 191/3/117
f 189/1/116 191/2/117 188/3/116
f 192/1/118 190/2/117 193/3/118
f 191/1/117 193/2/118 190/3/117
f 194/1/119 192/2/118 195/3/120
f 193/1/118 195/2/120 192/3/118
f 195/1/120 196/2/121 197/3/122
f 175/1/107 198/2/123 172/3/105
f 176/1/108 173/2/106 199/3/124
f 200/1/125 201/2/126 202/3/125
f 203/1/126 202/2/125 201/3/126
f 204/1/127 200/2/125 205/3/128
f 202/1/125 205/2/128 200/3/125
f 205/1/128 177/2/109 206/3/129
f 175/1/107 207/2/130 198/3/123
f 208/1/131 198/2/123 209/3/131
f 207/1/130 209/2/131 198/3/123
f 210/1/132 208/2/131 211/3/133
f 209/1/131 211/2/133 208/3/131
f 212/1/134 210/2/132 213/3/134
f 211/1/133 213/2/134 210/3/132
f 214/1/135 212/2/134 215/3/136
f 213/1/134 215/2/136 212/3/134
f 216/1/137 214/2/135 217/3/137
f 215/1/136 217/2/137 214/3/135
f 218/1/138 216/2/137 219/3/138
f 217/1/137 219/2/138 216/3/137
f 220/1/139 218/2/138 221/3/139
f 219/1/138 221/2/139 218/3/138
f 222/1/140 220/2/139 223/3/141
f 221/1/139 223/2/141 220/3/139
f 224/1/142 222/2/140 225/3/142
f 223/1/141 225/2/142 222/3/140
f 226/1/143 224/2/142 227/3/143
f 225/1/142 227/2/143 224/3/142
f 201/1/126 226/2/143 203/3/126
f 227/1/143 203/2/126 226/3/143
f 177/1/109 179/2/111 206/3/129
f 194/1/119 195/2/120 197/3/122
f 197/1/122 196/2/121 228/3/144
f 229/1/145 230/2/145 231/3/146
f 232/1/146 231/2/146 230/3/145
f 231/1/146 232/2/146 233/3/147
f 234/1/148 233/2/147 232/3/146
f 234/1/148 176/2/108 199/3/124
f 196/1/121 235/2/149 228/3/144
f 236/1/150 228/2/144 237/3/151
f 235/1/149 237/2/151 228/3/144
f 237/1/151 238/2/152 239/3/153
f 240/1/154 241/2/155 242/3/156
f 243/1/157 242/2/156 244/3/157
f 241/1/155 244/2/157 242/3/156
f 245/1/158 243/2/157 246/3/158
f 244/1/157 246/2/158 243/3/157
f 247/1/159 245/2/158 248/3/159
f 246/1/158 248/2/159 245/3/158
f 249/1/160 247/2/159 250/3/160
f 248/1/159 250/2/160 247/3/159
f 249/1/160 250/2/160 251/3/161
f 252/1/161 251/2/161 250/3/160
f 251/1/161 252/2/161 229/3/145
f 230/1/145 229/2/145 252/3/161
f 205/1/128 206/2/129 204/3/127
f 234/1/148 199/2/124 233/3/147
f 236/1/150 237/2/151 239/3/153
f 239/1/153 238/2/152 253/3/162
f 238/1/152 254/2/163 253/3/162
f 253/1/162 254/2/163 255/3/164
f 256/1/164 255/2/164 254/3/163
f 255/1/164 256/2/164 257/3/165
f 258/1/165 257/2/165 256/3/164
f 257/1/165 258/2/165 259/3/166
f 260/1/167 259/2/166 258/3/165
f 259/1/166 260/2/167 261/3/168
f 262/1/168 261/2/168 260/3/167
f 261/1/168 262/2/168 263/3/169
f 264/1/170 263/2/169 262/3/168
f 263/1/169 264/2/170 265/3/171
f 266/1/171 265/2/171 264/3/170
f 265/1/171 266/2/171 267/3/172
f 268/1/173 267/2/172 266/3/171
f 267/1/172 268/2/173 269/3/174
f 270/1/175 269/2/174 268/3/173
f 269/1/174 270/2/175 271/3/176
f 272/1/176 271/2/176 270/3/175
f 271/1/176 272/2/176 273/3/177
f 274/1/178 273/2/177 272/3/176
f 273/1/177 274/2/178 275/3/179
f 276/1/180 275/2/179 274/3/178
f 275/1/179 276/2/180 277/3/181
f 278/1/182 277/2/181 276/3/180
f 240/1/154 242/2/156 278/3/182
f 278/1/182 242/2/156 277/3/181
f 279/1/183 280/2/184 281/3/185
f 280/1/184 282/2/186 281/3/185
f 282/1/186 283/2/183 281/3/185
f 283/1/183 284/2/186 281/3/185
f 284/1/186 285/2/186 281/3/185
f 281/1/185 285/2/186 286/3/187
f 286/1/187 285/2/186 287/3/186
f 285/1/186 288/2/186 287/3/186
f 287/1/186 288/2/186 289/3/186
f 288/1/186 290/2/186 289/3/186
f 289/1/186 290/2/186 291/3/186
f 290/1/186 292/2/186 291/3/186
f 291/1/186 292/2/186 293/3/188
f 294/1/189 293/2/188 292/3/186
f 293/1/188 294/2/189 295/3/190
f 294/1/189 296/2/190 295/3/190
f 295/1/190 296/2/190 297/3/191
f 296/1/190 298/2/190 297/3/191
f 297/1/191 298/2/190 299/3/190
f 298/1/190 300/2/190 299/3/190
f 299/1/190 300/2/190 301/3/190
f 300/1/190 302/2/190 301/3/190
f 301/1/190 302/2/190 303/3/191
f 302/1/190 304/2/190 303/3/191
f 303/1/191 304/2/190 305/3/190
f 304/1/190 306/2/192 305/3/190
f 305/1/190 306/2/192 307/3/191
f 308/1/193 307/2/191 306/3/192
f 309/1/194 310/2/195 311/3/196
f 311/1/196 310/2/195 312/3/196
f 310/1/195 313/2/197 312/3/196
f 312/1/196 313/2/197 314/3/196
f 313/1/197 315/2/198 314/3/196
f 315/1/198 281/2/185 314/3/196
f 314/1/196 281/2/185 316/3/196
f 316/1/196 281/2/185 317/3/197
f 317/1/197 281/2/185 318/3/196
f 318/1/196 281/2/185 319/3/196
f 319/1/196 281/2/185 320/3/197
f 320/1/197 281/2/185 321/3/196
f 286/1/187 321/2/196 281/3/185
f 322/1/199 323/2/200 324/3/200
f 323/1/200 325/2/200 324/3/200
f 324/1/200 325/2/200 326/3/200
f 325/1/200 327/2/201 326/3/200
f 326/1/200 327/2/201 328/3/200
f 327/1/201 329/2/200 328/3/200
f 328/1/200 329/2/200 330/3/201
f 329/1/200 331/2/200 330/3/201
f 330/1/201 331/2/200 332/3/201
f 331/1/200 333/2/200 332/3/201
f 332/1/201 333/2/200 309/3/194
f 333/1/200 334/2/200 309/3/194
f 310/1/195 309/2/194 334/3/200
