# Blender 5.2.0 LTS
# www.blender.org
o Eyes2_Blinks
v -0.180720 0.760578 0.355961
v -0.176515 0.759902 0.350390
v -0.178309 0.759967 0.356699
v -0.178927 0.760514 0.349651
v -0.175300 0.759666 0.350740
v -0.182637 0.761233 0.355320
v -0.180843 0.761169 0.349011
v -0.177103 0.759682 0.357062
v -0.183444 0.761633 0.355011
v -0.118530 0.759897 0.363534
v -0.120323 0.759962 0.369843
v -0.122368 0.759518 0.369519
v -0.116118 0.760508 0.363888
v -0.117912 0.760572 0.370197
v -0.114202 0.761163 0.364117
v -0.115996 0.761227 0.370426
v -0.112811 0.761851 0.364215
v -0.114605 0.761915 0.370525
v -0.113762 0.762626 0.370492
v -0.111968 0.762562 0.364183
v -0.113479 0.763348 0.370329
v -0.111685 0.763284 0.364020
v -0.113762 0.764070 0.370038
v -0.111968 0.764006 0.363729
v -0.114605 0.764781 0.369623
v -0.112811 0.764717 0.363314
v -0.115996 0.765469 0.369091
v -0.114202 0.765405 0.362782
v -0.115450 0.765831 0.362365
v -0.117245 0.765896 0.368674
v -0.173646 0.759345 0.351067
v -0.181650 0.761568 0.348703
v -0.128320 0.758420 0.361260
v -0.126485 0.758813 0.368471
v -0.130126 0.758388 0.367574
v -0.124679 0.758845 0.362157
v -0.123205 0.759308 0.369296
v -0.121398 0.759340 0.362982
v -0.120565 0.759502 0.363197
v -0.175453 0.759313 0.357381
v -0.172172 0.758817 0.358052
v -0.170366 0.758849 0.351738
v -0.168531 0.758392 0.358816
v -0.166725 0.758424 0.352502
v -0.164587 0.758043 0.359662
v -0.162781 0.758075 0.353348
v -0.160403 0.757776 0.360574
v -0.158597 0.757808 0.354261
v -0.156044 0.757596 0.361541
v -0.154238 0.757627 0.355227
v -0.151579 0.757505 0.362545
v -0.149773 0.757536 0.356231
v -0.147078 0.757504 0.363571
v -0.145272 0.757536 0.357257
v -0.142613 0.757595 0.364603
v -0.140807 0.757626 0.358289
v -0.138254 0.757774 0.365625
v -0.136448 0.757806 0.359311
v -0.134070 0.758040 0.366621
v -0.132264 0.758072 0.360307
v -0.116118 0.766060 0.362141
v -0.185155 0.763355 0.354074
v -0.183077 0.762568 0.348060
v -0.184873 0.762633 0.354368
v -0.183359 0.763290 0.347765
v -0.182234 0.761857 0.348478
v -0.184029 0.761922 0.354786
v -0.117914 0.766125 0.368449
v -0.120325 0.766736 0.367707
v -0.118530 0.766671 0.361398
v -0.120421 0.767039 0.360852
v -0.122209 0.767137 0.367151
v -0.173646 0.767233 0.348711
v -0.175442 0.767298 0.355019
v -0.175210 0.767365 0.355051
v -0.178311 0.766741 0.354546
v -0.176515 0.766676 0.348238
v -0.180722 0.766130 0.354194
v -0.178927 0.766065 0.347885
v -0.182639 0.765476 0.353968
v -0.180843 0.765411 0.347659
v -0.184029 0.764788 0.353872
v -0.182234 0.764723 0.347563
v -0.183077 0.764012 0.347599
v -0.184873 0.764077 0.353907
v -0.121398 0.767229 0.360509
v -0.123176 0.767359 0.366791
v -0.124679 0.767724 0.359452
v -0.126456 0.767855 0.365733
v -0.128320 0.768150 0.358358
v -0.130097 0.768280 0.364639
v -0.132264 0.768499 0.357245
v -0.134041 0.768629 0.363526
v -0.136448 0.768766 0.356130
v -0.138225 0.768896 0.362411
v -0.140807 0.768946 0.355031
v -0.142584 0.769076 0.361313
v -0.145272 0.769037 0.353966
v -0.147049 0.769167 0.360247
v -0.149773 0.769037 0.352951
v -0.151550 0.769168 0.359232
v -0.154238 0.768947 0.352001
v -0.156015 0.769078 0.358283
v -0.158597 0.768768 0.351133
v -0.160374 0.768898 0.357415
v -0.162781 0.768502 0.350360
v -0.164558 0.768632 0.356641
v -0.166725 0.768153 0.349694
v -0.168502 0.768284 0.355975
v -0.170366 0.767728 0.349145
v -0.172143 0.767859 0.355426
v -0.120323 0.759962 0.369843
v -0.177103 0.759682 0.357062
v -0.122368 0.759518 0.369519
v -0.178309 0.759967 0.356699
v -0.117912 0.760572 0.370197
v -0.180720 0.760578 0.355961
v -0.115996 0.761227 0.370426
v -0.182637 0.761233 0.355320
v -0.114605 0.761915 0.370525
v -0.183444 0.761633 0.355011
v -0.117245 0.765896 0.368674
v -0.113762 0.762626 0.370492
v -0.113479 0.763348 0.370329
v -0.113762 0.764070 0.370038
v -0.114605 0.764781 0.369623
v -0.115996 0.765469 0.369091
v -0.142613 0.757595 0.364603
v -0.151579 0.757505 0.362545
v -0.147078 0.757504 0.363571
v -0.156044 0.757596 0.361541
v -0.138254 0.757774 0.365625
v -0.160403 0.757776 0.360574
v -0.134070 0.758040 0.366621
v -0.164587 0.758043 0.359662
v -0.130126 0.758388 0.367574
v -0.168531 0.758392 0.358816
v -0.126485 0.758813 0.368471
v -0.172172 0.758817 0.358052
v -0.123205 0.759308 0.369296
v -0.175453 0.759313 0.357381
v -0.184029 0.761922 0.354786
v -0.184873 0.762633 0.354368
v -0.185155 0.763355 0.354074
v -0.184873 0.764077 0.353907
v -0.184029 0.764788 0.353872
v -0.182639 0.765476 0.353968
v -0.180722 0.766130 0.354194
v -0.117914 0.766125 0.368449
v -0.120325 0.766736 0.367707
v -0.178311 0.766741 0.354546
v -0.122209 0.767137 0.367151
v -0.175442 0.767298 0.355019
v -0.175210 0.767365 0.355051
v -0.123176 0.767359 0.366791
v -0.126456 0.767855 0.365733
v -0.172143 0.767859 0.355426
v -0.130097 0.768280 0.364639
v -0.168502 0.768284 0.355975
v -0.134041 0.768629 0.363526
v -0.164558 0.768632 0.356641
v -0.138225 0.768896 0.362411
v -0.160374 0.768898 0.357415
v -0.142584 0.769076 0.361313
v -0.156015 0.769078 0.358283
v -0.147049 0.769167 0.360247
v -0.151550 0.769168 0.359232
v 0.189780 0.760514 0.349651
v 0.191573 0.760578 0.355961
v 0.187368 0.759902 0.350390
v 0.189162 0.759967 0.356699
v 0.186153 0.759666 0.350740
v 0.191696 0.761169 0.349011
v 0.193490 0.761233 0.355320
v 0.187956 0.759682 0.357062
v 0.194297 0.761633 0.355011
v 0.133221 0.759518 0.369519
v 0.131176 0.759962 0.369843
v 0.129383 0.759897 0.363534
v 0.126971 0.760508 0.363888
v 0.128765 0.760572 0.370197
v 0.125055 0.761163 0.364117
v 0.126849 0.761227 0.370426
v 0.123664 0.761851 0.364215
v 0.125458 0.761915 0.370525
v 0.122821 0.762562 0.364183
v 0.124615 0.762626 0.370492
v 0.122538 0.763284 0.364020
v 0.124332 0.763348 0.370329
v 0.122821 0.764006 0.363729
v 0.124615 0.764070 0.370038
v 0.123664 0.764717 0.363314
v 0.125458 0.764781 0.369623
v 0.125055 0.765405 0.362782
v 0.126849 0.765469 0.369091
v 0.128098 0.765896 0.368674
v 0.126303 0.765831 0.362365
v 0.184500 0.759345 0.351067
v 0.192503 0.761568 0.348703
v 0.135532 0.758845 0.362157
v 0.139173 0.758420 0.361260
v 0.137338 0.758813 0.368471
v 0.140979 0.758388 0.367574
v 0.132251 0.759340 0.362982
v 0.134058 0.759308 0.369296
v 0.131418 0.759502 0.363197
v 0.186306 0.759313 0.357381
v 0.181219 0.758849 0.351738
v 0.183025 0.758817 0.358052
v 0.177578 0.758424 0.352502
v 0.179384 0.758392 0.358816
v 0.173634 0.758075 0.353348
v 0.175440 0.758043 0.359662
v 0.169450 0.757808 0.354261
v 0.171256 0.757776 0.360574
v 0.165091 0.757627 0.355227
v 0.166897 0.757596 0.361541
v 0.160626 0.757536 0.356231
v 0.162432 0.757505 0.362545
v 0.156125 0.757536 0.357257
v 0.157931 0.757504 0.363571
v 0.151660 0.757626 0.358289
v 0.153467 0.757595 0.364603
v 0.147301 0.757806 0.359311
v 0.149107 0.757774 0.365625
v 0.143117 0.758072 0.360307
v 0.144923 0.758040 0.366621
v 0.126971 0.766060 0.362141
v 0.194212 0.763290 0.347765
v 0.196008 0.763355 0.354074
v 0.193930 0.762568 0.348060
v 0.195726 0.762633 0.354368
v 0.193087 0.761857 0.348478
v 0.194882 0.761922 0.354786
v 0.128767 0.766125 0.368449
v 0.129383 0.766671 0.361398
v 0.131178 0.766736 0.367707
v 0.133062 0.767137 0.367151
v 0.131274 0.767039 0.360852
v 0.186063 0.767365 0.355051
v 0.186295 0.767298 0.355019
v 0.184500 0.767233 0.348711
v 0.187368 0.766676 0.348238
v 0.189164 0.766741 0.354546
v 0.189780 0.766065 0.347885
v 0.191576 0.766130 0.354194
v 0.191696 0.765411 0.347659
v 0.193492 0.765476 0.353968
v 0.193087 0.764723 0.347563
v 0.194882 0.764788 0.353872
v 0.193930 0.764012 0.347599
v 0.195726 0.764077 0.353907
v 0.132251 0.767229 0.360509
v 0.134029 0.767359 0.366791
v 0.135532 0.767724 0.359452
v 0.137309 0.767855 0.365733
v 0.139173 0.768150 0.358358
v 0.140950 0.768280 0.364639
v 0.143117 0.768499 0.357245
v 0.144894 0.768629 0.363526
v 0.147301 0.768766 0.356130
v 0.149078 0.768896 0.362411
v 0.151660 0.768946 0.355031
v 0.153437 0.769076 0.361313
v 0.156125 0.769037 0.353966
v 0.157902 0.769167 0.360247
v 0.160626 0.769037 0.352951
v 0.162403 0.769168 0.359232
v 0.165091 0.768947 0.352001
v 0.166868 0.769078 0.358283
v 0.169450 0.768768 0.351133
v 0.171227 0.768898 0.357415
v 0.173634 0.768502 0.350360
v 0.175411 0.768632 0.356641
v 0.177578 0.768153 0.349694
v 0.179355 0.768284 0.355975
v 0.181219 0.767728 0.349145
v 0.182996 0.767859 0.355426
v 0.126849 0.765469 0.369091
v 0.125458 0.764781 0.369623
v 0.128098 0.765896 0.368674
v 0.124615 0.764070 0.370038
v 0.124332 0.763348 0.370329
v 0.124615 0.762626 0.370492
v 0.125458 0.761915 0.370525
v 0.194297 0.761633 0.355011
v 0.193490 0.761233 0.355320
v 0.126849 0.761227 0.370426
v 0.191573 0.760578 0.355961
v 0.128765 0.760572 0.370197
v 0.189162 0.759967 0.356699
v 0.131176 0.759962 0.369843
v 0.187956 0.759682 0.357062
v 0.133221 0.759518 0.369519
v 0.186306 0.759313 0.357381
v 0.134058 0.759308 0.369296
v 0.183025 0.758817 0.358052
v 0.137338 0.758813 0.368471
v 0.179384 0.758392 0.358816
v 0.140979 0.758388 0.367574
v 0.175440 0.758043 0.359662
v 0.144923 0.758040 0.366621
v 0.171256 0.757776 0.360574
v 0.149107 0.757774 0.365625
v 0.166897 0.757596 0.361541
v 0.153467 0.757595 0.364603
v 0.162432 0.757505 0.362545
v 0.157931 0.757504 0.363571
v 0.186063 0.767365 0.355051
v 0.133062 0.767137 0.367151
v 0.186295 0.767298 0.355019
v 0.189164 0.766741 0.354546
v 0.131178 0.766736 0.367707
v 0.191576 0.766130 0.354194
v 0.128767 0.766125 0.368449
v 0.193492 0.765476 0.353968
v 0.194882 0.764788 0.353872
v 0.195726 0.764077 0.353907
v 0.196008 0.763355 0.354074
v 0.195726 0.762633 0.354368
v 0.194882 0.761922 0.354786
v 0.162403 0.769168 0.359232
v 0.157902 0.769167 0.360247
v 0.166868 0.769078 0.358283
v 0.153437 0.769076 0.361313
v 0.171227 0.768898 0.357415
v 0.149078 0.768896 0.362411
v 0.175411 0.768632 0.356641
v 0.144894 0.768629 0.363526
v 0.179355 0.768284 0.355975
v 0.140950 0.768280 0.364639
v 0.182996 0.767859 0.355426
v 0.137309 0.767855 0.365733
v 0.134029 0.767359 0.366791
vn -0.2641 -0.9623 -0.0653
vn -0.2046 -0.9777 -0.0482
vn -0.2188 -0.9742 -0.0556
vn -0.2654 -0.9619 -0.0656
vn -0.1823 -0.9822 -0.0462
vn -0.3525 -0.9314 -0.0907
vn -0.3565 -0.9298 -0.0919
vn -0.2074 -0.9764 -0.0597
vn -0.4078 -0.9068 -0.1067
vn 0.2119 -0.9750 0.0675
vn 0.2166 -0.9737 0.0715
vn 0.2123 -0.9750 0.0658
vn 0.2762 -0.9570 0.0883
vn 0.2696 -0.9591 0.0864
vn 0.3787 -0.9181 0.1170
vn 0.3661 -0.9236 0.1135
vn 0.5523 -0.8171 0.1654
vn 0.5251 -0.8363 0.1578
vn 0.7807 -0.5818 0.2279
vn 0.8292 -0.5044 0.2409
vn 0.9619 0.0083 0.2734
vn 0.9526 0.1414 0.2694
vn 0.7640 0.6098 0.2110
vn 0.7299 0.6534 0.2008
vn 0.5077 0.8508 0.1357
vn 0.4954 0.8586 0.1321
vn 0.3565 0.9298 0.0919
vn 0.3525 0.9314 0.0907
vn 0.2996 0.9511 0.0755
vn 0.2998 0.9510 0.0755
vn -0.1617 -0.9857 -0.0482
vn -0.4079 -0.9068 -0.1067
vn 0.0968 -0.9950 0.0227
vn 0.1247 -0.9917 0.0307
vn 0.0962 -0.9951 0.0225
vn 0.1253 -0.9916 0.0309
vn 0.1807 -0.9823 0.0500
vn 0.1601 -0.9863 0.0408
vn 0.1824 -0.9819 0.0513
vn -0.1751 -0.9830 -0.0550
vn -0.1251 -0.9913 -0.0408
vn -0.1237 -0.9915 -0.0404
vn -0.0959 -0.9949 -0.0324
vn -0.0947 -0.9950 -0.0321
vn -0.0709 -0.9972 -0.0253
vn -0.0700 -0.9972 -0.0250
vn -0.0488 -0.9986 -0.0190
vn -0.0479 -0.9987 -0.0187
vn -0.0283 -0.9995 -0.0131
vn -0.0276 -0.9995 -0.0129
vn -0.0089 -0.9999 -0.0076
vn -0.0082 -0.9999 -0.0074
vn 0.0102 -0.9999 -0.0021
vn 0.0109 -0.9999 -0.0019
vn 0.0295 -0.9996 0.0034
vn 0.0302 -0.9995 0.0036
vn 0.0498 -0.9987 0.0092
vn 0.0504 -0.9987 0.0094
vn 0.0717 -0.9973 0.0155
vn 0.0723 -0.9973 0.0157
vn 0.2639 0.9623 0.0652
vn -0.9522 -0.1433 -0.2696
vn -0.7637 -0.6100 -0.2111
vn -0.7291 -0.6543 -0.2008
vn -0.9618 -0.0086 -0.2737
vn -0.5075 -0.8509 -0.1357
vn -0.4949 -0.8589 -0.1320
vn 0.2654 0.9619 0.0656
vn 0.2114 0.9762 0.0480
vn 0.2042 0.9778 0.0480
vn 0.1806 0.9828 0.0381
vn 0.2015 0.9787 0.0397
vn -0.1623 0.9849 -0.0609
vn -0.2193 0.9730 -0.0724
vn -0.2121 0.9745 -0.0725
vn -0.2095 0.9753 -0.0697
vn -0.2054 0.9763 -0.0686
vn -0.2764 0.9570 -0.0886
vn -0.2696 0.9591 -0.0867
vn -0.3789 0.9180 -0.1173
vn -0.3661 0.9236 -0.1138
vn -0.5527 0.8167 -0.1658
vn -0.5253 0.8361 -0.1581
vn -0.7808 0.5816 -0.2283
vn -0.8298 0.5032 -0.2415
vn 0.1620 0.9864 0.0277
vn 0.1779 0.9836 0.0299
vn 0.1277 0.9917 0.0155
vn 0.1281 0.9916 0.0157
vn 0.0998 0.9950 0.0076
vn 0.0999 0.9950 0.0076
vn 0.0757 0.9971 0.0007
vn 0.0756 0.9971 0.0007
vn 0.0540 0.9985 -0.0054
vn 0.0537 0.9985 -0.0055
vn 0.0338 0.9994 -0.0112
vn 0.0334 0.9994 -0.0113
vn 0.0144 0.9998 -0.0167
vn 0.0138 0.9998 -0.0169
vn -0.0048 0.9997 -0.0221
vn -0.0056 0.9997 -0.0223
vn -0.0245 0.9993 -0.0277
vn -0.0254 0.9993 -0.0279
vn -0.0453 0.9984 -0.0335
vn -0.0464 0.9983 -0.0339
vn -0.0678 0.9969 -0.0399
vn -0.0694 0.9968 -0.0403
vn -0.0934 0.9945 -0.0471
vn -0.0954 0.9943 -0.0476
vn -0.1233 0.9908 -0.0555
vn -0.1302 0.9899 -0.0553
vn -0.2113 0.2933 0.9324
vn -0.2132 0.2645 0.9405
vn -0.2135 0.2610 0.9414
vn -0.2113 0.2932 0.9324
vn -0.2113 0.2934 0.9323
vn -0.2113 0.2964 0.9314
vn -0.2113 0.2938 0.9322
vn -0.2113 0.2936 0.9323
vn -0.2114 0.2931 0.9324
vn -0.2199 -0.1497 0.9640
vn -0.2196 -0.1496 0.9640
vn -0.2203 -0.1496 0.9639
vn -0.2198 -0.1496 0.9640
vn -0.2199 -0.1499 0.9639
vn -0.2198 -0.1495 0.9640
vn -0.2198 -0.1500 0.9640
vn -0.2198 -0.1497 0.9640
vn -0.2198 -0.1494 0.9640
vn -0.2113 0.2972 0.9312
vn -0.2113 0.2971 0.9312
vn -0.2113 0.2972 0.9311
vn -0.2114 0.2971 0.9312
vn -0.2113 0.2970 0.9312
vn -0.2099 0.3160 0.9253
vn -0.2099 0.3134 0.9261
vn -0.1865 0.5301 0.8271
vn -0.1866 0.5301 0.8272
vn -0.1866 0.5300 0.8272
vn -0.1865 0.5302 0.8271
vn -0.1865 0.5301 0.8272
vn -0.1866 0.5302 0.8271
vn -0.1866 0.5299 0.8273
vn -0.1867 0.5301 0.8271
vn -0.1869 0.5304 0.8269
vn 0.2654 -0.9619 -0.0656
vn 0.2641 -0.9623 -0.0653
vn 0.2046 -0.9777 -0.0482
vn 0.2188 -0.9742 -0.0556
vn 0.1823 -0.9822 -0.0462
vn 0.3565 -0.9298 -0.0919
vn 0.3525 -0.9314 -0.0907
vn 0.2074 -0.9764 -0.0597
vn 0.4079 -0.9068 -0.1067
vn -0.2123 -0.9750 0.0658
vn -0.2166 -0.9736 0.0715
vn -0.2119 -0.9750 0.0675
vn -0.2762 -0.9570 0.0883
vn -0.2696 -0.9591 0.0864
vn -0.3787 -0.9181 0.1170
vn -0.3661 -0.9236 0.1135
vn -0.5523 -0.8171 0.1654
vn -0.5251 -0.8363 0.1578
vn -0.8292 -0.5044 0.2409
vn -0.7807 -0.5819 0.2279
vn -0.9526 0.1414 0.2693
vn -0.9619 0.0083 0.2733
vn -0.7299 0.6533 0.2008
vn -0.7640 0.6098 0.2110
vn -0.4954 0.8586 0.1321
vn -0.5077 0.8508 0.1357
vn -0.3525 0.9314 0.0907
vn -0.3565 0.9298 0.0919
vn -0.2998 0.9510 0.0755
vn -0.2996 0.9511 0.0755
vn 0.1617 -0.9857 -0.0482
vn -0.1253 -0.9916 0.0309
vn -0.0968 -0.9950 0.0227
vn -0.1247 -0.9917 0.0307
vn -0.0962 -0.9951 0.0225
vn -0.1601 -0.9863 0.0408
vn -0.1807 -0.9823 0.0500
vn -0.1824 -0.9819 0.0513
vn 0.1751 -0.9830 -0.0550
vn 0.1237 -0.9915 -0.0404
vn 0.1251 -0.9913 -0.0408
vn 0.0947 -0.9950 -0.0321
vn 0.0959 -0.9949 -0.0324
vn 0.0700 -0.9972 -0.0250
vn 0.0709 -0.9972 -0.0253
vn 0.0479 -0.9987 -0.0187
vn 0.0488 -0.9986 -0.0190
vn 0.0276 -0.9995 -0.0129
vn 0.0283 -0.9995 -0.0131
vn 0.0082 -0.9999 -0.0074
vn 0.0089 -0.9999 -0.0076
vn -0.0109 -0.9999 -0.0019
vn -0.0102 -0.9999 -0.0021
vn -0.0302 -0.9995 0.0036
vn -0.0295 -0.9996 0.0034
vn -0.0504 -0.9987 0.0094
vn -0.0498 -0.9987 0.0092
vn -0.0723 -0.9973 0.0157
vn -0.0717 -0.9973 0.0155
vn -0.2639 0.9623 0.0652
vn 0.9618 -0.0086 -0.2737
vn 0.9522 -0.1433 -0.2696
vn 0.7637 -0.6101 -0.2111
vn 0.7291 -0.6543 -0.2008
vn 0.5076 -0.8509 -0.1357
vn 0.4949 -0.8589 -0.1320
vn -0.2654 0.9619 0.0656
vn -0.2042 0.9777 0.0480
vn -0.2114 0.9762 0.0480
vn -0.2015 0.9787 0.0397
vn -0.1806 0.9828 0.0381
vn 0.2122 0.9745 -0.0725
vn 0.2194 0.9730 -0.0724
vn 0.1623 0.9849 -0.0609
vn 0.2054 0.9763 -0.0686
vn 0.2095 0.9753 -0.0697
vn 0.2696 0.9591 -0.0867
vn 0.2764 0.9570 -0.0886
vn 0.3662 0.9236 -0.1138
vn 0.3789 0.9180 -0.1173
vn 0.5253 0.8361 -0.1581
vn 0.5527 0.8167 -0.1658
vn 0.7808 0.5816 -0.2283
vn 0.8297 0.5032 -0.2415
vn -0.1620 0.9864 0.0277
vn -0.1779 0.9836 0.0299
vn -0.1277 0.9917 0.0155
vn -0.1281 0.9916 0.0157
vn -0.0998 0.9950 0.0076
vn -0.0999 0.9950 0.0076
vn -0.0757 0.9971 0.0007
vn -0.0756 0.9971 0.0007
vn -0.0540 0.9985 -0.0054
vn -0.0537 0.9985 -0.0055
vn -0.0338 0.9994 -0.0112
vn -0.0334 0.9994 -0.0113
vn -0.0144 0.9998 -0.0167
vn -0.0138 0.9998 -0.0169
vn 0.0048 0.9997 -0.0221
vn 0.0056 0.9997 -0.0223
vn 0.0245 0.9993 -0.0277
vn 0.0254 0.9993 -0.0279
vn 0.0453 0.9984 -0.0335
vn 0.0464 0.9983 -0.0339
vn 0.0678 0.9969 -0.0399
vn 0.0694 0.9968 -0.0403
vn 0.0934 0.9945 -0.0471
vn 0.0954 0.9943 -0.0476
vn 0.1233 0.9908 -0.0554
vn 0.1302 0.9899 -0.0553
vn 0.2115 0.2931 0.9324
vn 0.2113 0.2934 0.9323
vn 0.2113 0.2938 0.9322
vn 0.2113 0.2933 0.9324
vn 0.2113 0.2965 0.9314
vn 0.2113 0.2932 0.9324
vn 0.2113 0.2934 0.9324
vn 0.2132 0.2645 0.9405
vn 0.2135 0.2611 0.9414
vn 0.2198 -0.1497 0.9640
vn 0.2198 -0.1498 0.9640
vn 0.2198 -0.1496 0.9640
vn 0.2199 -0.1500 0.9639
vn 0.2199 -0.1498 0.9640
vn 0.2197 -0.1499 0.9640
vn 0.2198 -0.1493 0.9640
vn 0.2200 -0.1494 0.9640
vn 0.2196 -0.1496 0.9640
vn 0.2200 -0.1496 0.9639
vn 0.2100 0.3126 0.9264
vn 0.2099 0.3159 0.9253
vn 0.2113 0.2972 0.9312
vn 0.2113 0.2970 0.9312
vn 0.2113 0.2972 0.9311
vn 0.2114 0.2969 0.9312
vn 0.2113 0.2971 0.9312
vn 0.1869 0.5304 0.8269
vn 0.1869 0.5300 0.8272
vn 0.1865 0.5301 0.8272
vn 0.1866 0.5302 0.8271
vn 0.1865 0.5302 0.8271
vn 0.1866 0.5301 0.8271
vn 0.1866 0.5301 0.8272
vn 0.1866 0.5300 0.8272
vn 0.1865 0.5303 0.8271
vn 0.1865 0.5301 0.8271
vt 0.793333 0.460000
vt 0.873333 0.460000
vt 0.833333 0.540000
s 1
f 1/1/1 2/2/2 3/3/3
f 2/1/2 1/2/1 4/3/4
f 2/1/2 5/2/5 3/3/3
f 6/1/6 4/2/4 1/3/1
f 4/1/4 6/2/6 7/3/7
f 5/1/5 8/2/8 3/3/3
f 7/1/7 6/2/6 9/3/9
f 10/1/10 11/2/11 12/3/12
f 11/1/11 13/2/13 14/3/14
f 13/1/13 11/2/11 10/3/10
f 14/1/14 15/2/15 16/3/16
f 15/1/15 14/2/14 13/3/13
f 16/1/16 17/2/17 18/3/18
f 17/1/17 16/2/16 15/3/15
f 17/1/17 19/2/19 18/3/18
f 19/1/19 17/2/17 20/3/20
f 20/1/20 21/2/21 19/3/19
f 21/1/21 20/2/20 22/3/22
f 22/1/22 23/2/23 21/3/21
f 23/1/23 22/2/22 24/3/24
f 24/1/24 25/2/25 23/3/23
f 25/1/25 24/2/24 26/3/26
f 26/1/26 27/2/27 25/3/25
f 27/1/27 26/2/26 28/3/28
f 29/1/29 30/2/30 27/3/27
f 5/1/5 31/2/31 8/3/8
f 32/1/32 7/2/7 9/3/9
f 33/1/33 34/2/34 35/3/35
f 34/1/34 33/2/33 36/3/36
f 36/1/36 37/2/37 34/3/34
f 37/1/37 36/2/36 38/3/38
f 39/1/39 12/2/12 37/3/37
f 31/1/31 40/2/40 8/3/8
f 31/1/31 41/2/41 40/3/40
f 41/1/41 31/2/31 42/3/42
f 42/1/42 43/2/43 41/3/41
f 43/1/43 42/2/42 44/3/44
f 44/1/44 45/2/45 43/3/43
f 45/1/45 44/2/44 46/3/46
f 46/1/46 47/2/47 45/3/45
f 47/1/47 46/2/46 48/3/48
f 48/1/48 49/2/49 47/3/47
f 49/1/49 48/2/48 50/3/50
f 50/1/50 51/2/51 49/3/49
f 51/1/51 50/2/50 52/3/52
f 52/1/52 53/2/53 51/3/51
f 53/1/53 52/2/52 54/3/54
f 54/1/54 55/2/55 53/3/53
f 55/1/55 54/2/54 56/3/56
f 56/1/56 57/2/57 55/3/55
f 57/1/57 56/2/56 58/3/58
f 58/1/58 59/2/59 57/3/57
f 59/1/59 58/2/58 60/3/60
f 60/1/60 35/2/35 59/3/59
f 35/1/35 60/2/60 33/3/33
f 39/1/39 10/2/10 12/3/12
f 29/1/29 27/2/27 28/3/28
f 61/1/61 30/2/30 29/3/29
f 62/1/62 63/2/63 64/3/64
f 63/1/63 62/2/62 65/3/65
f 64/1/64 66/2/66 67/3/67
f 66/1/66 64/2/64 63/3/63
f 32/1/32 9/2/9 67/3/67
f 61/1/61 68/2/68 30/3/30
f 61/1/61 69/2/69 68/3/68
f 69/1/69 61/2/61 70/3/70
f 71/1/71 72/2/72 69/3/69
f 73/1/73 74/2/74 75/3/75
f 73/1/73 76/2/76 74/3/74
f 76/1/76 73/2/73 77/3/77
f 77/1/77 78/2/78 76/3/76
f 78/1/78 77/2/77 79/3/79
f 79/1/79 80/2/80 78/3/78
f 80/1/80 79/2/79 81/3/81
f 81/1/81 82/2/82 80/3/80
f 82/1/82 81/2/81 83/3/83
f 82/1/82 84/2/84 85/3/85
f 84/1/84 82/2/82 83/3/83
f 85/1/85 65/2/65 62/3/62
f 65/1/65 85/2/85 84/3/84
f 38/1/38 39/2/39 37/3/37
f 66/1/66 32/2/32 67/3/67
f 71/1/71 69/2/69 70/3/70
f 86/1/86 72/2/72 71/3/71
f 86/1/86 87/2/87 72/3/72
f 87/1/87 88/2/88 89/3/89
f 88/1/88 87/2/87 86/3/86
f 89/1/89 90/2/90 91/3/91
f 90/1/90 89/2/89 88/3/88
f 91/1/91 92/2/92 93/3/93
f 92/1/92 91/2/91 90/3/90
f 93/1/93 94/2/94 95/3/95
f 94/1/94 93/2/93 92/3/92
f 95/1/95 96/2/96 97/3/97
f 96/1/96 95/2/95 94/3/94
f 97/1/97 98/2/98 99/3/99
f 98/1/98 97/2/97 96/3/96
f 99/1/99 100/2/100 101/3/101
f 100/1/100 99/2/99 98/3/98
f 101/1/101 102/2/102 103/3/103
f 102/1/102 101/2/101 100/3/100
f 103/1/103 104/2/104 105/3/105
f 104/1/104 103/2/103 102/3/102
f 105/1/105 106/2/106 107/3/107
f 106/1/106 105/2/105 104/3/104
f 107/1/107 108/2/108 109/3/109
f 108/1/108 107/2/107 106/3/106
f 109/1/109 110/2/110 111/3/111
f 110/1/110 109/2/109 108/3/108
f 111/1/111 73/2/73 75/3/75
f 110/1/110 73/2/73 111/3/111
f 112/1/112 113/2/113 114/3/114
f 113/1/113 112/2/112 115/3/115
f 115/1/115 112/2/112 116/3/112
f 115/1/115 116/2/112 117/3/112
f 117/1/112 116/2/112 118/3/112
f 117/1/112 118/2/112 119/3/116
f 119/1/116 118/2/112 120/3/112
f 119/1/116 120/2/112 121/3/117
f 121/1/117 120/2/112 122/3/118
f 122/1/118 120/2/112 123/3/112
f 122/1/118 123/2/112 124/3/112
f 122/1/118 124/2/112 125/3/112
f 122/1/118 125/2/112 126/3/119
f 122/1/118 126/2/119 127/3/120
f 128/1/121 129/2/122 130/3/123
f 129/1/122 128/2/121 131/3/124
f 131/1/124 128/2/121 132/3/125
f 131/1/124 132/2/125 133/3/126
f 133/1/126 132/2/125 134/3/127
f 133/1/126 134/2/127 135/3/121
f 135/1/121 134/2/127 136/3/128
f 135/1/121 136/2/128 137/3/128
f 137/1/128 136/2/128 138/3/125
f 137/1/128 138/2/125 139/3/128
f 139/1/128 138/2/125 140/3/129
f 139/1/128 140/2/129 141/3/128
f 141/1/128 140/2/129 114/3/114
f 141/1/128 114/2/114 113/3/113
f 122/1/118 142/2/130 121/3/117
f 142/1/130 122/2/118 143/3/131
f 143/1/131 122/2/118 144/3/131
f 144/1/131 122/2/118 145/3/132
f 145/1/132 122/2/118 146/3/131
f 146/1/131 122/2/118 147/3/131
f 147/1/131 122/2/118 148/3/130
f 148/1/130 122/2/118 149/3/133
f 148/1/130 149/2/133 150/3/131
f 148/1/130 150/2/131 151/3/134
f 151/1/134 150/2/131 152/3/135
f 151/1/134 152/2/135 153/3/130
f 153/1/130 152/2/135 154/3/136
f 155/1/137 154/2/136 152/3/135
f 154/1/136 155/2/137 156/3/138
f 154/1/136 156/2/138 157/3/139
f 157/1/139 156/2/138 158/3/140
f 157/1/139 158/2/140 159/3/139
f 159/1/139 158/2/140 160/3/141
f 159/1/139 160/2/141 161/3/138
f 161/1/138 160/2/141 162/3/142
f 161/1/138 162/2/142 163/3/140
f 163/1/140 162/2/142 164/3/143
f 163/1/140 164/2/143 165/3/141
f 165/1/141 164/2/143 166/3/144
f 165/1/141 166/2/144 167/3/145
f 168/1/146 169/2/147 170/3/148
f 171/1/149 170/2/148 169/3/147
f 171/1/149 172/2/150 170/3/148
f 173/1/151 174/2/152 168/3/146
f 169/1/147 168/2/146 174/3/152
f 171/1/149 175/2/153 172/3/150
f 176/1/154 174/2/152 173/3/151
f 177/1/155 178/2/156 179/3/157
f 179/1/157 178/2/156 180/3/158
f 181/1/159 180/2/158 178/3/156
f 180/1/158 181/2/159 182/3/160
f 183/1/161 182/2/160 181/3/159
f 182/1/160 183/2/161 184/3/162
f 185/1/163 184/2/162 183/3/161
f 186/1/164 184/2/162 187/3/165
f 185/1/163 187/2/165 184/3/162
f 188/1/166 186/2/164 189/3/167
f 187/1/165 189/2/167 186/3/164
f 190/1/168 188/2/166 191/3/169
f 189/1/167 191/2/169 188/3/166
f 192/1/170 190/2/168 193/3/171
f 191/1/169 193/2/171 190/3/168
f 194/1/172 192/2/170 195/3/173
f 193/1/171 195/2/173 192/3/170
f 195/1/173 196/2/174 197/3/175
f 175/1/153 198/2/176 172/3/150
f 176/1/154 173/2/151 199/3/154
f 200/1/177 201/2/178 202/3/179
f 203/1/180 202/2/179 201/3/178
f 204/1/181 200/2/177 205/3/182
f 202/1/179 205/2/182 200/3/177
f 205/1/182 177/2/155 206/3/183
f 175/1/153 207/2/184 198/3/176
f 208/1/185 198/2/176 209/3/186
f 207/1/184 209/2/186 198/3/176
f 210/1/187 208/2/185 211/3/188
f 209/1/186 211/2/188 208/3/185
f 212/1/189 210/2/187 213/3/190
f 211/1/188 213/2/190 210/3/187
f 214/1/191 212/2/189 215/3/192
f 213/1/190 215/2/192 212/3/189
f 216/1/193 214/2/191 217/3/194
f 215/1/192 217/2/194 214/3/191
f 218/1/195 216/2/193 219/3/196
f 217/1/194 219/2/196 216/3/193
f 220/1/197 218/2/195 221/3/198
f 219/1/196 221/2/198 218/3/195
f 222/1/199 220/2/197 223/3/200
f 221/1/198 223/2/200 220/3/197
f 224/1/201 222/2/199 225/3/202
f 223/1/200 225/2/202 222/3/199
f 226/1/203 224/2/201 227/3/204
f 225/1/202 227/2/204 224/3/201
f 201/1/178 226/2/203 203/3/180
f 227/1/204 203/2/180 226/3/203
f 177/1/155 179/2/157 206/3/183
f 194/1/172 195/2/173 197/3/175
f 197/1/175 196/2/174 228/3/205
f 229/1/206 230/2/207 231/3/208
f 232/1/209 231/2/208 230/3/207
f 231/1/208 232/2/209 233/3/210
f 234/1/211 233/2/210 232/3/209
f 234/1/211 176/2/154 199/3/154
f 196/1/174 235/2/212 228/3/205
f 236/1/213 228/2/205 237/3/214
f 235/1/212 237/2/214 228/3/205
f 237/1/214 238/2/215 239/3/216
f 240/1/217 241/2/218 242/3/219
f 243/1/220 242/2/219 244/3/221
f 241/1/218 244/2/221 242/3/219
f 245/1/222 243/2/220 246/3/223
f 244/1/221 246/2/223 243/3/220
f 247/1/224 245/2/222 248/3/225
f 246/1/223 248/2/225 245/3/222
f 249/1/226 247/2/224 250/3/227
f 248/1/225 250/2/227 247/3/224
f 249/1/226 250/2/227 251/3/228
f 252/1/229 251/2/228 250/3/227
f 251/1/228 252/2/229 229/3/206
f 230/1/207 229/2/206 252/3/229
f 205/1/182 206/2/183 204/3/181
f 234/1/211 199/2/154 233/3/210
f 236/1/213 237/2/214 239/3/216
f 239/1/216 238/2/215 253/3/230
f 238/1/215 254/2/231 253/3/230
f 253/1/230 254/2/231 255/3/232
f 256/1/233 255/2/232 254/3/231
f 255/1/232 256/2/233 257/3/234
f 258/1/235 257/2/234 256/3/233
f 257/1/234 258/2/235 259/3/236
f 260/1/237 259/2/236 258/3/235
f 259/1/236 260/2/237 261/3/238
f 262/1/239 261/2/238 260/3/237
f 261/1/238 262/2/239 263/3/240
f 264/1/241 263/2/240 262/3/239
f 263/1/240 264/2/241 265/3/242
f 266/1/243 265/2/242 264/3/241
f 265/1/242 266/2/243 267/3/244
f 268/1/245 267/2/244 266/3/243
f 267/1/244 268/2/245 269/3/246
f 270/1/247 269/2/246 268/3/245
f 269/1/246 270/2/247 271/3/248
f 272/1/249 271/2/248 270/3/247
f 271/1/248 272/2/249 273/3/250
f 274/1/251 273/2/250 272/3/249
f 273/1/250 274/2/251 275/3/252
f 276/1/253 275/2/252 274/3/251
f 275/1/252 276/2/253 277/3/254
f 278/1/255 277/2/254 276/3/253
f 240/1/217 242/2/219 278/3/255
f 278/1/255 242/2/219 277/3/254
f 279/1/256 280/2/257 281/3/258
f 280/1/257 282/2/259 281/3/258
f 282/1/259 283/2/259 281/3/258
f 283/1/259 284/2/259 281/3/258
f 284/1/259 285/2/259 281/3/258
f 281/1/258 285/2/259 286/3/260
f 286/1/260 285/2/259 287/3/261
f 285/1/259 288/2/259 287/3/261
f 287/1/261 288/2/259 289/3/257
f 288/1/259 290/2/259 289/3/257
f 289/1/257 290/2/259 291/3/261
f 290/1/259 292/2/262 291/3/261
f 291/1/261 292/2/262 293/3/263
f 294/1/264 293/2/263 292/3/262
f 293/1/263 294/2/264 295/3/265
f 294/1/264 296/2/266 295/3/265
f 295/1/265 296/2/266 297/3/267
f 296/1/266 298/2/268 297/3/267
f 297/1/267 298/2/268 299/3/265
f 298/1/268 300/2/265 299/3/265
f 299/1/265 300/2/265 301/3/269
f 300/1/265 302/2/270 301/3/269
f 301/1/269 302/2/270 303/3/271
f 302/1/270 304/2/268 303/3/271
f 303/1/271 304/2/268 305/3/267
f 304/1/268 306/2/272 305/3/267
f 305/1/267 306/2/272 307/3/273
f 308/1/274 307/2/273 306/3/272
f 309/1/275 310/2/276 311/3/277
f 311/1/277 310/2/276 312/3/278
f 310/1/276 313/2/279 312/3/278
f 312/1/278 313/2/279 314/3/277
f 313/1/279 315/2/280 314/3/277
f 315/1/280 281/2/258 314/3/277
f 314/1/277 281/2/258 316/3/279
f 316/1/279 281/2/258 317/3/281
f 317/1/281 281/2/258 318/3/281
f 318/1/281 281/2/258 319/3/281
f 319/1/281 281/2/258 320/3/281
f 320/1/281 281/2/258 321/3/281
f 286/1/260 321/2/281 281/3/258
f 322/1/282 323/2/283 324/3/284
f 323/1/283 325/2/285 324/3/284
f 324/1/284 325/2/285 326/3/286
f 325/1/285 327/2/287 326/3/286
f 326/1/286 327/2/287 328/3/288
f 327/1/287 329/2/286 328/3/288
f 328/1/288 329/2/286 330/3/289
f 329/1/286 331/2/290 330/3/289
f 330/1/289 331/2/290 332/3/289
f 331/1/290 333/2/287 332/3/289
f 332/1/289 333/2/287 309/3/275
f 333/1/287 334/2/291 309/3/275
f 310/1/276 309/2/275 334/3/291
