# Blender 5.2.0 LTS
# www.blender.org
o SignCap
v 0.002216 0.132896 -0.054422
v 0.002216 0.107877 -0.100413
v -0.012197 0.108636 -0.098802
v 0.016629 0.108636 -0.098802
v 0.002216 0.077939 -0.142730
v -0.026272 0.079441 -0.139546
v -0.025627 0.110863 -0.094080
v 0.030061 0.110863 -0.094080
v 0.030705 0.079441 -0.139546
v -0.052820 0.083843 -0.130211
v 0.002216 0.043567 -0.180391
v -0.039707 0.045776 -0.175705
v -0.037161 0.114406 -0.086566
v 0.041594 0.114406 -0.086566
v 0.057253 0.083843 -0.130211
v 0.044141 0.045776 -0.175705
v -0.078775 0.052255 -0.161967
v -0.075616 0.090845 -0.115361
v -0.052217 0.008125 -0.206396
v 0.002216 0.005257 -0.212480
v -0.046012 0.119023 -0.076774
v 0.050444 0.119023 -0.076774
v 0.080049 0.090845 -0.115361
v 0.083208 0.052255 -0.161967
v 0.056650 0.008125 -0.206396
v -0.102941 0.016536 -0.188560
v -0.112322 0.062560 -0.140114
v -0.093108 0.099971 -0.096008
v -0.063556 -0.033023 -0.230907
v 0.002216 -0.036490 -0.238258
v -0.051574 0.124400 -0.065373
v 0.056008 0.124400 -0.065373
v 0.097541 0.099971 -0.096008
v 0.116756 0.062560 -0.140114
v 0.107374 0.016536 -0.188560
v 0.067989 -0.033023 -0.230907
v -0.124847 -0.022861 -0.209355
v -0.146499 0.029915 -0.160185
v -0.138065 0.075989 -0.111634
v -0.104104 0.110598 -0.073471
v -0.073542 -0.077143 -0.248777
v 0.002216 -0.081136 -0.257245
v -0.053472 0.130169 -0.053137
v 0.057905 0.130169 -0.053137
v 0.108537 0.110598 -0.073471
v 0.142498 0.075989 -0.111634
v 0.150931 0.029915 -0.160185
v 0.129279 -0.022861 -0.209355
v 0.077976 -0.077143 -0.248777
v -0.144139 -0.065438 -0.223953
v -0.177478 -0.006694 -0.175069
v -0.179922 0.047353 -0.123207
v -0.154247 0.091628 -0.078468
v -0.107856 0.122002 -0.049286
v -0.082076 -0.123659 -0.259891
v 0.002216 -0.128102 -0.269313
v -0.051574 0.135939 -0.040901
v 0.056008 0.135939 -0.040901
v 0.112288 0.122002 -0.049286
v 0.158680 0.091628 -0.078468
v 0.184355 0.047353 -0.123207
v 0.181911 -0.006694 -0.175069
v 0.148571 -0.065438 -0.223953
v 0.086509 -0.123659 -0.259891
v -0.160624 -0.110635 -0.232270
v -0.204761 -0.046816 -0.184462
v -0.217864 0.014376 -0.130388
v -0.200933 0.067658 -0.080146
v -0.159767 0.108411 -0.042876
v -0.104104 0.133407 -0.025101
v -0.089273 -0.171859 -0.265037
v 0.002216 -0.176681 -0.275263
v -0.046012 0.141316 -0.029499
v 0.050444 0.141316 -0.029499
v 0.108537 0.133407 -0.025101
v 0.164199 0.108411 -0.042876
v 0.205365 0.067658 -0.080146
v 0.222296 0.014376 -0.130388
v 0.209194 -0.046816 -0.184462
v 0.165057 -0.110635 -0.232270
v 0.093707 -0.171859 -0.265037
v -0.228075 -0.089916 -0.188332
v -0.174529 -0.157723 -0.235058
v -0.251279 -0.022548 -0.132998
v -0.243251 0.038910 -0.078357
v -0.208099 0.089448 -0.033935
v -0.154247 0.125194 -0.007286
v -0.093108 0.144034 -0.002563
v -0.095340 -0.221303 -0.265218
v 0.002216 -0.226444 -0.276121
v -0.037161 0.145933 -0.019708
v 0.041594 0.145933 -0.019708
v 0.097541 0.144034 -0.002563
v 0.158680 0.125194 -0.007286
v 0.212532 0.089448 -0.033935
v 0.247683 0.038910 -0.078357
v 0.255711 -0.022548 -0.132998
v 0.232508 -0.089916 -0.188332
v 0.178962 -0.157723 -0.235058
v 0.099774 -0.221303 -0.265218
v -0.247739 -0.135234 -0.187367
v -0.279832 -0.062914 -0.131070
v -0.186249 -0.206229 -0.233251
v -0.280520 0.005713 -0.073065
v -0.251910 0.065241 -0.022520
v -0.200933 0.111238 0.012276
v -0.138065 0.140833 0.025880
v -0.075616 0.153159 0.016789
v -0.100364 -0.271718 -0.260901
v 0.002216 -0.277124 -0.272365
v -0.025627 0.149476 -0.012194
v 0.030061 0.149476 -0.012194
v 0.080049 0.153159 0.016789
v 0.142498 0.140833 0.025880
v 0.205365 0.111238 0.012276
v 0.256342 0.065241 -0.022520
v 0.284953 0.005713 -0.073065
v 0.284265 -0.062914 -0.131070
v 0.252172 -0.135234 -0.187367
v 0.190681 -0.206229 -0.233251
v 0.104797 -0.271718 -0.260901
v -0.264314 -0.182250 -0.182398
v -0.303916 -0.105928 -0.125217
v -0.312368 -0.031471 -0.064387
v -0.195955 -0.255868 -0.227287
v -0.290494 0.036040 -0.008750
v -0.243251 0.091570 0.033317
v -0.179922 0.131544 0.055337
v -0.112322 0.154263 0.054360
v -0.052820 0.160162 0.031639
v -0.104406 -0.322604 -0.252558
v 0.002216 -0.328223 -0.264475
v -0.012197 0.151703 -0.007472
v 0.016629 0.151703 -0.007472
v 0.057253 0.160162 0.031639
v 0.116756 0.154263 0.054360
v 0.184355 0.131544 0.055337
v 0.247683 0.091570 0.033317
v 0.294927 0.036040 -0.008750
v 0.316800 -0.031471 -0.064387
v 0.308348 -0.105928 -0.125217
v 0.268747 -0.182250 -0.182398
v 0.200387 -0.255868 -0.227287
v 0.108838 -0.322604 -0.252558
v -0.278039 -0.230653 -0.173815
v -0.324216 -0.150999 -0.116125
v -0.339230 -0.071799 -0.052839
v -0.323466 0.002272 0.007172
v -0.203762 -0.306129 -0.217620
v -0.280520 0.066367 0.055564
v -0.217864 0.116105 0.085349
v -0.146499 0.148981 0.092316
v -0.078775 0.164568 0.076213
v -0.026272 0.164564 0.040974
v -0.111720 -0.377727 -0.254891
v 0.002216 -0.383732 -0.267624
v 0.002216 0.152462 -0.005861
v 0.030705 0.164564 0.040974
v 0.083208 0.164568 0.076213
v 0.150931 0.148981 0.092316
v 0.222296 0.116105 0.085349
v 0.284953 0.066367 0.055564
v 0.327898 0.002272 0.007172
v 0.343662 -0.071799 -0.052839
v 0.328648 -0.150999 -0.116125
v 0.282471 -0.230653 -0.173815
v 0.208195 -0.306129 -0.217620
v 0.116153 -0.377727 -0.254891
v -0.289081 -0.279922 -0.162042
v -0.341025 -0.197794 -0.104130
v -0.361871 -0.114608 -0.038950
v -0.351275 -0.035174 0.024830
v -0.312368 0.036016 0.078731
v -0.217892 -0.360122 -0.217556
v -0.251279 0.094628 0.115496
v -0.177478 0.137174 0.130030
v -0.102941 0.162361 0.120689
v -0.039707 0.171045 0.089952
v 0.002216 0.166065 0.044159
v -0.123606 -0.442968 -0.270160
v 0.002216 -0.449600 -0.284223
v 0.044141 0.171045 0.089952
v 0.107374 0.162361 0.120689
v 0.181911 0.137174 0.130030
v 0.255711 0.094628 0.115496
v 0.316800 0.036016 0.078731
v 0.355707 -0.035174 0.024830
v 0.366304 -0.114608 -0.038950
v 0.345457 -0.197794 -0.104130
v 0.293513 -0.279922 -0.162042
v 0.222324 -0.360122 -0.217556
v 0.128038 -0.442968 -0.270160
v -0.354549 -0.245768 -0.089611
v -0.309064 -0.332116 -0.158166
v -0.380620 -0.159528 -0.022980
v -0.374715 -0.075554 0.043870
v -0.339230 0.001450 0.102499
v -0.279832 0.067460 0.145413
v -0.240855 -0.423526 -0.228930
v -0.204761 0.118896 0.166961
v -0.124847 0.153341 0.164314
v -0.052217 0.170771 0.138526
v 0.002216 0.173255 0.094637
v 0.056650 0.170771 0.138526
v 0.129279 0.153341 0.164314
v 0.209194 0.118896 0.166961
v 0.284265 0.067460 0.145413
v 0.343662 0.001450 0.102499
v 0.379148 -0.075554 0.043870
v 0.385052 -0.159528 -0.022980
v 0.358982 -0.245768 -0.089611
v 0.313496 -0.332116 -0.158166
v 0.245287 -0.423526 -0.228930
v -0.379022 -0.295619 -0.080766
v -0.395704 -0.205994 -0.005264
v -0.341538 -0.392600 -0.163344
v -0.394125 -0.118464 0.064105
v -0.361871 -0.036501 0.126690
v -0.303916 0.035579 0.174876
v -0.228075 0.094462 0.202675
v -0.144139 0.137517 0.206450
v -0.063556 0.163503 0.185867
v 0.002216 0.173640 0.144609
v 0.067989 0.163503 0.185867
v 0.148571 0.137517 0.206450
v 0.232508 0.094462 0.202675
v 0.308348 0.035579 0.174876
v 0.366304 -0.036501 0.126690
v 0.398558 -0.118464 0.064105
v 0.400136 -0.205994 -0.005264
v 0.383454 -0.295619 -0.080766
v 0.345970 -0.392600 -0.163344
v -0.423000 -0.253117 0.009367
v -0.418795 -0.352295 -0.077870
v -0.409741 -0.163312 0.085253
v -0.380620 -0.077400 0.151188
v -0.324216 -0.000109 0.203866
v -0.247739 0.064886 0.237027
v -0.160624 0.115180 0.246614
v -0.073542 0.149223 0.231275
v 0.002216 0.166970 0.193218
v 0.077976 0.149223 0.231275
v 0.165057 0.115180 0.246614
v 0.252172 0.064886 0.237027
v 0.328648 -0.000109 0.203866
v 0.385052 -0.077400 0.151188
v 0.414173 -0.163312 0.085253
v 0.427432 -0.253117 0.009367
v 0.423227 -0.352295 -0.077870
v -0.438000 -0.207507 0.106092
v -0.467361 -0.305359 0.021667
v -0.395704 -0.120629 0.175767
v -0.341025 -0.039133 0.232339
v -0.264314 0.031142 0.270138
v -0.174529 0.087374 0.284717
v -0.082076 0.128205 0.274235
v 0.002216 0.153216 0.239742
v 0.086509 0.128205 0.274235
v 0.178962 0.087374 0.284717
v 0.268747 0.031142 0.270138
v 0.345457 -0.039133 0.232339
v 0.400136 -0.120629 0.175767
v 0.442433 -0.207507 0.106092
v 0.471794 -0.305359 0.021667
v -0.423000 -0.161898 0.202817
v -0.483926 -0.254991 0.128482
v -0.354549 -0.080856 0.260115
v -0.278039 -0.006274 0.302024
v -0.186249 0.055121 0.320991
v -0.089273 0.101510 0.314696
v 0.002216 0.132647 0.283656
v 0.093707 0.101510 0.314696
v 0.190681 0.055121 0.320991
v 0.282471 -0.006274 0.302024
v 0.358982 -0.080856 0.260115
v 0.427432 -0.161898 0.202817
v 0.488358 -0.254991 0.128482
v -0.467361 -0.204623 0.235298
v -0.379022 -0.119396 0.292950
v -0.289081 -0.046702 0.332546
v -0.195955 0.018940 0.355496
v -0.095340 0.070195 0.352959
v 0.002216 0.106332 0.324922
v 0.099774 0.070195 0.352959
v 0.200387 0.018940 0.355496
v 0.293513 -0.046702 0.332546
v 0.383454 -0.119396 0.292950
v 0.471794 -0.204623 0.235298
v -0.418795 -0.157687 0.334835
v -0.309064 -0.082898 0.370350
v -0.203762 -0.020494 0.388124
v -0.100364 0.034790 0.389109
v 0.002216 0.075336 0.363862
v 0.104797 0.034790 0.389109
v 0.208195 -0.020494 0.388124
v 0.313496 -0.082898 0.370350
v 0.423227 -0.157687 0.334835
v -0.341538 -0.117381 0.420309
v -0.217892 -0.054893 0.429741
v -0.104406 -0.004020 0.423062
v 0.002216 0.040197 0.400574
v 0.108838 -0.004020 0.423062
v 0.222324 -0.054893 0.429741
v 0.345970 -0.117381 0.420309
v -0.240855 -0.086455 0.485896
v -0.111720 -0.037288 0.467075
v 0.002216 0.001600 0.434978
v 0.116153 -0.037288 0.467075
v 0.245287 -0.086455 0.485896
v -0.123606 -0.067013 0.527125
v 0.002216 -0.031283 0.479809
v 0.128038 -0.067013 0.527125
v 0.002216 -0.060382 0.541188
v 0.002216 -0.449600 -0.284223
v -0.120243 -0.439460 -0.258788
v -0.123606 -0.442968 -0.270160
v 0.002216 -0.445914 -0.272474
v 0.128038 -0.442968 -0.270160
v 0.124675 -0.439460 -0.258788
v -0.234357 -0.420538 -0.218661
v -0.240855 -0.423526 -0.228930
v -0.113897 -0.431411 -0.238006
v 0.002216 -0.437530 -0.250983
v 0.238789 -0.420538 -0.218661
v 0.245287 -0.423526 -0.228930
v 0.118330 -0.431411 -0.238006
v -0.332349 -0.390438 -0.154827
v -0.341538 -0.392600 -0.163344
v -0.222097 -0.413470 -0.199959
v 0.336781 -0.390438 -0.154827
v 0.345970 -0.392600 -0.163344
v 0.226529 -0.413470 -0.199959
v -0.407540 -0.351211 -0.071638
v -0.418795 -0.352295 -0.077870
v -0.315010 -0.384930 -0.139433
v 0.411973 -0.351211 -0.071638
v 0.423227 -0.352295 -0.077870
v 0.319443 -0.384930 -0.139433
v -0.454808 -0.305530 0.025237
v -0.467361 -0.305359 0.021667
v -0.386306 -0.347735 -0.060555
v 0.459241 -0.305530 0.025237
v 0.471794 -0.305359 0.021667
v 0.390738 -0.347735 -0.060555
v -0.470930 -0.256507 0.129198
v -0.483926 -0.254991 0.128482
v -0.431124 -0.304422 0.031300
v 0.475362 -0.256507 0.129198
v 0.488358 -0.254991 0.128482
v 0.435556 -0.304422 0.031300
v -0.467361 -0.204623 0.235298
v -0.454808 -0.207486 0.233158
v -0.446410 -0.257940 0.129873
v 0.471794 -0.204623 0.235298
v 0.459241 -0.207486 0.233158
v 0.450842 -0.257940 0.129873
v -0.418795 -0.157687 0.334835
v -0.407540 -0.161804 0.330034
v -0.431124 -0.211458 0.228446
v 0.423227 -0.157687 0.334835
v 0.411973 -0.161804 0.330034
v 0.435556 -0.211458 0.228446
v -0.341538 -0.117381 0.420309
v -0.332349 -0.122577 0.413223
v -0.386306 -0.168144 0.320301
v 0.345970 -0.117381 0.420309
v 0.336781 -0.122577 0.413223
v 0.390738 -0.168144 0.320301
v -0.240855 -0.086455 0.485896
v -0.234357 -0.092477 0.477056
v -0.315010 -0.130950 0.399179
v 0.245287 -0.086455 0.485896
v 0.238789 -0.092477 0.477056
v 0.319443 -0.130950 0.399179
v -0.123606 -0.067013 0.527125
v -0.120243 -0.073556 0.517183
v -0.222097 -0.102410 0.459705
v 0.128038 -0.067013 0.527125
v 0.124675 -0.073556 0.517183
v 0.226529 -0.102410 0.459705
v 0.002216 -0.060382 0.541188
v 0.002216 -0.067102 0.530870
v -0.113897 -0.084469 0.497752
v 0.118330 -0.084469 0.497752
v 0.002216 -0.078349 0.510729
v 0.002216 -0.378029 -0.246081
v -0.113897 -0.431411 -0.238006
v 0.002216 -0.437530 -0.250983
v -0.105676 -0.372342 -0.234023
v 0.118330 -0.431411 -0.238006
v 0.110109 -0.372342 -0.234023
v -0.222097 -0.413470 -0.199959
v -0.206216 -0.355672 -0.198669
v 0.002216 -0.324660 -0.244930
v -0.099112 -0.319320 -0.233605
v 0.226529 -0.413470 -0.199959
v 0.210648 -0.355672 -0.198669
v 0.103545 -0.319320 -0.233605
v -0.315010 -0.384930 -0.139433
v -0.292551 -0.329152 -0.142428
v -0.193535 -0.303663 -0.200402
v 0.002216 -0.275222 -0.252710
v -0.095238 -0.270086 -0.241817
v 0.319443 -0.384930 -0.139433
v 0.296984 -0.329152 -0.142428
v 0.197968 -0.303663 -0.200402
v 0.099671 -0.270086 -0.241817
v -0.386306 -0.347735 -0.060555
v -0.358799 -0.294591 -0.069135
v -0.274618 -0.278757 -0.147583
v -0.186051 -0.255029 -0.209884
v 0.002216 -0.226550 -0.256440
v -0.090444 -0.221667 -0.246084
v 0.390738 -0.347735 -0.060555
v 0.363231 -0.294591 -0.069135
v 0.279051 -0.278757 -0.147583
v 0.190483 -0.255029 -0.209884
v 0.094877 -0.221667 -0.246084
v -0.400444 -0.254343 0.016217
v -0.431124 -0.304422 0.031300
v -0.336835 -0.246298 -0.078749
v -0.264034 -0.231075 -0.159085
v -0.176790 -0.207349 -0.215720
v 0.002216 -0.179198 -0.255686
v -0.084687 -0.174619 -0.245974
v 0.404877 -0.254343 0.016217
v 0.435556 -0.304422 0.031300
v 0.341268 -0.246298 -0.078749
v 0.268467 -0.231075 -0.159085
v 0.181222 -0.207349 -0.215720
v 0.089120 -0.174619 -0.245974
v -0.414648 -0.211153 0.107811
v -0.446410 -0.257940 0.129873
v -0.375947 -0.208500 0.001411
v -0.323873 -0.199857 -0.092881
v -0.250937 -0.184574 -0.167420
v -0.165668 -0.161191 -0.217497
v 0.002216 -0.133382 -0.250041
v -0.077891 -0.129160 -0.241087
v 0.419080 -0.211153 0.107811
v 0.450842 -0.257940 0.129873
v 0.380379 -0.208500 0.001411
v 0.328305 -0.199857 -0.092881
v 0.255369 -0.184574 -0.167420
v 0.170101 -0.161191 -0.217497
v 0.082324 -0.129160 -0.241087
v -0.400444 -0.167962 0.199405
v -0.431124 -0.211458 0.228446
v -0.389288 -0.167937 0.087433
v -0.361489 -0.163503 -0.015786
v -0.307831 -0.154892 -0.104474
v -0.235208 -0.139830 -0.172198
v -0.152539 -0.116782 -0.214838
v 0.002216 -0.089298 -0.238705
v -0.069879 -0.085498 -0.230646
v 0.404877 -0.167962 0.199405
v 0.435556 -0.211458 0.228446
v 0.393720 -0.167937 0.087433
v 0.365921 -0.163503 -0.015786
v 0.312264 -0.154892 -0.104474
v 0.239641 -0.139830 -0.172198
v 0.156971 -0.116782 -0.214838
v 0.074312 -0.085498 -0.230646
v -0.358799 -0.127715 0.284757
v -0.386306 -0.168144 0.320301
v -0.375947 -0.127373 0.173454
v -0.374319 -0.124491 0.066947
v -0.343597 -0.120327 -0.031171
v -0.288569 -0.111992 -0.113162
v -0.216640 -0.097092 -0.173082
v -0.137060 -0.074359 -0.207023
v 0.002216 -0.047389 -0.220864
v -0.060500 -0.044083 -0.213855
v 0.363231 -0.127715 0.284757
v 0.390738 -0.168144 0.320301
v 0.380379 -0.127373 0.173454
v 0.378751 -0.124491 0.066947
v 0.348030 -0.120327 -0.031171
v 0.293001 -0.111992 -0.113162
v 0.221072 -0.097092 -0.173082
v 0.141493 -0.074359 -0.207023
v 0.064933 -0.044083 -0.213855
v -0.315010 -0.130950 0.399179
v -0.292551 -0.093154 0.358051
v -0.336835 -0.089575 0.253614
v -0.361489 -0.085479 0.149679
v -0.355797 -0.083234 0.047492
v -0.322112 -0.079574 -0.044414
v -0.265827 -0.071432 -0.118664
v -0.194750 -0.056638 -0.169442
v -0.118942 -0.034393 -0.193303
v 0.002216 -0.008035 -0.196539
v -0.049805 -0.005294 -0.190725
v 0.319443 -0.130950 0.399179
v 0.296984 -0.093154 0.358051
v 0.341268 -0.089575 0.253614
v 0.365921 -0.085479 0.149679
v 0.360229 -0.083234 0.047492
v 0.326545 -0.079574 -0.044414
v 0.270259 -0.071432 -0.118664
v 0.199183 -0.056638 -0.169442
v 0.123375 -0.034393 -0.193303
v 0.054237 -0.005294 -0.190725
v -0.222097 -0.102410 0.459705
v -0.206216 -0.066634 0.414291
v -0.274618 -0.057116 0.322448
v -0.323873 -0.049125 0.226774
v -0.343597 -0.046140 0.126155
v -0.333553 -0.044786 0.029362
v -0.296747 -0.041549 -0.055292
v -0.239018 -0.033543 -0.120467
v -0.169127 -0.018978 -0.160612
v -0.098280 0.002744 -0.173678
v 0.002216 0.028301 -0.166075
v -0.037933 0.030418 -0.161588
v 0.226529 -0.102410 0.459705
v 0.210648 -0.066634 0.414291
v 0.279051 -0.057116 0.322448
v 0.328305 -0.049125 0.226774
v 0.348030 -0.046140 0.126155
v 0.337986 -0.044786 0.029362
v 0.301179 -0.041549 -0.055292
v 0.243450 -0.033543 -0.120467
v 0.173560 -0.018978 -0.160612
v 0.102713 0.002744 -0.173678
v 0.042366 0.030418 -0.161588
v -0.113897 -0.084469 0.497752
v -0.105676 -0.049963 0.449645
v -0.193535 -0.032210 0.375267
v -0.264034 -0.017907 0.292977
v -0.307831 -0.011575 0.199457
v -0.322112 -0.009997 0.103138
v -0.307294 -0.009481 0.012714
v -0.266845 -0.006650 -0.063434
v -0.207636 0.001113 -0.118008
v -0.139907 0.015531 -0.146562
v -0.075346 0.036621 -0.148432
v -0.025107 0.062537 -0.127061
v 0.002216 0.061097 -0.130115
v 0.118330 -0.084469 0.497752
v 0.110109 -0.049963 0.449645
v 0.197968 -0.032210 0.375267
v 0.268467 -0.017907 0.292977
v 0.312264 -0.011575 0.199457
v 0.326545 -0.009997 0.103138
v 0.311726 -0.009481 0.012714
v 0.271278 -0.006650 -0.063434
v 0.212068 0.001113 -0.118008
v 0.144339 0.015531 -0.146562
v 0.079779 0.036621 -0.148432
v 0.029540 0.062537 -0.127061
v 0.002216 -0.078349 0.510729
v 0.002216 -0.044277 0.461704
v -0.099112 -0.016553 0.408470
v -0.186051 0.006047 0.343776
v -0.250937 0.018107 0.262403
v -0.288569 0.022421 0.171885
v -0.296747 0.022587 0.080720
v -0.276336 0.022211 -0.002229
v -0.231844 0.024508 -0.068394
v -0.171849 0.032194 -0.111224
v -0.107473 0.046490 -0.127504
v -0.050567 0.066758 -0.118108
v -0.011612 0.090516 -0.087990
v 0.002216 0.089787 -0.089536
v 0.103545 -0.016553 0.408470
v 0.190483 0.006047 0.343776
v 0.255369 0.018107 0.262403
v 0.293001 0.022421 0.171885
v 0.301179 0.022587 0.080720
v 0.280769 0.022211 -0.002229
v 0.236276 0.024508 -0.068394
v 0.176281 0.032194 -0.111224
v 0.111906 0.046490 -0.127504
v 0.055001 0.066758 -0.118108
v 0.016045 0.090516 -0.087990
v 0.002216 -0.011213 0.419795
v -0.095238 0.021105 0.375710
v -0.176790 0.040883 0.310703
v -0.235208 0.050258 0.230921
v -0.265827 0.052469 0.144091
v -0.266845 0.051072 0.058975
v -0.240100 0.049613 -0.015151
v -0.191928 0.051600 -0.070070
v -0.132125 0.059350 -0.100230
v -0.072432 0.073475 -0.103865
v -0.024497 0.092652 -0.083459
v 0.002216 0.113784 -0.045411
v 0.099671 0.021105 0.375710
v 0.181222 0.040883 0.310703
v 0.239641 0.050258 0.230921
v 0.270259 0.052469 0.144091
v 0.271278 0.051072 0.058975
v 0.244533 0.049613 -0.015151
v 0.196361 0.051600 -0.070070
v 0.136558 0.059350 -0.100230
v 0.076865 0.073475 -0.103865
v 0.028930 0.092652 -0.083459
v 0.002216 0.026241 0.386602
v -0.090444 0.055200 0.341066
v -0.165668 0.071619 0.276221
v -0.216640 0.078130 0.198510
v -0.239018 0.077965 0.116008
v -0.231844 0.074720 0.038091
v -0.198777 0.072424 -0.025908
v -0.147622 0.074328 -0.068468
v -0.089208 0.082227 -0.085304
v -0.035562 0.096051 -0.076252
v 0.094877 0.055200 0.341066
v 0.170101 0.071619 0.276221
v 0.221072 0.078130 0.198510
v 0.243450 0.077965 0.116008
v 0.236276 0.074720 0.038091
v 0.203210 0.072424 -0.025908
v 0.152054 0.074328 -0.068468
v 0.093642 0.082227 -0.085304
v 0.039995 0.096051 -0.076252
v 0.002216 0.060084 0.351422
v -0.084687 0.085047 0.304697
v -0.152539 0.097820 0.240266
v -0.194750 0.101059 0.164983
v -0.207636 0.098115 0.087705
v -0.191928 0.093249 0.018255
v -0.152908 0.090399 -0.034384
v -0.099755 0.092419 -0.063690
v -0.044053 0.100481 -0.066858
v 0.089120 0.085047 0.304697
v 0.156971 0.097820 0.240266
v 0.199183 0.101059 0.164983
v 0.212068 0.098115 0.087705
v 0.196361 0.093249 0.018255
v 0.157340 0.090399 -0.034384
v 0.104188 0.092419 -0.063690
v 0.048485 0.100481 -0.066858
v 0.002216 0.089627 0.314410
v -0.077891 0.110198 0.266516
v -0.137060 0.118779 0.202563
v -0.169127 0.118205 0.130309
v -0.171849 0.112654 0.059408
v -0.147622 0.106472 -0.000299
v -0.103352 0.103357 -0.040494
v -0.049390 0.105639 -0.055919
v 0.082324 0.110198 0.266516
v 0.141493 0.118779 0.202563
v 0.173560 0.118205 0.130309
v 0.176281 0.112654 0.059408
v 0.152054 0.106472 -0.000299
v 0.107785 0.103357 -0.040494
v 0.053823 0.105639 -0.055919
v 0.002216 0.114419 0.275469
v -0.069879 0.129919 0.226187
v -0.118942 0.133620 0.163000
v -0.139907 0.129318 0.094747
v -0.132125 0.121449 0.031462
v -0.099755 0.114295 -0.017298
v -0.051211 0.111174 -0.044180
v 0.074312 0.129919 0.226187
v 0.123375 0.133620 0.163000
v 0.144339 0.129318 0.094747
v 0.136558 0.121449 0.031462
v 0.104188 0.114295 -0.017298
v 0.055644 0.111174 -0.044180
v 0.002216 0.133719 0.234245
v -0.060500 0.143311 0.183551
v -0.098280 0.142105 0.121863
v -0.107473 0.134310 0.058736
v -0.089208 0.124487 0.004317
v -0.049390 0.116710 -0.032441
v 0.064933 0.143311 0.183551
v 0.102713 0.142105 0.121863
v 0.111906 0.134310 0.058736
v 0.093642 0.124487 0.004317
v 0.053823 0.116710 -0.032441
v 0.002216 0.146616 0.190560
v -0.049805 0.150143 0.138909
v -0.075346 0.144179 0.079664
v -0.072432 0.133240 0.022878
v -0.044053 0.121868 -0.021501
v 0.054237 0.150143 0.138909
v 0.079779 0.144179 0.079664
v 0.076865 0.133240 0.022878
v 0.048485 0.121868 -0.021501
v 0.002216 0.152885 0.144723
v -0.037933 0.150382 0.092820
v -0.050567 0.139956 0.037120
v -0.035562 0.126298 -0.012108
v 0.042366 0.150382 0.092820
v 0.055001 0.139956 0.037120
v 0.039995 0.126298 -0.012108
v 0.002216 0.152498 0.097308
v -0.025107 0.144177 0.046074
v -0.024497 0.129696 -0.004900
v 0.029540 0.144177 0.046074
v 0.028930 0.129696 -0.004900
v 0.002216 0.145617 0.049128
v -0.011612 0.131833 -0.000369
v 0.016045 0.131833 -0.000369
v 0.002216 0.132562 0.001176
vn -0.0000 0.9045 -0.4265
vn -0.0000 0.8464 -0.5325
vn -0.0292 0.8482 -0.5289
vn 0.0292 0.8482 -0.5289
vn -0.0000 0.7760 -0.6307
vn -0.0581 0.7796 -0.6235
vn -0.0565 0.8534 -0.5182
vn 0.0565 0.8534 -0.5182
vn 0.0581 0.7796 -0.6235
vn -0.1124 0.7902 -0.6024
vn -0.0000 0.6884 -0.7253
vn -0.0880 0.6940 -0.7146
vn -0.0801 0.8617 -0.5011
vn 0.0801 0.8617 -0.5011
vn 0.1124 0.7902 -0.6024
vn 0.0880 0.6940 -0.7146
vn -0.1704 0.7103 -0.6830
vn -0.1593 0.8071 -0.5686
vn -0.1187 0.5889 -0.7995
vn -0.0000 0.5813 -0.8137
vn -0.0984 0.8725 -0.4786
vn 0.0984 0.8725 -0.4786
vn 0.1593 0.8071 -0.5686
vn 0.1704 0.7103 -0.6830
vn 0.1187 0.5889 -0.7995
vn -0.2299 0.6112 -0.7574
vn -0.2416 0.7362 -0.6321
vn -0.1955 0.8289 -0.5241
vn -0.1487 0.4651 -0.8727
vn -0.0000 0.4555 -0.8902
vn -0.1099 0.8851 -0.4522
vn 0.1099 0.8851 -0.4522
vn 0.1955 0.8289 -0.5241
vn 0.2416 0.7362 -0.6321
vn 0.2299 0.6112 -0.7574
vn 0.1487 0.4651 -0.8727
vn -0.2885 0.4930 -0.8208
vn -0.3265 0.6465 -0.6895
vn -0.2968 0.7698 -0.5651
vn -0.2184 0.8542 -0.4719
vn -0.1761 0.3283 -0.9280
vn -0.0000 0.3172 -0.9484
vn -0.1139 0.8986 -0.4237
vn 0.1139 0.8986 -0.4237
vn 0.2184 0.8542 -0.4719
vn 0.2968 0.7698 -0.5651
vn 0.3265 0.6465 -0.6895
vn 0.2885 0.4930 -0.8208
vn 0.1761 0.3283 -0.9280
vn -0.3421 0.3611 -0.8675
vn -0.4104 0.5375 -0.7367
vn -0.4015 0.6923 -0.5996
vn -0.3317 0.8085 -0.4861
vn -0.2262 0.8810 -0.4154
vn -0.1979 0.1950 -0.9606
vn -0.0000 0.1827 -0.9832
vn -0.1100 0.9120 -0.3952
vn 0.1100 0.9120 -0.3952
vn 0.2262 0.8810 -0.4154
vn 0.3317 0.8085 -0.4861
vn 0.4015 0.6923 -0.5996
vn 0.4104 0.5375 -0.7367
vn 0.3421 0.3611 -0.8675
vn 0.1979 0.1950 -0.9606
vn -0.3851 0.2313 -0.8934
vn -0.4877 0.4136 -0.7688
vn -0.5056 0.5953 -0.6244
vn -0.4492 0.7450 -0.4931
vn -0.3437 0.8494 -0.4005
vn -0.2184 0.9075 -0.3588
vn -0.2133 0.0805 -0.9737
vn -0.0000 0.0675 -0.9977
vn -0.0984 0.9243 -0.3687
vn 0.0984 0.9243 -0.3687
vn 0.2184 0.9075 -0.3588
vn 0.3437 0.8494 -0.4005
vn 0.4492 0.7450 -0.4931
vn 0.5056 0.5953 -0.6244
vn 0.4877 0.4136 -0.7688
vn 0.3851 0.2313 -0.8934
vn 0.2133 0.0805 -0.9737
vn -0.5500 0.2897 -0.7833
vn -0.4154 0.1189 -0.9019
vn -0.6021 0.4822 -0.6364
vn -0.5665 0.6619 -0.4909
vn -0.4656 0.8005 -0.3775
vn -0.3317 0.8894 -0.3146
vn -0.1955 0.9317 -0.3061
vn -0.2239 -0.0165 -0.9745
vn -0.0000 -0.0298 -0.9996
vn -0.0801 0.9348 -0.3460
vn 0.0801 0.9348 -0.3460
vn 0.1955 0.9317 -0.3061
vn 0.3317 0.8894 -0.3146
vn 0.4656 0.8005 -0.3775
vn 0.5665 0.6619 -0.4909
vn 0.6021 0.4822 -0.6364
vn 0.5500 0.2897 -0.7833
vn 0.4154 0.1189 -0.9019
vn 0.2239 -0.0165 -0.9745
vn -0.5941 0.1809 -0.7838
vn -0.6804 0.3664 -0.6347
vn -0.4364 0.0230 -0.8994
vn -0.6756 0.5615 -0.4778
vn -0.5874 0.7320 -0.3452
vn -0.4492 0.8544 -0.2611
vn -0.2968 0.9257 -0.2345
vn -0.1593 0.9521 -0.2609
vn -0.2314 -0.1009 -0.9676
vn -0.0000 -0.1143 -0.9934
vn -0.0565 0.9427 -0.3287
vn 0.0565 0.9427 -0.3287
vn 0.1593 0.9521 -0.2609
vn 0.2968 0.9257 -0.2345
vn 0.4492 0.8544 -0.2611
vn 0.5874 0.7320 -0.3452
vn 0.6756 0.5615 -0.4778
vn 0.6804 0.3664 -0.6347
vn 0.5941 0.1809 -0.7838
vn 0.4364 0.0230 -0.8994
vn 0.2314 -0.1009 -0.9676
vn -0.6250 0.0871 -0.7757
vn -0.7362 0.2629 -0.6236
vn -0.7645 0.4557 -0.4558
vn -0.4514 -0.0609 -0.8902
vn -0.7010 0.6451 -0.3042
vn -0.5665 0.7998 -0.1984
vn -0.4015 0.9030 -0.1527
vn -0.2416 0.9561 -0.1659
vn -0.1124 0.9675 -0.2264
vn -0.2251 -0.0318 -0.9738
vn -0.0000 -0.0451 -0.9990
vn -0.0292 0.9477 -0.3180
vn 0.0292 0.9477 -0.3180
vn 0.1124 0.9675 -0.2264
vn 0.2416 0.9561 -0.1659
vn 0.4015 0.9030 -0.1527
vn 0.5665 0.7998 -0.1984
vn 0.7010 0.6450 -0.3042
vn 0.7645 0.4557 -0.4558
vn 0.7362 0.2629 -0.6236
vn 0.6250 0.0871 -0.7757
vn 0.4514 -0.0609 -0.8902
vn 0.2251 -0.0318 -0.9738
vn -0.6470 0.0043 -0.7625
vn -0.7754 0.1724 -0.6075
vn -0.8283 0.3590 -0.4302
vn -0.7937 0.5502 -0.2594
vn -0.4390 0.0078 -0.8985
vn -0.6756 0.7258 -0.1293
vn -0.5056 0.8605 -0.0620
vn -0.3265 0.9433 -0.0601
vn -0.1704 0.9788 -0.1136
vn -0.0581 0.9771 -0.2048
vn -0.2017 0.1678 -0.9650
vn -0.0000 0.1553 -0.9879
vn -0.0000 0.9493 -0.3143
vn 0.0581 0.9771 -0.2048
vn 0.1704 0.9788 -0.1136
vn 0.3265 0.9433 -0.0601
vn 0.5056 0.8605 -0.0620
vn 0.6756 0.7258 -0.1293
vn 0.7937 0.5502 -0.2594
vn 0.8283 0.3590 -0.4302
vn 0.7754 0.1724 -0.6075
vn 0.6470 0.0043 -0.7625
vn 0.4390 0.0078 -0.8985
vn 0.2017 0.1678 -0.9650
vn -0.6289 0.0722 -0.7741
vn -0.8034 0.0916 -0.5883
vn -0.8732 0.2730 -0.4037
vn -0.8602 0.4612 -0.2175
vn -0.7645 0.6416 -0.0616
vn -0.3925 0.2048 -0.8966
vn -0.6021 0.7977 0.0328
vn -0.4104 0.9103 0.0540
vn -0.2299 0.9732 0.0103
vn -0.0880 0.9928 -0.0808
vn -0.0000 0.9803 -0.1975
vn -0.1896 0.2564 -0.9478
vn -0.0000 0.2444 -0.9697
vn 0.0880 0.9928 -0.0808
vn 0.2299 0.9732 0.0103
vn 0.4104 0.9103 0.0540
vn 0.6021 0.7977 0.0328
vn 0.7645 0.6416 -0.0616
vn 0.8602 0.4612 -0.2175
vn 0.8732 0.2730 -0.4037
vn 0.8034 0.0916 -0.5883
vn 0.6289 0.0722 -0.7741
vn 0.3925 0.2048 -0.8966
vn 0.1896 0.2564 -0.9478
vn -0.7805 0.1580 -0.6048
vn -0.5608 0.2643 -0.7846
vn -0.9054 0.1951 -0.3771
vn -0.9072 0.3805 -0.1794
vn -0.8283 0.5603 -0.0033
vn -0.6804 0.7228 0.1211
vn -0.3683 0.2917 -0.8828
vn -0.4877 0.8563 0.1700
vn -0.2885 0.9469 0.1418
vn -0.1186 0.9915 0.0543
vn -0.0000 0.9976 -0.0697
vn 0.1187 0.9915 0.0543
vn 0.2885 0.9469 0.1418
vn 0.4877 0.8563 0.1700
vn 0.6804 0.7228 0.1211
vn 0.8283 0.5603 -0.0033
vn 0.9072 0.3805 -0.1794
vn 0.9054 0.1951 -0.3771
vn 0.7805 0.1580 -0.6048
vn 0.5608 0.2643 -0.7846
vn 0.3683 0.2917 -0.8828
vn -0.6941 0.3426 -0.6331
vn -0.8793 0.2594 -0.3995
vn -0.5246 0.3482 -0.7769
vn -0.9409 0.3063 -0.1444
vn -0.8732 0.4852 0.0462
vn -0.7362 0.6484 0.1939
vn -0.5500 0.7887 0.2749
vn -0.3421 0.8991 0.2733
vn -0.1487 0.9692 0.1964
vn -0.0000 0.9976 0.0692
vn 0.1487 0.9692 0.1964
vn 0.3421 0.8991 0.2733
vn 0.5500 0.7887 0.2749
vn 0.7362 0.6484 0.1939
vn 0.8732 0.4852 0.0462
vn 0.9409 0.3063 -0.1444
vn 0.8793 0.2594 -0.3995
vn 0.6941 0.3426 -0.6331
vn 0.5246 0.3482 -0.7769
vn -0.7802 0.4339 -0.4506
vn -0.6471 0.4216 -0.6352
vn -0.9136 0.3677 -0.1734
vn -0.9054 0.4151 0.0894
vn -0.7754 0.5784 0.2534
vn -0.5941 0.7198 0.3591
vn -0.3851 0.8365 0.3899
vn -0.1761 0.9249 0.3371
vn -0.0000 0.9766 0.2149
vn 0.1761 0.9249 0.3371
vn 0.3851 0.8365 0.3899
vn 0.5941 0.7198 0.3591
vn 0.7754 0.5784 0.2534
vn 0.9054 0.4151 0.0894
vn 0.9136 0.3677 -0.1734
vn 0.7802 0.4339 -0.4506
vn 0.6471 0.4217 -0.6352
vn -0.8100 0.5304 -0.2501
vn -0.7256 0.5064 -0.4659
vn -0.8793 0.4733 0.0541
vn -0.8034 0.5122 0.3036
vn -0.6250 0.6539 0.4263
vn -0.4154 0.7714 0.4820
vn -0.1979 0.8652 0.4607
vn -0.0000 0.9335 0.3586
vn 0.1979 0.8652 0.4607
vn 0.4154 0.7714 0.4821
vn 0.6250 0.6539 0.4263
vn 0.8034 0.5122 0.3036
vn 0.8793 0.4733 0.0541
vn 0.8100 0.5304 -0.2501
vn 0.7256 0.5064 -0.4659
vn -0.7802 0.6237 -0.0481
vn -0.7526 0.5955 -0.2808
vn -0.7805 0.5672 0.2628
vn -0.6470 0.5910 0.4817
vn -0.4364 0.7086 0.5545
vn -0.2133 0.8024 0.5573
vn -0.0000 0.8748 0.4845
vn 0.2133 0.8024 0.5573
vn 0.4364 0.7086 0.5545
vn 0.6470 0.5910 0.4817
vn 0.7805 0.5672 0.2628
vn 0.7802 0.6237 -0.0481
vn 0.7526 0.5955 -0.2808
vn -0.7256 0.6816 -0.0944
vn -0.6941 0.7064 0.1384
vn -0.6289 0.6432 0.4368
vn -0.4514 0.6481 0.6133
vn -0.2239 0.7414 0.6327
vn -0.0000 0.8127 0.5826
vn 0.2239 0.7414 0.6327
vn 0.4514 0.6481 0.6133
vn 0.6289 0.6432 0.4368
vn 0.6941 0.7064 0.1384
vn 0.7256 0.6816 -0.0944
vn -0.6471 0.7583 0.0788
vn -0.5608 0.7735 0.2952
vn -0.4390 0.6982 0.5655
vn -0.2314 0.6824 0.6934
vn -0.0000 0.7523 0.6589
vn 0.2314 0.6824 0.6934
vn 0.4390 0.6982 0.5655
vn 0.5608 0.7735 0.2952
vn 0.6471 0.7583 0.0788
vn -0.5246 0.8209 0.2257
vn -0.3925 0.8221 0.4124
vn -0.2251 0.7311 0.6440
vn -0.0000 0.6937 0.7202
vn 0.2251 0.7311 0.6440
vn 0.3925 0.8221 0.4124
vn 0.5246 0.8209 0.2257
vn -0.3683 0.8667 0.3365
vn -0.2017 0.8513 0.4844
vn -0.0000 0.7421 0.6703
vn 0.2017 0.8513 0.4844
vn 0.3683 0.8667 0.3365
vn -0.1896 0.8944 0.4052
vn -0.0000 0.8610 0.5086
vn 0.1896 0.8944 0.4052
vn -0.0000 0.9036 0.4284
vn -0.0000 -0.9541 0.2994
vn -0.0255 -0.9428 0.3323
vn -0.0334 -0.9522 0.3036
vn -0.0000 -0.9443 0.3291
vn 0.0334 -0.9522 0.3036
vn 0.0255 -0.9428 0.3323
vn -0.0493 -0.9385 0.3417
vn -0.0645 -0.9465 0.3162
vn -0.0165 -0.9307 0.3655
vn -0.0000 -0.9316 0.3634
vn 0.0493 -0.9385 0.3417
vn 0.0645 -0.9465 0.3162
vn 0.0165 -0.9307 0.3655
vn -0.0698 -0.9316 0.3568
vn -0.0910 -0.9374 0.3361
vn -0.0320 -0.9278 0.3716
vn 0.0698 -0.9316 0.3568
vn 0.0910 -0.9374 0.3361
vn 0.0320 -0.9278 0.3716
vn -0.0856 -0.9224 0.3765
vn -0.1111 -0.9256 0.3618
vn -0.0453 -0.9233 0.3814
vn 0.0856 -0.9224 0.3765
vn 0.1111 -0.9256 0.3618
vn 0.0453 -0.9233 0.3814
vn -0.0956 -0.9117 0.3996
vn -0.1237 -0.9119 0.3914
vn -0.0557 -0.9173 0.3943
vn 0.0956 -0.9117 0.3996
vn 0.1237 -0.9119 0.3914
vn 0.0557 -0.9173 0.3943
vn -0.0991 -0.9000 0.4244
vn -0.1280 -0.8970 0.4230
vn -0.0622 -0.9102 0.4094
vn 0.0991 -0.9000 0.4244
vn 0.1280 -0.8971 0.4230
vn 0.0622 -0.9102 0.4094
vn -0.1237 -0.8821 0.4545
vn -0.0956 -0.8883 0.4492
vn -0.0645 -0.9026 0.4256
vn 0.1237 -0.8821 0.4545
vn 0.0956 -0.8883 0.4492
vn 0.0645 -0.9026 0.4256
vn -0.1111 -0.8680 0.4840
vn -0.0856 -0.8774 0.4721
vn -0.0622 -0.8949 0.4418
vn 0.1111 -0.8680 0.4840
vn 0.0856 -0.8774 0.4721
vn 0.0622 -0.8949 0.4418
vn -0.0910 -0.8557 0.5094
vn -0.0698 -0.8679 0.4917
vn -0.0557 -0.8878 0.4569
vn 0.0910 -0.8557 0.5094
vn 0.0698 -0.8679 0.4917
vn 0.0557 -0.8878 0.4569
vn -0.0645 -0.8461 0.5291
vn -0.0493 -0.8607 0.5067
vn -0.0453 -0.8817 0.4697
vn 0.0645 -0.8461 0.5291
vn 0.0493 -0.8607 0.5067
vn 0.0453 -0.8817 0.4697
vn -0.0334 -0.8400 0.5415
vn -0.0255 -0.8562 0.5160
vn -0.0320 -0.8770 0.4794
vn 0.0334 -0.8400 0.5415
vn 0.0255 -0.8562 0.5160
vn 0.0320 -0.8770 0.4794
vn -0.0000 -0.8380 0.5457
vn -0.0000 -0.8547 0.5192
vn -0.0165 -0.8741 0.4855
vn 0.0165 -0.8741 0.4855
vn -0.0000 -0.8731 0.4876
vn -0.0000 -0.0530 0.9986
vn 0.2125 -0.0951 0.9725
vn -0.0000 -0.0821 0.9966
vn 0.2149 -0.0660 0.9744
vn -0.2125 -0.0951 0.9725
vn -0.2149 -0.0660 0.9744
vn 0.4134 -0.1337 0.9007
vn 0.4186 -0.1047 0.9021
vn -0.0000 0.0647 0.9979
vn 0.2270 0.0513 0.9726
vn -0.4134 -0.1337 0.9007
vn -0.4186 -0.1047 0.9021
vn -0.2270 0.0513 0.9726
vn 0.5905 -0.1957 0.7829
vn 0.5989 -0.1672 0.7832
vn 0.4426 0.0115 0.8966
vn -0.0000 0.1170 0.9931
vn 0.2316 0.1035 0.9673
vn -0.5905 -0.1957 0.7829
vn -0.5989 -0.1672 0.7832
vn -0.4426 0.0115 0.8966
vn -0.2316 0.1035 0.9673
vn 0.7305 -0.2774 0.6240
vn 0.7422 -0.2499 0.6218
vn 0.6342 -0.0531 0.7713
vn 0.4518 0.0635 0.8898
vn -0.0000 0.0317 0.9995
vn 0.2241 0.0184 0.9744
vn -0.7305 -0.2774 0.6240
vn -0.7422 -0.2499 0.6218
vn -0.6342 -0.0531 0.7713
vn -0.4518 0.0635 0.8898
vn -0.2241 0.0184 0.9744
vn 0.8352 -0.3469 0.4268
vn 0.8209 -0.3725 0.4329
vn 0.7873 -0.1395 0.6006
vn 0.6476 -0.0017 0.7619
vn 0.4368 -0.0211 0.8993
vn -0.0000 -0.0672 0.9977
vn 0.2133 -0.0801 0.9737
vn -0.8352 -0.3469 0.4268
vn -0.8209 -0.3725 0.4329
vn -0.7873 -0.1395 0.6006
vn -0.6476 -0.0017 0.7619
vn -0.4368 -0.0211 0.8993
vn -0.2133 -0.0801 0.9737
vn 0.8675 -0.4500 0.2122
vn 0.8522 -0.4733 0.2232
vn 0.8870 -0.2415 0.3935
vn 0.8042 -0.0890 0.5876
vn 0.6256 -0.0852 0.7755
vn 0.4154 -0.1185 0.9019
vn -0.0000 -0.1832 0.9831
vn 0.1979 -0.1955 0.9605
vn -0.8675 -0.4500 0.2122
vn -0.8522 -0.4733 0.2232
vn -0.8870 -0.2415 0.3935
vn -0.8042 -0.0890 0.5876
vn -0.6256 -0.0852 0.7755
vn -0.4154 -0.1185 0.9019
vn -0.1979 -0.1955 0.9605
vn 0.8352 -0.5500 -0.0039
vn 0.8209 -0.5710 0.0120
vn 0.9218 -0.3507 0.1654
vn 0.9063 -0.1926 0.3762
vn 0.7761 -0.1706 0.6071
vn 0.5943 -0.1805 0.7838
vn 0.3849 -0.2318 0.8934
vn -0.0000 -0.3174 0.9483
vn 0.1760 -0.3286 0.9279
vn -0.8352 -0.5500 -0.0039
vn -0.8209 -0.5710 0.0120
vn -0.9218 -0.3507 0.1654
vn -0.9063 -0.1926 0.3762
vn -0.7761 -0.1706 0.6071
vn -0.5943 -0.1805 0.7838
vn -0.3849 -0.2318 0.8934
vn -0.1760 -0.3286 0.9279
vn 0.7422 -0.6388 -0.2028
vn 0.7305 -0.6579 -0.1830
vn 0.8870 -0.4573 -0.0640
vn 0.9419 -0.3039 0.1433
vn 0.8740 -0.2713 0.4032
vn 0.7363 -0.2626 0.6236
vn 0.5498 -0.2901 0.7833
vn 0.3420 -0.3614 0.8674
vn -0.0000 -0.4559 0.8900
vn 0.1486 -0.4654 0.8725
vn -0.7422 -0.6388 -0.2028
vn -0.7305 -0.6579 -0.1830
vn -0.8870 -0.4573 -0.0640
vn -0.9419 -0.3039 0.1433
vn -0.8740 -0.2712 0.4031
vn -0.7363 -0.2626 0.6236
vn -0.5498 -0.2901 0.7833
vn -0.3420 -0.3614 0.8674
vn -0.1486 -0.4654 0.8725
vn 0.5905 -0.7286 -0.3471
vn 0.5989 -0.7106 -0.3693
vn 0.7873 -0.5521 -0.2745
vn 0.9063 -0.4128 -0.0907
vn 0.9081 -0.3788 0.1786
vn 0.8284 -0.3587 0.4301
vn 0.6801 -0.3668 0.6347
vn 0.4875 -0.4139 0.7688
vn 0.2883 -0.4934 0.8206
vn -0.0000 -0.5817 0.8134
vn 0.1186 -0.5892 0.7992
vn -0.5905 -0.7286 -0.3471
vn -0.5989 -0.7106 -0.3693
vn -0.7873 -0.5521 -0.2745
vn -0.9063 -0.4128 -0.0907
vn -0.9081 -0.3788 0.1786
vn -0.8284 -0.3587 0.4301
vn -0.6801 -0.3668 0.6347
vn -0.4875 -0.4139 0.7688
vn -0.2883 -0.4934 0.8206
vn -0.1186 -0.5892 0.7992
vn 0.4134 -0.7799 -0.4698
vn 0.4186 -0.7626 -0.4932
vn 0.6342 -0.6289 -0.4497
vn 0.8042 -0.5100 -0.3052
vn 0.8740 -0.4836 -0.0472
vn 0.8604 -0.4609 0.2173
vn 0.7643 -0.4561 0.4559
vn 0.6019 -0.4824 0.6364
vn 0.4102 -0.5378 0.7366
vn 0.2297 -0.6115 0.7572
vn -0.0000 -0.6887 0.7251
vn 0.0879 -0.6943 0.7143
vn -0.4134 -0.7799 -0.4698
vn -0.4186 -0.7626 -0.4932
vn -0.6342 -0.6289 -0.4497
vn -0.8042 -0.5100 -0.3052
vn -0.8740 -0.4836 -0.0472
vn -0.8604 -0.4609 0.2173
vn -0.7643 -0.4561 0.4559
vn -0.6019 -0.4824 0.6364
vn -0.4102 -0.5378 0.7366
vn -0.2297 -0.6115 0.7572
vn -0.0879 -0.6943 0.7143
vn 0.2125 -0.8109 -0.5453
vn 0.2149 -0.7938 -0.5690
vn 0.4426 -0.6844 -0.5793
vn 0.6476 -0.5890 -0.4834
vn 0.7761 -0.5769 -0.2546
vn 0.8284 -0.5601 0.0031
vn 0.7934 -0.5505 0.2596
vn 0.6754 -0.5617 0.4778
vn 0.5054 -0.5956 0.6244
vn 0.3262 -0.6468 0.6894
vn 0.1702 -0.7106 0.6827
vn 0.0580 -0.7799 0.6233
vn -0.0000 -0.7762 0.6304
vn -0.2125 -0.8109 -0.5453
vn -0.2149 -0.7938 -0.5690
vn -0.4426 -0.6844 -0.5793
vn -0.6476 -0.5890 -0.4834
vn -0.7761 -0.5769 -0.2546
vn -0.8284 -0.5601 0.0031
vn -0.7934 -0.5505 0.2596
vn -0.6754 -0.5617 0.4778
vn -0.5054 -0.5956 0.6244
vn -0.3262 -0.6468 0.6894
vn -0.1702 -0.7106 0.6827
vn -0.0580 -0.7799 0.6233
vn -0.0000 -0.8212 -0.5707
vn -0.0000 -0.8042 -0.5944
vn 0.2270 -0.7177 -0.6583
vn 0.4518 -0.6461 -0.6151
vn 0.6256 -0.6525 -0.4276
vn 0.7363 -0.6482 -0.1941
vn 0.7643 -0.6419 0.0619
vn 0.7008 -0.6452 0.3043
vn 0.5662 -0.6622 0.4909
vn 0.4012 -0.6926 0.5995
vn 0.2414 -0.7365 0.6319
vn 0.1122 -0.7904 0.6022
vn 0.0291 -0.8483 0.5287
vn -0.0000 -0.8466 0.5323
vn -0.2270 -0.7177 -0.6583
vn -0.4518 -0.6461 -0.6151
vn -0.6256 -0.6525 -0.4276
vn -0.7363 -0.6482 -0.1941
vn -0.7643 -0.6419 0.0619
vn -0.7008 -0.6452 0.3043
vn -0.5662 -0.6622 0.4909
vn -0.4012 -0.6926 0.5995
vn -0.2414 -0.7365 0.6319
vn -0.1122 -0.7904 0.6022
vn -0.0291 -0.8483 0.5287
vn -0.0000 -0.7288 -0.6847
vn 0.2316 -0.6804 -0.6953
vn 0.4368 -0.7073 -0.5559
vn 0.5943 -0.7195 -0.3593
vn 0.6801 -0.7231 -0.1208
vn 0.6754 -0.7260 0.1294
vn 0.5871 -0.7322 0.3453
vn 0.4488 -0.7452 0.4931
vn 0.2964 -0.7700 0.5650
vn 0.1590 -0.8072 0.5684
vn 0.0564 -0.8535 0.5181
vn -0.0000 -0.9045 0.4265
vn -0.2316 -0.6804 -0.6953
vn -0.4368 -0.7072 -0.5559
vn -0.5943 -0.7195 -0.3593
vn -0.6801 -0.7231 -0.1208
vn -0.6754 -0.7260 0.1294
vn -0.5871 -0.7322 0.3453
vn -0.4488 -0.7452 0.4931
vn -0.2964 -0.7700 0.5650
vn -0.1590 -0.8072 0.5684
vn -0.0564 -0.8535 0.5181
vn -0.0000 -0.6918 -0.7221
vn 0.2241 -0.7401 -0.6341
vn 0.4154 -0.7712 -0.4823
vn 0.5498 -0.7889 -0.2745
vn 0.6019 -0.7979 -0.0327
vn 0.5662 -0.8000 0.1986
vn 0.4652 -0.8007 0.3775
vn 0.3313 -0.8087 0.4860
vn 0.1952 -0.8290 0.5240
vn 0.0799 -0.8618 0.5010
vn -0.2241 -0.7401 -0.6341
vn -0.4154 -0.7712 -0.4823
vn -0.5498 -0.7889 -0.2745
vn -0.6019 -0.7979 -0.0327
vn -0.5662 -0.8000 0.1986
vn -0.4652 -0.8007 0.3775
vn -0.3313 -0.8087 0.4860
vn -0.1952 -0.8290 0.5240
vn -0.0799 -0.8618 0.5010
vn -0.0000 -0.7510 -0.6603
vn 0.2133 -0.8022 -0.5576
vn 0.3849 -0.8367 -0.3895
vn 0.4875 -0.8564 -0.1698
vn 0.5054 -0.8607 0.0623
vn 0.4488 -0.8546 0.2613
vn 0.3433 -0.8495 0.4006
vn 0.2181 -0.8543 0.4718
vn 0.0982 -0.8726 0.4785
vn -0.2133 -0.8022 -0.5576
vn -0.3849 -0.8367 -0.3895
vn -0.4875 -0.8564 -0.1698
vn -0.5054 -0.8607 0.0623
vn -0.4488 -0.8546 0.2613
vn -0.3433 -0.8495 0.4006
vn -0.2181 -0.8543 0.4718
vn -0.0982 -0.8726 0.4785
vn -0.0000 -0.8125 -0.5829
vn 0.1979 -0.8654 -0.4603
vn 0.3420 -0.8992 -0.2730
vn 0.4102 -0.9104 -0.0536
vn 0.4012 -0.9031 0.1529
vn 0.3313 -0.8895 0.3147
vn 0.2259 -0.8811 0.4155
vn 0.1098 -0.8851 0.4522
vn -0.1979 -0.8654 -0.4603
vn -0.3420 -0.8992 -0.2730
vn -0.4102 -0.9104 -0.0536
vn -0.4012 -0.9031 0.1529
vn -0.3313 -0.8895 0.3147
vn -0.2259 -0.8811 0.4155
vn -0.1098 -0.8851 0.4522
vn -0.0000 -0.8750 -0.4841
vn 0.1760 -0.9250 -0.3368
vn 0.2883 -0.9470 -0.1415
vn 0.3262 -0.9434 0.0605
vn 0.2964 -0.9258 0.2347
vn 0.2181 -0.9075 0.3589
vn 0.1137 -0.8986 0.4237
vn -0.1760 -0.9250 -0.3368
vn -0.2883 -0.9470 -0.1415
vn -0.3262 -0.9434 0.0605
vn -0.2965 -0.9258 0.2347
vn -0.2181 -0.9075 0.3589
vn -0.1137 -0.8986 0.4237
vn -0.0000 -0.9336 -0.3584
vn 0.1486 -0.9693 -0.1960
vn 0.2297 -0.9732 -0.0099
vn 0.2414 -0.9561 0.1662
vn 0.1952 -0.9317 0.3063
vn 0.1098 -0.9120 0.3952
vn -0.1486 -0.9693 -0.1960
vn -0.2297 -0.9732 -0.0099
vn -0.2414 -0.9561 0.1662
vn -0.1952 -0.9317 0.3063
vn -0.1098 -0.9120 0.3952
vn -0.0000 -0.9767 -0.2145
vn 0.1186 -0.9915 -0.0538
vn 0.1702 -0.9788 0.1139
vn 0.1590 -0.9521 0.2612
vn 0.0982 -0.9243 0.3688
vn -0.1186 -0.9915 -0.0538
vn -0.1702 -0.9788 0.1139
vn -0.1590 -0.9521 0.2612
vn -0.0982 -0.9243 0.3688
vn -0.0000 -0.9976 -0.0687
vn 0.0879 -0.9928 0.0812
vn 0.1122 -0.9675 0.2267
vn 0.0799 -0.9348 0.3461
vn -0.0879 -0.9928 0.0812
vn -0.1122 -0.9675 0.2267
vn -0.0799 -0.9348 0.3461
vn -0.0000 -0.9975 0.0701
vn 0.0580 -0.9770 0.2052
vn 0.0564 -0.9427 0.3289
vn -0.0580 -0.9770 0.2052
vn -0.0564 -0.9427 0.3289
vn -0.0000 -0.9802 0.1978
vn 0.0292 -0.9476 0.3182
vn -0.0292 -0.9476 0.3182
vn -0.0000 -0.9493 0.3145
vt 0.460000 0.793333
vt 0.540000 0.793333
vt 0.500000 0.873333
s 1
f 1/1/1 2/2/2 3/3/3
f 4/1/4 2/2/2 1/3/1
f 3/1/3 5/2/5 6/3/6
f 5/1/5 3/2/3 2/3/2
f 1/1/1 3/2/3 7/3/7
f 8/1/8 4/2/4 1/3/1
f 2/1/2 9/2/9 5/3/5
f 9/1/9 2/2/2 4/3/4
f 7/1/7 6/2/6 10/3/10
f 6/1/6 7/2/7 3/3/3
f 6/1/6 11/2/11 12/3/12
f 11/1/11 6/2/6 5/3/5
f 1/1/1 7/2/7 13/3/13
f 14/1/14 8/2/8 1/3/1
f 8/1/8 9/2/9 4/3/4
f 9/1/9 8/2/8 15/3/15
f 5/1/5 16/2/16 11/3/11
f 16/1/16 5/2/5 9/3/9
f 10/1/10 12/2/12 17/3/17
f 12/1/12 10/2/10 6/3/6
f 13/1/13 10/2/10 18/3/18
f 10/1/10 13/2/13 7/3/7
f 19/1/19 11/2/11 20/3/20
f 11/1/11 19/2/19 12/3/12
f 1/1/1 13/2/13 21/3/21
f 22/1/22 14/2/14 1/3/1
f 14/1/14 15/2/15 8/3/8
f 15/1/15 14/2/14 23/3/23
f 15/1/15 16/2/16 9/3/9
f 16/1/16 15/2/15 24/3/24
f 11/1/11 25/2/25 20/3/20
f 25/1/25 11/2/11 16/3/16
f 26/1/26 12/2/12 19/3/19
f 12/1/12 26/2/26 17/3/17
f 18/1/18 17/2/17 27/3/27
f 17/1/17 18/2/18 10/3/10
f 21/1/21 18/2/18 28/3/28
f 18/1/18 21/2/21 13/3/13
f 29/1/29 20/2/20 30/3/30
f 20/1/20 29/2/29 19/3/19
f 1/1/1 21/2/21 31/3/31
f 32/1/32 22/2/22 1/3/1
f 22/1/22 23/2/23 14/3/14
f 23/1/23 22/2/22 33/3/33
f 23/1/23 24/2/24 15/3/15
f 24/1/24 23/2/23 34/3/34
f 16/1/16 35/2/35 25/3/25
f 35/1/35 16/2/16 24/3/24
f 20/1/20 36/2/36 30/3/30
f 36/1/36 20/2/20 25/3/25
f 37/1/37 19/2/19 29/3/29
f 19/1/19 37/2/37 26/3/26
f 38/1/38 17/2/17 26/3/26
f 17/1/17 38/2/38 27/3/27
f 28/1/28 27/2/27 39/3/39
f 27/1/27 28/2/28 18/3/18
f 31/1/31 28/2/28 40/3/40
f 28/1/28 31/2/31 21/3/21
f 41/1/41 30/2/30 42/3/42
f 30/1/30 41/2/41 29/3/29
f 1/1/1 31/2/31 43/3/43
f 44/1/44 32/2/32 1/3/1
f 32/1/32 33/2/33 22/3/22
f 33/1/33 32/2/32 45/3/45
f 33/1/33 34/2/34 23/3/23
f 34/1/34 33/2/33 46/3/46
f 24/1/24 47/2/47 35/3/35
f 47/1/47 24/2/24 34/3/34
f 25/1/25 48/2/48 36/3/36
f 48/1/48 25/2/25 35/3/35
f 30/1/30 49/2/49 42/3/42
f 49/1/49 30/2/30 36/3/36
f 50/1/50 29/2/29 41/3/41
f 29/1/29 50/2/50 37/3/37
f 51/1/51 26/2/26 37/3/37
f 26/1/26 51/2/51 38/3/38
f 39/1/39 38/2/38 52/3/52
f 38/1/38 39/2/39 27/3/27
f 40/1/40 39/2/39 53/3/53
f 39/1/39 40/2/40 28/3/28
f 43/1/43 40/2/40 54/3/54
f 40/1/40 43/2/43 31/3/31
f 55/1/55 42/2/42 56/3/56
f 42/1/42 55/2/55 41/3/41
f 1/1/1 43/2/43 57/3/57
f 44/1/44 1/2/1 58/3/58
f 44/1/44 45/2/45 32/3/32
f 45/1/45 44/2/44 59/3/59
f 45/1/45 46/2/46 33/3/33
f 46/1/46 45/2/45 60/3/60
f 46/1/46 47/2/47 34/3/34
f 47/1/47 46/2/46 61/3/61
f 35/1/35 62/2/62 48/3/48
f 62/1/62 35/2/35 47/3/47
f 36/1/36 63/2/63 49/3/49
f 63/1/63 36/2/36 48/3/48
f 42/1/42 64/2/64 56/3/56
f 64/1/64 42/2/42 49/3/49
f 65/1/65 41/2/41 55/3/55
f 41/1/41 65/2/65 50/3/50
f 66/1/66 37/2/37 50/3/50
f 37/1/37 66/2/66 51/3/51
f 67/1/67 38/2/38 51/3/51
f 38/1/38 67/2/67 52/3/52
f 53/1/53 52/2/52 68/3/68
f 52/1/52 53/2/53 39/3/39
f 54/1/54 53/2/53 69/3/69
f 53/1/53 54/2/54 40/3/40
f 70/1/70 43/2/43 54/3/54
f 43/1/43 70/2/70 57/3/57
f 71/1/71 56/2/56 72/3/72
f 56/1/56 71/2/71 55/3/55
f 1/1/1 57/2/57 73/3/73
f 58/1/58 1/2/1 74/3/74
f 75/1/75 44/2/44 58/3/58
f 44/1/44 75/2/75 59/3/59
f 59/1/59 60/2/60 45/3/45
f 60/1/60 59/2/59 76/3/76
f 60/1/60 61/2/61 46/3/46
f 61/1/61 60/2/60 77/3/77
f 47/1/47 78/2/78 62/3/62
f 78/1/78 47/2/47 61/3/61
f 48/1/48 79/2/79 63/3/63
f 79/1/79 48/2/48 62/3/62
f 49/1/49 80/2/80 64/3/64
f 80/1/80 49/2/49 63/3/63
f 56/1/56 81/2/81 72/3/72
f 81/1/81 56/2/56 64/3/64
f 82/1/82 50/2/50 65/3/65
f 50/1/50 82/2/82 66/3/66
f 83/1/83 55/2/55 71/3/71
f 55/1/55 83/2/83 65/3/65
f 84/1/84 51/2/51 66/3/66
f 51/1/51 84/2/84 67/3/67
f 68/1/68 67/2/67 85/3/85
f 67/1/67 68/2/68 52/3/52
f 69/1/69 68/2/68 86/3/86
f 68/1/68 69/2/69 53/3/53
f 87/1/87 54/2/54 69/3/69
f 54/1/54 87/2/87 70/3/70
f 88/1/88 57/2/57 70/3/70
f 57/1/57 88/2/88 73/3/73
f 89/1/89 72/2/72 90/3/90
f 72/1/72 89/2/89 71/3/71
f 1/1/1 73/2/73 91/3/91
f 74/1/74 1/2/1 92/3/92
f 93/1/93 58/2/58 74/3/74
f 58/1/58 93/2/93 75/3/75
f 94/1/94 59/2/59 75/3/75
f 59/1/59 94/2/94 76/3/76
f 76/1/76 77/2/77 60/3/60
f 77/1/77 76/2/76 95/3/95
f 77/1/77 78/2/78 61/3/61
f 78/1/78 77/2/77 96/3/96
f 62/1/62 97/2/97 79/3/79
f 97/1/97 62/2/62 78/3/78
f 63/1/63 98/2/98 80/3/80
f 98/1/98 63/2/63 79/3/79
f 64/1/64 99/2/99 81/3/81
f 99/1/99 64/2/64 80/3/80
f 72/1/72 100/2/100 90/3/90
f 100/1/100 72/2/72 81/3/81
f 101/1/101 65/2/65 83/3/83
f 65/1/65 101/2/101 82/3/82
f 102/1/102 66/2/66 82/3/82
f 66/1/66 102/2/102 84/3/84
f 103/1/103 71/2/71 89/3/89
f 71/1/71 103/2/103 83/3/83
f 85/1/85 84/2/84 104/3/104
f 84/1/84 85/2/85 67/3/67
f 86/1/86 85/2/85 105/3/105
f 85/1/85 86/2/86 68/3/68
f 106/1/106 69/2/69 86/3/86
f 69/1/69 106/2/106 87/3/87
f 107/1/107 70/2/70 87/3/87
f 70/1/70 107/2/107 88/3/88
f 108/1/108 73/2/73 88/3/88
f 73/1/73 108/2/108 91/3/91
f 109/1/109 90/2/90 110/3/110
f 90/1/90 109/2/109 89/3/89
f 1/1/1 91/2/91 111/3/111
f 92/1/92 1/2/1 112/3/112
f 113/1/113 74/2/74 92/3/92
f 74/1/74 113/2/113 93/3/93
f 114/1/114 75/2/75 93/3/93
f 75/1/75 114/2/114 94/3/94
f 115/1/115 76/2/76 94/3/94
f 76/1/76 115/2/115 95/3/95
f 95/1/95 96/2/96 77/3/77
f 96/1/96 95/2/95 116/3/116
f 97/1/97 96/2/96 117/3/117
f 96/1/96 97/2/97 78/3/78
f 79/1/79 118/2/118 98/3/98
f 118/1/118 79/2/79 97/3/97
f 80/1/80 119/2/119 99/3/99
f 119/1/119 80/2/80 98/3/98
f 81/1/81 120/2/120 100/3/100
f 120/1/120 81/2/81 99/3/99
f 90/1/90 121/2/121 110/3/110
f 121/1/121 90/2/90 100/3/100
f 122/1/122 83/2/83 103/3/103
f 83/1/83 122/2/122 101/3/101
f 123/1/123 82/2/82 101/3/101
f 82/1/82 123/2/123 102/3/102
f 104/1/104 102/2/102 124/3/124
f 102/1/102 104/2/104 84/3/84
f 125/1/125 89/2/89 109/3/109
f 89/1/89 125/2/125 103/3/103
f 105/1/105 104/2/104 126/3/126
f 104/1/104 105/2/105 85/3/85
f 127/1/127 86/2/86 105/3/105
f 86/1/86 127/2/127 106/3/106
f 128/1/128 87/2/87 106/3/106
f 87/1/87 128/2/128 107/3/107
f 129/1/129 88/2/88 107/3/107
f 88/1/88 129/2/129 108/3/108
f 130/1/130 91/2/91 108/3/108
f 91/1/91 130/2/130 111/3/111
f 131/1/131 110/2/110 132/3/132
f 110/1/110 131/2/131 109/3/109
f 1/1/1 111/2/111 133/3/133
f 112/1/112 1/2/1 134/3/134
f 135/1/135 92/2/92 112/3/112
f 92/1/92 135/2/135 113/3/113
f 136/1/136 93/2/93 113/3/113
f 93/1/93 136/2/136 114/3/114
f 137/1/137 94/2/94 114/3/114
f 94/1/94 137/2/137 115/3/115
f 138/1/138 95/2/95 115/3/115
f 95/1/95 138/2/138 116/3/116
f 116/1/116 117/2/117 96/3/96
f 117/1/117 116/2/116 139/3/139
f 118/1/118 117/2/117 140/3/140
f 117/1/117 118/2/118 97/3/97
f 98/1/98 141/2/141 119/3/119
f 141/1/141 98/2/98 118/3/118
f 99/1/99 142/2/142 120/3/120
f 142/1/142 99/2/99 119/3/119
f 100/1/100 143/2/143 121/3/121
f 143/1/143 100/2/100 120/3/120
f 110/1/110 144/2/144 132/3/132
f 144/1/144 110/2/110 121/3/121
f 145/1/145 103/2/103 125/3/125
f 103/1/103 145/2/145 122/3/122
f 146/1/146 101/2/101 122/3/122
f 101/1/101 146/2/146 123/3/123
f 124/1/124 123/2/123 147/3/147
f 123/1/123 124/2/124 102/3/102
f 126/1/126 124/2/124 148/3/148
f 124/1/124 126/2/126 104/3/104
f 149/1/149 109/2/109 131/3/131
f 109/1/109 149/2/149 125/3/125
f 150/1/150 105/2/105 126/3/126
f 105/1/105 150/2/150 127/3/127
f 151/1/151 106/2/106 127/3/127
f 106/1/106 151/2/151 128/3/128
f 152/1/152 107/2/107 128/3/128
f 107/1/107 152/2/152 129/3/129
f 153/1/153 108/2/108 129/3/129
f 108/1/108 153/2/153 130/3/130
f 154/1/154 111/2/111 130/3/130
f 111/1/111 154/2/154 133/3/133
f 155/1/155 132/2/132 156/3/156
f 132/1/132 155/2/155 131/3/131
f 157/1/157 1/2/1 133/3/133
f 134/1/134 1/2/1 157/3/157
f 158/1/158 112/2/112 134/3/134
f 112/1/112 158/2/158 135/3/135
f 159/1/159 113/2/113 135/3/135
f 113/1/113 159/2/159 136/3/136
f 160/1/160 114/2/114 136/3/136
f 114/1/114 160/2/160 137/3/137
f 161/1/161 115/2/115 137/3/137
f 115/1/115 161/2/161 138/3/138
f 162/1/162 116/2/116 138/3/138
f 116/1/116 162/2/162 139/3/139
f 140/1/140 139/2/139 163/3/163
f 139/1/139 140/2/140 117/3/117
f 141/1/141 140/2/140 164/3/164
f 140/1/140 141/2/141 118/3/118
f 119/1/119 165/2/165 142/3/142
f 165/1/165 119/2/119 141/3/141
f 120/1/120 166/2/166 143/3/143
f 166/1/166 120/2/120 142/3/142
f 121/1/121 167/2/167 144/3/144
f 167/1/167 121/2/121 143/3/143
f 132/1/132 168/2/168 156/3/156
f 168/1/168 132/2/132 144/3/144
f 169/1/169 125/2/125 149/3/149
f 125/1/125 169/2/169 145/3/145
f 146/1/146 145/2/145 170/3/170
f 145/1/145 146/2/146 122/3/122
f 147/1/147 146/2/146 171/3/171
f 146/1/146 147/2/147 123/3/123
f 148/1/148 147/2/147 172/3/172
f 147/1/147 148/2/148 124/3/124
f 150/1/150 148/2/148 173/3/173
f 148/1/148 150/2/150 126/3/126
f 174/1/174 131/2/131 155/3/155
f 131/1/131 174/2/174 149/3/149
f 175/1/175 127/2/127 150/3/150
f 127/1/127 175/2/175 151/3/151
f 176/1/176 128/2/128 151/3/151
f 128/1/128 176/2/176 152/3/152
f 177/1/177 129/2/129 152/3/152
f 129/1/129 177/2/177 153/3/153
f 178/1/178 130/2/130 153/3/153
f 130/1/130 178/2/178 154/3/154
f 179/1/179 133/2/133 154/3/154
f 133/1/133 179/2/179 157/3/157
f 180/1/180 156/2/156 181/3/181
f 156/1/156 180/2/180 155/3/155
f 179/1/179 134/2/134 157/3/157
f 134/1/134 179/2/179 158/3/158
f 182/1/182 135/2/135 158/3/158
f 135/1/135 182/2/182 159/3/159
f 183/1/183 136/2/136 159/3/159
f 136/1/136 183/2/183 160/3/160
f 184/1/184 137/2/137 160/3/160
f 137/1/137 184/2/184 161/3/161
f 185/1/185 138/2/138 161/3/161
f 138/1/138 185/2/185 162/3/162
f 163/1/163 162/2/162 186/3/186
f 162/1/162 163/2/163 139/3/139
f 164/1/164 163/2/163 187/3/187
f 163/1/163 164/2/164 140/3/140
f 165/1/165 164/2/164 188/3/188
f 164/1/164 165/2/165 141/3/141
f 166/1/166 165/2/165 189/3/189
f 165/1/165 166/2/166 142/3/142
f 143/1/143 190/2/190 167/3/167
f 190/1/190 143/2/143 166/3/166
f 144/1/144 191/2/191 168/3/168
f 191/1/191 144/2/144 167/3/167
f 156/1/156 192/2/192 181/3/181
f 192/1/192 156/2/156 168/3/168
f 170/1/170 169/2/169 193/3/193
f 169/1/169 170/2/170 145/3/145
f 194/1/194 149/2/149 174/3/174
f 149/1/149 194/2/194 169/3/169
f 171/1/171 170/2/170 195/3/195
f 170/1/170 171/2/171 146/3/146
f 172/1/172 171/2/171 196/3/196
f 171/1/171 172/2/172 147/3/147
f 173/1/173 172/2/172 197/3/197
f 172/1/172 173/2/173 148/3/148
f 198/1/198 150/2/150 173/3/173
f 150/1/150 198/2/198 175/3/175
f 199/1/199 155/2/155 180/3/180
f 155/1/155 199/2/199 174/3/174
f 200/1/200 151/2/151 175/3/175
f 151/1/151 200/2/200 176/3/176
f 201/1/201 152/2/152 176/3/176
f 152/1/152 201/2/201 177/3/177
f 202/1/202 153/2/153 177/3/177
f 153/1/153 202/2/202 178/3/178
f 203/1/203 154/2/154 178/3/178
f 154/1/154 203/2/203 179/3/179
f 203/1/203 158/2/158 179/3/179
f 158/1/158 203/2/203 182/3/182
f 204/1/204 159/2/159 182/3/182
f 159/1/159 204/2/204 183/3/183
f 205/1/205 160/2/160 183/3/183
f 160/1/160 205/2/205 184/3/184
f 206/1/206 161/2/161 184/3/184
f 161/1/161 206/2/206 185/3/185
f 207/1/207 162/2/162 185/3/185
f 162/1/162 207/2/207 186/3/186
f 187/1/187 186/2/186 208/3/208
f 186/1/186 187/2/187 163/3/163
f 188/1/188 187/2/187 209/3/209
f 187/1/187 188/2/188 164/3/164
f 189/1/189 188/2/188 210/3/210
f 188/1/188 189/2/189 165/3/165
f 190/1/190 189/2/189 211/3/211
f 189/1/189 190/2/190 166/3/166
f 167/1/167 212/2/212 191/3/191
f 212/1/212 167/2/167 190/3/190
f 168/1/168 213/2/213 192/3/192
f 213/1/213 168/2/168 191/3/191
f 214/1/214 169/2/169 194/3/194
f 169/1/169 214/2/214 193/3/193
f 195/1/195 193/2/193 215/3/215
f 193/1/193 195/2/195 170/3/170
f 216/1/216 174/2/174 199/3/199
f 174/1/174 216/2/216 194/3/194
f 196/1/196 195/2/195 217/3/217
f 195/1/195 196/2/196 171/3/171
f 197/1/197 196/2/196 218/3/218
f 196/1/196 197/2/197 172/3/172
f 198/1/198 197/2/197 219/3/219
f 197/1/197 198/2/198 173/3/173
f 220/1/220 175/2/175 198/3/198
f 175/1/175 220/2/220 200/3/200
f 221/1/221 176/2/176 200/3/200
f 176/1/176 221/2/221 201/3/201
f 222/1/222 177/2/177 201/3/201
f 177/1/177 222/2/222 202/3/202
f 223/1/223 178/2/178 202/3/202
f 178/1/178 223/2/223 203/3/203
f 223/1/223 182/2/182 203/3/203
f 182/1/182 223/2/223 204/3/204
f 224/1/224 183/2/183 204/3/204
f 183/1/183 224/2/224 205/3/205
f 225/1/225 184/2/184 205/3/205
f 184/1/184 225/2/225 206/3/206
f 226/1/226 185/2/185 206/3/206
f 185/1/185 226/2/226 207/3/207
f 208/1/208 207/2/207 227/3/227
f 207/1/207 208/2/208 186/3/186
f 209/1/209 208/2/208 228/3/228
f 208/1/208 209/2/209 187/3/187
f 210/1/210 209/2/209 229/3/229
f 209/1/209 210/2/210 188/3/188
f 211/1/211 210/2/210 230/3/230
f 210/1/210 211/2/211 189/3/189
f 190/1/190 231/2/231 212/3/212
f 231/1/231 190/2/190 211/3/211
f 191/1/191 232/2/232 213/3/213
f 232/1/232 191/2/191 212/3/212
f 215/1/215 214/2/214 233/3/233
f 214/1/214 215/2/215 193/3/193
f 234/1/234 194/2/194 216/3/216
f 194/1/194 234/2/234 214/3/214
f 217/1/217 215/2/215 235/3/235
f 215/1/215 217/2/217 195/3/195
f 218/1/218 217/2/217 236/3/236
f 217/1/217 218/2/218 196/3/196
f 219/1/219 218/2/218 237/3/237
f 218/1/218 219/2/219 197/3/197
f 238/1/238 198/2/198 219/3/219
f 198/1/198 238/2/238 220/3/220
f 239/1/239 200/2/200 220/3/220
f 200/1/200 239/2/239 221/3/221
f 240/1/240 201/2/201 221/3/221
f 201/1/201 240/2/240 222/3/222
f 241/1/241 202/2/202 222/3/222
f 202/1/202 241/2/241 223/3/223
f 241/1/241 204/2/204 223/3/223
f 204/1/204 241/2/241 224/3/224
f 242/1/242 205/2/205 224/3/224
f 205/1/205 242/2/242 225/3/225
f 243/1/243 206/2/206 225/3/225
f 206/1/206 243/2/243 226/3/226
f 244/1/244 207/2/207 226/3/226
f 207/1/207 244/2/244 227/3/227
f 228/1/228 227/2/227 245/3/245
f 227/1/227 228/2/228 208/3/208
f 229/1/229 228/2/228 246/3/246
f 228/1/228 229/2/229 209/3/209
f 230/1/230 229/2/229 247/3/247
f 229/1/229 230/2/230 210/3/210
f 231/1/231 230/2/230 248/3/248
f 230/1/230 231/2/231 211/3/211
f 212/1/212 249/2/249 232/3/232
f 249/1/249 212/2/212 231/3/231
f 235/1/235 233/2/233 250/3/250
f 233/1/233 235/2/235 215/3/215
f 233/1/233 234/2/234 251/3/251
f 234/1/234 233/2/233 214/3/214
f 236/1/236 235/2/235 252/3/252
f 235/1/235 236/2/236 217/3/217
f 237/1/237 236/2/236 253/3/253
f 236/1/236 237/2/237 218/3/218
f 238/1/238 237/2/237 254/3/254
f 237/1/237 238/2/238 219/3/219
f 255/1/255 220/2/220 238/3/238
f 220/1/220 255/2/255 239/3/239
f 256/1/256 221/2/221 239/3/239
f 221/1/221 256/2/256 240/3/240
f 257/1/257 222/2/222 240/3/240
f 222/1/222 257/2/257 241/3/241
f 257/1/257 224/2/224 241/3/241
f 224/1/224 257/2/257 242/3/242
f 258/1/258 225/2/225 242/3/242
f 225/1/225 258/2/258 243/3/243
f 259/1/259 226/2/226 243/3/243
f 226/1/226 259/2/259 244/3/244
f 245/1/245 244/2/244 260/3/260
f 244/1/244 245/2/245 227/3/227
f 246/1/246 245/2/245 261/3/261
f 245/1/245 246/2/246 228/3/228
f 247/1/247 246/2/246 262/3/262
f 246/1/246 247/2/247 229/3/229
f 248/1/248 247/2/247 263/3/263
f 247/1/247 248/2/248 230/3/230
f 249/1/249 248/2/248 264/3/264
f 248/1/248 249/2/249 231/3/231
f 252/1/252 250/2/250 265/3/265
f 250/1/250 252/2/252 235/3/235
f 250/1/250 251/2/251 266/3/266
f 251/1/251 250/2/250 233/3/233
f 253/1/253 252/2/252 267/3/267
f 252/1/252 253/2/253 236/3/236
f 254/1/254 253/2/253 268/3/268
f 253/1/253 254/2/254 237/3/237
f 269/1/269 238/2/238 254/3/254
f 238/1/238 269/2/269 255/3/255
f 270/1/270 239/2/239 255/3/255
f 239/1/239 270/2/270 256/3/256
f 271/1/271 240/2/240 256/3/256
f 240/1/240 271/2/271 257/3/257
f 271/1/271 242/2/242 257/3/257
f 242/1/242 271/2/271 258/3/258
f 272/1/272 243/2/243 258/3/258
f 243/1/243 272/2/272 259/3/259
f 273/1/273 244/2/244 259/3/259
f 244/1/244 273/2/273 260/3/260
f 261/1/261 260/2/260 274/3/274
f 260/1/260 261/2/261 245/3/245
f 262/1/262 261/2/261 275/3/275
f 261/1/261 262/2/262 246/3/246
f 263/1/263 262/2/262 276/3/276
f 262/1/262 263/2/263 247/3/247
f 264/1/264 263/2/263 277/3/277
f 263/1/263 264/2/264 248/3/248
f 265/1/265 266/2/266 278/3/278
f 266/1/266 265/2/265 250/3/250
f 267/1/267 265/2/265 279/3/279
f 265/1/265 267/2/267 252/3/252
f 268/1/268 267/2/267 280/3/280
f 267/1/267 268/2/268 253/3/253
f 281/1/281 254/2/254 268/3/268
f 254/1/254 281/2/281 269/3/269
f 282/1/282 255/2/255 269/3/269
f 255/1/255 282/2/282 270/3/270
f 283/1/283 256/2/256 270/3/270
f 256/1/256 283/2/283 271/3/271
f 283/1/283 258/2/258 271/3/271
f 258/1/258 283/2/283 272/3/272
f 284/1/284 259/2/259 272/3/272
f 259/1/259 284/2/284 273/3/273
f 285/1/285 260/2/260 273/3/273
f 260/1/260 285/2/285 274/3/274
f 275/1/275 274/2/274 286/3/286
f 274/1/274 275/2/275 261/3/261
f 276/1/276 275/2/275 287/3/287
f 275/1/275 276/2/276 262/3/262
f 277/1/277 276/2/276 288/3/288
f 276/1/276 277/2/277 263/3/263
f 289/1/289 265/2/265 278/3/278
f 265/1/265 289/2/289 279/3/279
f 290/1/290 267/2/267 279/3/279
f 267/1/267 290/2/290 280/3/280
f 291/1/291 268/2/268 280/3/280
f 268/1/268 291/2/291 281/3/281
f 292/1/292 269/2/269 281/3/281
f 269/1/269 292/2/292 282/3/282
f 293/1/293 270/2/270 282/3/282
f 270/1/270 293/2/293 283/3/283
f 293/1/293 272/2/272 283/3/283
f 272/1/272 293/2/293 284/3/284
f 294/1/294 273/2/273 284/3/284
f 273/1/273 294/2/294 285/3/285
f 295/1/295 274/2/274 285/3/285
f 274/1/274 295/2/295 286/3/286
f 296/1/296 275/2/275 286/3/286
f 275/1/275 296/2/296 287/3/287
f 297/1/297 276/2/276 287/3/287
f 276/1/276 297/2/297 288/3/288
f 298/1/298 279/2/279 289/3/289
f 279/1/279 298/2/298 290/3/290
f 299/1/299 280/2/280 290/3/290
f 280/1/280 299/2/299 291/3/291
f 300/1/300 281/2/281 291/3/291
f 281/1/281 300/2/300 292/3/292
f 301/1/301 282/2/282 292/3/292
f 282/1/282 301/2/301 293/3/293
f 301/1/301 284/2/284 293/3/293
f 284/1/284 301/2/301 294/3/294
f 285/1/285 302/2/302 295/3/295
f 302/1/302 285/2/285 294/3/294
f 303/1/303 286/2/286 295/3/295
f 286/1/286 303/2/303 296/3/296
f 304/1/304 287/2/287 296/3/296
f 287/1/287 304/2/304 297/3/297
f 305/1/305 290/2/290 298/3/298
f 290/1/290 305/2/305 299/3/299
f 306/1/306 291/2/291 299/3/299
f 291/1/291 306/2/306 300/3/300
f 307/1/307 292/2/292 300/3/300
f 292/1/292 307/2/307 301/3/301
f 294/1/294 307/2/307 302/3/302
f 307/1/307 294/2/294 301/3/301
f 308/1/308 295/2/295 302/3/302
f 295/1/295 308/2/308 303/3/303
f 309/1/309 296/2/296 303/3/303
f 296/1/296 309/2/309 304/3/304
f 310/1/310 299/2/299 305/3/305
f 299/1/299 310/2/310 306/3/306
f 311/1/311 300/2/300 306/3/306
f 300/1/300 311/2/311 307/3/307
f 311/1/311 302/2/302 307/3/307
f 302/1/302 311/2/311 308/3/308
f 312/1/312 303/2/303 308/3/308
f 303/1/303 312/2/312 309/3/309
f 313/1/313 306/2/306 310/3/310
f 306/1/306 313/2/313 311/3/311
f 313/1/313 308/2/308 311/3/311
f 308/1/308 313/2/313 312/3/312
f 314/1/314 315/2/315 316/3/316
f 315/1/315 314/2/314 317/3/317
f 318/1/318 317/2/317 314/3/314
f 317/1/317 318/2/318 319/3/319
f 316/1/316 320/2/320 321/3/321
f 320/1/320 316/2/316 315/3/315
f 317/1/317 322/2/322 315/3/315
f 322/1/322 317/2/317 323/3/323
f 318/1/318 324/2/324 319/3/319
f 324/1/324 318/2/318 325/3/325
f 319/1/319 323/2/323 317/3/317
f 323/1/323 319/2/319 326/3/326
f 321/1/321 327/2/327 328/3/328
f 327/1/327 321/2/321 320/3/320
f 315/1/315 329/2/329 320/3/320
f 329/1/329 315/2/315 322/3/322
f 325/1/325 330/2/330 324/3/324
f 330/1/330 325/2/325 331/3/331
f 319/1/319 332/2/332 326/3/326
f 332/1/332 319/2/319 324/3/324
f 328/1/328 333/2/333 334/3/334
f 333/1/333 328/2/328 327/3/327
f 320/1/320 335/2/335 327/3/327
f 335/1/335 320/2/320 329/3/329
f 331/1/331 336/2/336 330/3/330
f 336/1/336 331/2/331 337/3/337
f 324/1/324 338/2/338 332/3/332
f 338/1/338 324/2/324 330/3/330
f 334/1/334 339/2/339 340/3/340
f 339/1/339 334/2/334 333/3/333
f 327/1/327 341/2/341 333/3/333
f 341/1/341 327/2/327 335/3/335
f 337/1/337 342/2/342 336/3/336
f 342/1/342 337/2/337 343/3/343
f 330/1/330 344/2/344 338/3/338
f 344/1/344 330/2/330 336/3/336
f 340/1/340 345/2/345 346/3/346
f 345/1/345 340/2/340 339/3/339
f 333/1/333 347/2/347 339/3/339
f 347/1/347 333/2/333 341/3/341
f 343/1/343 348/2/348 342/3/342
f 348/1/348 343/2/343 349/3/349
f 336/1/336 350/2/350 344/3/344
f 350/1/350 336/2/336 342/3/342
f 345/1/345 351/2/351 346/3/346
f 351/1/351 345/2/345 352/3/352
f 339/1/339 353/2/353 345/3/345
f 353/1/353 339/2/339 347/3/347
f 348/1/348 354/2/354 355/3/355
f 354/1/354 348/2/348 349/3/349
f 342/1/342 356/2/356 350/3/350
f 356/1/356 342/2/342 348/3/348
f 352/1/352 357/2/357 351/3/351
f 357/1/357 352/2/352 358/3/358
f 353/1/353 352/2/352 345/3/345
f 352/1/352 353/2/353 359/3/359
f 355/1/355 360/2/360 361/3/361
f 360/1/360 355/2/355 354/3/354
f 356/1/356 355/2/355 362/3/362
f 355/1/355 356/2/356 348/3/348
f 358/1/358 363/2/363 357/3/357
f 363/1/363 358/2/358 364/3/364
f 359/1/359 358/2/358 352/3/352
f 358/1/358 359/2/359 365/3/365
f 361/1/361 366/2/366 367/3/367
f 366/1/366 361/2/361 360/3/360
f 362/1/362 361/2/361 368/3/368
f 361/1/361 362/2/362 355/3/355
f 364/1/364 369/2/369 363/3/363
f 369/1/369 364/2/364 370/3/370
f 365/1/365 364/2/364 358/3/358
f 364/1/364 365/2/365 371/3/371
f 367/1/367 372/2/372 373/3/373
f 372/1/372 367/2/367 366/3/366
f 368/1/368 367/2/367 374/3/374
f 367/1/367 368/2/368 361/3/361
f 370/1/370 375/2/375 369/3/369
f 375/1/375 370/2/370 376/3/376
f 371/1/371 370/2/370 364/3/364
f 370/1/370 371/2/371 377/3/377
f 373/1/373 378/2/378 379/3/379
f 378/1/378 373/2/373 372/3/372
f 374/1/374 373/2/373 380/3/380
f 373/1/373 374/2/374 367/3/367
f 376/1/376 381/2/381 375/3/375
f 381/1/381 376/2/376 382/3/382
f 377/1/377 376/2/376 370/3/370
f 376/1/376 377/2/377 383/3/383
f 379/1/379 381/2/381 382/3/382
f 381/1/381 379/2/379 378/3/378
f 380/1/380 379/2/379 384/3/384
f 379/1/379 380/2/380 373/3/373
f 383/1/383 382/2/382 376/3/376
f 382/1/382 383/2/383 385/3/385
f 384/1/384 382/2/382 385/3/385
f 382/1/382 384/2/384 379/3/379
f 386/1/386 387/2/387 388/3/388
f 387/1/387 386/2/386 389/3/389
f 390/1/390 386/2/386 388/3/388
f 386/1/386 390/2/390 391/3/391
f 389/1/389 392/2/392 387/3/387
f 392/1/392 389/2/389 393/3/393
f 394/1/394 389/2/389 386/3/386
f 389/1/389 394/2/394 395/3/395
f 396/1/396 391/2/391 390/3/390
f 391/1/391 396/2/396 397/3/397
f 391/1/391 394/2/394 386/3/386
f 394/1/394 391/2/391 398/3/398
f 393/1/393 399/2/399 392/3/392
f 399/1/399 393/2/393 400/3/400
f 395/1/395 393/2/393 389/3/389
f 393/1/393 395/2/395 401/3/401
f 402/1/402 395/2/395 394/3/394
f 395/1/395 402/2/402 403/3/403
f 404/1/404 397/2/397 396/3/396
f 397/1/397 404/2/404 405/3/405
f 397/1/397 398/2/398 391/3/391
f 398/1/398 397/2/397 406/3/406
f 398/1/398 402/2/402 394/3/394
f 402/1/402 398/2/398 407/3/407
f 400/1/400 408/2/408 399/3/399
f 408/1/408 400/2/400 409/3/409
f 401/1/401 400/2/400 393/3/393
f 400/1/400 401/2/401 410/3/410
f 403/1/403 401/2/401 395/3/395
f 401/1/401 403/2/403 411/3/411
f 412/1/412 403/2/403 402/3/402
f 403/1/403 412/2/412 413/3/413
f 414/1/414 405/2/405 404/3/404
f 405/1/405 414/2/414 415/3/415
f 405/1/405 406/2/406 397/3/397
f 406/1/406 405/2/405 416/3/416
f 406/1/406 407/2/407 398/3/398
f 407/1/407 406/2/406 417/3/417
f 407/1/407 412/2/412 402/3/402
f 412/1/412 407/2/407 418/3/418
f 408/1/408 419/2/419 420/3/420
f 419/1/419 408/2/408 409/3/409
f 410/1/410 409/2/409 400/3/400
f 409/1/409 410/2/410 421/3/421
f 411/1/411 410/2/410 401/3/401
f 410/1/410 411/2/411 422/3/422
f 413/1/413 411/2/411 403/3/403
f 411/1/411 413/2/413 423/3/423
f 424/1/424 413/2/413 412/3/412
f 413/1/413 424/2/424 425/3/425
f 426/1/426 414/2/414 427/3/427
f 414/1/414 426/2/426 415/3/415
f 415/1/415 416/2/416 405/3/405
f 416/1/416 415/2/415 428/3/428
f 416/1/416 417/2/417 406/3/406
f 417/1/417 416/2/416 429/3/429
f 417/1/417 418/2/418 407/3/407
f 418/1/418 417/2/417 430/3/430
f 418/1/418 424/2/424 412/3/412
f 424/1/424 418/2/418 431/3/431
f 420/1/420 432/2/432 433/3/433
f 432/1/432 420/2/420 419/3/419
f 409/1/409 434/2/434 419/3/419
f 434/1/434 409/2/409 421/3/421
f 410/1/410 435/2/435 421/3/421
f 435/1/435 410/2/410 422/3/422
f 423/1/423 422/2/422 411/3/411
f 422/1/422 423/2/423 436/3/436
f 425/1/425 423/2/423 413/3/413
f 423/1/423 425/2/425 437/3/437
f 438/1/438 425/2/425 424/3/424
f 425/1/425 438/2/438 439/3/439
f 440/1/440 427/2/427 441/3/441
f 427/1/427 440/2/440 426/3/426
f 442/1/442 415/2/415 426/3/426
f 415/1/415 442/2/442 428/3/428
f 443/1/443 416/2/416 428/3/428
f 416/1/416 443/2/443 429/3/429
f 429/1/429 430/2/430 417/3/417
f 430/1/430 429/2/429 444/3/444
f 430/1/430 431/2/431 418/3/418
f 431/1/431 430/2/430 445/3/445
f 431/1/431 438/2/438 424/3/424
f 438/1/438 431/2/431 446/3/446
f 433/1/433 447/2/447 448/3/448
f 447/1/447 433/2/433 432/3/432
f 419/1/419 449/2/449 432/3/432
f 449/1/449 419/2/419 434/3/434
f 421/1/421 450/2/450 434/3/434
f 450/1/450 421/2/421 435/3/435
f 422/1/422 451/2/451 435/3/435
f 451/1/451 422/2/422 436/3/436
f 437/1/437 436/2/436 423/3/423
f 436/1/436 437/2/437 452/3/452
f 439/1/439 437/2/437 425/3/425
f 437/1/437 439/2/439 453/3/453
f 454/1/454 439/2/439 438/3/438
f 439/1/439 454/2/454 455/3/455
f 456/1/456 441/2/441 457/3/457
f 441/1/441 456/2/456 440/3/440
f 458/1/458 426/2/426 440/3/440
f 426/1/426 458/2/458 442/3/442
f 459/1/459 428/2/428 442/3/442
f 428/1/428 459/2/459 443/3/443
f 460/1/460 429/2/429 443/3/443
f 429/1/429 460/2/460 444/3/444
f 444/1/444 445/2/445 430/3/430
f 445/1/445 444/2/444 461/3/461
f 445/1/445 446/2/446 431/3/431
f 446/1/446 445/2/445 462/3/462
f 446/1/446 454/2/454 438/3/438
f 454/1/454 446/2/446 463/3/463
f 448/1/448 464/2/464 465/3/465
f 464/1/464 448/2/448 447/3/447
f 432/1/432 466/2/466 447/3/447
f 466/1/466 432/2/432 449/3/449
f 434/1/434 467/2/467 449/3/449
f 467/1/467 434/2/434 450/3/450
f 435/1/435 468/2/468 450/3/450
f 468/1/468 435/2/435 451/3/451
f 452/1/452 451/2/451 436/3/436
f 451/1/451 452/2/452 469/3/469
f 453/1/453 452/2/452 437/3/437
f 452/1/452 453/2/453 470/3/470
f 455/1/455 453/2/453 439/3/439
f 453/1/453 455/2/455 471/3/471
f 472/1/472 455/2/455 454/3/454
f 455/1/455 472/2/472 473/3/473
f 474/1/474 457/2/457 475/3/475
f 457/1/457 474/2/474 456/3/456
f 476/1/476 440/2/440 456/3/456
f 440/1/440 476/2/476 458/3/458
f 477/1/477 442/2/442 458/3/458
f 442/1/442 477/2/477 459/3/459
f 478/1/478 443/2/443 459/3/459
f 443/1/443 478/2/478 460/3/460
f 460/1/460 461/2/461 444/3/444
f 461/1/461 460/2/460 479/3/479
f 461/1/461 462/2/462 445/3/445
f 462/1/462 461/2/461 480/3/480
f 462/1/462 463/2/463 446/3/446
f 463/1/463 462/2/462 481/3/481
f 463/1/463 472/2/472 454/3/454
f 472/1/472 463/2/463 482/3/482
f 464/1/464 483/2/483 465/3/465
f 483/1/483 464/2/464 484/3/484
f 447/1/447 485/2/485 464/3/464
f 485/1/485 447/2/447 466/3/466
f 449/1/449 486/2/486 466/3/466
f 486/1/486 449/2/449 467/3/467
f 450/1/450 487/2/487 467/3/467
f 487/1/487 450/2/450 468/3/468
f 451/1/451 488/2/488 468/3/468
f 488/1/488 451/2/451 469/3/469
f 470/1/470 469/2/469 452/3/452
f 469/1/469 470/2/470 489/3/489
f 471/1/471 470/2/470 453/3/453
f 470/1/470 471/2/471 490/3/490
f 473/1/473 471/2/471 455/3/455
f 471/1/471 473/2/473 491/3/491
f 492/1/492 473/2/473 472/3/472
f 473/1/473 492/2/492 493/3/493
f 474/1/474 494/2/494 495/3/495
f 494/1/494 474/2/474 475/3/475
f 496/1/496 456/2/456 474/3/474
f 456/1/456 496/2/496 476/3/476
f 497/1/497 458/2/458 476/3/476
f 458/1/458 497/2/497 477/3/477
f 498/1/498 459/2/459 477/3/477
f 459/1/459 498/2/498 478/3/478
f 499/1/499 460/2/460 478/3/478
f 460/1/460 499/2/499 479/3/479
f 479/1/479 480/2/480 461/3/461
f 480/1/480 479/2/479 500/3/500
f 480/1/480 481/2/481 462/3/462
f 481/1/481 480/2/480 501/3/501
f 481/1/481 482/2/482 463/3/463
f 482/1/482 481/2/481 502/3/502
f 482/1/482 492/2/492 472/3/472
f 492/1/492 482/2/482 503/3/503
f 484/1/484 504/2/504 483/3/483
f 504/1/504 484/2/484 505/3/505
f 464/1/464 506/2/506 484/3/484
f 506/1/506 464/2/464 485/3/485
f 466/1/466 507/2/507 485/3/485
f 507/1/507 466/2/466 486/3/486
f 467/1/467 508/2/508 486/3/486
f 508/1/508 467/2/467 487/3/487
f 468/1/468 509/2/509 487/3/487
f 509/1/509 468/2/468 488/3/488
f 469/1/469 510/2/510 488/3/488
f 510/1/510 469/2/469 489/3/489
f 490/1/490 489/2/489 470/3/470
f 489/1/489 490/2/490 511/3/511
f 491/1/491 490/2/490 471/3/471
f 490/1/490 491/2/491 512/3/512
f 493/1/493 491/2/491 473/3/473
f 491/1/491 493/2/493 513/3/513
f 514/1/514 493/2/493 492/3/492
f 493/1/493 514/2/514 515/3/515
f 495/1/495 516/2/516 517/3/517
f 516/1/516 495/2/495 494/3/494
f 518/1/518 474/2/474 495/3/495
f 474/1/474 518/2/518 496/3/496
f 519/1/519 476/2/476 496/3/496
f 476/1/476 519/2/519 497/3/497
f 520/1/520 477/2/477 497/3/497
f 477/1/477 520/2/520 498/3/498
f 521/1/521 478/2/478 498/3/498
f 478/1/478 521/2/521 499/3/499
f 522/1/522 479/2/479 499/3/499
f 479/1/479 522/2/522 500/3/500
f 500/1/500 501/2/501 480/3/480
f 501/1/501 500/2/500 523/3/523
f 501/1/501 502/2/502 481/3/481
f 502/1/502 501/2/501 524/3/524
f 502/1/502 503/2/503 482/3/482
f 503/1/503 502/2/502 525/3/525
f 503/1/503 514/2/514 492/3/492
f 514/1/514 503/2/503 526/3/526
f 505/1/505 527/2/527 504/3/504
f 527/1/527 505/2/505 528/3/528
f 506/1/506 505/2/505 484/3/484
f 505/1/505 506/2/506 529/3/529
f 485/1/485 530/2/530 506/3/506
f 530/1/530 485/2/485 507/3/507
f 486/1/486 531/2/531 507/3/507
f 531/1/531 486/2/486 508/3/508
f 487/1/487 532/2/532 508/3/508
f 532/1/532 487/2/487 509/3/509
f 488/1/488 533/2/533 509/3/509
f 533/1/533 488/2/488 510/3/510
f 489/1/489 534/2/534 510/3/510
f 534/1/534 489/2/489 511/3/511
f 512/1/512 511/2/511 490/3/490
f 511/1/511 512/2/512 535/3/535
f 513/1/513 512/2/512 491/3/491
f 512/1/512 513/2/513 536/3/536
f 515/1/515 513/2/513 493/3/493
f 513/1/513 515/2/515 537/3/537
f 514/1/514 538/2/538 515/3/515
f 538/1/538 514/2/514 539/3/539
f 517/1/517 540/2/540 541/3/541
f 540/1/540 517/2/517 516/3/516
f 518/1/518 517/2/517 542/3/542
f 517/1/517 518/2/518 495/3/495
f 543/1/543 496/2/496 518/3/518
f 496/1/496 543/2/543 519/3/519
f 544/1/544 497/2/497 519/3/519
f 497/1/497 544/2/544 520/3/520
f 545/1/545 498/2/498 520/3/520
f 498/1/498 545/2/545 521/3/521
f 546/1/546 499/2/499 521/3/521
f 499/1/499 546/2/546 522/3/522
f 547/1/547 500/2/500 522/3/522
f 500/1/500 547/2/547 523/3/523
f 523/1/523 524/2/524 501/3/501
f 524/1/524 523/2/523 548/3/548
f 524/1/524 525/2/525 502/3/502
f 525/1/525 524/2/524 549/3/549
f 525/1/525 526/2/526 503/3/503
f 526/1/526 525/2/525 550/3/550
f 526/1/526 539/2/539 514/3/514
f 539/1/539 526/2/526 551/3/551
f 528/1/528 552/2/552 527/3/527
f 552/1/552 528/2/528 553/3/553
f 529/1/529 528/2/528 505/3/505
f 528/1/528 529/2/529 554/3/554
f 530/1/530 529/2/529 506/3/506
f 529/1/529 530/2/530 555/3/555
f 507/1/507 556/2/556 530/3/530
f 556/1/556 507/2/507 531/3/531
f 508/1/508 557/2/557 531/3/531
f 557/1/557 508/2/508 532/3/532
f 509/1/509 558/2/558 532/3/532
f 558/1/558 509/2/509 533/3/533
f 510/1/510 559/2/559 533/3/533
f 559/1/559 510/2/510 534/3/534
f 511/1/511 560/2/560 534/3/534
f 560/1/560 511/2/511 535/3/535
f 536/1/536 535/2/535 512/3/512
f 535/1/535 536/2/536 561/3/561
f 537/1/537 536/2/536 513/3/513
f 536/1/536 537/2/537 562/3/562
f 515/1/515 563/2/563 537/3/537
f 563/1/563 515/2/515 538/3/538
f 539/1/539 564/2/564 538/3/538
f 564/1/564 539/2/539 565/3/565
f 541/1/541 552/2/552 553/3/553
f 552/1/552 541/2/541 540/3/540
f 542/1/542 541/2/541 566/3/566
f 541/1/541 542/2/542 517/3/517
f 543/1/543 542/2/542 567/3/567
f 542/1/542 543/2/543 518/3/518
f 568/1/568 519/2/519 543/3/543
f 519/1/519 568/2/568 544/3/544
f 569/1/569 520/2/520 544/3/544
f 520/1/520 569/2/569 545/3/545
f 570/1/570 521/2/521 545/3/545
f 521/1/521 570/2/570 546/3/546
f 571/1/571 522/2/522 546/3/546
f 522/1/522 571/2/571 547/3/547
f 572/1/572 523/2/523 547/3/547
f 523/1/523 572/2/572 548/3/548
f 548/1/548 549/2/549 524/3/524
f 549/1/549 548/2/548 573/3/573
f 549/1/549 550/2/550 525/3/525
f 550/1/550 549/2/549 574/3/574
f 526/1/526 575/2/575 551/3/551
f 575/1/575 526/2/526 550/3/550
f 551/1/551 565/2/565 539/3/539
f 565/1/565 551/2/551 576/3/576
f 554/1/554 553/2/553 528/3/528
f 553/1/553 554/2/554 577/3/577
f 555/1/555 554/2/554 529/3/529
f 554/1/554 555/2/555 578/3/578
f 556/1/556 555/2/555 530/3/530
f 555/1/555 556/2/556 579/3/579
f 531/1/531 580/2/580 556/3/556
f 580/1/580 531/2/531 557/3/557
f 532/1/532 581/2/581 557/3/557
f 581/1/581 532/2/532 558/3/558
f 533/1/533 582/2/582 558/3/558
f 582/1/582 533/2/533 559/3/559
f 534/1/534 583/2/583 559/3/559
f 583/1/583 534/2/534 560/3/560
f 535/1/535 584/2/584 560/3/560
f 584/1/584 535/2/535 561/3/561
f 536/1/536 585/2/585 561/3/561
f 585/1/585 536/2/536 562/3/562
f 537/1/537 586/2/586 562/3/562
f 586/1/586 537/2/537 563/3/563
f 538/1/538 587/2/587 563/3/563
f 587/1/587 538/2/538 564/3/564
f 588/1/588 564/2/564 565/3/565
f 566/1/566 553/2/553 577/3/577
f 553/1/553 566/2/566 541/3/541
f 566/1/566 567/2/567 542/3/542
f 567/1/567 566/2/566 589/3/589
f 568/1/568 567/2/567 590/3/590
f 567/1/567 568/2/568 543/3/543
f 591/1/591 544/2/544 568/3/568
f 544/1/544 591/2/591 569/3/569
f 592/1/592 545/2/545 569/3/569
f 545/1/545 592/2/592 570/3/570
f 593/1/593 546/2/546 570/3/570
f 546/1/546 593/2/593 571/3/571
f 547/1/547 594/2/594 572/3/572
f 594/1/594 547/2/547 571/3/571
f 548/1/548 595/2/595 573/3/573
f 595/1/595 548/2/548 572/3/572
f 549/1/549 596/2/596 574/3/574
f 596/1/596 549/2/549 573/3/573
f 550/1/550 597/2/597 575/3/575
f 597/1/597 550/2/550 574/3/574
f 551/1/551 598/2/598 576/3/576
f 598/1/598 551/2/551 575/3/575
f 576/1/576 588/2/588 565/3/565
f 578/1/578 577/2/577 554/3/554
f 577/1/577 578/2/578 599/3/599
f 579/1/579 578/2/578 555/3/555
f 578/1/578 579/2/579 600/3/600
f 580/1/580 579/2/579 556/3/556
f 579/1/579 580/2/580 601/3/601
f 581/1/581 580/2/580 557/3/557
f 580/1/580 581/2/581 602/3/602
f 582/1/582 581/2/581 558/3/558
f 581/1/581 582/2/582 603/3/603
f 583/1/583 582/2/582 559/3/559
f 582/1/582 583/2/583 604/3/604
f 560/1/560 605/2/605 583/3/583
f 605/1/605 560/2/560 584/3/584
f 561/1/561 606/2/606 584/3/584
f 606/1/606 561/2/561 585/3/585
f 562/1/562 607/2/607 585/3/585
f 607/1/607 562/2/562 586/3/586
f 563/1/563 608/2/608 586/3/586
f 608/1/608 563/2/563 587/3/587
f 588/1/588 587/2/587 564/3/564
f 577/1/577 589/2/589 566/3/566
f 589/1/589 577/2/577 599/3/599
f 590/1/590 589/2/589 609/3/609
f 589/1/589 590/2/590 567/3/567
f 591/1/591 590/2/590 610/3/610
f 590/1/590 591/2/591 568/3/568
f 592/1/592 591/2/591 611/3/611
f 591/1/591 592/2/592 569/3/569
f 593/1/593 592/2/592 612/3/612
f 592/1/592 593/2/593 570/3/570
f 594/1/594 593/2/593 613/3/613
f 593/1/593 594/2/594 571/3/571
f 572/1/572 614/2/614 595/3/595
f 614/1/614 572/2/572 594/3/594
f 573/1/573 615/2/615 596/3/596
f 615/1/615 573/2/573 595/3/595
f 574/1/574 616/2/616 597/3/597
f 616/1/616 574/2/574 596/3/596
f 575/1/575 617/2/617 598/3/598
f 617/1/617 575/2/575 597/3/597
f 598/1/598 588/2/588 576/3/576
f 600/1/600 599/2/599 578/3/578
f 599/1/599 600/2/600 618/3/618
f 601/1/601 600/2/600 579/3/579
f 600/1/600 601/2/601 619/3/619
f 602/1/602 601/2/601 580/3/580
f 601/1/601 602/2/602 620/3/620
f 603/1/603 602/2/602 581/3/581
f 602/1/602 603/2/603 621/3/621
f 604/1/604 603/2/603 582/3/582
f 603/1/603 604/2/604 622/3/622
f 605/1/605 604/2/604 583/3/583
f 604/1/604 605/2/605 623/3/623
f 584/1/584 624/2/624 605/3/605
f 624/1/624 584/2/584 606/3/606
f 585/1/585 625/2/625 606/3/606
f 625/1/625 585/2/585 607/3/607
f 586/1/586 626/2/626 607/3/607
f 626/1/626 586/2/586 608/3/608
f 588/1/588 608/2/608 587/3/587
f 609/1/609 599/2/599 618/3/618
f 599/1/599 609/2/609 589/3/589
f 610/1/610 609/2/609 627/3/627
f 609/1/609 610/2/610 590/3/590
f 611/1/611 610/2/610 628/3/628
f 610/1/610 611/2/611 591/3/591
f 612/1/612 611/2/611 629/3/629
f 611/1/611 612/2/612 592/3/592
f 613/1/613 612/2/612 630/3/630
f 612/1/612 613/2/613 593/3/593
f 614/1/614 613/2/613 631/3/631
f 613/1/613 614/2/614 594/3/594
f 595/1/595 632/2/632 615/3/615
f 632/1/632 595/2/595 614/3/614
f 596/1/596 633/2/633 616/3/616
f 633/1/633 596/2/596 615/3/615
f 597/1/597 634/2/634 617/3/617
f 634/1/634 597/2/597 616/3/616
f 617/1/617 588/2/588 598/3/598
f 619/1/619 618/2/618 600/3/600
f 618/1/618 619/2/619 635/3/635
f 620/1/620 619/2/619 601/3/601
f 619/1/619 620/2/620 636/3/636
f 621/1/621 620/2/620 602/3/602
f 620/1/620 621/2/621 637/3/637
f 622/1/622 621/2/621 603/3/603
f 621/1/621 622/2/622 638/3/638
f 623/1/623 622/2/622 604/3/604
f 622/1/622 623/2/623 639/3/639
f 624/1/624 623/2/623 605/3/605
f 623/1/623 624/2/624 640/3/640
f 606/1/606 641/2/641 624/3/624
f 641/1/641 606/2/606 625/3/625
f 607/1/607 642/2/642 625/3/625
f 642/1/642 607/2/607 626/3/626
f 588/1/588 626/2/626 608/3/608
f 627/1/627 618/2/618 635/3/635
f 618/1/618 627/2/627 609/3/609
f 628/1/628 627/2/627 643/3/643
f 627/1/627 628/2/628 610/3/610
f 629/1/629 628/2/628 644/3/644
f 628/1/628 629/2/629 611/3/611
f 630/1/630 629/2/629 645/3/645
f 629/1/629 630/2/630 612/3/612
f 631/1/631 630/2/630 646/3/646
f 630/1/630 631/2/631 613/3/613
f 632/1/632 631/2/631 647/3/647
f 631/1/631 632/2/632 614/3/614
f 615/1/615 648/2/648 633/3/633
f 648/1/648 615/2/615 632/3/632
f 616/1/616 649/2/649 634/3/634
f 649/1/649 616/2/616 633/3/633
f 634/1/634 588/2/588 617/3/617
f 636/1/636 635/2/635 619/3/619
f 635/1/635 636/2/636 650/3/650
f 637/1/637 636/2/636 620/3/620
f 636/1/636 637/2/637 651/3/651
f 638/1/638 637/2/637 621/3/621
f 637/1/637 638/2/638 652/3/652
f 639/1/639 638/2/638 622/3/622
f 638/1/638 639/2/639 653/3/653
f 640/1/640 639/2/639 623/3/623
f 639/1/639 640/2/640 654/3/654
f 641/1/641 640/2/640 624/3/624
f 640/1/640 641/2/641 655/3/655
f 625/1/625 656/2/656 641/3/641
f 656/1/656 625/2/625 642/3/642
f 588/1/588 642/2/642 626/3/626
f 643/1/643 635/2/635 650/3/650
f 635/1/635 643/2/643 627/3/627
f 644/1/644 643/2/643 657/3/657
f 643/1/643 644/2/644 628/3/628
f 645/1/645 644/2/644 658/3/658
f 644/1/644 645/2/645 629/3/629
f 646/1/646 645/2/645 659/3/659
f 645/1/645 646/2/646 630/3/630
f 647/1/647 646/2/646 660/3/660
f 646/1/646 647/2/647 631/3/631
f 648/1/648 647/2/647 661/3/661
f 647/1/647 648/2/648 632/3/632
f 633/1/633 662/2/662 649/3/649
f 662/1/662 633/2/633 648/3/648
f 649/1/649 588/2/588 634/3/634
f 651/1/651 650/2/650 636/3/636
f 650/1/650 651/2/651 663/3/663
f 652/1/652 651/2/651 637/3/637
f 651/1/651 652/2/652 664/3/664
f 653/1/653 652/2/652 638/3/638
f 652/1/652 653/2/653 665/3/665
f 654/1/654 653/2/653 639/3/639
f 653/1/653 654/2/654 666/3/666
f 655/1/655 654/2/654 640/3/640
f 654/1/654 655/2/655 667/3/667
f 656/1/656 655/2/655 641/3/641
f 655/1/655 656/2/656 668/3/668
f 588/1/588 656/2/656 642/3/642
f 657/1/657 650/2/650 663/3/663
f 650/1/650 657/2/657 643/3/643
f 658/1/658 657/2/657 669/3/669
f 657/1/657 658/2/658 644/3/644
f 659/1/659 658/2/658 670/3/670
f 658/1/658 659/2/659 645/3/645
f 660/1/660 659/2/659 671/3/671
f 659/1/659 660/2/660 646/3/646
f 661/1/661 660/2/660 672/3/672
f 660/1/660 661/2/661 647/3/647
f 662/1/662 661/2/661 673/3/673
f 661/1/661 662/2/662 648/3/648
f 662/1/662 588/2/588 649/3/649
f 664/1/664 663/2/663 651/3/651
f 663/1/663 664/2/664 674/3/674
f 665/1/665 664/2/664 652/3/652
f 664/1/664 665/2/665 675/3/675
f 666/1/666 665/2/665 653/3/653
f 665/1/665 666/2/666 676/3/676
f 667/1/667 666/2/666 654/3/654
f 666/1/666 667/2/667 677/3/677
f 668/1/668 667/2/667 655/3/655
f 667/1/667 668/2/668 678/3/678
f 588/1/588 668/2/668 656/3/656
f 669/1/669 663/2/663 674/3/674
f 663/1/663 669/2/669 657/3/657
f 670/1/670 669/2/669 679/3/679
f 669/1/669 670/2/670 658/3/658
f 671/1/671 670/2/670 680/3/680
f 670/1/670 671/2/671 659/3/659
f 672/1/672 671/2/671 681/3/681
f 671/1/671 672/2/672 660/3/660
f 673/1/673 672/2/672 682/3/682
f 672/1/672 673/2/673 661/3/661
f 662/1/662 673/2/673 588/3/588
f 675/1/675 674/2/674 664/3/664
f 674/1/674 675/2/675 683/3/683
f 676/1/676 675/2/675 665/3/665
f 675/1/675 676/2/676 684/3/684
f 677/1/677 676/2/676 666/3/666
f 676/1/676 677/2/677 685/3/685
f 678/1/678 677/2/677 667/3/667
f 677/1/677 678/2/678 686/3/686
f 588/1/588 678/2/678 668/3/668
f 679/1/679 674/2/674 683/3/683
f 674/1/674 679/2/679 669/3/669
f 680/1/680 679/2/679 687/3/687
f 679/1/679 680/2/680 670/3/670
f 681/1/681 680/2/680 688/3/688
f 680/1/680 681/2/681 671/3/671
f 682/1/682 681/2/681 689/3/689
f 681/1/681 682/2/682 672/3/672
f 673/1/673 682/2/682 588/3/588
f 684/1/684 683/2/683 675/3/675
f 683/1/683 684/2/684 690/3/690
f 685/1/685 684/2/684 676/3/676
f 684/1/684 685/2/685 691/3/691
f 686/1/686 685/2/685 677/3/677
f 685/1/685 686/2/686 692/3/692
f 588/1/588 686/2/686 678/3/678
f 687/1/687 683/2/683 690/3/690
f 683/1/683 687/2/687 679/3/679
f 688/1/688 687/2/687 693/3/693
f 687/1/687 688/2/688 680/3/680
f 689/1/689 688/2/688 694/3/694
f 688/1/688 689/2/689 681/3/681
f 682/1/682 689/2/689 588/3/588
f 691/1/691 690/2/690 684/3/684
f 690/1/690 691/2/691 695/3/695
f 692/1/692 691/2/691 685/3/685
f 691/1/691 692/2/692 696/3/696
f 588/1/588 692/2/692 686/3/686
f 693/1/693 690/2/690 695/3/695
f 690/1/690 693/2/693 687/3/687
f 694/1/694 693/2/693 697/3/697
f 693/1/693 694/2/694 688/3/688
f 689/1/689 694/2/694 588/3/588
f 696/1/696 695/2/695 691/3/691
f 695/1/695 696/2/696 698/3/698
f 588/1/588 696/2/696 692/3/692
f 697/1/697 695/2/695 698/3/698
f 695/1/695 697/2/697 693/3/693
f 694/1/694 697/2/697 588/3/588
f 698/1/698 696/2/696 588/3/588
f 697/1/697 698/2/698 588/3/588
