# Blender 5.2.0 LTS
# www.blender.org
o Body_Tail
v 0.003172 0.357237 -0.164257
v -0.003474 0.357093 -0.163845
v 0.002945 0.355613 -0.164825
v 0.002281 0.354101 -0.165355
v 0.009255 0.354447 -0.166610
v 0.009704 0.357666 -0.165483
v 0.002945 0.358860 -0.163688
v 0.001225 0.352802 -0.165810
v 0.007938 0.351448 -0.167660
v 0.015346 0.353614 -0.169170
v 0.016010 0.358374 -0.167503
v 0.009255 0.360885 -0.164356
v 0.002281 0.360373 -0.163158
v -0.000151 0.351805 -0.166159
v 0.005844 0.348872 -0.168562
v 0.013400 0.349179 -0.170723
v 0.021115 0.353129 -0.172461
v 0.021983 0.359347 -0.170283
v 0.015346 0.363133 -0.165837
v 0.007938 0.363885 -0.163305
v 0.001225 0.361672 -0.162703
v -0.001754 0.351178 -0.166378
v 0.003115 0.346896 -0.169255
v 0.010303 0.345371 -0.172057
v 0.018572 0.347334 -0.174490
v 0.026464 0.352999 -0.176427
v 0.027520 0.360570 -0.173775
v 0.021115 0.365566 -0.168106
v 0.013400 0.367568 -0.164284
v 0.005844 0.366460 -0.162403
v -0.000151 0.362669 -0.162354
v -0.003474 0.350965 -0.166453
v -0.000063 0.345653 -0.169690
v 0.006268 0.342449 -0.173080
v 0.014527 0.342358 -0.176233
v 0.023368 0.345944 -0.178897
v 0.031301 0.353227 -0.180999
v 0.032528 0.362022 -0.177920
v 0.026464 0.368141 -0.171124
v 0.018572 0.371360 -0.166076
v 0.010303 0.371377 -0.162950
v 0.003115 0.368437 -0.161711
v -0.001754 0.363295 -0.162135
v -0.005194 0.351178 -0.166378
v -0.003474 0.345229 -0.169838
v 0.001569 0.340612 -0.173723
v 0.009255 0.338540 -0.177570
v 0.018443 0.339886 -0.181019
v 0.027704 0.345033 -0.183869
v 0.036919 0.363676 -0.182645
v 0.035542 0.353810 -0.186101
v 0.031301 0.370816 -0.174840
v 0.023368 0.375196 -0.168653
v 0.014527 0.376336 -0.164334
v 0.006268 0.374299 -0.161926
v -0.000063 0.369679 -0.161276
v -0.003474 0.363509 -0.162060
v -0.006796 0.351805 -0.166159
v -0.006884 0.345653 -0.169690
v -0.003474 0.339985 -0.173943
v 0.003115 0.336140 -0.178410
v 0.012023 0.335237 -0.182647
v 0.021983 0.337995 -0.186334
v 0.031507 0.344615 -0.189321
v 0.039116 0.354736 -0.191643
v 0.040619 0.365507 -0.187872
v 0.035542 0.373543 -0.179190
v 0.027704 0.379010 -0.171970
v 0.018443 0.381255 -0.166532
v 0.009255 0.380154 -0.162997
v 0.001569 0.376136 -0.161283
v -0.003474 0.370103 -0.161128
v -0.005194 0.363295 -0.162135
v -0.008173 0.352802 -0.165810
v -0.010062 0.346896 -0.169255
v -0.008516 0.340612 -0.173723
v -0.003474 0.335321 -0.178697
v 0.004548 0.332315 -0.183670
v 0.014527 0.332596 -0.188224
v 0.025088 0.336720 -0.192085
v 0.034711 0.344700 -0.195158
v 0.043564 0.367481 -0.193509
v 0.041961 0.355991 -0.197533
v 0.039116 0.376277 -0.184100
v 0.031507 0.382738 -0.175970
v 0.021983 0.386048 -0.169506
v 0.012023 0.385903 -0.164904
v 0.003115 0.382555 -0.162156
v -0.003474 0.376763 -0.161064
v -0.006884 0.369679 -0.161276
v -0.006796 0.362669 -0.162354
v -0.009229 0.354101 -0.165355
v -0.012792 0.348872 -0.168562
v -0.013215 0.342449 -0.173080
v -0.010062 0.336140 -0.178410
v -0.003474 0.331318 -0.184019
v 0.005844 0.329201 -0.189413
v 0.016722 0.330662 -0.194207
v 0.027704 0.336081 -0.198176
v 0.037262 0.345284 -0.201282
v 0.045705 0.369565 -0.199461
v 0.044029 0.357552 -0.203668
v 0.041961 0.378971 -0.189485
v 0.034711 0.386314 -0.180585
v 0.025088 0.390633 -0.173205
v 0.014527 0.391447 -0.167615
v 0.004548 0.388826 -0.163880
v -0.003474 0.383373 -0.161870
v -0.008516 0.376136 -0.161283
v -0.010062 0.368437 -0.161711
v -0.008173 0.361672 -0.162703
v -0.009893 0.355613 -0.164825
v -0.014886 0.351448 -0.167660
v -0.017251 0.345371 -0.172057
v -0.016202 0.338540 -0.177570
v -0.011496 0.332315 -0.183670
v -0.003474 0.328044 -0.189819
v 0.006981 0.326853 -0.195541
v 0.018572 0.329468 -0.200492
v 0.029787 0.336089 -0.204502
v 0.039116 0.346358 -0.207588
v 0.045284 0.359394 -0.209944
v 0.047004 0.371724 -0.205626
v 0.044029 0.381578 -0.195254
v 0.037262 0.389678 -0.185736
v 0.027704 0.394932 -0.177567
v 0.016722 0.396691 -0.171084
v 0.005844 0.394842 -0.166426
v -0.003474 0.389823 -0.163531
v -0.010062 0.382555 -0.162156
v -0.013215 0.374299 -0.161926
v -0.012792 0.366460 -0.162403
v -0.009229 0.360373 -0.163158
v -0.010119 0.357237 -0.164257
v -0.016202 0.354447 -0.166610
v -0.020347 0.349179 -0.170723
v -0.021474 0.342358 -0.176233
v -0.018971 0.335237 -0.182647
v -0.012792 0.329201 -0.189413
v -0.003474 0.325554 -0.195996
v 0.007938 0.325310 -0.201948
v 0.020045 0.329034 -0.206973
v 0.031301 0.336745 -0.210954
v 0.040241 0.347903 -0.213967
v 0.047440 0.373920 -0.211898
v 0.045705 0.361484 -0.216253
v 0.045284 0.384054 -0.201308
v 0.039116 0.392772 -0.191334
v 0.029787 0.398872 -0.182516
v 0.018572 0.401546 -0.175251
v 0.006981 0.400500 -0.169750
v -0.003474 0.395999 -0.166021
v -0.011496 0.388826 -0.163880
v -0.016202 0.380154 -0.162997
v -0.017251 0.371377 -0.162950
v -0.014886 0.363885 -0.163305
v -0.009893 0.358860 -0.163688
v -0.016651 0.357666 -0.165483
v -0.022293 0.353614 -0.169170
v -0.025520 0.347334 -0.174490
v -0.025390 0.339886 -0.181019
v -0.021474 0.332596 -0.188224
v -0.013928 0.326853 -0.195541
v -0.003474 0.323892 -0.202445
v 0.008700 0.324599 -0.208526
v 0.021115 0.329369 -0.213537
v 0.032220 0.338037 -0.217423
v 0.040619 0.349894 -0.220311
v 0.045284 0.363786 -0.222488
v 0.047004 0.376117 -0.218170
v 0.045705 0.386357 -0.207542
v 0.040241 0.395545 -0.197284
v 0.031301 0.402385 -0.187967
v 0.020045 0.405927 -0.180045
v 0.007938 0.405703 -0.173795
v -0.003474 0.401799 -0.169295
v -0.012792 0.394842 -0.166426
v -0.018971 0.385903 -0.164904
v -0.021474 0.376336 -0.164334
v -0.020347 0.367568 -0.164284
v -0.016202 0.360885 -0.164356
v -0.022957 0.358374 -0.167503
v -0.028063 0.353129 -0.172461
v -0.030315 0.345944 -0.178897
v -0.028930 0.337995 -0.186334
v -0.023670 0.330662 -0.194207
v -0.014886 0.325310 -0.201948
v -0.003474 0.323086 -0.209056
v 0.009255 0.324732 -0.215161
v 0.021765 0.330466 -0.220074
v 0.032528 0.339942 -0.223797
v 0.040241 0.352296 -0.226511
v 0.045705 0.378276 -0.224334
v 0.044029 0.366263 -0.228541
v 0.045284 0.388447 -0.213852
v 0.040619 0.397946 -0.203484
v 0.032220 0.405411 -0.193828
v 0.021115 0.409761 -0.185384
v 0.008700 0.410362 -0.178492
v -0.003474 0.407121 -0.173298
v -0.013928 0.400500 -0.169750
v -0.021474 0.391447 -0.167615
v -0.025390 0.381255 -0.166532
v -0.025520 0.371360 -0.166076
v -0.022293 0.363133 -0.165837
v -0.028930 0.359347 -0.170283
v -0.033412 0.352999 -0.176427
v -0.034652 0.345033 -0.183869
v -0.032035 0.336720 -0.192085
v -0.025520 0.329468 -0.200492
v -0.015648 0.324599 -0.208526
v -0.003474 0.323150 -0.215715
v 0.009591 0.325706 -0.221741
v 0.021983 0.332306 -0.226471
v 0.032220 0.342430 -0.229967
v 0.039116 0.355068 -0.232461
v 0.041961 0.368870 -0.234310
v 0.043564 0.380360 -0.230286
v 0.044029 0.390289 -0.220127
v 0.040241 0.399937 -0.209828
v 0.032528 0.407898 -0.199999
v 0.021765 0.412982 -0.191177
v 0.009255 0.414398 -0.183760
v -0.003474 0.411875 -0.177962
v -0.014886 0.405703 -0.173795
v -0.023670 0.396691 -0.171084
v -0.028930 0.386048 -0.169506
v -0.030315 0.375196 -0.168653
v -0.028063 0.365566 -0.168106
v -0.034468 0.360570 -0.173775
v -0.038248 0.353227 -0.180999
v -0.038454 0.344615 -0.189321
v -0.034652 0.336081 -0.198176
v -0.026993 0.329034 -0.206973
v -0.016202 0.324732 -0.215161
v -0.003474 0.324083 -0.222309
v 0.009704 0.327506 -0.228152
v 0.021765 0.334859 -0.232618
v 0.031301 0.345456 -0.235828
v 0.037262 0.358163 -0.238060
v 0.040619 0.382334 -0.235924
v 0.039116 0.371564 -0.239696
v 0.041961 0.391850 -0.226263
v 0.039116 0.401483 -0.216207
v 0.032220 0.409804 -0.206372
v 0.021983 0.415535 -0.197325
v 0.009591 0.417742 -0.189510
v -0.003474 0.415980 -0.183207
v -0.015648 0.410362 -0.178492
v -0.025520 0.401546 -0.175251
v -0.032035 0.390633 -0.173205
v -0.034652 0.379010 -0.171970
v -0.033412 0.368141 -0.171124
v -0.039475 0.362022 -0.177920
v -0.042490 0.353810 -0.186101
v -0.041659 0.344700 -0.195158
v -0.036735 0.336089 -0.204502
v -0.028063 0.329369 -0.213537
v -0.016538 0.325706 -0.221741
v -0.003474 0.325868 -0.228725
v 0.009591 0.330099 -0.234285
v 0.021115 0.338079 -0.238411
v 0.029787 0.348968 -0.241279
v 0.034711 0.361527 -0.243210
v 0.035542 0.374298 -0.244605
v 0.036919 0.384164 -0.241150
v 0.039116 0.393105 -0.232152
v 0.037262 0.402557 -0.222513
v 0.031301 0.411096 -0.212841
v 0.021765 0.417375 -0.203721
v 0.009704 0.420335 -0.195643
v -0.003474 0.419365 -0.188942
v -0.016202 0.414398 -0.183760
v -0.026993 0.405927 -0.180045
v -0.034652 0.394932 -0.177567
v -0.038454 0.382738 -0.175970
v -0.038248 0.370816 -0.174840
v -0.043866 0.363676 -0.182645
v -0.046064 0.354736 -0.191643
v -0.044210 0.345284 -0.201282
v -0.038248 0.336745 -0.210954
v -0.028713 0.330466 -0.220074
v -0.016651 0.327506 -0.228152
v -0.003474 0.328476 -0.234853
v 0.009255 0.333443 -0.240035
v 0.020045 0.341913 -0.243750
v 0.027704 0.352908 -0.246228
v 0.031507 0.365103 -0.247825
v 0.032528 0.385819 -0.245876
v 0.031301 0.377025 -0.248955
v 0.035542 0.394031 -0.237695
v 0.034711 0.403141 -0.228637
v 0.029787 0.411752 -0.219293
v 0.021115 0.418472 -0.210258
v 0.009591 0.422134 -0.202055
v -0.003474 0.421973 -0.195070
v -0.016538 0.417742 -0.189510
v -0.028063 0.409761 -0.185384
v -0.036735 0.398872 -0.182516
v -0.041659 0.386314 -0.180585
v -0.042490 0.373543 -0.179190
v -0.047566 0.365507 -0.187872
v -0.048909 0.355991 -0.197533
v -0.046064 0.346358 -0.207588
v -0.039167 0.338037 -0.217423
v -0.028930 0.332306 -0.226471
v -0.016538 0.330099 -0.234285
v -0.003474 0.331861 -0.240589
v 0.008700 0.337478 -0.245303
v 0.018572 0.346295 -0.248544
v 0.025088 0.357208 -0.250590
v 0.027704 0.368830 -0.251825
v 0.027520 0.387271 -0.250020
v 0.026464 0.379700 -0.252671
v 0.031301 0.394613 -0.242796
v 0.031507 0.403226 -0.234475
v 0.027704 0.411760 -0.225619
v 0.020045 0.418807 -0.216823
v 0.009255 0.423109 -0.208634
v -0.003474 0.423758 -0.201486
v -0.016651 0.420335 -0.195643
v -0.028713 0.412982 -0.191177
v -0.038248 0.402385 -0.187967
v -0.044210 0.389678 -0.185736
v -0.046064 0.376277 -0.184100
v -0.050512 0.367481 -0.193509
v -0.050977 0.357552 -0.203668
v -0.047189 0.347903 -0.213967
v -0.039475 0.339942 -0.223797
v -0.028713 0.334859 -0.232618
v -0.016202 0.333443 -0.240035
v -0.003474 0.335966 -0.245833
v 0.007938 0.342138 -0.250000
v 0.016722 0.351149 -0.252711
v 0.021983 0.361793 -0.254289
v 0.023368 0.372645 -0.255142
v 0.021983 0.388493 -0.253512
v 0.021115 0.382275 -0.255690
v 0.026464 0.394842 -0.247369
v 0.027704 0.402808 -0.239926
v 0.025088 0.411121 -0.231710
v 0.018572 0.418373 -0.223303
v 0.008700 0.423242 -0.215269
v -0.003474 0.424690 -0.208080
v -0.016538 0.422134 -0.202055
v -0.028930 0.415535 -0.197325
v -0.039167 0.405411 -0.193828
v -0.046064 0.392772 -0.191334
v -0.048909 0.378971 -0.189485
v -0.052652 0.369565 -0.199461
v -0.052231 0.359394 -0.209944
v -0.047566 0.349894 -0.220311
v -0.039167 0.342430 -0.229967
v -0.028063 0.338079 -0.238411
v -0.015648 0.337478 -0.245303
v -0.003474 0.340720 -0.250497
v 0.006981 0.347341 -0.254045
v 0.014527 0.356394 -0.256180
v 0.018443 0.366586 -0.257264
v 0.018572 0.376480 -0.257719
v 0.016010 0.389467 -0.256292
v 0.015346 0.384708 -0.257959
v 0.021115 0.394712 -0.251334
v 0.023368 0.401897 -0.244898
v 0.021983 0.409845 -0.237462
v 0.016722 0.417179 -0.229588
v 0.007938 0.422531 -0.221847
v -0.003474 0.424754 -0.214740
v -0.016202 0.423109 -0.208634
v -0.028713 0.417375 -0.203721
v -0.039475 0.407898 -0.199999
v -0.047189 0.395545 -0.197284
v -0.050977 0.381578 -0.195254
v -0.053952 0.371724 -0.205626
v -0.052652 0.361484 -0.216253
v -0.047189 0.352296 -0.226511
v -0.038248 0.345456 -0.235828
v -0.026993 0.341913 -0.243750
v -0.014886 0.342138 -0.250000
v -0.003474 0.346042 -0.254500
v 0.005844 0.352999 -0.257369
v 0.012023 0.361937 -0.258892
v 0.014527 0.371505 -0.259461
v 0.013400 0.380273 -0.259512
v 0.009704 0.390175 -0.258312
v 0.009255 0.386956 -0.259440
v 0.015346 0.394226 -0.254625
v 0.018572 0.400507 -0.249305
v 0.018443 0.407955 -0.242776
v 0.014527 0.415245 -0.235571
v 0.006981 0.420988 -0.228254
v -0.003474 0.423949 -0.221351
v -0.015648 0.423242 -0.215269
v -0.028063 0.418472 -0.210258
v -0.039167 0.409804 -0.206372
v -0.047566 0.397946 -0.203484
v -0.052231 0.384054 -0.201308
v -0.054387 0.373920 -0.211898
v -0.052231 0.363786 -0.222488
v -0.046064 0.355068 -0.232461
v -0.036735 0.348968 -0.241279
v -0.025520 0.346295 -0.248544
v -0.013928 0.347341 -0.254045
v -0.003474 0.351841 -0.257775
v 0.004548 0.359015 -0.259915
v 0.009255 0.367686 -0.260798
v 0.010303 0.376464 -0.260846
v 0.007938 0.383956 -0.260490
v 0.003172 0.390604 -0.259539
v 0.002945 0.388981 -0.260107
v 0.009255 0.393393 -0.257185
v 0.013400 0.398661 -0.253072
v 0.014527 0.405482 -0.247562
v 0.012023 0.412604 -0.241148
v 0.005844 0.418639 -0.234382
v -0.003474 0.422287 -0.227800
v -0.014886 0.422531 -0.221847
v -0.026993 0.418807 -0.216823
v -0.038248 0.411096 -0.212841
v -0.047189 0.399937 -0.209828
v -0.052652 0.386357 -0.207542
v -0.053952 0.376117 -0.218170
v -0.050977 0.366263 -0.228541
v -0.044210 0.358163 -0.238060
v -0.034652 0.352908 -0.246228
v -0.023670 0.351149 -0.252711
v -0.012792 0.352999 -0.257369
v -0.003474 0.358018 -0.260264
v 0.003115 0.365286 -0.261639
v 0.006268 0.373542 -0.261869
v 0.005844 0.381380 -0.261392
v 0.002281 0.387468 -0.260637
v -0.003474 0.390748 -0.259950
v 0.002945 0.392227 -0.258970
v 0.007938 0.396393 -0.256135
v 0.010303 0.402470 -0.251738
v 0.009255 0.409301 -0.246225
v 0.004548 0.415526 -0.240125
v -0.003474 0.419797 -0.233977
v -0.013928 0.420988 -0.228254
v -0.025520 0.418373 -0.223303
v -0.036735 0.411752 -0.219293
v -0.046064 0.401483 -0.216207
v -0.052231 0.388447 -0.213852
v -0.052652 0.378276 -0.224334
v -0.048909 0.368870 -0.234310
v -0.041659 0.361527 -0.243210
v -0.032035 0.357208 -0.250590
v -0.021474 0.356394 -0.256180
v -0.011496 0.359015 -0.259915
v -0.003474 0.364467 -0.261926
v 0.001569 0.371705 -0.262512
v 0.003115 0.379404 -0.262084
v 0.001225 0.386169 -0.261092
v 0.002281 0.393740 -0.258440
v 0.005844 0.398969 -0.255233
v 0.006268 0.405392 -0.250715
v 0.003115 0.411701 -0.245385
v -0.003474 0.416523 -0.239776
v -0.012792 0.418639 -0.234382
v -0.023670 0.417179 -0.229588
v -0.034652 0.411760 -0.225619
v -0.044210 0.402557 -0.222513
v -0.050977 0.390289 -0.220127
v -0.050512 0.380360 -0.230286
v -0.046064 0.371564 -0.239696
v -0.038454 0.365103 -0.247825
v -0.028930 0.361793 -0.254289
v -0.018971 0.361937 -0.258892
v -0.010062 0.365286 -0.261639
v -0.003474 0.371078 -0.262732
v -0.000063 0.378162 -0.262519
v -0.000151 0.385172 -0.261441
v 0.001225 0.395039 -0.257985
v 0.003115 0.400945 -0.254541
v 0.001569 0.407229 -0.250072
v -0.003474 0.412520 -0.245098
v -0.011496 0.415526 -0.240125
v -0.021474 0.415245 -0.235571
v -0.032035 0.411121 -0.231710
v -0.041659 0.403141 -0.228637
v -0.048909 0.391850 -0.226263
v -0.047566 0.382334 -0.235924
v -0.042490 0.374298 -0.244605
v -0.034652 0.368830 -0.251825
v -0.025390 0.366586 -0.257264
v -0.016202 0.367686 -0.260798
v -0.008516 0.371705 -0.262512
v -0.003474 0.377738 -0.262668
v -0.001754 0.384546 -0.261660
v -0.000151 0.396036 -0.257636
v -0.000063 0.402188 -0.254105
v -0.003474 0.407856 -0.249852
v -0.010062 0.411701 -0.245385
v -0.018971 0.412604 -0.241148
v -0.028930 0.409845 -0.237462
v -0.038454 0.403226 -0.234475
v -0.046064 0.393105 -0.232152
v -0.043866 0.384164 -0.241150
v -0.038248 0.377025 -0.248955
v -0.030315 0.372645 -0.255142
v -0.021474 0.371505 -0.259461
v -0.013215 0.373542 -0.261869
v -0.006884 0.378162 -0.262519
v -0.003474 0.384332 -0.261735
v -0.001754 0.396662 -0.257417
v -0.003474 0.402611 -0.253957
v -0.008516 0.407229 -0.250072
v -0.016202 0.409301 -0.246225
v -0.025390 0.407955 -0.242776
v -0.034652 0.402808 -0.239926
v -0.042490 0.394031 -0.237695
v -0.039475 0.385819 -0.245876
v -0.033412 0.379700 -0.252671
v -0.025520 0.376480 -0.257719
v -0.017251 0.376464 -0.260846
v -0.010062 0.379404 -0.262084
v -0.005194 0.384546 -0.261660
v -0.003474 0.396876 -0.257342
v -0.006884 0.402188 -0.254105
v -0.013215 0.405392 -0.250715
v -0.021474 0.405482 -0.247562
v -0.030315 0.401897 -0.244898
v -0.038248 0.394613 -0.242796
v -0.034468 0.387271 -0.250020
v -0.028063 0.382275 -0.255690
v -0.020347 0.380273 -0.259512
v -0.012792 0.381380 -0.261392
v -0.006796 0.385172 -0.261441
v -0.005194 0.396662 -0.257417
v -0.010062 0.400945 -0.254541
v -0.017251 0.402470 -0.251738
v -0.025520 0.400507 -0.249305
v -0.033412 0.394842 -0.247369
v -0.028930 0.388493 -0.253512
v -0.022293 0.384708 -0.257959
v -0.014886 0.383956 -0.260490
v -0.008173 0.386169 -0.261092
v -0.006796 0.396036 -0.257636
v -0.012792 0.398969 -0.255233
v -0.020347 0.398661 -0.253072
v -0.028063 0.394712 -0.251334
v -0.022957 0.389467 -0.256292
v -0.016202 0.386956 -0.259440
v -0.009229 0.387468 -0.260637
v -0.008173 0.395039 -0.257985
v -0.014886 0.396393 -0.256135
v -0.022293 0.394226 -0.254625
v -0.016651 0.390175 -0.258312
v -0.009893 0.388981 -0.260107
v -0.009229 0.393740 -0.258440
v -0.016202 0.393393 -0.257185
v -0.010119 0.390604 -0.259539
v -0.009893 0.392227 -0.258970
vn 0.1359 -0.3274 0.9350
vn -0.0000 -0.3305 0.9438
vn 0.1312 -0.3606 0.9234
vn 0.1177 -0.3916 0.9126
vn 0.2549 -0.3833 0.8878
vn 0.2639 -0.3188 0.9103
vn 0.1312 -0.2943 0.9467
vn 0.0961 -0.4181 0.9033
vn 0.2285 -0.4433 0.8667
vn 0.3741 -0.3993 0.8370
vn 0.3873 -0.3047 0.8701
vn 0.2549 -0.2543 0.9329
vn 0.1177 -0.2633 0.9575
vn 0.0679 -0.4385 0.8962
vn 0.1866 -0.4949 0.8487
vn 0.3354 -0.4875 0.8061
vn 0.4869 -0.4086 0.7720
vn 0.5041 -0.2855 0.8151
vn 0.3741 -0.2101 0.9033
vn 0.2285 -0.1943 0.9540
vn 0.0961 -0.2368 0.9668
vn 0.0352 -0.4513 0.8917
vn 0.1319 -0.5345 0.8348
vn 0.2739 -0.5632 0.7796
vn 0.4365 -0.5233 0.7318
vn 0.5913 -0.4109 0.6939
vn 0.6122 -0.2613 0.7463
vn 0.4869 -0.1623 0.8582
vn 0.3354 -0.1219 0.9341
vn 0.1866 -0.1427 0.9720
vn 0.0679 -0.2164 0.9739
vn -0.0000 -0.4557 0.8901
vn 0.0683 -0.5594 0.8261
vn 0.1937 -0.6213 0.7593
vn 0.3564 -0.6219 0.6973
vn 0.5302 -0.5502 0.6451
vn 0.6856 -0.4062 0.6041
vn 0.7098 -0.2328 0.6648
vn 0.5913 -0.1118 0.7987
vn 0.4365 -0.0476 0.8984
vn 0.2739 -0.0462 0.9607
vn 0.1319 -0.1031 0.9859
vn 0.0352 -0.2036 0.9784
vn -0.0352 -0.4513 0.8917
vn -0.0000 -0.5679 0.8231
vn 0.1003 -0.6578 0.7465
vn 0.2520 -0.6975 0.6708
vn 0.4329 -0.6699 0.6032
vn 0.6147 -0.5678 0.5475
vn 0.7953 -0.2003 0.5721
vn 0.7682 -0.3946 0.5040
vn 0.6856 -0.0594 0.7255
vn 0.5302 0.0275 0.8475
vn 0.3564 0.0509 0.9329
vn 0.1937 0.0119 0.9810
vn 0.0683 -0.0782 0.9946
vn -0.0000 -0.1992 0.9800
vn -0.0679 -0.4385 0.8962
vn -0.0683 -0.5594 0.8261
vn -0.0000 -0.6703 0.7421
vn 0.1305 -0.7450 0.6542
vn 0.3061 -0.7617 0.5711
vn 0.5019 -0.7065 0.4989
vn 0.6888 -0.5757 0.4407
vn 0.8378 -0.3764 0.3955
vn 0.8674 -0.1645 0.4697
vn 0.7682 -0.0061 0.6401
vn 0.6147 0.1021 0.7821
vn 0.4329 0.1472 0.8894
vn 0.2520 0.1266 0.9594
vn 0.1002 0.0484 0.9938
vn -0.0000 -0.0697 0.9976
vn -0.0352 -0.2036 0.9784
vn -0.0961 -0.4181 0.9033
vn -0.1319 -0.5345 0.8348
vn -0.1002 -0.6578 0.7465
vn -0.0000 -0.7612 0.6485
vn 0.1584 -0.8194 0.5509
vn 0.3549 -0.8130 0.4616
vn 0.5624 -0.7311 0.3862
vn 0.7512 -0.5738 0.3264
vn 0.9247 -0.1259 0.3594
vn 0.8932 -0.3517 0.2803
vn 0.8378 0.0474 0.5439
vn 0.6888 0.1750 0.7035
vn 0.5019 0.2409 0.8307
vn 0.3061 0.2390 0.9215
vn 0.1305 0.1741 0.9761
vn -0.0000 0.0608 0.9981
vn -0.0683 -0.0782 0.9946
vn -0.0679 -0.2164 0.9739
vn -0.1177 -0.3916 0.9126
vn -0.1866 -0.4949 0.8487
vn -0.1937 -0.6213 0.7593
vn -0.1305 -0.7450 0.6542
vn -0.0000 -0.8391 0.5440
vn 0.1837 -0.8799 0.4382
vn 0.3977 -0.8504 0.3444
vn 0.6133 -0.7433 0.2670
vn 0.8008 -0.5622 0.2066
vn 0.9663 -0.0851 0.2430
vn 0.9334 -0.3211 0.1603
vn 0.8932 0.1000 0.4385
vn 0.7512 0.2448 0.6130
vn 0.5624 0.3305 0.7580
vn 0.3549 0.3474 0.8680
vn 0.1584 0.2967 0.9417
vn -0.0000 0.1903 0.9817
vn -0.1002 0.0484 0.9938
vn -0.1319 -0.1031 0.9859
vn -0.0961 -0.2368 0.9668
vn -0.1312 -0.3606 0.9234
vn -0.2285 -0.4433 0.8667
vn -0.2739 -0.5632 0.7796
vn -0.2520 -0.6975 0.6708
vn -0.1584 -0.8194 0.5509
vn -0.0000 -0.9027 0.4302
vn 0.2058 -0.9254 0.3182
vn 0.4337 -0.8734 0.2214
vn 0.6538 -0.7429 0.1433
vn 0.8368 -0.5411 0.0833
vn 0.9578 -0.2851 0.0377
vn 0.9915 -0.0429 0.1225
vn 0.9334 0.1509 0.3257
vn 0.8008 0.3105 0.5122
vn 0.6133 0.4144 0.6724
vn 0.3977 0.4497 0.7997
vn 0.1837 0.4143 0.8914
vn -0.0000 0.3164 0.9486
vn -0.1305 0.1741 0.9761
vn -0.1937 0.0119 0.9810
vn -0.1866 -0.1427 0.9720
vn -0.1177 -0.2633 0.9575
vn -0.1359 -0.3274 0.9351
vn -0.2549 -0.3833 0.8878
vn -0.3354 -0.4875 0.8061
vn -0.3564 -0.6219 0.6973
vn -0.3061 -0.7617 0.5711
vn -0.1837 -0.8799 0.4382
vn -0.0000 -0.9510 0.3092
vn 0.2245 -0.9552 0.1928
vn 0.4623 -0.8816 0.0947
vn 0.6833 -0.7300 0.0172
vn 0.8587 -0.5108 -0.0413
vn 1.0000 -0.0000 -0.0000
vn 0.9659 -0.2443 -0.0855
vn 0.9578 0.1993 0.2074
vn 0.8368 0.3709 0.4027
vn 0.6538 0.4912 0.5755
vn 0.4337 0.5445 0.7180
vn 0.2059 0.5247 0.8260
vn -0.0000 0.4371 0.8994
vn -0.1584 0.2967 0.9417
vn -0.2520 0.1265 0.9594
vn -0.2739 -0.0462 0.9607
vn -0.2285 -0.1943 0.9540
vn -0.1312 -0.2943 0.9467
vn -0.2639 -0.3188 0.9103
vn -0.3741 -0.3993 0.8370
vn -0.4365 -0.5233 0.7318
vn -0.4329 -0.6699 0.6032
vn -0.3549 -0.8130 0.4616
vn -0.2058 -0.9254 0.3182
vn -0.0000 -0.9831 0.1830
vn 0.2393 -0.9688 0.0642
vn 0.4831 -0.8749 -0.0336
vn 0.7011 -0.7046 -0.1092
vn 0.8660 -0.4719 -0.1653
vn 0.9577 -0.1993 -0.2074
vn 0.9915 0.0429 -0.1225
vn 0.9659 0.2443 0.0855
vn 0.8587 0.4250 0.2864
vn 0.6833 0.5598 0.4688
vn 0.4623 0.6299 0.6240
vn 0.2245 0.6263 0.7466
vn -0.0000 0.5503 0.8350
vn -0.1837 0.4143 0.8914
vn -0.3061 0.2390 0.9215
vn -0.3564 0.0509 0.9329
vn -0.3354 -0.1219 0.9341
vn -0.2549 -0.2543 0.9329
vn -0.3873 -0.3047 0.8701
vn -0.4869 -0.4086 0.7720
vn -0.5301 -0.5502 0.6451
vn -0.5019 -0.7065 0.4989
vn -0.3977 -0.8504 0.3444
vn -0.2245 -0.9552 0.1928
vn -0.0000 -0.9986 0.0538
vn 0.2501 -0.9660 -0.0655
vn 0.4958 -0.8534 -0.1613
vn 0.7071 -0.6674 -0.2337
vn 0.8587 -0.4250 -0.2864
vn 0.9663 0.0851 -0.2430
vn 0.9334 -0.1509 -0.3257
vn 0.9578 0.2851 -0.0377
vn 0.8660 0.4719 0.1653
vn 0.7011 0.6188 0.3543
vn 0.4831 0.7047 0.5196
vn 0.2393 0.7171 0.6546
vn -0.0000 0.6541 0.7564
vn -0.2058 0.5247 0.8260
vn -0.3549 0.3473 0.8680
vn -0.4329 0.1472 0.8894
vn -0.4365 -0.0476 0.8984
vn -0.3741 -0.2101 0.9033
vn -0.5041 -0.2855 0.8151
vn -0.5913 -0.4109 0.6939
vn -0.6147 -0.5678 0.5475
vn -0.5624 -0.7311 0.3862
vn -0.4337 -0.8734 0.2214
vn -0.2393 -0.9688 0.0642
vn -0.0000 -0.9971 -0.0764
vn 0.2566 -0.9468 -0.1940
vn 0.5000 -0.8174 -0.2862
vn 0.7011 -0.6188 -0.3543
vn 0.8368 -0.3709 -0.4027
vn 0.8932 -0.1000 -0.4385
vn 0.9247 0.1258 -0.3594
vn 0.9334 0.3211 -0.1603
vn 0.8587 0.5108 0.0413
vn 0.7071 0.6674 0.2337
vn 0.4958 0.7675 0.4064
vn 0.2501 0.7958 0.5515
vn -0.0000 0.7468 0.6650
vn -0.2245 0.6262 0.7466
vn -0.3977 0.4497 0.7997
vn -0.5019 0.2409 0.8307
vn -0.5302 0.0275 0.8475
vn -0.4869 -0.1623 0.8582
vn -0.6122 -0.2613 0.7463
vn -0.6856 -0.4062 0.6041
vn -0.6888 -0.5757 0.4406
vn -0.6133 -0.7433 0.2670
vn -0.4623 -0.8816 0.0947
vn -0.2501 -0.9660 -0.0655
vn -0.0000 -0.9787 -0.2052
vn 0.2588 -0.9116 -0.3193
vn 0.4958 -0.7675 -0.4064
vn 0.6833 -0.5598 -0.4688
vn 0.8008 -0.3105 -0.5122
vn 0.8674 0.1645 -0.4697
vn 0.8378 -0.0474 -0.5439
vn 0.8932 0.3517 -0.2803
vn 0.8368 0.5411 -0.0833
vn 0.7011 0.7046 0.1092
vn 0.5000 0.8174 0.2862
vn 0.2566 0.8610 0.4391
vn -0.0000 0.8269 0.5624
vn -0.2393 0.7171 0.6546
vn -0.4337 0.5445 0.7180
vn -0.5624 0.3304 0.7580
vn -0.6147 0.1021 0.7821
vn -0.5913 -0.1118 0.7987
vn -0.7098 -0.2328 0.6648
vn -0.7682 -0.3946 0.5041
vn -0.7512 -0.5738 0.3263
vn -0.6538 -0.7429 0.1433
vn -0.4831 -0.8749 -0.0336
vn -0.2566 -0.9468 -0.1940
vn -0.0000 -0.9438 -0.3305
vn 0.2566 -0.8610 -0.4391
vn 0.4831 -0.7047 -0.5196
vn 0.6538 -0.4912 -0.5755
vn 0.7512 -0.2448 -0.6130
vn 0.7682 0.0061 -0.6401
vn 0.7954 0.2003 -0.5721
vn 0.8378 0.3764 -0.3955
vn 0.8008 0.5622 -0.2066
vn 0.6833 0.7300 -0.0172
vn 0.4958 0.8534 0.1613
vn 0.2588 0.9116 0.3193
vn -0.0000 0.8929 0.4503
vn -0.2501 0.7958 0.5515
vn -0.4623 0.6299 0.6240
vn -0.6133 0.4144 0.6724
vn -0.6888 0.1750 0.7035
vn -0.6856 -0.0594 0.7255
vn -0.7953 -0.2003 0.5721
vn -0.8378 -0.3764 0.3955
vn -0.8008 -0.5622 0.2066
vn -0.6833 -0.7300 0.0172
vn -0.4958 -0.8533 -0.1613
vn -0.2588 -0.9116 -0.3192
vn -0.0000 -0.8929 -0.4503
vn 0.2501 -0.7958 -0.5515
vn 0.4623 -0.6299 -0.6240
vn 0.6133 -0.4144 -0.6724
vn 0.6888 -0.1750 -0.7035
vn 0.7098 0.2328 -0.6648
vn 0.6856 0.0594 -0.7255
vn 0.7682 0.3946 -0.5040
vn 0.7512 0.5738 -0.3264
vn 0.6538 0.7429 -0.1433
vn 0.4831 0.8749 0.0336
vn 0.2566 0.9468 0.1940
vn -0.0000 0.9438 0.3305
vn -0.2566 0.8610 0.4391
vn -0.4831 0.7047 0.5196
vn -0.6538 0.4912 0.5755
vn -0.7512 0.2448 0.6130
vn -0.7682 -0.0061 0.6401
vn -0.8674 -0.1645 0.4697
vn -0.8932 -0.3517 0.2803
vn -0.8368 -0.5411 0.0833
vn -0.7011 -0.7046 -0.1092
vn -0.5000 -0.8174 -0.2862
vn -0.2566 -0.8610 -0.4391
vn -0.0000 -0.8269 -0.5624
vn 0.2393 -0.7171 -0.6546
vn 0.4337 -0.5445 -0.7180
vn 0.5624 -0.3305 -0.7580
vn 0.6147 -0.1021 -0.7821
vn 0.6122 0.2613 -0.7463
vn 0.5913 0.1118 -0.7987
vn 0.6856 0.4062 -0.6041
vn 0.6888 0.5757 -0.4406
vn 0.6133 0.7433 -0.2670
vn 0.4623 0.8816 -0.0947
vn 0.2501 0.9660 0.0655
vn -0.0000 0.9787 0.2052
vn -0.2588 0.9116 0.3193
vn -0.4958 0.7675 0.4063
vn -0.6833 0.5598 0.4688
vn -0.8008 0.3105 0.5122
vn -0.8378 0.0474 0.5439
vn -0.9247 -0.1259 0.3594
vn -0.9334 -0.3211 0.1603
vn -0.8587 -0.5108 -0.0413
vn -0.7071 -0.6674 -0.2337
vn -0.4958 -0.7675 -0.4063
vn -0.2501 -0.7958 -0.5515
vn -0.0000 -0.7469 -0.6650
vn 0.2245 -0.6262 -0.7466
vn 0.3977 -0.4497 -0.7997
vn 0.5019 -0.2409 -0.8307
vn 0.5302 -0.0275 -0.8475
vn 0.5041 0.2855 -0.8151
vn 0.4869 0.1623 -0.8583
vn 0.5913 0.4109 -0.6939
vn 0.6147 0.5678 -0.5475
vn 0.5624 0.7311 -0.3862
vn 0.4337 0.8734 -0.2214
vn 0.2393 0.9688 -0.0642
vn -0.0000 0.9971 0.0764
vn -0.2566 0.9468 0.1940
vn -0.5000 0.8174 0.2862
vn -0.7011 0.6188 0.3543
vn -0.8368 0.3709 0.4027
vn -0.8932 0.1000 0.4385
vn -0.9663 -0.0851 0.2430
vn -0.9577 -0.2851 0.0377
vn -0.8660 -0.4719 -0.1653
vn -0.7011 -0.6188 -0.3543
vn -0.4831 -0.7047 -0.5196
vn -0.2393 -0.7171 -0.6546
vn -0.0000 -0.6541 -0.7564
vn 0.2059 -0.5247 -0.8260
vn 0.3549 -0.3474 -0.8680
vn 0.4329 -0.1472 -0.8894
vn 0.4365 0.0476 -0.8984
vn 0.3873 0.3047 -0.8701
vn 0.3741 0.2101 -0.9033
vn 0.4869 0.4086 -0.7720
vn 0.5301 0.5502 -0.6451
vn 0.5019 0.7065 -0.4989
vn 0.3977 0.8504 -0.3444
vn 0.2245 0.9552 -0.1928
vn -0.0000 0.9986 -0.0538
vn -0.2501 0.9660 0.0655
vn -0.4958 0.8533 0.1613
vn -0.7071 0.6674 0.2337
vn -0.8587 0.4250 0.2864
vn -0.9334 0.1509 0.3257
vn -0.9915 -0.0429 0.1225
vn -0.9659 -0.2443 -0.0855
vn -0.8587 -0.4250 -0.2864
vn -0.6833 -0.5598 -0.4688
vn -0.4623 -0.6299 -0.6240
vn -0.2245 -0.6262 -0.7466
vn -0.0000 -0.5503 -0.8350
vn 0.1837 -0.4143 -0.8914
vn 0.3061 -0.2390 -0.9215
vn 0.3564 -0.0509 -0.9329
vn 0.3354 0.1219 -0.9341
vn 0.2639 0.3188 -0.9103
vn 0.2549 0.2543 -0.9329
vn 0.3741 0.3993 -0.8370
vn 0.4365 0.5233 -0.7318
vn 0.4329 0.6699 -0.6032
vn 0.3549 0.8130 -0.4616
vn 0.2059 0.9254 -0.3182
vn -0.0000 0.9831 -0.1830
vn -0.2393 0.9688 -0.0642
vn -0.4831 0.8749 0.0336
vn -0.7011 0.7046 0.1092
vn -0.8660 0.4719 0.1653
vn -0.9577 0.1993 0.2074
vn -1.0000 -0.0000 -0.0000
vn -0.9577 -0.1993 -0.2074
vn -0.8368 -0.3709 -0.4027
vn -0.6538 -0.4912 -0.5755
vn -0.4337 -0.5445 -0.7180
vn -0.2058 -0.5247 -0.8260
vn -0.0000 -0.4371 -0.8994
vn 0.1584 -0.2967 -0.9417
vn 0.2520 -0.1265 -0.9594
vn 0.2739 0.0462 -0.9607
vn 0.2285 0.1943 -0.9540
vn 0.1359 0.3275 -0.9350
vn 0.1312 0.2942 -0.9467
vn 0.2549 0.3833 -0.8878
vn 0.3354 0.4875 -0.8061
vn 0.3564 0.6219 -0.6973
vn 0.3061 0.7617 -0.5711
vn 0.1837 0.8799 -0.4382
vn -0.0000 0.9510 -0.3092
vn -0.2245 0.9552 -0.1928
vn -0.4623 0.8816 -0.0947
vn -0.6833 0.7300 -0.0172
vn -0.8587 0.5108 0.0413
vn -0.9659 0.2443 0.0855
vn -0.9915 0.0429 -0.1225
vn -0.9334 -0.1509 -0.3257
vn -0.8008 -0.3105 -0.5122
vn -0.6133 -0.4144 -0.6724
vn -0.3977 -0.4497 -0.7997
vn -0.1837 -0.4143 -0.8914
vn -0.0000 -0.3164 -0.9486
vn 0.1305 -0.1741 -0.9761
vn 0.1937 -0.0119 -0.9810
vn 0.1866 0.1427 -0.9720
vn 0.1177 0.2633 -0.9575
vn -0.0000 0.3305 -0.9438
vn 0.1312 0.3606 -0.9234
vn 0.2285 0.4433 -0.8667
vn 0.2739 0.5632 -0.7796
vn 0.2520 0.6975 -0.6708
vn 0.1584 0.8194 -0.5509
vn -0.0000 0.9027 -0.4302
vn -0.2058 0.9254 -0.3182
vn -0.4337 0.8734 -0.2214
vn -0.6538 0.7429 -0.1433
vn -0.8368 0.5411 -0.0833
vn -0.9578 0.2851 -0.0377
vn -0.9663 0.0851 -0.2430
vn -0.8932 -0.1000 -0.4385
vn -0.7512 -0.2448 -0.6130
vn -0.5624 -0.3305 -0.7580
vn -0.3549 -0.3474 -0.8680
vn -0.1584 -0.2967 -0.9417
vn -0.0000 -0.1903 -0.9817
vn 0.1002 -0.0484 -0.9938
vn 0.1319 0.1031 -0.9859
vn 0.0961 0.2368 -0.9668
vn 0.1177 0.3916 -0.9126
vn 0.1866 0.4949 -0.8487
vn 0.1937 0.6213 -0.7593
vn 0.1305 0.7450 -0.6542
vn -0.0000 0.8391 -0.5440
vn -0.1837 0.8799 -0.4382
vn -0.3977 0.8504 -0.3444
vn -0.6133 0.7433 -0.2670
vn -0.8008 0.5622 -0.2066
vn -0.9334 0.3211 -0.1603
vn -0.9247 0.1259 -0.3594
vn -0.8378 -0.0474 -0.5439
vn -0.6888 -0.1750 -0.7035
vn -0.5019 -0.2409 -0.8307
vn -0.3061 -0.2390 -0.9215
vn -0.1305 -0.1741 -0.9761
vn -0.0000 -0.0608 -0.9981
vn 0.0683 0.0782 -0.9946
vn 0.0679 0.2164 -0.9739
vn 0.0961 0.4181 -0.9033
vn 0.1319 0.5345 -0.8348
vn 0.1002 0.6578 -0.7465
vn -0.0000 0.7612 -0.6485
vn -0.1584 0.8194 -0.5509
vn -0.3549 0.8130 -0.4616
vn -0.5624 0.7311 -0.3862
vn -0.7512 0.5738 -0.3263
vn -0.8932 0.3517 -0.2803
vn -0.8674 0.1645 -0.4697
vn -0.7682 0.0061 -0.6401
vn -0.6147 -0.1021 -0.7821
vn -0.4329 -0.1472 -0.8894
vn -0.2520 -0.1265 -0.9594
vn -0.1002 -0.0484 -0.9938
vn -0.0000 0.0697 -0.9976
vn 0.0352 0.2036 -0.9784
vn 0.0679 0.4385 -0.8962
vn 0.0683 0.5594 -0.8261
vn -0.0000 0.6703 -0.7421
vn -0.1305 0.7450 -0.6542
vn -0.3061 0.7617 -0.5711
vn -0.5019 0.7065 -0.4989
vn -0.6888 0.5757 -0.4406
vn -0.8378 0.3764 -0.3955
vn -0.7954 0.2003 -0.5721
vn -0.6856 0.0594 -0.7255
vn -0.5301 -0.0275 -0.8475
vn -0.3564 -0.0509 -0.9329
vn -0.1937 -0.0119 -0.9810
vn -0.0683 0.0782 -0.9946
vn -0.0000 0.1992 -0.9800
vn 0.0352 0.4513 -0.8917
vn -0.0000 0.5678 -0.8231
vn -0.1002 0.6578 -0.7465
vn -0.2520 0.6975 -0.6709
vn -0.4329 0.6699 -0.6032
vn -0.6147 0.5678 -0.5475
vn -0.7683 0.3946 -0.5040
vn -0.7098 0.2328 -0.6648
vn -0.5913 0.1118 -0.7987
vn -0.4365 0.0476 -0.8984
vn -0.2739 0.0462 -0.9607
vn -0.1319 0.1031 -0.9859
vn -0.0352 0.2036 -0.9784
vn -0.0000 0.4557 -0.8901
vn -0.0683 0.5594 -0.8261
vn -0.1937 0.6213 -0.7593
vn -0.3564 0.6219 -0.6973
vn -0.5301 0.5502 -0.6451
vn -0.6856 0.4062 -0.6041
vn -0.6122 0.2613 -0.7463
vn -0.4869 0.1623 -0.8582
vn -0.3354 0.1219 -0.9341
vn -0.1866 0.1427 -0.9720
vn -0.0679 0.2164 -0.9739
vn -0.0352 0.4513 -0.8917
vn -0.1319 0.5345 -0.8348
vn -0.2739 0.5632 -0.7796
vn -0.4365 0.5233 -0.7318
vn -0.5913 0.4109 -0.6939
vn -0.5041 0.2855 -0.8151
vn -0.3741 0.2101 -0.9033
vn -0.2285 0.1943 -0.9540
vn -0.0961 0.2368 -0.9668
vn -0.0679 0.4385 -0.8962
vn -0.1866 0.4949 -0.8487
vn -0.3354 0.4875 -0.8061
vn -0.4869 0.4086 -0.7720
vn -0.3873 0.3047 -0.8701
vn -0.2549 0.2543 -0.9329
vn -0.1177 0.2633 -0.9575
vn -0.0961 0.4181 -0.9033
vn -0.2285 0.4433 -0.8667
vn -0.3741 0.3993 -0.8370
vn -0.2639 0.3188 -0.9103
vn -0.1312 0.2942 -0.9467
vn -0.1177 0.3916 -0.9126
vn -0.2549 0.3833 -0.8878
vn -0.1359 0.3275 -0.9350
vn -0.1312 0.3606 -0.9234
vt 0.126667 0.793333
vt 0.206667 0.793333
vt 0.166667 0.873333
s 1
f 1/1/1 2/2/2 3/3/3
f 3/1/3 2/2/2 4/3/4
f 5/1/5 1/2/1 3/3/3
f 1/1/1 5/2/5 6/3/6
f 1/1/1 7/2/7 2/3/2
f 4/1/4 2/2/2 8/3/8
f 9/1/9 3/2/3 4/3/4
f 3/1/3 9/2/9 5/3/5
f 10/1/10 6/2/6 5/3/5
f 6/1/6 10/2/10 11/3/11
f 1/1/1 12/2/12 7/3/7
f 12/1/12 1/2/1 6/3/6
f 7/1/7 13/2/13 2/3/2
f 8/1/8 2/2/2 14/3/14
f 15/1/15 4/2/4 8/3/8
f 4/1/4 15/2/15 9/3/9
f 16/1/16 5/2/5 9/3/9
f 5/1/5 16/2/16 10/3/10
f 17/1/17 11/2/11 10/3/10
f 11/1/11 17/2/17 18/3/18
f 6/1/6 19/2/19 12/3/12
f 19/1/19 6/2/6 11/3/11
f 7/1/7 20/2/20 13/3/13
f 20/1/20 7/2/7 12/3/12
f 13/1/13 21/2/21 2/3/2
f 14/1/14 2/2/2 22/3/22
f 23/1/23 8/2/8 14/3/14
f 8/1/8 23/2/23 15/3/15
f 24/1/24 9/2/9 15/3/15
f 9/1/9 24/2/24 16/3/16
f 25/1/25 10/2/10 16/3/16
f 10/1/10 25/2/25 17/3/17
f 26/1/26 18/2/18 17/3/17
f 18/1/18 26/2/26 27/3/27
f 11/1/11 28/2/28 19/3/19
f 28/1/28 11/2/11 18/3/18
f 12/1/12 29/2/29 20/3/20
f 29/1/29 12/2/12 19/3/19
f 13/1/13 30/2/30 21/3/21
f 30/1/30 13/2/13 20/3/20
f 21/1/21 31/2/31 2/3/2
f 22/1/22 2/2/2 32/3/32
f 33/1/33 14/2/14 22/3/22
f 14/1/14 33/2/33 23/3/23
f 34/1/34 15/2/15 23/3/23
f 15/1/15 34/2/34 24/3/24
f 35/1/35 16/2/16 24/3/24
f 16/1/16 35/2/35 25/3/25
f 36/1/36 17/2/17 25/3/25
f 17/1/17 36/2/36 26/3/26
f 37/1/37 27/2/27 26/3/26
f 27/1/27 37/2/37 38/3/38
f 18/1/18 39/2/39 28/3/28
f 39/1/39 18/2/18 27/3/27
f 19/1/19 40/2/40 29/3/29
f 40/1/40 19/2/19 28/3/28
f 20/1/20 41/2/41 30/3/30
f 41/1/41 20/2/20 29/3/29
f 21/1/21 42/2/42 31/3/31
f 42/1/42 21/2/21 30/3/30
f 31/1/31 43/2/43 2/3/2
f 2/1/2 44/2/44 32/3/32
f 33/1/33 32/2/32 45/3/45
f 32/1/32 33/2/33 22/3/22
f 46/1/46 23/2/23 33/3/33
f 23/1/23 46/2/46 34/3/34
f 47/1/47 24/2/24 34/3/34
f 24/1/24 47/2/47 35/3/35
f 48/1/48 25/2/25 35/3/35
f 25/1/25 48/2/48 36/3/36
f 49/1/49 26/2/26 36/3/36
f 26/1/26 49/2/49 37/3/37
f 37/1/37 50/2/50 38/3/38
f 50/1/50 37/2/37 51/3/51
f 27/1/27 52/2/52 39/3/39
f 52/1/52 27/2/27 38/3/38
f 28/1/28 53/2/53 40/3/40
f 53/1/53 28/2/28 39/3/39
f 29/1/29 54/2/54 41/3/41
f 54/1/54 29/2/29 40/3/40
f 30/1/30 55/2/55 42/3/42
f 55/1/55 30/2/30 41/3/41
f 31/1/31 56/2/56 43/3/43
f 56/1/56 31/2/31 42/3/42
f 43/1/43 57/2/57 2/3/2
f 2/1/2 58/2/58 44/3/44
f 45/1/45 44/2/44 59/3/59
f 44/1/44 45/2/45 32/3/32
f 46/1/46 45/2/45 60/3/60
f 45/1/45 46/2/46 33/3/33
f 61/1/61 34/2/34 46/3/46
f 34/1/34 61/2/61 47/3/47
f 62/1/62 35/2/35 47/3/47
f 35/1/35 62/2/62 48/3/48
f 63/1/63 36/2/36 48/3/48
f 36/1/36 63/2/63 49/3/49
f 49/1/49 51/2/51 37/3/37
f 51/1/51 49/2/49 64/3/64
f 50/1/50 65/2/65 66/3/66
f 65/1/65 50/2/50 51/3/51
f 52/1/52 50/2/50 67/3/67
f 50/1/50 52/2/52 38/3/38
f 39/1/39 68/2/68 53/3/53
f 68/1/68 39/2/39 52/3/52
f 40/1/40 69/2/69 54/3/54
f 69/1/69 40/2/40 53/3/53
f 41/1/41 70/2/70 55/3/55
f 70/1/70 41/2/41 54/3/54
f 42/1/42 71/2/71 56/3/56
f 71/1/71 42/2/42 55/3/55
f 43/1/43 72/2/72 57/3/57
f 72/1/72 43/2/43 56/3/56
f 57/1/57 73/2/73 2/3/2
f 2/1/2 74/2/74 58/3/58
f 59/1/59 58/2/58 75/3/75
f 58/1/58 59/2/59 44/3/44
f 60/1/60 59/2/59 76/3/76
f 59/1/59 60/2/60 45/3/45
f 61/1/61 60/2/60 77/3/77
f 60/1/60 61/2/61 46/3/46
f 78/1/78 47/2/47 61/3/61
f 47/1/47 78/2/78 62/3/62
f 79/1/79 48/2/48 62/3/62
f 48/1/48 79/2/79 63/3/63
f 80/1/80 49/2/49 63/3/63
f 49/1/49 80/2/80 64/3/64
f 64/1/64 65/2/65 51/3/51
f 65/1/65 64/2/64 81/3/81
f 65/1/65 82/2/82 66/3/66
f 82/1/82 65/2/65 83/3/83
f 67/1/67 66/2/66 84/3/84
f 66/1/66 67/2/67 50/3/50
f 68/1/68 67/2/67 85/3/85
f 67/1/67 68/2/68 52/3/52
f 53/1/53 86/2/86 69/3/69
f 86/1/86 53/2/53 68/3/68
f 54/1/54 87/2/87 70/3/70
f 87/1/87 54/2/54 69/3/69
f 55/1/55 88/2/88 71/3/71
f 88/1/88 55/2/55 70/3/70
f 56/1/56 89/2/89 72/3/72
f 89/1/89 56/2/56 71/3/71
f 73/1/73 72/2/72 90/3/90
f 72/1/72 73/2/73 57/3/57
f 2/1/2 73/2/73 91/3/91
f 2/1/2 92/2/92 74/3/74
f 75/1/75 74/2/74 93/3/93
f 74/1/74 75/2/75 58/3/58
f 76/1/76 75/2/75 94/3/94
f 75/1/75 76/2/76 59/3/59
f 77/1/77 76/2/76 95/3/95
f 76/1/76 77/2/77 60/3/60
f 78/1/78 77/2/77 96/3/96
f 77/1/77 78/2/78 61/3/61
f 97/1/97 62/2/62 78/3/78
f 62/1/62 97/2/97 79/3/79
f 98/1/98 63/2/63 79/3/79
f 63/1/63 98/2/98 80/3/80
f 80/1/80 81/2/81 64/3/64
f 81/1/81 80/2/80 99/3/99
f 81/1/81 83/2/83 65/3/65
f 83/1/83 81/2/81 100/3/100
f 83/1/83 101/2/101 82/3/82
f 101/1/101 83/2/83 102/3/102
f 84/1/84 82/2/82 103/3/103
f 82/1/82 84/2/84 66/3/66
f 85/1/85 84/2/84 104/3/104
f 84/1/84 85/2/85 67/3/67
f 68/1/68 105/2/105 86/3/86
f 105/1/105 68/2/68 85/3/85
f 69/1/69 106/2/106 87/3/87
f 106/1/106 69/2/69 86/3/86
f 70/1/70 107/2/107 88/3/88
f 107/1/107 70/2/70 87/3/87
f 71/1/71 108/2/108 89/3/89
f 108/1/108 71/2/71 88/3/88
f 90/1/90 89/2/89 109/3/109
f 89/1/89 90/2/90 72/3/72
f 91/1/91 90/2/90 110/3/110
f 90/1/90 91/2/91 73/3/73
f 2/1/2 91/2/91 111/3/111
f 2/1/2 112/2/112 92/3/92
f 93/1/93 92/2/92 113/3/113
f 92/1/92 93/2/93 74/3/74
f 94/1/94 93/2/93 114/3/114
f 93/1/93 94/2/94 75/3/75
f 95/1/95 94/2/94 115/3/115
f 94/1/94 95/2/95 76/3/76
f 96/1/96 95/2/95 116/3/116
f 95/1/95 96/2/96 77/3/77
f 97/1/97 96/2/96 117/3/117
f 96/1/96 97/2/97 78/3/78
f 118/1/118 79/2/79 97/3/97
f 79/1/79 118/2/118 98/3/98
f 119/1/119 80/2/80 98/3/98
f 80/1/80 119/2/119 99/3/99
f 99/1/99 100/2/100 81/3/81
f 100/1/100 99/2/99 120/3/120
f 100/1/100 102/2/102 83/3/83
f 102/1/102 100/2/100 121/3/121
f 101/1/101 122/2/122 123/3/123
f 122/1/122 101/2/101 102/3/102
f 103/1/103 101/2/101 124/3/124
f 101/1/101 103/2/103 82/3/82
f 104/1/104 103/2/103 125/3/125
f 103/1/103 104/2/104 84/3/84
f 105/1/105 104/2/104 126/3/126
f 104/1/104 105/2/105 85/3/85
f 86/1/86 127/2/127 106/3/106
f 127/1/127 86/2/86 105/3/105
f 87/1/87 128/2/128 107/3/107
f 128/1/128 87/2/87 106/3/106
f 88/1/88 129/2/129 108/3/108
f 129/1/129 88/2/88 107/3/107
f 109/1/109 108/2/108 130/3/130
f 108/1/108 109/2/109 89/3/89
f 110/1/110 109/2/109 131/3/131
f 109/1/109 110/2/110 90/3/90
f 111/1/111 110/2/110 132/3/132
f 110/1/110 111/2/111 91/3/91
f 2/1/2 111/2/111 133/3/133
f 2/1/2 134/2/134 112/3/112
f 113/1/113 112/2/112 135/3/135
f 112/1/112 113/2/113 92/3/92
f 114/1/114 113/2/113 136/3/136
f 113/1/113 114/2/114 93/3/93
f 115/1/115 114/2/114 137/3/137
f 114/1/114 115/2/115 94/3/94
f 116/1/116 115/2/115 138/3/138
f 115/1/115 116/2/116 95/3/95
f 117/1/117 116/2/116 139/3/139
f 116/1/116 117/2/117 96/3/96
f 140/1/140 97/2/97 117/3/117
f 97/1/97 140/2/140 118/3/118
f 118/1/118 119/2/119 98/3/98
f 119/1/119 118/2/118 141/3/141
f 142/1/142 99/2/99 119/3/119
f 99/1/99 142/2/142 120/3/120
f 120/1/120 121/2/121 100/3/100
f 121/1/121 120/2/120 143/3/143
f 121/1/121 122/2/122 102/3/102
f 122/1/122 121/2/121 144/3/144
f 122/1/122 145/2/145 123/3/123
f 145/1/145 122/2/122 146/3/146
f 124/1/124 123/2/123 147/3/147
f 123/1/123 124/2/124 101/3/101
f 125/1/125 124/2/124 148/3/148
f 124/1/124 125/2/125 103/3/103
f 126/1/126 125/2/125 149/3/149
f 125/1/125 126/2/126 104/3/104
f 126/1/126 127/2/127 105/3/105
f 127/1/127 126/2/126 150/3/150
f 127/1/127 128/2/128 106/3/106
f 128/1/128 127/2/127 151/3/151
f 107/1/107 152/2/152 129/3/129
f 152/1/152 107/2/107 128/3/128
f 130/1/130 129/2/129 153/3/153
f 129/1/129 130/2/130 108/3/108
f 131/1/131 130/2/130 154/3/154
f 130/1/130 131/2/131 109/3/109
f 132/1/132 131/2/131 155/3/155
f 131/1/131 132/2/132 110/3/110
f 133/1/133 132/2/132 156/3/156
f 132/1/132 133/2/133 111/3/111
f 2/1/2 133/2/133 157/3/157
f 2/1/2 157/2/157 134/3/134
f 135/1/135 134/2/134 158/3/158
f 134/1/134 135/2/135 112/3/112
f 136/1/136 135/2/135 159/3/159
f 135/1/135 136/2/136 113/3/113
f 137/1/137 136/2/136 160/3/160
f 136/1/136 137/2/137 114/3/114
f 138/1/138 137/2/137 161/3/161
f 137/1/137 138/2/138 115/3/115
f 139/1/139 138/2/138 162/3/162
f 138/1/138 139/2/139 116/3/116
f 163/1/163 117/2/117 139/3/139
f 117/1/117 163/2/163 140/3/140
f 164/1/164 118/2/118 140/3/140
f 118/1/118 164/2/164 141/3/141
f 165/1/165 119/2/119 141/3/141
f 119/1/119 165/2/165 142/3/142
f 166/1/166 120/2/120 142/3/142
f 120/1/120 166/2/166 143/3/143
f 143/1/143 144/2/144 121/3/121
f 144/1/144 143/2/143 167/3/167
f 144/1/144 146/2/146 122/3/122
f 146/1/146 144/2/144 168/3/168
f 145/1/145 169/2/169 170/3/170
f 169/1/169 145/2/145 146/3/146
f 147/1/147 145/2/145 171/3/171
f 145/1/145 147/2/147 123/3/123
f 148/1/148 147/2/147 172/3/172
f 147/1/147 148/2/148 124/3/124
f 149/1/149 148/2/148 173/3/173
f 148/1/148 149/2/149 125/3/125
f 149/1/149 150/2/150 126/3/126
f 150/1/150 149/2/149 174/3/174
f 150/1/150 151/2/151 127/3/127
f 151/1/151 150/2/150 175/3/175
f 151/1/151 152/2/152 128/3/128
f 152/1/152 151/2/151 176/3/176
f 153/1/153 152/2/152 177/3/177
f 152/1/152 153/2/153 129/3/129
f 154/1/154 153/2/153 178/3/178
f 153/1/153 154/2/154 130/3/130
f 155/1/155 154/2/154 179/3/179
f 154/1/154 155/2/155 131/3/131
f 156/1/156 155/2/155 180/3/180
f 155/1/155 156/2/156 132/3/132
f 157/1/157 156/2/156 181/3/181
f 156/1/156 157/2/157 133/3/133
f 134/1/134 181/2/181 158/3/158
f 181/1/181 134/2/134 157/3/157
f 159/1/159 158/2/158 182/3/182
f 158/1/158 159/2/159 135/3/135
f 160/1/160 159/2/159 183/3/183
f 159/1/159 160/2/160 136/3/136
f 161/1/161 160/2/160 184/3/184
f 160/1/160 161/2/161 137/3/137
f 162/1/162 161/2/161 185/3/185
f 161/1/161 162/2/162 138/3/138
f 186/1/186 139/2/139 162/3/162
f 139/1/139 186/2/186 163/3/163
f 187/1/187 140/2/140 163/3/163
f 140/1/140 187/2/187 164/3/164
f 164/1/164 165/2/165 141/3/141
f 165/1/165 164/2/164 188/3/188
f 189/1/189 142/2/142 165/3/165
f 142/1/142 189/2/189 166/3/166
f 190/1/190 143/2/143 166/3/166
f 143/1/143 190/2/190 167/3/167
f 167/1/167 168/2/168 144/3/144
f 168/1/168 167/2/167 191/3/191
f 146/1/146 192/2/192 169/3/169
f 192/1/192 146/2/146 168/3/168
f 169/1/169 193/2/193 170/3/170
f 193/1/193 169/2/169 194/3/194
f 145/1/145 195/2/195 171/3/171
f 195/1/195 145/2/145 170/3/170
f 172/1/172 171/2/171 196/3/196
f 171/1/171 172/2/172 147/3/147
f 173/1/173 172/2/172 197/3/197
f 172/1/172 173/2/173 148/3/148
f 173/1/173 174/2/174 149/3/149
f 174/1/174 173/2/173 198/3/198
f 174/1/174 175/2/175 150/3/150
f 175/1/175 174/2/174 199/3/199
f 151/1/151 200/2/200 176/3/176
f 200/1/200 151/2/151 175/3/175
f 176/1/176 177/2/177 152/3/152
f 177/1/177 176/2/176 201/3/201
f 178/1/178 177/2/177 202/3/202
f 177/1/177 178/2/178 153/3/153
f 179/1/179 178/2/178 203/3/203
f 178/1/178 179/2/179 154/3/154
f 180/1/180 179/2/179 204/3/204
f 179/1/179 180/2/180 155/3/155
f 181/1/181 180/2/180 205/3/205
f 180/1/180 181/2/181 156/3/156
f 158/1/158 205/2/205 182/3/182
f 205/1/205 158/2/158 181/3/181
f 183/1/183 182/2/182 206/3/206
f 182/1/182 183/2/183 159/3/159
f 184/1/184 183/2/183 207/3/207
f 183/1/183 184/2/184 160/3/160
f 185/1/185 184/2/184 208/3/208
f 184/1/184 185/2/185 161/3/161
f 186/1/186 185/2/185 209/3/209
f 185/1/185 186/2/186 162/3/162
f 210/1/210 163/2/163 186/3/186
f 163/1/163 210/2/210 187/3/187
f 211/1/211 164/2/164 187/3/187
f 164/1/164 211/2/211 188/3/188
f 212/1/212 165/2/165 188/3/188
f 165/1/165 212/2/212 189/3/189
f 213/1/213 166/2/166 189/3/189
f 166/1/166 213/2/213 190/3/190
f 214/1/214 167/2/167 190/3/190
f 167/1/167 214/2/214 191/3/191
f 168/1/168 215/2/215 192/3/192
f 215/1/215 168/2/168 191/3/191
f 169/1/169 216/2/216 194/3/194
f 216/1/216 169/2/169 192/3/192
f 193/1/193 217/2/217 218/3/218
f 217/1/217 193/2/193 194/3/194
f 170/1/170 219/2/219 195/3/195
f 219/1/219 170/2/170 193/3/193
f 171/1/171 220/2/220 196/3/196
f 220/1/220 171/2/171 195/3/195
f 197/1/197 196/2/196 221/3/221
f 196/1/196 197/2/197 172/3/172
f 173/1/173 222/2/222 198/3/198
f 222/1/222 173/2/173 197/3/197
f 198/1/198 199/2/199 174/3/174
f 199/1/199 198/2/198 223/3/223
f 199/1/199 200/2/200 175/3/175
f 200/1/200 199/2/199 224/3/224
f 200/1/200 201/2/201 176/3/176
f 201/1/201 200/2/200 225/3/225
f 201/1/201 202/2/202 177/3/177
f 202/1/202 201/2/201 226/3/226
f 203/1/203 202/2/202 227/3/227
f 202/1/202 203/2/203 178/3/178
f 204/1/204 203/2/203 228/3/228
f 203/1/203 204/2/204 179/3/179
f 205/1/205 204/2/204 229/3/229
f 204/1/204 205/2/205 180/3/180
f 182/1/182 229/2/229 206/3/206
f 229/1/229 182/2/182 205/3/205
f 207/1/207 206/2/206 230/3/230
f 206/1/206 207/2/207 183/3/183
f 208/1/208 207/2/207 231/3/231
f 207/1/207 208/2/208 184/3/184
f 209/1/209 208/2/208 232/3/232
f 208/1/208 209/2/209 185/3/185
f 233/1/233 186/2/186 209/3/209
f 186/1/186 233/2/233 210/3/210
f 234/1/234 187/2/187 210/3/210
f 187/1/187 234/2/234 211/3/211
f 235/1/235 188/2/188 211/3/211
f 188/1/188 235/2/235 212/3/212
f 236/1/236 189/2/189 212/3/212
f 189/1/189 236/2/236 213/3/213
f 237/1/237 190/2/190 213/3/213
f 190/1/190 237/2/237 214/3/214
f 238/1/238 191/2/191 214/3/214
f 191/1/191 238/2/238 215/3/215
f 192/1/192 239/2/239 216/3/216
f 239/1/239 192/2/192 215/3/215
f 194/1/194 240/2/240 217/3/217
f 240/1/240 194/2/194 216/3/216
f 217/1/217 241/2/241 218/3/218
f 241/1/241 217/2/217 242/3/242
f 193/1/193 243/2/243 219/3/219
f 243/1/243 193/2/193 218/3/218
f 195/1/195 244/2/244 220/3/220
f 244/1/244 195/2/195 219/3/219
f 196/1/196 245/2/245 221/3/221
f 245/1/245 196/2/196 220/3/220
f 221/1/221 222/2/222 197/3/197
f 222/1/222 221/2/221 246/3/246
f 198/1/198 247/2/247 223/3/223
f 247/1/247 198/2/198 222/3/222
f 223/1/223 224/2/224 199/3/199
f 224/1/224 223/2/223 248/3/248
f 224/1/224 225/2/225 200/3/200
f 225/1/225 224/2/224 249/3/249
f 225/1/225 226/2/226 201/3/201
f 226/1/226 225/2/225 250/3/250
f 227/1/227 226/2/226 251/3/251
f 226/1/226 227/2/227 202/3/202
f 228/1/228 227/2/227 252/3/252
f 227/1/227 228/2/228 203/3/203
f 229/1/229 228/2/228 253/3/253
f 228/1/228 229/2/229 204/3/204
f 206/1/206 253/2/253 230/3/230
f 253/1/253 206/2/206 229/3/229
f 231/1/231 230/2/230 254/3/254
f 230/1/230 231/2/231 207/3/207
f 255/1/255 208/2/208 231/3/231
f 208/1/208 255/2/255 232/3/232
f 256/1/256 209/2/209 232/3/232
f 209/1/209 256/2/256 233/3/233
f 257/1/257 210/2/210 233/3/233
f 210/1/210 257/2/257 234/3/234
f 258/1/258 211/2/211 234/3/234
f 211/1/211 258/2/258 235/3/235
f 259/1/259 212/2/212 235/3/235
f 212/1/212 259/2/259 236/3/236
f 260/1/260 213/2/213 236/3/236
f 213/1/213 260/2/260 237/3/237
f 261/1/261 214/2/214 237/3/237
f 214/1/214 261/2/261 238/3/238
f 238/1/238 239/2/239 215/3/215
f 239/1/239 238/2/238 262/3/262
f 216/1/216 263/2/263 240/3/240
f 263/1/263 216/2/216 239/3/239
f 217/1/217 264/2/264 242/3/242
f 264/1/264 217/2/217 240/3/240
f 241/1/241 265/2/265 266/3/266
f 265/1/265 241/2/241 242/3/242
f 218/1/218 267/2/267 243/3/243
f 267/1/267 218/2/218 241/3/241
f 219/1/219 268/2/268 244/3/244
f 268/1/268 219/2/219 243/3/243
f 220/1/220 269/2/269 245/3/245
f 269/1/269 220/2/220 244/3/244
f 245/1/245 246/2/246 221/3/221
f 246/1/246 245/2/245 270/3/270
f 246/1/246 247/2/247 222/3/222
f 247/1/247 246/2/246 271/3/271
f 247/1/247 248/2/248 223/3/223
f 248/1/248 247/2/247 272/3/272
f 248/1/248 249/2/249 224/3/224
f 249/1/249 248/2/248 273/3/273
f 249/1/249 250/2/250 225/3/225
f 250/1/250 249/2/249 274/3/274
f 226/1/226 275/2/275 251/3/251
f 275/1/275 226/2/226 250/3/250
f 252/1/252 251/2/251 276/3/276
f 251/1/251 252/2/252 227/3/227
f 253/1/253 252/2/252 277/3/277
f 252/1/252 253/2/253 228/3/228
f 230/1/230 277/2/277 254/3/254
f 277/1/277 230/2/230 253/3/253
f 278/1/278 231/2/231 254/3/254
f 231/1/231 278/2/278 255/3/255
f 279/1/279 232/2/232 255/3/255
f 232/1/232 279/2/279 256/3/256
f 280/1/280 233/2/233 256/3/256
f 233/1/233 280/2/280 257/3/257
f 281/1/281 234/2/234 257/3/257
f 234/1/234 281/2/281 258/3/258
f 282/1/282 235/2/235 258/3/258
f 235/1/235 282/2/282 259/3/259
f 259/1/259 260/2/260 236/3/236
f 260/1/260 259/2/259 283/3/283
f 284/1/284 237/2/237 260/3/260
f 237/1/237 284/2/284 261/3/261
f 285/1/285 238/2/238 261/3/261
f 238/1/238 285/2/285 262/3/262
f 262/1/262 263/2/263 239/3/239
f 263/1/263 262/2/262 286/3/286
f 240/1/240 287/2/287 264/3/264
f 287/1/287 240/2/240 263/3/263
f 242/1/242 288/2/288 265/3/265
f 288/1/288 242/2/242 264/3/264
f 265/1/265 289/2/289 266/3/266
f 289/1/289 265/2/265 290/3/290
f 241/1/241 291/2/291 267/3/267
f 291/1/291 241/2/241 266/3/266
f 243/1/243 292/2/292 268/3/268
f 292/1/292 243/2/243 267/3/267
f 244/1/244 293/2/293 269/3/269
f 293/1/293 244/2/244 268/3/268
f 269/1/269 270/2/270 245/3/245
f 270/1/270 269/2/269 294/3/294
f 270/1/270 271/2/271 246/3/246
f 271/1/271 270/2/270 295/3/295
f 247/1/247 296/2/296 272/3/272
f 296/1/296 247/2/247 271/3/271
f 272/1/272 273/2/273 248/3/248
f 273/1/273 272/2/272 297/3/297
f 273/1/273 274/2/274 249/3/249
f 274/1/274 273/2/273 298/3/298
f 274/1/274 275/2/275 250/3/250
f 275/1/275 274/2/274 299/3/299
f 300/1/300 251/2/251 275/3/275
f 251/1/251 300/2/300 276/3/276
f 301/1/301 252/2/252 276/3/276
f 252/1/252 301/2/301 277/3/277
f 278/1/278 277/2/277 301/3/301
f 277/1/277 278/2/278 254/3/254
f 279/1/279 278/2/278 302/3/302
f 278/1/278 279/2/279 255/3/255
f 303/1/303 256/2/256 279/3/279
f 256/1/256 303/2/303 280/3/280
f 304/1/304 257/2/257 280/3/280
f 257/1/257 304/2/304 281/3/281
f 281/1/281 282/2/282 258/3/258
f 282/1/282 281/2/281 305/3/305
f 306/1/306 259/2/259 282/3/282
f 259/1/259 306/2/306 283/3/283
f 307/1/307 260/2/260 283/3/283
f 260/1/260 307/2/307 284/3/284
f 284/1/284 285/2/285 261/3/261
f 285/1/285 284/2/284 308/3/308
f 309/1/309 262/2/262 285/3/285
f 262/1/262 309/2/309 286/3/286
f 310/1/310 263/2/263 286/3/286
f 263/1/263 310/2/310 287/3/287
f 264/1/264 311/2/311 288/3/288
f 311/1/311 264/2/264 287/3/287
f 265/1/265 312/2/312 290/3/290
f 312/1/312 265/2/265 288/3/288
f 313/1/313 290/2/290 314/3/314
f 290/1/290 313/2/313 289/3/289
f 266/1/266 315/2/315 291/3/291
f 315/1/315 266/2/266 289/3/289
f 267/1/267 316/2/316 292/3/292
f 316/1/316 267/2/267 291/3/291
f 268/1/268 317/2/317 293/3/293
f 317/1/317 268/2/268 292/3/292
f 293/1/293 294/2/294 269/3/269
f 294/1/294 293/2/293 318/3/318
f 294/1/294 295/2/295 270/3/270
f 295/1/295 294/2/294 319/3/319
f 271/1/271 320/2/320 296/3/296
f 320/1/320 271/2/271 295/3/295
f 296/1/296 297/2/297 272/3/272
f 297/1/297 296/2/296 321/3/321
f 297/1/297 298/2/298 273/3/273
f 298/1/298 297/2/297 322/3/322
f 298/1/298 299/2/299 274/3/274
f 299/1/299 298/2/298 323/3/323
f 324/1/324 275/2/275 299/3/299
f 275/1/275 324/2/324 300/3/300
f 325/1/325 276/2/276 300/3/300
f 276/1/276 325/2/325 301/3/301
f 302/1/302 301/2/301 325/3/325
f 301/1/301 302/2/302 278/3/278
f 303/1/303 302/2/302 326/3/326
f 302/1/302 303/2/303 279/3/279
f 327/1/327 280/2/280 303/3/303
f 280/1/280 327/2/327 304/3/304
f 328/1/328 281/2/281 304/3/304
f 281/1/281 328/2/328 305/3/305
f 305/1/305 306/2/306 282/3/282
f 306/1/306 305/2/305 329/3/329
f 330/1/330 283/2/283 306/3/306
f 283/1/283 330/2/330 307/3/307
f 331/1/331 284/2/284 307/3/307
f 284/1/284 331/2/331 308/3/308
f 308/1/308 309/2/309 285/3/285
f 309/1/309 308/2/308 332/3/332
f 309/1/309 310/2/310 286/3/286
f 310/1/310 309/2/309 333/3/333
f 334/1/334 287/2/287 310/3/310
f 287/1/287 334/2/334 311/3/311
f 312/1/312 311/2/311 335/3/335
f 311/1/311 312/2/312 288/3/288
f 314/1/314 312/2/312 336/3/336
f 312/1/312 314/2/314 290/3/290
f 337/1/337 314/2/314 338/3/338
f 314/1/314 337/2/337 313/3/313
f 315/1/315 313/2/313 339/3/339
f 313/1/313 315/2/315 289/3/289
f 291/1/291 340/2/340 316/3/316
f 340/1/340 291/2/291 315/3/315
f 292/1/292 341/2/341 317/3/317
f 341/1/341 292/2/292 316/3/316
f 317/1/317 318/2/318 293/3/293
f 318/1/318 317/2/317 342/3/342
f 318/1/318 319/2/319 294/3/294
f 319/1/319 318/2/318 343/3/343
f 319/1/319 320/2/320 295/3/295
f 320/1/320 319/2/319 344/3/344
f 320/1/320 321/2/321 296/3/296
f 321/1/321 320/2/320 345/3/345
f 321/1/321 322/2/322 297/3/297
f 322/1/322 321/2/321 346/3/346
f 322/1/322 323/2/323 298/3/298
f 323/1/323 322/2/322 347/3/347
f 348/1/348 299/2/299 323/3/323
f 299/1/299 348/2/348 324/3/324
f 349/1/349 300/2/300 324/3/324
f 300/1/300 349/2/349 325/3/325
f 326/1/326 325/2/325 349/3/349
f 325/1/325 326/2/326 302/3/302
f 327/1/327 326/2/326 350/3/350
f 326/1/326 327/2/327 303/3/303
f 351/1/351 304/2/304 327/3/327
f 304/1/304 351/2/351 328/3/328
f 352/1/352 305/2/305 328/3/328
f 305/1/305 352/2/352 329/3/329
f 353/1/353 306/2/306 329/3/329
f 306/1/306 353/2/353 330/3/330
f 330/1/330 331/2/331 307/3/307
f 331/1/331 330/2/330 354/3/354
f 355/1/355 308/2/308 331/3/331
f 308/1/308 355/2/355 332/3/332
f 356/1/356 309/2/309 332/3/332
f 309/1/309 356/2/356 333/3/333
f 357/1/357 310/2/310 333/3/333
f 310/1/310 357/2/357 334/3/334
f 335/1/335 334/2/334 358/3/358
f 334/1/334 335/2/335 311/3/311
f 336/1/336 335/2/335 359/3/359
f 335/1/335 336/2/336 312/3/312
f 338/1/338 336/2/336 360/3/360
f 336/1/336 338/2/338 314/3/314
f 361/1/361 338/2/338 362/3/362
f 338/1/338 361/2/361 337/3/337
f 339/1/339 337/2/337 363/3/363
f 337/1/337 339/2/339 313/3/313
f 340/1/340 339/2/339 364/3/364
f 339/1/339 340/2/340 315/3/315
f 341/1/341 340/2/340 365/3/365
f 340/1/340 341/2/341 316/3/316
f 317/1/317 366/2/366 342/3/342
f 366/1/366 317/2/317 341/3/341
f 342/1/342 343/2/343 318/3/318
f 343/1/343 342/2/342 367/3/367
f 343/1/343 344/2/344 319/3/319
f 344/1/344 343/2/343 368/3/368
f 320/1/320 369/2/369 345/3/345
f 369/1/369 320/2/320 344/3/344
f 321/1/321 370/2/370 346/3/346
f 370/1/370 321/2/321 345/3/345
f 346/1/346 347/2/347 322/3/322
f 347/1/347 346/2/346 371/3/371
f 372/1/372 323/2/323 347/3/347
f 323/1/323 372/2/372 348/3/348
f 373/1/373 324/2/324 348/3/348
f 324/1/324 373/2/373 349/3/349
f 350/1/350 349/2/349 373/3/373
f 349/1/349 350/2/350 326/3/326
f 351/1/351 350/2/350 374/3/374
f 350/1/350 351/2/351 327/3/327
f 375/1/375 328/2/328 351/3/351
f 328/1/328 375/2/375 352/3/352
f 353/1/353 352/2/352 376/3/376
f 352/1/352 353/2/353 329/3/329
f 377/1/377 330/2/330 353/3/353
f 330/1/330 377/2/377 354/3/354
f 378/1/378 331/2/331 354/3/354
f 331/1/331 378/2/378 355/3/355
f 355/1/355 356/2/356 332/3/332
f 356/1/356 355/2/355 379/3/379
f 380/1/380 333/2/333 356/3/356
f 333/1/333 380/2/380 357/3/357
f 357/1/357 358/2/358 334/3/334
f 358/1/358 357/2/357 381/3/381
f 359/1/359 358/2/358 382/3/382
f 358/1/358 359/2/359 335/3/335
f 360/1/360 359/2/359 383/3/383
f 359/1/359 360/2/360 336/3/336
f 362/1/362 360/2/360 384/3/384
f 360/1/360 362/2/362 338/3/338
f 385/1/385 362/2/362 386/3/386
f 362/1/362 385/2/385 361/3/361
f 363/1/363 361/2/361 387/3/387
f 361/1/361 363/2/363 337/3/337
f 364/1/364 363/2/363 388/3/388
f 363/1/363 364/2/364 339/3/339
f 365/1/365 364/2/364 389/3/389
f 364/1/364 365/2/365 340/3/340
f 366/1/366 365/2/365 390/3/390
f 365/1/365 366/2/366 341/3/341
f 366/1/366 367/2/367 342/3/342
f 367/1/367 366/2/366 391/3/391
f 367/1/367 368/2/368 343/3/343
f 368/1/368 367/2/367 392/3/392
f 344/1/344 393/2/393 369/3/369
f 393/1/393 344/2/344 368/3/368
f 369/1/369 370/2/370 345/3/345
f 370/1/370 369/2/369 394/3/394
f 370/1/370 371/2/371 346/3/346
f 371/1/371 370/2/370 395/3/395
f 396/1/396 347/2/347 371/3/371
f 347/1/347 396/2/396 372/3/372
f 397/1/397 348/2/348 372/3/372
f 348/1/348 397/2/397 373/3/373
f 374/1/374 373/2/373 397/3/397
f 373/1/373 374/2/374 350/3/350
f 398/1/398 351/2/351 374/3/374
f 351/1/351 398/2/398 375/3/375
f 376/1/376 375/2/375 399/3/399
f 375/1/375 376/2/376 352/3/352
f 377/1/377 376/2/376 400/3/400
f 376/1/376 377/2/377 353/3/353
f 401/1/401 354/2/354 377/3/377
f 354/1/354 401/2/401 378/3/378
f 402/1/402 355/2/355 378/3/378
f 355/1/355 402/2/402 379/3/379
f 403/1/403 356/2/356 379/3/379
f 356/1/356 403/2/403 380/3/380
f 404/1/404 357/2/357 380/3/380
f 357/1/357 404/2/404 381/3/381
f 382/1/382 381/2/381 405/3/405
f 381/1/381 382/2/382 358/3/358
f 383/1/383 382/2/382 406/3/406
f 382/1/382 383/2/383 359/3/359
f 384/1/384 383/2/383 407/3/407
f 383/1/383 384/2/384 360/3/360
f 386/1/386 384/2/384 408/3/408
f 384/1/384 386/2/386 362/3/362
f 409/1/409 386/2/386 410/3/410
f 386/1/386 409/2/409 385/3/385
f 387/1/387 385/2/385 411/3/411
f 385/1/385 387/2/387 361/3/361
f 388/1/388 387/2/387 412/3/412
f 387/1/387 388/2/388 363/3/363
f 389/1/389 388/2/388 413/3/413
f 388/1/388 389/2/389 364/3/364
f 390/1/390 389/2/389 414/3/414
f 389/1/389 390/2/390 365/3/365
f 390/1/390 391/2/391 366/3/366
f 391/1/391 390/2/390 415/3/415
f 391/1/391 392/2/392 367/3/367
f 392/1/392 391/2/391 416/3/416
f 368/1/368 417/2/417 393/3/393
f 417/1/417 368/2/368 392/3/392
f 393/1/393 394/2/394 369/3/369
f 394/1/394 393/2/393 418/3/418
f 394/1/394 395/2/395 370/3/370
f 395/1/395 394/2/394 419/3/419
f 395/1/395 396/2/396 371/3/371
f 396/1/396 395/2/395 420/3/420
f 421/1/421 372/2/372 396/3/396
f 372/1/372 421/2/421 397/3/397
f 398/1/398 397/2/397 421/3/421
f 397/1/397 398/2/398 374/3/374
f 399/1/399 398/2/398 422/3/422
f 398/1/398 399/2/399 375/3/375
f 400/1/400 399/2/399 423/3/423
f 399/1/399 400/2/400 376/3/376
f 401/1/401 400/2/400 424/3/424
f 400/1/400 401/2/401 377/3/377
f 425/1/425 378/2/378 401/3/401
f 378/1/378 425/2/425 402/3/402
f 426/1/426 379/2/379 402/3/402
f 379/1/379 426/2/426 403/3/403
f 427/1/427 380/2/380 403/3/403
f 380/1/380 427/2/427 404/3/404
f 405/1/405 404/2/404 428/3/428
f 404/1/404 405/2/405 381/3/381
f 406/1/406 405/2/405 429/3/429
f 405/1/405 406/2/406 382/3/382
f 407/1/407 406/2/406 430/3/430
f 406/1/406 407/2/407 383/3/383
f 408/1/408 407/2/407 431/3/431
f 407/1/407 408/2/408 384/3/384
f 410/1/410 408/2/408 432/3/432
f 408/1/408 410/2/410 386/3/386
f 409/1/409 410/2/410 433/3/433
f 411/1/411 409/2/409 434/3/434
f 409/1/409 411/2/411 385/3/385
f 412/1/412 411/2/411 435/3/435
f 411/1/411 412/2/412 387/3/387
f 413/1/413 412/2/412 436/3/436
f 412/1/412 413/2/413 388/3/388
f 414/1/414 413/2/413 437/3/437
f 413/1/413 414/2/414 389/3/389
f 415/1/415 414/2/414 438/3/438
f 414/1/414 415/2/415 390/3/390
f 391/1/391 439/2/439 416/3/416
f 439/1/439 391/2/391 415/3/415
f 392/1/392 440/2/440 417/3/417
f 440/1/440 392/2/392 416/3/416
f 417/1/417 418/2/418 393/3/393
f 418/1/418 417/2/417 441/3/441
f 394/1/394 442/2/442 419/3/419
f 442/1/442 394/2/394 418/3/418
f 419/1/419 420/2/420 395/3/395
f 420/1/420 419/2/419 443/3/443
f 420/1/420 421/2/421 396/3/396
f 421/1/421 420/2/420 444/3/444
f 444/1/444 398/2/398 421/3/421
f 398/1/398 444/2/444 422/3/422
f 445/1/445 399/2/399 422/3/422
f 399/1/399 445/2/445 423/3/423
f 424/1/424 423/2/423 446/3/446
f 423/1/423 424/2/424 400/3/400
f 425/1/425 424/2/424 447/3/447
f 424/1/424 425/2/425 401/3/401
f 425/1/425 426/2/426 402/3/402
f 426/1/426 425/2/425 448/3/448
f 449/1/449 403/2/403 426/3/426
f 403/1/403 449/2/449 427/3/427
f 450/1/450 404/2/404 427/3/427
f 404/1/404 450/2/450 428/3/428
f 429/1/429 428/2/428 451/3/451
f 428/1/428 429/2/429 405/3/405
f 430/1/430 429/2/429 452/3/452
f 429/1/429 430/2/430 406/3/406
f 431/1/431 430/2/430 453/3/453
f 430/1/430 431/2/431 407/3/407
f 432/1/432 431/2/431 454/3/454
f 431/1/431 432/2/432 408/3/408
f 410/1/410 432/2/432 433/3/433
f 409/1/409 433/2/433 434/3/434
f 435/1/435 434/2/434 455/3/455
f 434/1/434 435/2/435 411/3/411
f 436/1/436 435/2/435 456/3/456
f 435/1/435 436/2/436 412/3/412
f 437/1/437 436/2/436 457/3/457
f 436/1/436 437/2/437 413/3/413
f 438/1/438 437/2/437 458/3/458
f 437/1/437 438/2/438 414/3/414
f 415/1/415 459/2/459 439/3/439
f 459/1/459 415/2/415 438/3/438
f 439/1/439 440/2/440 416/3/416
f 440/1/440 439/2/439 460/3/460
f 440/1/440 441/2/441 417/3/417
f 441/1/441 440/2/440 461/3/461
f 441/1/441 442/2/442 418/3/418
f 442/1/442 441/2/441 462/3/462
f 442/1/442 443/2/443 419/3/419
f 443/1/443 442/2/442 463/3/463
f 443/1/443 444/2/444 420/3/420
f 444/1/444 443/2/443 464/3/464
f 464/1/464 422/2/422 444/3/444
f 422/1/422 464/2/464 445/3/445
f 446/1/446 445/2/445 465/3/465
f 445/1/445 446/2/446 423/3/423
f 447/1/447 446/2/446 466/3/466
f 446/1/446 447/2/447 424/3/424
f 448/1/448 447/2/447 467/3/467
f 447/1/447 448/2/448 425/3/425
f 468/1/468 426/2/426 448/3/448
f 426/1/426 468/2/468 449/3/449
f 469/1/469 427/2/427 449/3/449
f 427/1/427 469/2/469 450/3/450
f 470/1/470 428/2/428 450/3/450
f 428/1/428 470/2/470 451/3/451
f 452/1/452 451/2/451 471/3/471
f 451/1/451 452/2/452 429/3/429
f 453/1/453 452/2/452 472/3/472
f 452/1/452 453/2/453 430/3/430
f 454/1/454 453/2/453 473/3/473
f 453/1/453 454/2/454 431/3/431
f 432/1/432 454/2/454 433/3/433
f 434/1/434 433/2/433 455/3/455
f 456/1/456 455/2/455 474/3/474
f 455/1/455 456/2/456 435/3/435
f 457/1/457 456/2/456 475/3/475
f 456/1/456 457/2/457 436/3/436
f 458/1/458 457/2/457 476/3/476
f 457/1/457 458/2/458 437/3/437
f 438/1/438 477/2/477 459/3/459
f 477/1/477 438/2/438 458/3/458
f 439/1/439 478/2/478 460/3/460
f 478/1/478 439/2/439 459/3/459
f 440/1/440 479/2/479 461/3/461
f 479/1/479 440/2/440 460/3/460
f 461/1/461 462/2/462 441/3/441
f 462/1/462 461/2/461 480/3/480
f 462/1/462 463/2/463 442/3/442
f 463/1/463 462/2/462 481/3/481
f 463/1/463 464/2/464 443/3/443
f 464/1/464 463/2/463 482/3/482
f 482/1/482 445/2/445 464/3/464
f 445/1/445 482/2/482 465/3/465
f 483/1/483 446/2/446 465/3/465
f 446/1/446 483/2/483 466/3/466
f 467/1/467 466/2/466 484/3/484
f 466/1/466 467/2/467 447/3/447
f 485/1/485 448/2/448 467/3/467
f 448/1/448 485/2/485 468/3/468
f 486/1/486 449/2/449 468/3/468
f 449/1/449 486/2/486 469/3/469
f 487/1/487 450/2/450 469/3/469
f 450/1/450 487/2/487 470/3/470
f 488/1/488 451/2/451 470/3/470
f 451/1/451 488/2/488 471/3/471
f 472/1/472 471/2/471 489/3/489
f 471/1/471 472/2/472 452/3/452
f 473/1/473 472/2/472 490/3/490
f 472/1/472 473/2/473 453/3/453
f 454/1/454 473/2/473 433/3/433
f 455/1/455 433/2/433 474/3/474
f 475/1/475 474/2/474 491/3/491
f 474/1/474 475/2/475 456/3/456
f 476/1/476 475/2/475 492/3/492
f 475/1/475 476/2/476 457/3/457
f 458/1/458 493/2/493 477/3/477
f 493/1/493 458/2/458 476/3/476
f 459/1/459 494/2/494 478/3/478
f 494/1/494 459/2/459 477/3/477
f 460/1/460 495/2/495 479/3/479
f 495/1/495 460/2/460 478/3/478
f 461/1/461 496/2/496 480/3/480
f 496/1/496 461/2/461 479/3/479
f 480/1/480 481/2/481 462/3/462
f 481/1/481 480/2/480 497/3/497
f 481/1/481 482/2/482 463/3/463
f 482/1/482 481/2/481 498/3/498
f 498/1/498 465/2/465 482/3/482
f 465/1/465 498/2/498 483/3/483
f 484/1/484 483/2/483 499/3/499
f 483/1/483 484/2/484 466/3/466
f 485/1/485 484/2/484 500/3/500
f 484/1/484 485/2/485 467/3/467
f 501/1/501 468/2/468 485/3/485
f 468/1/468 501/2/501 486/3/486
f 502/1/502 469/2/469 486/3/486
f 469/1/469 502/2/502 487/3/487
f 503/1/503 470/2/470 487/3/487
f 470/1/470 503/2/503 488/3/488
f 504/1/504 471/2/471 488/3/488
f 471/1/471 504/2/504 489/3/489
f 490/1/490 489/2/489 505/3/505
f 489/1/489 490/2/490 472/3/472
f 473/1/473 490/2/490 433/3/433
f 474/1/474 433/2/433 491/3/491
f 492/1/492 491/2/491 506/3/506
f 491/1/491 492/2/492 475/3/475
f 476/1/476 507/2/507 493/3/493
f 507/1/507 476/2/476 492/3/492
f 477/1/477 508/2/508 494/3/494
f 508/1/508 477/2/477 493/3/493
f 478/1/478 509/2/509 495/3/495
f 509/1/509 478/2/478 494/3/494
f 479/1/479 510/2/510 496/3/496
f 510/1/510 479/2/479 495/3/495
f 480/1/480 511/2/511 497/3/497
f 511/1/511 480/2/480 496/3/496
f 497/1/497 498/2/498 481/3/481
f 498/1/498 497/2/497 512/3/512
f 512/1/512 483/2/483 498/3/498
f 483/1/483 512/2/512 499/3/499
f 513/1/513 484/2/484 499/3/499
f 484/1/484 513/2/513 500/3/500
f 514/1/514 485/2/485 500/3/500
f 485/1/485 514/2/514 501/3/501
f 515/1/515 486/2/486 501/3/501
f 486/1/486 515/2/515 502/3/502
f 516/1/516 487/2/487 502/3/502
f 487/1/487 516/2/516 503/3/503
f 517/1/517 488/2/488 503/3/503
f 488/1/488 517/2/517 504/3/504
f 518/1/518 489/2/489 504/3/504
f 489/1/489 518/2/518 505/3/505
f 490/1/490 505/2/505 433/3/433
f 491/1/491 433/2/433 506/3/506
f 492/1/492 519/2/519 507/3/507
f 519/1/519 492/2/492 506/3/506
f 493/1/493 520/2/520 508/3/508
f 520/1/520 493/2/493 507/3/507
f 494/1/494 521/2/521 509/3/509
f 521/1/521 494/2/494 508/3/508
f 495/1/495 522/2/522 510/3/510
f 522/1/522 495/2/495 509/3/509
f 496/1/496 523/2/523 511/3/511
f 523/1/523 496/2/496 510/3/510
f 511/1/511 512/2/512 497/3/497
f 512/1/512 511/2/511 524/3/524
f 524/1/524 499/2/499 512/3/512
f 499/1/499 524/2/524 513/3/513
f 525/1/525 500/2/500 513/3/513
f 500/1/500 525/2/525 514/3/514
f 526/1/526 501/2/501 514/3/514
f 501/1/501 526/2/526 515/3/515
f 527/1/527 502/2/502 515/3/515
f 502/1/502 527/2/527 516/3/516
f 528/1/528 503/2/503 516/3/516
f 503/1/503 528/2/528 517/3/517
f 529/1/529 504/2/504 517/3/517
f 504/1/504 529/2/529 518/3/518
f 505/1/505 518/2/518 433/3/433
f 506/1/506 433/2/433 519/3/519
f 507/1/507 530/2/530 520/3/520
f 530/1/530 507/2/507 519/3/519
f 508/1/508 531/2/531 521/3/521
f 531/1/531 508/2/508 520/3/520
f 509/1/509 532/2/532 522/3/522
f 532/1/532 509/2/509 521/3/521
f 510/1/510 533/2/533 523/3/523
f 533/1/533 510/2/510 522/3/522
f 511/1/511 534/2/534 524/3/524
f 534/1/534 511/2/511 523/3/523
f 524/1/524 525/2/525 513/3/513
f 525/1/525 524/2/524 534/3/534
f 535/1/535 514/2/514 525/3/525
f 514/1/514 535/2/535 526/3/526
f 536/1/536 515/2/515 526/3/526
f 515/1/515 536/2/536 527/3/527
f 537/1/537 516/2/516 527/3/527
f 516/1/516 537/2/537 528/3/528
f 538/1/538 517/2/517 528/3/528
f 517/1/517 538/2/538 529/3/529
f 433/1/433 518/2/518 529/3/529
f 433/1/433 530/2/530 519/3/519
f 520/1/520 539/2/539 531/3/531
f 539/1/539 520/2/520 530/3/530
f 521/1/521 540/2/540 532/3/532
f 540/1/540 521/2/521 531/3/531
f 522/1/522 541/2/541 533/3/533
f 541/1/541 522/2/522 532/3/532
f 523/1/523 542/2/542 534/3/534
f 542/1/542 523/2/523 533/3/533
f 534/1/534 535/2/535 525/3/525
f 535/1/535 534/2/534 542/3/542
f 543/1/543 526/2/526 535/3/535
f 526/1/526 543/2/543 536/3/536
f 544/1/544 527/2/527 536/3/536
f 527/1/527 544/2/544 537/3/537
f 545/1/545 528/2/528 537/3/537
f 528/1/528 545/2/545 538/3/538
f 433/1/433 529/2/529 538/3/538
f 433/1/433 539/2/539 530/3/530
f 531/1/531 546/2/546 540/3/540
f 546/1/546 531/2/531 539/3/539
f 532/1/532 547/2/547 541/3/541
f 547/1/547 532/2/532 540/3/540
f 533/1/533 548/2/548 542/3/542
f 548/1/548 533/2/533 541/3/541
f 542/1/542 543/2/543 535/3/535
f 543/1/543 542/2/542 548/3/548
f 549/1/549 536/2/536 543/3/543
f 536/1/536 549/2/549 544/3/544
f 550/1/550 537/2/537 544/3/544
f 537/1/537 550/2/550 545/3/545
f 433/1/433 538/2/538 545/3/545
f 433/1/433 546/2/546 539/3/539
f 540/1/540 551/2/551 547/3/547
f 551/1/551 540/2/540 546/3/546
f 541/1/541 552/2/552 548/3/548
f 552/1/552 541/2/541 547/3/547
f 548/1/548 549/2/549 543/3/543
f 549/1/549 548/2/548 552/3/552
f 553/1/553 544/2/544 549/3/549
f 544/1/544 553/2/553 550/3/550
f 433/1/433 545/2/545 550/3/550
f 433/1/433 551/2/551 546/3/546
f 547/1/547 554/2/554 552/3/552
f 554/1/554 547/2/547 551/3/551
f 552/1/552 553/2/553 549/3/549
f 553/1/553 552/2/552 554/3/554
f 433/1/433 550/2/550 553/3/553
f 433/1/433 554/2/554 551/3/551
f 433/1/433 553/2/553 554/3/554
