# Blender 5.2.0 LTS
# www.blender.org
o Hand_Grip_L
v 0.227356 0.583379 0.064422
v 0.226817 0.574655 0.067936
v 0.230122 0.585750 0.069170
v 0.230431 0.577753 0.074140
v 0.227661 0.564999 0.071194
v 0.232061 0.568771 0.078747
v 0.225617 0.581889 0.058892
v 0.224545 0.572707 0.060711
v 0.229268 0.591023 0.060711
v 0.231139 0.592627 0.063923
v 0.233727 0.588840 0.072813
v 0.235142 0.581790 0.078900
v 0.229873 0.554578 0.074140
v 0.234984 0.558959 0.082913
v 0.224894 0.562628 0.062398
v 0.237796 0.573686 0.084543
v 0.225023 0.581380 0.052958
v 0.223770 0.572043 0.052958
v 0.228092 0.590015 0.056972
v 0.232521 0.597456 0.056868
v 0.233465 0.598264 0.058488
v 0.233577 0.594717 0.066387
v 0.237926 0.592439 0.075104
v 0.240627 0.586491 0.081893
v 0.233415 0.543568 0.076723
v 0.239150 0.548484 0.086567
v 0.226659 0.551823 0.063923
v 0.241646 0.564668 0.089645
v 0.223951 0.561819 0.052958
v 0.244475 0.579411 0.088186
v 0.225617 0.581889 0.047025
v 0.224545 0.572707 0.045205
v 0.227691 0.589671 0.052958
v 0.231928 0.596947 0.054982
v 0.237059 0.602567 0.052958
v 0.234694 0.599318 0.059731
v 0.236417 0.597150 0.067936
v 0.242431 0.596300 0.075885
v 0.246513 0.591537 0.082913
v 0.238227 0.532160 0.078900
v 0.244488 0.537526 0.089646
v 0.229810 0.540478 0.065260
v 0.246624 0.554890 0.094120
v 0.225563 0.550884 0.052958
v 0.249403 0.571317 0.093878
v 0.224894 0.562628 0.043519
v 0.251642 0.585554 0.089429
v 0.226817 0.574655 0.037981
v 0.227356 0.583379 0.041495
v 0.228092 0.590015 0.048945
v 0.231726 0.596774 0.052958
v 0.236126 0.600546 0.060512
v 0.239464 0.599762 0.068464
v 0.246936 0.600162 0.075104
v 0.252400 0.596582 0.081893
v 0.244227 0.520548 0.080633
v 0.250906 0.526272 0.092096
v 0.234292 0.528787 0.066387
v 0.252646 0.544519 0.097891
v 0.228580 0.539425 0.052958
v 0.255328 0.562350 0.098868
v 0.226659 0.551823 0.041994
v 0.257728 0.578453 0.095321
v 0.227661 0.564999 0.034723
v 0.258809 0.591696 0.088186
v 0.230431 0.577753 0.031777
v 0.230122 0.585750 0.036747
v 0.229268 0.591023 0.045205
v 0.231928 0.596947 0.050934
v 0.237663 0.601863 0.060778
v 0.242511 0.602374 0.067936
v 0.251135 0.603760 0.072813
v 0.257885 0.601284 0.078900
v 0.251311 0.508930 0.081893
v 0.258294 0.514915 0.093878
v 0.240029 0.516949 0.067284
v 0.259609 0.533732 0.100892
v 0.232950 0.527637 0.052958
v 0.262147 0.552662 0.103074
v 0.229810 0.540478 0.040657
v 0.264668 0.570356 0.100488
v 0.229873 0.554578 0.031777
v 0.266053 0.585588 0.093878
v 0.232061 0.568771 0.027170
v 0.265487 0.597421 0.084543
v 0.235142 0.581790 0.027017
v 0.233727 0.588840 0.033103
v 0.231139 0.592627 0.041994
v 0.232521 0.597456 0.049048
v 0.239200 0.603180 0.060512
v 0.245350 0.604807 0.066387
v 0.254740 0.606850 0.069170
v 0.262596 0.605321 0.074140
v 0.259359 0.497506 0.082657
v 0.266526 0.503648 0.094959
v 0.246922 0.505168 0.067936
v 0.267394 0.522714 0.103074
v 0.238597 0.515722 0.052958
v 0.269745 0.542419 0.106422
v 0.234292 0.528787 0.039530
v 0.272343 0.561401 0.104842
v 0.233415 0.543568 0.029194
v 0.274008 0.578361 0.098868
v 0.234984 0.558959 0.023003
v 0.273810 0.592237 0.089645
v 0.237796 0.573686 0.021374
v 0.271222 0.602336 0.078747
v 0.240627 0.586491 0.024024
v 0.237926 0.592439 0.030813
v 0.233577 0.594717 0.039530
v 0.233465 0.598264 0.047429
v 0.240632 0.604407 0.059731
v 0.247789 0.606897 0.063923
v 0.257506 0.609221 0.064422
v 0.266210 0.608419 0.067936
v 0.268233 0.486470 0.082913
v 0.275462 0.492666 0.095321
v 0.254854 0.493644 0.068332
v 0.275867 0.511654 0.104398
v 0.245425 0.503885 0.052958
v 0.277991 0.531797 0.108855
v 0.240029 0.516949 0.038633
v 0.280622 0.551742 0.108308
v 0.238227 0.532160 0.027017
v 0.282539 0.570140 0.103074
v 0.239150 0.548484 0.019350
v 0.282712 0.585821 0.094120
v 0.241646 0.564668 0.016271
v 0.280472 0.597946 0.082913
v 0.244475 0.579411 0.017730
v 0.275623 0.606108 0.071194
v 0.242431 0.596300 0.030032
v 0.246513 0.591537 0.023003
v 0.236417 0.597150 0.037981
v 0.234694 0.599318 0.046186
v 0.241861 0.605461 0.058488
v 0.249660 0.608501 0.060711
v 0.259245 0.610712 0.058892
v 0.268482 0.610366 0.060711
v 0.284948 0.482155 0.094959
v 0.277781 0.476012 0.082657
v 0.263689 0.482575 0.068464
v 0.284883 0.500741 0.104842
v 0.253317 0.492327 0.052958
v 0.286744 0.520977 0.110332
v 0.246922 0.505168 0.037981
v 0.289363 0.541544 0.110827
v 0.244227 0.520548 0.025284
v 0.291499 0.561065 0.106422
v 0.244488 0.537526 0.016271
v 0.292040 0.578283 0.097891
v 0.246624 0.554890 0.011797
v 0.290186 0.592227 0.086567
v 0.249403 0.571317 0.012039
v 0.285583 0.602328 0.074140
v 0.251642 0.585554 0.016488
v 0.278389 0.608479 0.062398
v 0.246936 0.600162 0.030813
v 0.252400 0.596582 0.024024
v 0.239464 0.599762 0.037453
v 0.236126 0.600546 0.045405
v 0.242805 0.606270 0.056868
v 0.250836 0.609509 0.056972
v 0.259838 0.611220 0.052958
v 0.269257 0.611031 0.052958
v 0.294823 0.472296 0.093878
v 0.287840 0.466311 0.081893
v 0.273276 0.472151 0.068332
v 0.294289 0.490161 0.104398
v 0.262139 0.481247 0.052958
v 0.295854 0.510144 0.110827
v 0.254854 0.493644 0.037585
v 0.298416 0.530981 0.112356
v 0.251311 0.508930 0.024024
v 0.300735 0.551291 0.108855
v 0.250906 0.526272 0.013821
v 0.301634 0.569752 0.100892
v 0.252646 0.544519 0.008026
v 0.300198 0.585276 0.089645
v 0.255328 0.562350 0.007048
v 0.295921 0.597143 0.076723
v 0.257728 0.578453 0.010596
v 0.288797 0.605082 0.063923
v 0.258809 0.591696 0.017730
v 0.279333 0.609288 0.052958
v 0.251135 0.603760 0.033103
v 0.257885 0.601284 0.027017
v 0.242511 0.602374 0.037981
v 0.237663 0.601863 0.045139
v 0.243398 0.606779 0.054982
v 0.251237 0.609853 0.052958
v 0.259245 0.610712 0.047025
v 0.268482 0.610366 0.045205
v 0.298237 0.457533 0.080633
v 0.304916 0.463257 0.092096
v 0.283451 0.462549 0.067936
v 0.303922 0.480096 0.103074
v 0.271739 0.470834 0.052958
v 0.305165 0.499483 0.110332
v 0.263689 0.482575 0.037453
v 0.307627 0.520235 0.112868
v 0.259359 0.497506 0.023260
v 0.310088 0.540986 0.110332
v 0.258294 0.514915 0.012039
v 0.311332 0.560373 0.103074
v 0.259609 0.533732 0.005024
v 0.310338 0.577212 0.092096
v 0.262147 0.552662 0.002843
v 0.306459 0.590642 0.078900
v 0.264668 0.570356 0.005429
v 0.299526 0.600233 0.065260
v 0.266053 0.585588 0.012039
v 0.289893 0.606021 0.052958
v 0.265487 0.597421 0.021374
v 0.278389 0.608479 0.043519
v 0.254740 0.606850 0.036747
v 0.262596 0.605321 0.031777
v 0.245350 0.604807 0.039530
v 0.239200 0.603180 0.045405
v 0.243600 0.606952 0.052958
v 0.250836 0.609509 0.048945
v 0.257506 0.609221 0.041495
v 0.266210 0.608419 0.037981
v 0.308795 0.449827 0.078900
v 0.315055 0.455193 0.089646
v 0.294039 0.453935 0.067284
v 0.313619 0.470717 0.100892
v 0.281953 0.461266 0.052958
v 0.314519 0.489178 0.108855
v 0.273276 0.472151 0.037585
v 0.316838 0.509488 0.112356
v 0.268233 0.486470 0.023004
v 0.319400 0.530325 0.110827
v 0.266526 0.503648 0.010958
v 0.320965 0.550308 0.104398
v 0.267394 0.522714 0.002843
v 0.320431 0.568173 0.093878
v 0.269745 0.542419 -0.000505
v 0.317017 0.582936 0.080633
v 0.272343 0.561401 0.001075
v 0.310394 0.594015 0.066387
v 0.274008 0.578361 0.007048
v 0.300756 0.601287 0.052958
v 0.273810 0.592237 0.016271
v 0.288797 0.605082 0.041994
v 0.271222 0.602336 0.027170
v 0.275623 0.606108 0.034723
v 0.247789 0.606897 0.041994
v 0.240632 0.604407 0.046186
v 0.243398 0.606779 0.050934
v 0.249660 0.608501 0.045205
v 0.319333 0.443326 0.076723
v 0.325068 0.448242 0.086567
v 0.304860 0.446454 0.066387
v 0.323214 0.462186 0.097891
v 0.292607 0.452707 0.052958
v 0.323755 0.479404 0.106422
v 0.283451 0.462549 0.037981
v 0.325891 0.498925 0.110827
v 0.277781 0.476012 0.023260
v 0.328510 0.519492 0.110332
v 0.275462 0.492666 0.010596
v 0.330371 0.539728 0.104842
v 0.275867 0.511654 0.001519
v 0.330306 0.558314 0.094959
v 0.277991 0.531797 -0.002938
v 0.327414 0.574158 0.081893
v 0.280622 0.551742 -0.002391
v 0.321215 0.586535 0.067284
v 0.282539 0.570140 0.002843
v 0.311737 0.595165 0.052958
v 0.282712 0.585821 0.011797
v 0.299526 0.600233 0.040657
v 0.280472 0.597946 0.023003
v 0.285583 0.602328 0.031777
v 0.241861 0.605461 0.047429
v 0.242805 0.606270 0.049048
v 0.329670 0.438141 0.074140
v 0.334782 0.442523 0.082913
v 0.315728 0.440236 0.065260
v 0.332542 0.454648 0.094120
v 0.303517 0.445304 0.052958
v 0.332715 0.470329 0.103074
v 0.294039 0.453934 0.038633
v 0.334632 0.488727 0.108308
v 0.287840 0.466311 0.024024
v 0.337263 0.508672 0.108855
v 0.284948 0.482155 0.010958
v 0.339387 0.528815 0.104398
v 0.284883 0.500741 0.001075
v 0.339792 0.547803 0.095321
v 0.286744 0.520977 -0.004415
v 0.337473 0.564457 0.082657
v 0.289363 0.541544 -0.004910
v 0.331803 0.577920 0.067936
v 0.291499 0.561065 -0.000505
v 0.322647 0.587762 0.052958
v 0.292040 0.578283 0.008026
v 0.310394 0.594015 0.039530
v 0.290186 0.592227 0.019350
v 0.295921 0.597143 0.029194
v 0.339631 0.434361 0.071194
v 0.344031 0.438133 0.078747
v 0.326457 0.435387 0.063923
v 0.341444 0.448232 0.089646
v 0.314498 0.439182 0.052958
v 0.341246 0.462108 0.098869
v 0.304860 0.446454 0.039530
v 0.342911 0.479068 0.104842
v 0.298237 0.457533 0.025284
v 0.345509 0.498050 0.106422
v 0.294823 0.472296 0.012039
v 0.347860 0.517755 0.103074
v 0.294289 0.490161 0.001519
v 0.348727 0.536820 0.094959
v 0.295854 0.510144 -0.004910
v 0.347020 0.553999 0.082913
v 0.298416 0.530981 -0.006439
v 0.341978 0.568318 0.068332
v 0.300735 0.551291 -0.002938
v 0.333300 0.579203 0.052958
v 0.301634 0.569752 0.005024
v 0.321215 0.586535 0.038633
v 0.300198 0.585276 0.016271
v 0.306459 0.590642 0.027017
v 0.349044 0.432050 0.067936
v 0.352658 0.435148 0.074140
v 0.336865 0.431990 0.062398
v 0.349767 0.443048 0.084543
v 0.325361 0.434448 0.052958
v 0.349201 0.454881 0.093878
v 0.315728 0.440236 0.040657
v 0.350586 0.470114 0.100488
v 0.308795 0.449827 0.027017
v 0.353107 0.487807 0.103074
v 0.304916 0.463257 0.013821
v 0.355645 0.506737 0.100892
v 0.303922 0.480096 0.002843
v 0.356960 0.525554 0.093878
v 0.305165 0.499483 -0.004415
v 0.355894 0.542963 0.082657
v 0.307627 0.520235 -0.006951
v 0.351565 0.557894 0.068464
v 0.310088 0.540986 -0.004415
v 0.343515 0.569635 0.052958
v 0.311332 0.560373 0.002843
v 0.331803 0.577920 0.037981
v 0.310338 0.577212 0.013820
v 0.317017 0.582936 0.025284
v 0.357748 0.431248 0.064422
v 0.360514 0.433619 0.069170
v 0.346772 0.430103 0.060711
v 0.357368 0.439185 0.078900
v 0.335921 0.431181 0.052958
v 0.356445 0.448773 0.088186
v 0.326457 0.435387 0.041994
v 0.357526 0.462016 0.095321
v 0.319333 0.443326 0.029194
v 0.359926 0.478119 0.098869
v 0.315055 0.455193 0.016271
v 0.362608 0.495950 0.097891
v 0.313619 0.470717 0.005024
v 0.364348 0.514197 0.092096
v 0.314519 0.489178 -0.002938
v 0.363943 0.531539 0.081893
v 0.316838 0.509488 -0.006439
v 0.360400 0.546825 0.068332
v 0.319400 0.530325 -0.004910
v 0.353115 0.559222 0.052958
v 0.320965 0.550308 0.001519
v 0.341978 0.568318 0.037585
v 0.320431 0.568173 0.012039
v 0.327414 0.574158 0.024024
v 0.365594 0.431968 0.060711
v 0.367465 0.433572 0.063923
v 0.356009 0.429757 0.058892
v 0.364119 0.436709 0.072813
v 0.345997 0.429438 0.052958
v 0.362854 0.443887 0.081893
v 0.336865 0.431990 0.043519
v 0.363612 0.454916 0.089429
v 0.329670 0.438141 0.031777
v 0.365851 0.469152 0.093878
v 0.325068 0.448242 0.019350
v 0.368630 0.485579 0.094120
v 0.323214 0.462186 0.008026
v 0.370766 0.502943 0.089646
v 0.323755 0.479404 -0.000505
v 0.371027 0.519921 0.080633
v 0.325891 0.498925 -0.004910
v 0.368332 0.535301 0.067936
v 0.328510 0.519492 -0.004415
v 0.361937 0.548142 0.052958
v 0.330371 0.539728 0.001075
v 0.351565 0.557894 0.037453
v 0.330306 0.558314 0.010958
v 0.337473 0.564457 0.023260
v 0.372449 0.434199 0.056868
v 0.373393 0.435008 0.058488
v 0.364418 0.430960 0.056972
v 0.369904 0.435662 0.066387
v 0.355416 0.429249 0.052958
v 0.368318 0.440307 0.075104
v 0.346772 0.430103 0.045206
v 0.368740 0.448932 0.082913
v 0.339631 0.434361 0.034723
v 0.370779 0.461058 0.088186
v 0.334782 0.442523 0.023004
v 0.373608 0.475801 0.089646
v 0.332542 0.454648 0.011797
v 0.376104 0.491985 0.086567
v 0.332715 0.470329 0.002843
v 0.377027 0.508309 0.078900
v 0.334632 0.488727 -0.002391
v 0.375225 0.523520 0.067284
v 0.337263 0.508672 -0.002938
v 0.369829 0.536584 0.052958
v 0.339387 0.528815 0.001519
v 0.360400 0.546825 0.037585
v 0.339792 0.547803 0.010596
v 0.347020 0.553999 0.023004
v 0.378195 0.437902 0.052958
v 0.371856 0.433691 0.054982
v 0.374622 0.436062 0.059731
v 0.364017 0.430616 0.052958
v 0.372743 0.438095 0.067936
v 0.356009 0.429757 0.047025
v 0.372823 0.444169 0.075885
v 0.349044 0.432050 0.037981
v 0.374627 0.453978 0.081893
v 0.344031 0.438133 0.027170
v 0.377458 0.466783 0.084543
v 0.341444 0.448232 0.016271
v 0.380270 0.481510 0.082913
v 0.341246 0.462108 0.007048
v 0.381839 0.496900 0.076723
v 0.342911 0.479068 0.001075
v 0.380962 0.511682 0.066387
v 0.345509 0.498050 -0.000505
v 0.376657 0.524747 0.052958
v 0.347860 0.517755 0.002843
v 0.368332 0.535301 0.037981
v 0.348727 0.536820 0.010958
v 0.355894 0.542963 0.023260
v 0.371654 0.433517 0.052958
v 0.376054 0.437289 0.060512
v 0.364418 0.430960 0.048945
v 0.375790 0.440707 0.068464
v 0.357748 0.431248 0.041495
v 0.377328 0.448031 0.075104
v 0.352658 0.435148 0.031777
v 0.380112 0.458679 0.078900
v 0.349767 0.443048 0.021374
v 0.383193 0.471698 0.078747
v 0.349201 0.454881 0.012039
v 0.385381 0.485891 0.074140
v 0.350586 0.470113 0.005429
v 0.385444 0.499991 0.065260
v 0.353107 0.487807 0.002843
v 0.382304 0.512832 0.052958
v 0.355645 0.506737 0.005024
v 0.375225 0.523520 0.038633
v 0.356960 0.525554 0.012039
v 0.363943 0.531539 0.024024
v 0.371856 0.433691 0.050935
v 0.377591 0.438606 0.060778
v 0.365594 0.431968 0.045206
v 0.378837 0.443319 0.067936
v 0.360514 0.433619 0.036747
v 0.381527 0.451629 0.072813
v 0.357368 0.439185 0.027017
v 0.384823 0.462716 0.074140
v 0.356445 0.448773 0.017730
v 0.387593 0.475470 0.071194
v 0.357526 0.462016 0.010596
v 0.388595 0.488645 0.063923
v 0.359926 0.478119 0.007048
v 0.386674 0.501045 0.052958
v 0.362608 0.495950 0.008026
v 0.380962 0.511682 0.039530
v 0.364348 0.514197 0.013821
v 0.371027 0.519921 0.025284
v 0.372449 0.434199 0.049049
v 0.379128 0.439923 0.060512
v 0.367465 0.433572 0.041994
v 0.381677 0.445753 0.066387
v 0.364119 0.436709 0.033103
v 0.385132 0.454719 0.069170
v 0.362854 0.443887 0.024024
v 0.388437 0.465814 0.067936
v 0.363612 0.454916 0.016488
v 0.390360 0.477841 0.062398
v 0.365851 0.469152 0.012039
v 0.389691 0.489585 0.052958
v 0.368630 0.485579 0.011797
v 0.385444 0.499991 0.040657
v 0.370766 0.502943 0.016271
v 0.377027 0.508309 0.027017
v 0.373393 0.435008 0.047429
v 0.380560 0.441151 0.059731
v 0.369904 0.435662 0.039530
v 0.384115 0.447842 0.063923
v 0.368318 0.440307 0.030813
v 0.387898 0.457090 0.064422
v 0.368740 0.448932 0.023004
v 0.390709 0.467762 0.060711
v 0.370779 0.461058 0.017730
v 0.391303 0.478650 0.052958
v 0.373608 0.475801 0.016271
v 0.388595 0.488645 0.041994
v 0.376104 0.491985 0.019350
v 0.381839 0.496900 0.029194
v 0.374622 0.436062 0.046186
v 0.381789 0.442205 0.058488
v 0.372743 0.438095 0.037981
v 0.385986 0.449446 0.060711
v 0.372823 0.444169 0.030032
v 0.389637 0.458580 0.058892
v 0.374627 0.453978 0.024024
v 0.391484 0.468426 0.052958
v 0.377458 0.466783 0.021374
v 0.390360 0.477841 0.043519
v 0.380270 0.481510 0.023004
v 0.385381 0.485891 0.031777
v 0.376054 0.437289 0.045405
v 0.382733 0.443013 0.056868
v 0.375790 0.440707 0.037453
v 0.387162 0.450454 0.056972
v 0.377328 0.448031 0.030813
v 0.390230 0.459089 0.052958
v 0.380112 0.458679 0.027017
v 0.390709 0.467762 0.045206
v 0.383193 0.471698 0.027170
v 0.387593 0.475470 0.034723
v 0.377591 0.438606 0.045139
v 0.383326 0.443522 0.054982
v 0.378837 0.443319 0.037981
v 0.387563 0.450798 0.052958
v 0.381527 0.451629 0.033103
v 0.389637 0.458580 0.047025
v 0.384823 0.462716 0.031777
v 0.388437 0.465814 0.037981
v 0.379128 0.439923 0.045405
v 0.383528 0.443695 0.052958
v 0.381677 0.445753 0.039530
v 0.387162 0.450454 0.048945
v 0.385132 0.454719 0.036747
v 0.387898 0.457090 0.041495
v 0.380560 0.441151 0.046186
v 0.383326 0.443522 0.050935
v 0.384115 0.447842 0.041994
v 0.385986 0.449446 0.045206
v 0.381789 0.442205 0.047429
v 0.382733 0.443013 0.049049
vn -0.9154 0.2673 0.3009
vn -0.9250 0.1166 0.3617
vn -0.8428 0.3295 0.4255
vn -0.8377 0.1914 0.5115
vn -0.9138 -0.0143 0.4059
vn -0.8158 0.0697 0.5741
vn -0.9611 0.2281 0.1558
vn -0.9799 0.0696 0.1872
vn -0.8738 0.4336 0.2201
vn -0.8207 0.4791 0.3113
vn -0.7482 0.4106 0.5211
vn -0.7240 0.2889 0.6264
vn -0.8902 -0.1264 0.4377
vn -0.7845 -0.0359 0.6190
vn -0.9754 -0.0671 0.2101
vn -0.6882 0.1791 0.7031
vn -0.9767 0.2148 -0.0000
vn -0.9986 0.0535 -0.0000
vn -0.9072 0.4050 0.1140
vn -0.7889 0.6028 0.1193
vn -0.7601 0.6275 0.1688
vn -0.7514 0.5385 0.3813
vn -0.6380 0.5050 0.5813
vn -0.5915 0.4024 0.6987
vn -0.8594 -0.2227 0.4604
vn -0.7483 -0.1274 0.6511
vn -0.9566 -0.1833 0.2266
vn -0.6469 0.0821 0.7582
vn -0.9964 -0.0851 -0.0000
vn -0.5395 0.3065 0.7842
vn -0.9611 0.2281 -0.1558
vn -0.9799 0.0696 -0.1872
vn -0.9186 0.3952 -0.0000
vn -0.8070 0.5873 0.0618
vn -0.6508 0.7593 -0.0000
vn -0.7226 0.6597 0.2067
vn -0.6708 0.6076 0.4253
vn -0.5198 0.6064 0.6018
vn -0.4493 0.5243 0.7233
vn -0.8242 -0.3063 0.4764
vn -0.7092 -0.2077 0.6737
vn -0.9292 -0.2825 0.2383
vn -0.6035 -0.0033 0.7974
vn -0.9792 -0.2027 -0.0000
vn -0.4866 0.2195 0.8456
vn -0.9754 -0.0671 -0.2101
vn -0.3799 0.4433 0.8119
vn -0.9250 0.1166 -0.3617
vn -0.9154 0.2673 -0.3009
vn -0.9072 0.4050 -0.1140
vn -0.8132 0.5820 -0.0000
vn -0.6789 0.6971 0.2305
vn -0.5843 0.6817 0.4403
vn -0.4015 0.7078 0.5813
vn -0.3072 0.6461 0.6987
vn -0.7861 -0.3800 0.4874
vn -0.6685 -0.2792 0.6893
vn -0.8965 -0.3682 0.2466
vn -0.5594 -0.0793 0.8251
vn -0.9530 -0.3029 -0.0000
vn -0.4349 0.1412 0.8894
vn -0.9566 -0.1833 -0.2266
vn -0.3145 0.3670 0.8754
vn -0.9138 -0.0143 -0.4059
vn -0.2204 0.5800 0.7842
vn -0.8377 0.1914 -0.5115
vn -0.8428 0.3295 -0.4255
vn -0.8738 0.4336 -0.2201
vn -0.8070 0.5873 -0.0618
vn -0.6320 0.7373 0.2387
vn -0.4978 0.7559 0.4253
vn -0.2913 0.8022 0.5212
vn -0.1747 0.7596 0.6264
vn -0.7458 -0.4463 0.4946
vn -0.6264 -0.3440 0.6995
vn -0.8601 -0.4434 0.2523
vn -0.5152 -0.1478 0.8442
vn -0.9211 -0.3893 -0.0000
vn -0.3849 0.0702 0.9203
vn -0.9292 -0.2825 -0.2383
vn -0.2539 0.2963 0.9207
vn -0.8902 -0.1264 -0.4377
vn -0.1425 0.5144 0.8456
vn -0.8158 0.0697 -0.5741
vn -0.0717 0.7075 0.7031
vn -0.7240 0.2889 -0.6264
vn -0.7482 0.4106 -0.5211
vn -0.8207 0.4791 -0.3113
vn -0.7889 0.6028 -0.1193
vn -0.5850 0.7776 0.2305
vn -0.4172 0.8250 0.3813
vn -0.1967 0.8833 0.4255
vn -0.0610 0.8571 0.5115
vn -0.7030 -0.5070 0.4987
vn -0.5827 -0.4039 0.7052
vn -0.8208 -0.5106 0.2560
vn -0.4708 -0.2107 0.8567
vn -0.8853 -0.4650 -0.0000
vn -0.3367 0.0052 0.9416
vn -0.8965 -0.3682 -0.2466
vn -0.1977 0.2307 0.9527
vn -0.8594 -0.2227 -0.4604
vn -0.0730 0.4513 0.8894
vn -0.7845 -0.0359 -0.6190
vn 0.0178 0.6518 0.7581
vn -0.6882 0.1791 -0.7031
vn 0.0560 0.8169 0.5741
vn -0.5915 0.4024 -0.6987
vn -0.6380 0.5050 -0.5813
vn -0.7514 0.5385 -0.3813
vn -0.7601 0.6275 -0.1688
vn -0.5413 0.8150 0.2067
vn -0.3479 0.8843 0.3113
vn -0.1241 0.9456 0.3009
vn 0.0263 0.9319 0.3617
vn -0.6575 -0.5636 0.5000
vn -0.5369 -0.4602 0.7071
vn -0.7787 -0.5719 0.2581
vn -0.4258 -0.2694 0.8637
vn -0.8464 -0.5326 -0.0000
vn -0.2897 -0.0554 0.9555
vn -0.8601 -0.4434 -0.2523
vn -0.1452 0.1694 0.9748
vn -0.8242 -0.3063 -0.4764
vn -0.0105 0.3912 0.9203
vn -0.7483 -0.1274 -0.6511
vn 0.0956 0.5959 0.7974
vn -0.6469 0.0821 -0.7582
vn 0.1555 0.7698 0.6190
vn -0.5395 0.3065 -0.7842
vn 0.1539 0.9008 0.4059
vn -0.5198 0.6064 -0.6018
vn -0.4493 0.5243 -0.7233
vn -0.6708 0.6076 -0.4253
vn -0.7226 0.6597 -0.2067
vn -0.5038 0.8472 0.1688
vn -0.2948 0.9299 0.2202
vn -0.0784 0.9847 0.1557
vn 0.0812 0.9790 0.1872
vn -0.4883 -0.5140 0.7052
vn -0.6086 -0.6172 0.4987
vn -0.7334 -0.6286 0.2588
vn -0.3796 -0.3254 0.8660
vn -0.8045 -0.5940 -0.0000
vn -0.2432 -0.1129 0.9634
vn -0.8208 -0.5106 -0.2560
vn -0.0953 0.1112 0.9892
vn -0.7861 -0.3800 -0.4874
vn 0.0464 0.3336 0.9416
vn -0.7092 -0.2077 -0.6737
vn 0.1640 0.5407 0.8251
vn -0.6035 -0.0033 -0.7974
vn 0.2404 0.7200 0.6511
vn -0.4866 0.2195 -0.8456
vn 0.2611 0.8604 0.4377
vn -0.3799 0.4433 -0.8119
vn 0.2155 0.9536 0.2101
vn -0.4015 0.7078 -0.5813
vn -0.3072 0.6461 -0.6987
vn -0.5843 0.6817 -0.4403
vn -0.6789 0.6971 -0.2305
vn -0.4750 0.8718 0.1193
vn -0.2614 0.9585 0.1139
vn -0.0628 0.9980 -0.0000
vn 0.0999 0.9950 -0.0000
vn -0.4358 -0.5664 0.6995
vn -0.5552 -0.6687 0.4946
vn -0.6843 -0.6820 0.2581
vn -0.3314 -0.3796 0.8637
vn -0.7593 -0.6508 -0.0000
vn -0.1965 -0.1684 0.9659
vn -0.7787 -0.5719 -0.2581
vn -0.0472 0.0551 0.9974
vn -0.7458 -0.4463 -0.4946
vn 0.0991 0.2778 0.9555
vn -0.6685 -0.2792 -0.6893
vn 0.2249 0.4866 0.8442
vn -0.5594 -0.0793 -0.8251
vn 0.3138 0.6691 0.6737
vn -0.4349 0.1412 -0.8894
vn 0.3515 0.8152 0.4604
vn -0.3145 0.3670 -0.8754
vn 0.3275 0.9173 0.2266
vn -0.2204 0.5800 -0.7842
vn 0.2365 0.9716 -0.0000
vn -0.2913 0.8022 -0.5212
vn -0.1747 0.7596 -0.6264
vn -0.4978 0.7559 -0.4253
vn -0.6320 0.7373 -0.2387
vn -0.4569 0.8874 0.0618
vn -0.2500 0.9682 -0.0000
vn -0.0784 0.9847 -0.1557
vn 0.0811 0.9790 -0.1872
vn -0.4958 -0.7187 0.4874
vn -0.3782 -0.6179 0.6893
vn -0.6302 -0.7330 0.2560
vn -0.2802 -0.4331 0.8567
vn -0.7101 -0.7041 -0.0000
vn -0.1488 -0.2231 0.9634
vn -0.7334 -0.6286 -0.2588
vn -0.0000 -0.0000 1.0000
vn -0.7030 -0.5070 -0.4987
vn 0.1488 0.2231 0.9634
vn -0.6264 -0.3440 -0.6995
vn 0.2802 0.4331 0.8567
vn -0.5152 -0.1478 -0.8442
vn 0.3782 0.6179 0.6893
vn -0.3850 0.0702 -0.9203
vn 0.4287 0.7676 0.4764
vn -0.2539 0.2963 -0.9207
vn 0.4213 0.8750 0.2383
vn -0.1425 0.5144 -0.8456
vn 0.3502 0.9367 -0.0000
vn -0.0717 0.7075 -0.7031
vn 0.2155 0.9536 -0.2101
vn -0.1967 0.8833 -0.4255
vn -0.0610 0.8571 -0.5115
vn -0.4172 0.8250 -0.3813
vn -0.5850 0.7775 -0.2305
vn -0.4508 0.8926 -0.0000
vn -0.2614 0.9585 -0.1139
vn -0.1241 0.9456 -0.3009
vn 0.0263 0.9319 -0.3617
vn -0.4287 -0.7676 0.4764
vn -0.3138 -0.6691 0.6737
vn -0.5698 -0.7821 0.2523
vn -0.2249 -0.4866 0.8442
vn -0.6558 -0.7549 -0.0000
vn -0.0991 -0.2778 0.9555
vn -0.6843 -0.6820 -0.2581
vn 0.0472 -0.0551 0.9974
vn -0.6575 -0.5636 -0.5000
vn 0.1965 0.1684 0.9659
vn -0.5827 -0.4039 -0.7052
vn 0.3314 0.3796 0.8637
vn -0.4708 -0.2107 -0.8567
vn 0.4358 0.5664 0.6995
vn -0.3367 0.0052 -0.9416
vn 0.4958 0.7187 0.4874
vn -0.1977 0.2307 -0.9527
vn 0.5010 0.8296 0.2466
vn -0.0730 0.4513 -0.8894
vn 0.4452 0.8955 -0.0000
vn 0.0178 0.6518 -0.7581
vn 0.3275 0.9173 -0.2266
vn 0.0560 0.8169 -0.5741
vn 0.1539 0.9008 -0.4059
vn -0.3479 0.8843 -0.3113
vn -0.5413 0.8150 -0.2067
vn -0.4569 0.8874 -0.0618
vn -0.2948 0.9299 -0.2202
vn -0.3515 -0.8152 0.4604
vn -0.2404 -0.7199 0.6511
vn -0.5010 -0.8296 0.2466
vn -0.1640 -0.5407 0.8251
vn -0.5950 -0.8037 -0.0000
vn -0.0464 -0.3336 0.9416
vn -0.6302 -0.7330 -0.2560
vn 0.0953 -0.1112 0.9892
vn -0.6086 -0.6172 -0.4987
vn 0.2432 0.1129 0.9634
vn -0.5369 -0.4602 -0.7071
vn 0.3796 0.3254 0.8660
vn -0.4258 -0.2695 -0.8637
vn 0.4883 0.5140 0.7052
vn -0.2897 -0.0554 -0.9555
vn 0.5552 0.6687 0.4946
vn -0.1452 0.1694 -0.9748
vn 0.5698 0.7821 0.2523
vn -0.0105 0.3912 -0.9203
vn 0.5256 0.8507 -0.0000
vn 0.0956 0.5959 -0.7974
vn 0.4213 0.8750 -0.2383
vn 0.1555 0.7698 -0.6190
vn 0.2611 0.8604 -0.4377
vn -0.5038 0.8472 -0.1688
vn -0.4750 0.8718 -0.1193
vn -0.2611 -0.8604 0.4377
vn -0.1555 -0.7698 0.6190
vn -0.4213 -0.8750 0.2383
vn -0.0956 -0.5959 0.7974
vn -0.5256 -0.8507 -0.0000
vn 0.0105 -0.3912 0.9203
vn -0.5698 -0.7821 -0.2523
vn 0.1452 -0.1694 0.9748
vn -0.5552 -0.6687 -0.4946
vn 0.2897 0.0554 0.9555
vn -0.4883 -0.5140 -0.7052
vn 0.4258 0.2695 0.8637
vn -0.3796 -0.3254 -0.8660
vn 0.5369 0.4602 0.7071
vn -0.2432 -0.1129 -0.9634
vn 0.6086 0.6172 0.4987
vn -0.0953 0.1112 -0.9892
vn 0.6302 0.7330 0.2560
vn 0.0464 0.3335 -0.9416
vn 0.5950 0.8037 -0.0000
vn 0.1640 0.5407 -0.8251
vn 0.5010 0.8296 -0.2466
vn 0.2404 0.7200 -0.6511
vn 0.3515 0.8152 -0.4604
vn -0.1539 -0.9008 0.4059
vn -0.0559 -0.8169 0.5741
vn -0.3275 -0.9173 0.2266
vn -0.0178 -0.6518 0.7581
vn -0.4452 -0.8954 -0.0000
vn 0.0730 -0.4513 0.8894
vn -0.5010 -0.8296 -0.2466
vn 0.1977 -0.2307 0.9527
vn -0.4958 -0.7187 -0.4874
vn 0.3367 -0.0052 0.9416
vn -0.4358 -0.5664 -0.6995
vn 0.4708 0.2107 0.8567
vn -0.3314 -0.3796 -0.8637
vn 0.5827 0.4039 0.7052
vn -0.1965 -0.1684 -0.9659
vn 0.6575 0.5636 0.5000
vn -0.0472 0.0551 -0.9974
vn 0.6843 0.6820 0.2581
vn 0.0991 0.2778 -0.9555
vn 0.6558 0.7549 -0.0000
vn 0.2249 0.4866 -0.8442
vn 0.5698 0.7821 -0.2523
vn 0.3138 0.6691 -0.6737
vn 0.4287 0.7676 -0.4764
vn -0.0263 -0.9319 0.3617
vn 0.0610 -0.8571 0.5115
vn -0.2155 -0.9536 0.2101
vn 0.0717 -0.7075 0.7031
vn -0.3502 -0.9367 -0.0000
vn 0.1425 -0.5144 0.8456
vn -0.4213 -0.8750 -0.2383
vn 0.2539 -0.2963 0.9207
vn -0.4287 -0.7676 -0.4764
vn 0.3850 -0.0702 0.9203
vn -0.3782 -0.6179 -0.6893
vn 0.5152 0.1478 0.8442
vn -0.2802 -0.4331 -0.8567
vn 0.6264 0.3440 0.6995
vn -0.1488 -0.2231 -0.9634
vn 0.7030 0.5070 0.4987
vn -0.0000 -0.0000 -1.0000
vn 0.7334 0.6286 0.2588
vn 0.1488 0.2231 -0.9634
vn 0.7101 0.7041 -0.0000
vn 0.2802 0.4331 -0.8567
vn 0.6302 0.7330 -0.2560
vn 0.3782 0.6179 -0.6893
vn 0.4958 0.7187 -0.4874
vn 0.1241 -0.9456 0.3009
vn 0.1967 -0.8833 0.4255
vn -0.0811 -0.9790 0.1872
vn 0.1748 -0.7596 0.6264
vn -0.2365 -0.9716 -0.0000
vn 0.2204 -0.5800 0.7842
vn -0.3275 -0.9173 -0.2266
vn 0.3145 -0.3670 0.8754
vn -0.3515 -0.8152 -0.4604
vn 0.4349 -0.1412 0.8894
vn -0.3138 -0.6691 -0.6737
vn 0.5594 0.0793 0.8251
vn -0.2249 -0.4865 -0.8442
vn 0.6685 0.2792 0.6893
vn -0.0991 -0.2778 -0.9555
vn 0.7458 0.4463 0.4946
vn 0.0472 -0.0551 -0.9974
vn 0.7787 0.5719 0.2581
vn 0.1965 0.1684 -0.9659
vn 0.7593 0.6508 -0.0000
vn 0.3314 0.3796 -0.8637
vn 0.6843 0.6820 -0.2581
vn 0.4358 0.5664 -0.6995
vn 0.5552 0.6687 -0.4946
vn 0.2948 -0.9299 0.2201
vn 0.3479 -0.8843 0.3113
vn 0.0784 -0.9847 0.1558
vn 0.2913 -0.8022 0.5212
vn -0.0999 -0.9950 -0.0000
vn 0.3072 -0.6461 0.6987
vn -0.2155 -0.9536 -0.2101
vn 0.3799 -0.4433 0.8119
vn -0.2611 -0.8604 -0.4377
vn 0.4866 -0.2195 0.8456
vn -0.2404 -0.7200 -0.6511
vn 0.6035 0.0033 0.7974
vn -0.1640 -0.5407 -0.8251
vn 0.7092 0.2077 0.6737
vn -0.0464 -0.3336 -0.9416
vn 0.7861 0.3800 0.4874
vn 0.0953 -0.1112 -0.9892
vn 0.8208 0.5106 0.2560
vn 0.2432 0.1129 -0.9634
vn 0.8045 0.5940 -0.0000
vn 0.3796 0.3254 -0.8660
vn 0.7334 0.6286 -0.2588
vn 0.4883 0.5140 -0.7052
vn 0.6086 0.6172 -0.4987
vn 0.4750 -0.8719 0.1193
vn 0.5038 -0.8472 0.1688
vn 0.2614 -0.9585 0.1140
vn 0.4172 -0.8250 0.3813
vn 0.0628 -0.9980 -0.0000
vn 0.4015 -0.7078 0.5813
vn -0.0811 -0.9790 -0.1872
vn 0.4494 -0.5243 0.7233
vn -0.1539 -0.9008 -0.4059
vn 0.5395 -0.3065 0.7842
vn -0.1555 -0.7698 -0.6190
vn 0.6469 -0.0821 0.7581
vn -0.0956 -0.5959 -0.7974
vn 0.7483 0.1274 0.6511
vn 0.0105 -0.3912 -0.9203
vn 0.8242 0.3062 0.4764
vn 0.1452 -0.1694 -0.9748
vn 0.8601 0.4434 0.2523
vn 0.2897 0.0554 -0.9555
vn 0.8464 0.5326 -0.0000
vn 0.4258 0.2695 -0.8637
vn 0.7787 0.5719 -0.2581
vn 0.5369 0.4602 -0.7071
vn 0.6575 0.5636 -0.5000
vn 0.6508 -0.7593 -0.0000
vn 0.4569 -0.8874 0.0618
vn 0.5414 -0.8150 0.2067
vn 0.2500 -0.9682 -0.0000
vn 0.4978 -0.7559 0.4253
vn 0.0784 -0.9847 -0.1558
vn 0.5198 -0.6064 0.6018
vn -0.0263 -0.9319 -0.3617
vn 0.5915 -0.4024 0.6987
vn -0.0560 -0.8169 -0.5741
vn 0.6882 -0.1791 0.7031
vn -0.0178 -0.6518 -0.7581
vn 0.7845 0.0359 0.6190
vn 0.0730 -0.4513 -0.8894
vn 0.8594 0.2227 0.4604
vn 0.1977 -0.2307 -0.9527
vn 0.8965 0.3682 0.2466
vn 0.3367 -0.0052 -0.9416
vn 0.8853 0.4650 -0.0000
vn 0.4708 0.2107 -0.8567
vn 0.8208 0.5106 -0.2560
vn 0.5827 0.4039 -0.7052
vn 0.7030 0.5070 -0.4987
vn 0.4507 -0.8927 -0.0000
vn 0.5851 -0.7775 0.2305
vn 0.2614 -0.9585 -0.1140
vn 0.5843 -0.6817 0.4403
vn 0.1241 -0.9456 -0.3009
vn 0.6380 -0.5050 0.5813
vn 0.0610 -0.8571 -0.5115
vn 0.7240 -0.2889 0.6264
vn 0.0717 -0.7075 -0.7031
vn 0.8158 -0.0697 0.5741
vn 0.1425 -0.5144 -0.8456
vn 0.8902 0.1264 0.4377
vn 0.2539 -0.2963 -0.9207
vn 0.9292 0.2825 0.2383
vn 0.3850 -0.0702 -0.9203
vn 0.9211 0.3893 -0.0000
vn 0.5152 0.1478 -0.8442
vn 0.8601 0.4434 -0.2523
vn 0.6264 0.3440 -0.6995
vn 0.7458 0.4463 -0.4946
vn 0.4569 -0.8874 -0.0618
vn 0.6320 -0.7373 0.2387
vn 0.2948 -0.9299 -0.2201
vn 0.6708 -0.6076 0.4253
vn 0.1967 -0.8833 -0.4255
vn 0.7482 -0.4106 0.5212
vn 0.1747 -0.7596 -0.6264
vn 0.8377 -0.1914 0.5115
vn 0.2204 -0.5800 -0.7842
vn 0.9138 0.0143 0.4059
vn 0.3145 -0.3670 -0.8754
vn 0.9566 0.1833 0.2266
vn 0.4349 -0.1412 -0.8894
vn 0.9530 0.3029 -0.0000
vn 0.5594 0.0793 -0.8251
vn 0.8965 0.3682 -0.2466
vn 0.6685 0.2792 -0.6893
vn 0.7861 0.3800 -0.4874
vn 0.4750 -0.8718 -0.1193
vn 0.6789 -0.6971 0.2305
vn 0.3479 -0.8843 -0.3113
vn 0.7515 -0.5385 0.3813
vn 0.2913 -0.8022 -0.5212
vn 0.8428 -0.3295 0.4255
vn 0.3072 -0.6461 -0.6987
vn 0.9250 -0.1166 0.3617
vn 0.3799 -0.4433 -0.8119
vn 0.9754 0.0671 0.2101
vn 0.4866 -0.2195 -0.8456
vn 0.9792 0.2027 -0.0000
vn 0.6035 0.0033 -0.7974
vn 0.9292 0.2825 -0.2383
vn 0.7092 0.2077 -0.6737
vn 0.8242 0.3062 -0.4764
vn 0.5038 -0.8472 -0.1688
vn 0.7226 -0.6597 0.2067
vn 0.4172 -0.8250 -0.3813
vn 0.8207 -0.4791 0.3113
vn 0.4015 -0.7078 -0.5813
vn 0.9155 -0.2673 0.3009
vn 0.4494 -0.5243 -0.7233
vn 0.9799 -0.0696 0.1872
vn 0.5395 -0.3065 -0.7842
vn 0.9964 0.0851 -0.0000
vn 0.6469 -0.0821 -0.7582
vn 0.9566 0.1833 -0.2266
vn 0.7483 0.1274 -0.6511
vn 0.8594 0.2227 -0.4604
vn 0.5414 -0.8150 -0.2067
vn 0.7601 -0.6275 0.1688
vn 0.4978 -0.7559 -0.4253
vn 0.8738 -0.4336 0.2201
vn 0.5198 -0.6064 -0.6018
vn 0.9611 -0.2281 0.1557
vn 0.5915 -0.4024 -0.6987
vn 0.9986 -0.0535 -0.0000
vn 0.6882 -0.1791 -0.7031
vn 0.9754 0.0671 -0.2101
vn 0.7845 0.0359 -0.6190
vn 0.8902 0.1264 -0.4377
vn 0.5851 -0.7775 -0.2305
vn 0.7889 -0.6028 0.1193
vn 0.5843 -0.6817 -0.4403
vn 0.9072 -0.4050 0.1140
vn 0.6380 -0.5050 -0.5813
vn 0.9767 -0.2148 -0.0000
vn 0.7240 -0.2889 -0.6264
vn 0.9799 -0.0696 -0.1872
vn 0.8158 -0.0697 -0.5741
vn 0.9138 0.0143 -0.4059
vn 0.6320 -0.7373 -0.2387
vn 0.8070 -0.5873 0.0618
vn 0.6708 -0.6076 -0.4253
vn 0.9186 -0.3952 -0.0000
vn 0.7482 -0.4106 -0.5212
vn 0.9611 -0.2281 -0.1557
vn 0.8377 -0.1914 -0.5115
vn 0.9250 -0.1166 -0.3617
vn 0.6789 -0.6971 -0.2305
vn 0.8132 -0.5820 -0.0000
vn 0.7515 -0.5385 -0.3813
vn 0.9072 -0.4050 -0.1140
vn 0.8428 -0.3295 -0.4255
vn 0.9155 -0.2673 -0.3009
vn 0.7226 -0.6597 -0.2067
vn 0.8070 -0.5873 -0.0618
vn 0.8207 -0.4791 -0.3113
vn 0.8738 -0.4336 -0.2201
vn 0.7601 -0.6275 -0.1688
vn 0.7889 -0.6028 -0.1193
vt 0.460000 0.126667
vt 0.540000 0.126667
vt 0.500000 0.206667
s 1
f 1/1/1 2/2/2 3/3/3
f 4/1/4 3/2/3 2/3/2
f 2/1/2 5/2/5 4/3/4
f 6/1/6 4/2/4 5/3/5
f 7/1/7 8/2/8 1/3/1
f 2/1/2 1/2/1 8/3/8
f 9/1/9 1/2/1 10/3/10
f 3/1/3 10/2/10 1/3/1
f 3/1/3 4/2/4 11/3/11
f 12/1/12 11/2/11 4/3/4
f 5/1/5 13/2/13 6/3/6
f 14/1/14 6/2/6 13/3/13
f 8/1/8 15/2/15 2/3/2
f 5/1/5 2/2/2 15/3/15
f 4/1/4 6/2/6 12/3/12
f 16/1/16 12/2/12 6/3/6
f 17/1/17 18/2/18 7/3/7
f 8/1/8 7/2/7 18/3/18
f 19/1/19 7/2/7 9/3/9
f 1/1/1 9/2/9 7/3/7
f 20/1/20 9/2/9 21/3/21
f 10/1/10 21/2/21 9/3/9
f 10/1/10 3/2/3 22/3/22
f 11/1/11 22/2/22 3/3/3
f 11/1/11 12/2/12 23/3/23
f 24/1/24 23/2/23 12/3/12
f 13/1/13 25/2/25 14/3/14
f 26/1/26 14/2/14 25/3/25
f 15/1/15 27/2/27 5/3/5
f 13/1/13 5/2/5 27/3/27
f 6/1/6 14/2/14 16/3/16
f 28/1/28 16/2/16 14/3/14
f 18/1/18 29/2/29 8/3/8
f 15/1/15 8/2/8 29/3/29
f 24/1/24 12/2/12 30/3/30
f 16/1/16 30/2/30 12/3/12
f 31/1/31 32/2/32 17/3/17
f 18/1/18 17/2/17 32/3/32
f 33/1/33 17/2/17 19/3/19
f 7/1/7 19/2/19 17/3/17
f 34/1/34 19/2/19 20/3/20
f 9/1/9 20/2/20 19/3/19
f 20/1/20 21/2/21 35/3/35
f 21/1/21 10/2/10 36/3/36
f 22/1/22 36/2/36 10/3/10
f 22/1/22 11/2/11 37/3/37
f 23/1/23 37/2/37 11/3/11
f 38/1/38 23/2/23 39/3/39
f 24/1/24 39/2/39 23/3/23
f 25/1/25 40/2/40 26/3/26
f 41/1/41 26/2/26 40/3/40
f 27/1/27 42/2/42 13/3/13
f 25/1/25 13/2/13 42/3/42
f 28/1/28 14/2/14 43/3/43
f 26/1/26 43/2/43 14/3/14
f 29/1/29 44/2/44 15/3/15
f 27/1/27 15/2/15 44/3/44
f 30/1/30 16/2/16 45/3/45
f 28/1/28 45/2/45 16/3/16
f 32/1/32 46/2/46 18/3/18
f 29/1/29 18/2/18 46/3/46
f 39/1/39 24/2/24 47/3/47
f 30/1/30 47/2/47 24/3/24
f 48/1/48 32/2/32 49/3/49
f 31/1/31 49/2/49 32/3/32
f 50/1/50 31/2/31 33/3/33
f 17/1/17 33/2/33 31/3/31
f 51/1/51 33/2/33 34/3/34
f 19/1/19 34/2/34 33/3/33
f 34/1/34 20/2/20 35/3/35
f 36/1/36 35/2/35 21/3/21
f 36/1/36 22/2/22 52/3/52
f 37/1/37 52/2/52 22/3/22
f 37/1/37 23/2/23 53/3/53
f 38/1/38 53/2/53 23/3/23
f 54/1/54 38/2/38 55/3/55
f 39/1/39 55/2/55 38/3/38
f 40/1/40 56/2/56 41/3/41
f 57/1/57 41/2/41 56/3/56
f 42/1/42 58/2/58 25/3/25
f 40/1/40 25/2/25 58/3/58
f 43/1/43 26/2/26 59/3/59
f 41/1/41 59/2/59 26/3/26
f 44/1/44 60/2/60 27/3/27
f 42/1/42 27/2/27 60/3/60
f 45/1/45 28/2/28 61/3/61
f 43/1/43 61/2/61 28/3/28
f 46/1/46 62/2/62 29/3/29
f 44/1/44 29/2/29 62/3/62
f 47/1/47 30/2/30 63/3/63
f 45/1/45 63/2/63 30/3/30
f 64/1/64 46/2/46 48/3/48
f 32/1/32 48/2/48 46/3/46
f 55/1/55 39/2/39 65/3/65
f 47/1/47 65/2/65 39/3/39
f 66/1/66 48/2/48 67/3/67
f 49/1/49 67/2/67 48/3/48
f 49/1/49 31/2/31 68/3/68
f 50/1/50 68/2/68 31/3/31
f 69/1/69 50/2/50 51/3/51
f 33/1/33 51/2/51 50/3/50
f 51/1/51 34/2/34 35/3/35
f 52/1/52 35/2/35 36/3/36
f 52/1/52 37/2/37 70/3/70
f 53/1/53 70/2/70 37/3/37
f 53/1/53 38/2/38 71/3/71
f 54/1/54 71/2/71 38/3/38
f 54/1/54 55/2/55 72/3/72
f 73/1/73 72/2/72 55/3/55
f 56/1/56 74/2/74 57/3/57
f 75/1/75 57/2/57 74/3/74
f 58/1/58 76/2/76 40/3/40
f 56/1/56 40/2/40 76/3/76
f 59/1/59 41/2/41 77/3/77
f 57/1/57 77/2/77 41/3/41
f 60/1/60 78/2/78 42/3/42
f 58/1/58 42/2/42 78/3/78
f 61/1/61 43/2/43 79/3/79
f 59/1/59 79/2/79 43/3/43
f 62/1/62 80/2/80 44/3/44
f 60/1/60 44/2/44 80/3/80
f 63/1/63 45/2/45 81/3/81
f 61/1/61 81/2/81 45/3/45
f 82/1/82 62/2/62 64/3/64
f 46/1/46 64/2/64 62/3/62
f 65/1/65 47/2/47 83/3/83
f 63/1/63 83/2/83 47/3/47
f 84/1/84 64/2/64 66/3/66
f 48/1/48 66/2/66 64/3/64
f 73/1/73 55/2/55 85/3/85
f 65/1/65 85/2/85 55/3/55
f 86/1/86 66/2/66 87/3/87
f 67/1/67 87/2/87 66/3/66
f 67/1/67 49/2/49 88/3/88
f 68/1/68 88/2/88 49/3/49
f 68/1/68 50/2/50 89/3/89
f 69/1/69 89/2/89 50/3/50
f 51/1/51 35/2/35 69/3/69
f 70/1/70 35/2/35 52/3/52
f 70/1/70 53/2/53 90/3/90
f 71/1/71 90/2/90 53/3/53
f 71/1/71 54/2/54 91/3/91
f 72/1/72 91/2/91 54/3/54
f 72/1/72 73/2/73 92/3/92
f 93/1/93 92/2/92 73/3/73
f 74/1/74 94/2/94 75/3/75
f 95/1/95 75/2/75 94/3/94
f 76/1/76 96/2/96 56/3/56
f 74/1/74 56/2/56 96/3/96
f 77/1/77 57/2/57 97/3/97
f 75/1/75 97/2/97 57/3/57
f 78/1/78 98/2/98 58/3/58
f 76/1/76 58/2/58 98/3/98
f 79/1/79 59/2/59 99/3/99
f 77/1/77 99/2/99 59/3/59
f 80/1/80 100/2/100 60/3/60
f 78/1/78 60/2/60 100/3/100
f 81/1/81 61/2/61 101/3/101
f 79/1/79 101/2/101 61/3/61
f 102/1/102 80/2/80 82/3/82
f 62/1/62 82/2/82 80/3/80
f 83/1/83 63/2/63 103/3/103
f 81/1/81 103/2/103 63/3/63
f 104/1/104 82/2/82 84/3/84
f 64/1/64 84/2/84 82/3/82
f 85/1/85 65/2/65 105/3/105
f 83/1/83 105/2/105 65/3/65
f 106/1/106 84/2/84 86/3/86
f 66/1/66 86/2/86 84/3/84
f 73/1/73 85/2/85 93/3/93
f 107/1/107 93/2/93 85/3/85
f 108/1/108 86/2/86 109/3/109
f 87/1/87 109/2/109 86/3/86
f 87/1/87 67/2/67 110/3/110
f 88/1/88 110/2/110 67/3/67
f 88/1/88 68/2/68 111/3/111
f 89/1/89 111/2/111 68/3/68
f 69/1/69 35/2/35 89/3/89
f 70/1/70 90/2/90 35/3/35
f 90/1/90 71/2/71 112/3/112
f 91/1/91 112/2/112 71/3/71
f 91/1/91 72/2/72 113/3/113
f 92/1/92 113/2/113 72/3/72
f 92/1/92 93/2/93 114/3/114
f 115/1/115 114/2/114 93/3/93
f 94/1/94 116/2/116 95/3/95
f 117/1/117 95/2/95 116/3/116
f 96/1/96 118/2/118 74/3/74
f 94/1/94 74/2/74 118/3/118
f 97/1/97 75/2/75 119/3/119
f 95/1/95 119/2/119 75/3/75
f 98/1/98 120/2/120 76/3/76
f 96/1/96 76/2/76 120/3/120
f 99/1/99 77/2/77 121/3/121
f 97/1/97 121/2/121 77/3/77
f 100/1/100 122/2/122 78/3/78
f 98/1/98 78/2/78 122/3/122
f 101/1/101 79/2/79 123/3/123
f 99/1/99 123/2/123 79/3/79
f 124/1/124 100/2/100 102/3/102
f 80/1/80 102/2/102 100/3/100
f 103/1/103 81/2/81 125/3/125
f 101/1/101 125/2/125 81/3/81
f 126/1/126 102/2/102 104/3/104
f 82/1/82 104/2/104 102/3/102
f 105/1/105 83/2/83 127/3/127
f 103/1/103 127/2/127 83/3/83
f 128/1/128 104/2/104 106/3/106
f 84/1/84 106/2/106 104/3/104
f 85/1/85 105/2/105 107/3/107
f 129/1/129 107/2/107 105/3/105
f 108/1/108 130/2/130 86/3/86
f 106/1/106 86/2/86 130/3/130
f 93/1/93 107/2/107 115/3/115
f 131/1/131 115/2/115 107/3/107
f 132/1/132 133/2/133 109/3/109
f 108/1/108 109/2/109 133/3/133
f 109/1/109 87/2/87 134/3/134
f 110/1/110 134/2/134 87/3/87
f 110/1/110 88/2/88 135/3/135
f 111/1/111 135/2/135 88/3/88
f 89/1/89 35/2/35 111/3/111
f 90/1/90 112/2/112 35/3/35
f 112/1/112 91/2/91 136/3/136
f 113/1/113 136/2/136 91/3/91
f 113/1/113 92/2/92 137/3/137
f 114/1/114 137/2/137 92/3/92
f 114/1/114 115/2/115 138/3/138
f 139/1/139 138/2/138 115/3/115
f 117/1/117 116/2/116 140/3/140
f 141/1/141 140/2/140 116/3/116
f 118/1/118 142/2/142 94/3/94
f 116/1/116 94/2/94 142/3/142
f 119/1/119 95/2/95 143/3/143
f 117/1/117 143/2/143 95/3/95
f 120/1/120 144/2/144 96/3/96
f 118/1/118 96/2/96 144/3/144
f 121/1/121 97/2/97 145/3/145
f 119/1/119 145/2/145 97/3/97
f 146/1/146 120/2/120 122/3/122
f 98/1/98 122/2/122 120/3/120
f 123/1/123 99/2/99 147/3/147
f 121/1/121 147/2/147 99/3/99
f 148/1/148 122/2/122 124/3/124
f 100/1/100 124/2/124 122/3/122
f 125/1/125 101/2/101 149/3/149
f 123/1/123 149/2/149 101/3/101
f 150/1/150 124/2/124 126/3/126
f 102/1/102 126/2/126 124/3/124
f 127/1/127 103/2/103 151/3/151
f 125/1/125 151/2/151 103/3/103
f 128/1/128 152/2/152 104/3/104
f 126/1/126 104/2/104 152/3/152
f 129/1/129 105/2/105 153/3/153
f 127/1/127 153/2/153 105/3/105
f 130/1/130 154/2/154 106/3/106
f 128/1/128 106/2/106 154/3/154
f 107/1/107 129/2/129 131/3/131
f 155/1/155 131/2/131 129/3/129
f 133/1/133 156/2/156 108/3/108
f 130/1/130 108/2/108 156/3/156
f 115/1/115 131/2/131 139/3/139
f 157/1/157 139/2/139 131/3/131
f 158/1/158 159/2/159 132/3/132
f 133/1/133 132/2/132 159/3/159
f 132/1/132 109/2/109 160/3/160
f 134/1/134 160/2/160 109/3/109
f 134/1/134 110/2/110 161/3/161
f 135/1/135 161/2/161 110/3/110
f 35/1/35 135/2/135 111/3/111
f 112/1/112 136/2/136 35/3/35
f 136/1/136 113/2/113 162/3/162
f 137/1/137 162/2/162 113/3/113
f 137/1/137 114/2/114 163/3/163
f 138/1/138 163/2/163 114/3/114
f 138/1/138 139/2/139 164/3/164
f 165/1/165 164/2/164 139/3/139
f 140/1/140 141/2/141 166/3/166
f 167/1/167 166/2/166 141/3/141
f 168/1/168 141/2/141 142/3/142
f 116/1/116 142/2/142 141/3/141
f 143/1/143 117/2/117 169/3/169
f 140/1/140 169/2/169 117/3/117
f 144/1/144 170/2/170 118/3/118
f 142/1/142 118/2/118 170/3/170
f 145/1/145 119/2/119 171/3/171
f 143/1/143 171/2/171 119/3/119
f 146/1/146 172/2/172 120/3/120
f 144/1/144 120/2/120 172/3/172
f 147/1/147 121/2/121 173/3/173
f 145/1/145 173/2/173 121/3/121
f 174/1/174 146/2/146 148/3/148
f 122/1/122 148/2/148 146/3/146
f 149/1/149 123/2/123 175/3/175
f 147/1/147 175/2/175 123/3/123
f 176/1/176 148/2/148 150/3/150
f 124/1/124 150/2/150 148/3/148
f 151/1/151 125/2/125 177/3/177
f 149/1/149 177/2/177 125/3/125
f 152/1/152 178/2/178 126/3/126
f 150/1/150 126/2/126 178/3/178
f 153/1/153 127/2/127 179/3/179
f 151/1/151 179/2/179 127/3/127
f 154/1/154 180/2/180 128/3/128
f 152/1/152 128/2/128 180/3/180
f 129/1/129 153/2/153 155/3/155
f 181/1/181 155/2/155 153/3/153
f 156/1/156 182/2/182 130/3/130
f 154/1/154 130/2/130 182/3/182
f 131/1/131 155/2/155 157/3/157
f 183/1/183 157/2/157 155/3/155
f 159/1/159 184/2/184 133/3/133
f 156/1/156 133/2/133 184/3/184
f 139/1/139 157/2/157 165/3/165
f 185/1/185 165/2/165 157/3/157
f 158/1/158 186/2/186 159/3/159
f 187/1/187 159/2/159 186/3/186
f 160/1/160 188/2/188 132/3/132
f 158/1/158 132/2/132 188/3/188
f 161/1/161 189/2/189 134/3/134
f 160/1/160 134/2/134 189/3/189
f 35/1/35 161/2/161 135/3/135
f 136/1/136 162/2/162 35/3/35
f 162/1/162 137/2/137 190/3/190
f 163/1/163 190/2/190 137/3/137
f 163/1/163 138/2/138 191/3/191
f 164/1/164 191/2/191 138/3/138
f 192/1/192 164/2/164 193/3/193
f 165/1/165 193/2/193 164/3/164
f 167/1/167 194/2/194 166/3/166
f 195/1/195 166/2/166 194/3/194
f 168/1/168 196/2/196 141/3/141
f 167/1/167 141/2/141 196/3/196
f 169/1/169 140/2/140 197/3/197
f 166/1/166 197/2/197 140/3/140
f 198/1/198 168/2/168 170/3/170
f 142/1/142 170/2/170 168/3/168
f 171/1/171 143/2/143 199/3/199
f 169/1/169 199/2/199 143/3/143
f 172/1/172 200/2/200 144/3/144
f 170/1/170 144/2/144 200/3/200
f 173/1/173 145/2/145 201/3/201
f 171/1/171 201/2/201 145/3/145
f 202/1/202 172/2/172 174/3/174
f 146/1/146 174/2/174 172/3/172
f 175/1/175 147/2/147 203/3/203
f 173/1/173 203/2/203 147/3/147
f 204/1/204 174/2/174 176/3/176
f 148/1/148 176/2/176 174/3/174
f 177/1/177 149/2/149 205/3/205
f 175/1/175 205/2/205 149/3/149
f 178/1/178 206/2/206 150/3/150
f 176/1/176 150/2/150 206/3/206
f 179/1/179 151/2/151 207/3/207
f 177/1/177 207/2/207 151/3/151
f 180/1/180 208/2/208 152/3/152
f 178/1/178 152/2/152 208/3/208
f 153/1/153 179/2/179 181/3/181
f 209/1/209 181/2/181 179/3/179
f 182/1/182 210/2/210 154/3/154
f 180/1/180 154/2/154 210/3/210
f 155/1/155 181/2/181 183/3/183
f 211/1/211 183/2/183 181/3/181
f 184/1/184 212/2/212 156/3/156
f 182/1/182 156/2/156 212/3/212
f 157/1/157 183/2/183 185/3/185
f 213/1/213 185/2/185 183/3/183
f 187/1/187 214/2/214 159/3/159
f 184/1/184 159/2/159 214/3/214
f 193/1/193 165/2/165 215/3/215
f 185/1/185 215/2/215 165/3/165
f 186/1/186 216/2/216 187/3/187
f 217/1/217 187/2/187 216/3/216
f 188/1/188 218/2/218 158/3/158
f 186/1/186 158/2/158 218/3/218
f 189/1/189 219/2/219 160/3/160
f 188/1/188 160/2/160 219/3/219
f 35/1/35 189/2/189 161/3/161
f 162/1/162 190/2/190 35/3/35
f 190/1/190 163/2/163 220/3/220
f 191/1/191 220/2/220 163/3/163
f 221/1/221 191/2/191 192/3/192
f 164/1/164 192/2/192 191/3/191
f 222/1/222 192/2/192 223/3/223
f 193/1/193 223/2/223 192/3/192
f 194/1/194 224/2/224 195/3/195
f 225/1/225 195/2/195 224/3/224
f 196/1/196 226/2/226 167/3/167
f 194/1/194 167/2/167 226/3/226
f 197/1/197 166/2/166 227/3/227
f 195/1/195 227/2/227 166/3/166
f 198/1/198 228/2/228 168/3/168
f 196/1/196 168/2/168 228/3/228
f 199/1/199 169/2/169 229/3/229
f 197/1/197 229/2/229 169/3/169
f 200/1/200 230/2/230 170/3/170
f 198/1/198 170/2/170 230/3/230
f 201/1/201 171/2/171 231/3/231
f 199/1/199 231/2/231 171/3/171
f 232/1/232 200/2/200 202/3/202
f 172/1/172 202/2/202 200/3/200
f 203/1/203 173/2/173 233/3/233
f 201/1/201 233/2/233 173/3/173
f 234/1/234 202/2/202 204/3/204
f 174/1/174 204/2/204 202/3/202
f 205/1/205 175/2/175 235/3/235
f 203/1/203 235/2/235 175/3/175
f 206/1/206 236/2/236 176/3/176
f 204/1/204 176/2/176 236/3/236
f 207/1/207 177/2/177 237/3/237
f 205/1/205 237/2/237 177/3/177
f 208/1/208 238/2/238 178/3/178
f 206/1/206 178/2/178 238/3/238
f 179/1/179 207/2/207 209/3/209
f 239/1/239 209/2/209 207/3/207
f 210/1/210 240/2/240 180/3/180
f 208/1/208 180/2/180 240/3/240
f 181/1/181 209/2/209 211/3/211
f 241/1/241 211/2/211 209/3/209
f 212/1/212 242/2/242 182/3/182
f 210/1/210 182/2/182 242/3/242
f 183/1/183 211/2/211 213/3/213
f 243/1/243 213/2/213 211/3/211
f 214/1/214 244/2/244 184/3/184
f 212/1/212 184/2/184 244/3/244
f 215/1/215 185/2/185 245/3/245
f 213/1/213 245/2/245 185/3/185
f 187/1/187 217/2/217 214/3/214
f 246/1/246 214/2/214 217/3/217
f 223/1/223 193/2/193 247/3/247
f 215/1/215 247/2/247 193/3/193
f 216/1/216 222/2/222 217/3/217
f 223/1/223 217/2/217 222/3/222
f 218/1/218 248/2/248 186/3/186
f 216/1/216 186/2/186 248/3/248
f 219/1/219 249/2/249 188/3/188
f 218/1/218 188/2/188 249/3/249
f 219/1/219 189/2/189 35/3/35
f 190/1/190 220/2/220 35/3/35
f 250/1/250 220/2/220 221/3/221
f 191/1/191 221/2/221 220/3/220
f 251/1/251 221/2/221 222/3/222
f 192/1/192 222/2/222 221/3/221
f 224/1/224 252/2/252 225/3/225
f 253/1/253 225/2/225 252/3/252
f 226/1/226 254/2/254 194/3/194
f 224/1/224 194/2/194 254/3/254
f 227/1/227 195/2/195 255/3/255
f 225/1/225 255/2/255 195/3/195
f 228/1/228 256/2/256 196/3/196
f 226/1/226 196/2/196 256/3/256
f 229/1/229 197/2/197 257/3/257
f 227/1/227 257/2/257 197/3/197
f 198/1/198 230/2/230 228/3/228
f 258/1/258 228/2/228 230/3/230
f 231/1/231 199/2/199 259/3/259
f 229/1/229 259/2/259 199/3/199
f 232/1/232 260/2/260 200/3/200
f 230/1/230 200/2/200 260/3/260
f 233/1/233 201/2/201 261/3/261
f 231/1/231 261/2/261 201/3/201
f 262/1/262 232/2/232 234/3/234
f 202/1/202 234/2/234 232/3/232
f 235/1/235 203/2/203 263/3/263
f 233/1/233 263/2/263 203/3/203
f 236/1/236 264/2/264 204/3/204
f 234/1/234 204/2/204 264/3/264
f 237/1/237 205/2/205 265/3/265
f 235/1/235 265/2/265 205/3/205
f 238/1/238 266/2/266 206/3/206
f 236/1/236 206/2/206 266/3/266
f 207/1/207 237/2/237 239/3/239
f 267/1/267 239/2/239 237/3/237
f 240/1/240 268/2/268 208/3/208
f 238/1/238 208/2/208 268/3/268
f 209/1/209 239/2/239 241/3/241
f 269/1/269 241/2/241 239/3/239
f 242/1/242 270/2/270 210/3/210
f 240/1/240 210/2/210 270/3/270
f 211/1/211 241/2/241 243/3/243
f 271/1/271 243/2/243 241/3/241
f 244/1/244 272/2/272 212/3/212
f 242/1/242 212/2/212 272/3/272
f 245/1/245 213/2/213 273/3/273
f 243/1/243 273/2/273 213/3/213
f 214/1/214 246/2/246 244/3/244
f 274/1/274 244/2/244 246/3/246
f 247/1/247 215/2/215 275/3/275
f 245/1/245 275/2/275 215/3/215
f 217/1/217 223/2/223 246/3/246
f 247/1/247 246/2/246 223/3/223
f 248/1/248 251/2/251 216/3/216
f 222/1/222 216/2/216 251/3/251
f 249/1/249 276/2/276 218/3/218
f 248/1/248 218/2/218 276/3/276
f 249/1/249 219/2/219 35/3/35
f 220/1/220 250/2/250 35/3/35
f 277/1/277 250/2/250 251/3/251
f 221/1/221 251/2/251 250/3/250
f 252/1/252 278/2/278 253/3/253
f 279/1/279 253/2/253 278/3/278
f 254/1/254 280/2/280 224/3/224
f 252/1/252 224/2/224 280/3/280
f 255/1/255 225/2/225 281/3/281
f 253/1/253 281/2/281 225/3/225
f 256/1/256 282/2/282 226/3/226
f 254/1/254 226/2/226 282/3/282
f 257/1/257 227/2/227 283/3/283
f 255/1/255 283/2/283 227/3/227
f 228/1/228 258/2/258 256/3/256
f 284/1/284 256/2/256 258/3/258
f 259/1/259 229/2/229 285/3/285
f 257/1/257 285/2/285 229/3/229
f 230/1/230 260/2/260 258/3/258
f 286/1/286 258/2/258 260/3/260
f 261/1/261 231/2/231 287/3/287
f 259/1/259 287/2/287 231/3/231
f 262/1/262 288/2/288 232/3/232
f 260/1/260 232/2/232 288/3/288
f 263/1/263 233/2/233 289/3/289
f 261/1/261 289/2/289 233/3/233
f 264/1/264 290/2/290 234/3/234
f 262/1/262 234/2/234 290/3/290
f 265/1/265 235/2/235 291/3/291
f 263/1/263 291/2/291 235/3/235
f 266/1/266 292/2/292 236/3/236
f 264/1/264 236/2/236 292/3/292
f 267/1/267 237/2/237 293/3/293
f 265/1/265 293/2/293 237/3/237
f 268/1/268 294/2/294 238/3/238
f 266/1/266 238/2/238 294/3/294
f 239/1/239 267/2/267 269/3/269
f 295/1/295 269/2/269 267/3/267
f 270/1/270 296/2/296 240/3/240
f 268/1/268 240/2/240 296/3/296
f 241/1/241 269/2/269 271/3/271
f 297/1/297 271/2/271 269/3/269
f 272/1/272 298/2/298 242/3/242
f 270/1/270 242/2/242 298/3/298
f 273/1/273 243/2/243 299/3/299
f 271/1/271 299/2/299 243/3/243
f 274/1/274 300/2/300 244/3/244
f 272/1/272 244/2/244 300/3/300
f 275/1/275 245/2/245 301/3/301
f 273/1/273 301/2/301 245/3/245
f 246/1/246 247/2/247 274/3/274
f 275/1/275 274/2/274 247/3/247
f 276/1/276 277/2/277 248/3/248
f 251/1/251 248/2/248 277/3/277
f 276/1/276 249/2/249 35/3/35
f 250/1/250 277/2/277 35/3/35
f 278/1/278 302/2/302 279/3/279
f 303/1/303 279/2/279 302/3/302
f 280/1/280 304/2/304 252/3/252
f 278/1/278 252/2/252 304/3/304
f 281/1/281 253/2/253 305/3/305
f 279/1/279 305/2/305 253/3/253
f 282/1/282 306/2/306 254/3/254
f 280/1/280 254/2/254 306/3/306
f 283/1/283 255/2/255 307/3/307
f 281/1/281 307/2/307 255/3/255
f 256/1/256 284/2/284 282/3/282
f 308/1/308 282/2/282 284/3/284
f 285/1/285 257/2/257 309/3/309
f 283/1/283 309/2/309 257/3/257
f 258/1/258 286/2/286 284/3/284
f 310/1/310 284/2/284 286/3/286
f 287/1/287 259/2/259 311/3/311
f 285/1/285 311/2/311 259/3/259
f 288/1/288 312/2/312 260/3/260
f 286/1/286 260/2/260 312/3/312
f 289/1/289 261/2/261 313/3/313
f 287/1/287 313/2/313 261/3/261
f 290/1/290 314/2/314 262/3/262
f 288/1/288 262/2/262 314/3/314
f 291/1/291 263/2/263 315/3/315
f 289/1/289 315/2/315 263/3/263
f 292/1/292 316/2/316 264/3/264
f 290/1/290 264/2/264 316/3/316
f 293/1/293 265/2/265 317/3/317
f 291/1/291 317/2/317 265/3/265
f 294/1/294 318/2/318 266/3/266
f 292/1/292 266/2/266 318/3/318
f 267/1/267 293/2/293 295/3/295
f 319/1/319 295/2/295 293/3/293
f 296/1/296 320/2/320 268/3/268
f 294/1/294 268/2/268 320/3/320
f 269/1/269 295/2/295 297/3/297
f 321/1/321 297/2/297 295/3/295
f 298/1/298 322/2/322 270/3/270
f 296/1/296 270/2/270 322/3/322
f 299/1/299 271/2/271 323/3/323
f 297/1/297 323/2/323 271/3/271
f 300/1/300 324/2/324 272/3/272
f 298/1/298 272/2/272 324/3/324
f 301/1/301 273/2/273 325/3/325
f 299/1/299 325/2/325 273/3/273
f 274/1/274 275/2/275 300/3/300
f 301/1/301 300/2/300 275/3/275
f 277/1/277 276/2/276 35/3/35
f 302/1/302 326/2/326 303/3/303
f 327/1/327 303/2/303 326/3/326
f 304/1/304 328/2/328 278/3/278
f 302/1/302 278/2/278 328/3/328
f 279/1/279 303/2/303 305/3/305
f 329/1/329 305/2/305 303/3/303
f 306/1/306 330/2/330 280/3/280
f 304/1/304 280/2/280 330/3/330
f 307/1/307 281/2/281 331/3/331
f 305/1/305 331/2/331 281/3/281
f 282/1/282 308/2/308 306/3/306
f 332/1/332 306/2/306 308/3/308
f 309/1/309 283/2/283 333/3/333
f 307/1/307 333/2/333 283/3/283
f 284/1/284 310/2/310 308/3/308
f 334/1/334 308/2/308 310/3/310
f 311/1/311 285/2/285 335/3/335
f 309/1/309 335/2/335 285/3/285
f 286/1/286 312/2/312 310/3/310
f 336/1/336 310/2/310 312/3/312
f 313/1/313 287/2/287 337/3/337
f 311/1/311 337/2/337 287/3/287
f 314/1/314 338/2/338 288/3/288
f 312/1/312 288/2/288 338/3/338
f 315/1/315 289/2/289 339/3/339
f 313/1/313 339/2/339 289/3/289
f 316/1/316 340/2/340 290/3/290
f 314/1/314 290/2/290 340/3/340
f 341/1/341 317/2/317 315/3/315
f 291/1/291 315/2/315 317/3/317
f 318/1/318 342/2/342 292/3/292
f 316/1/316 292/2/292 342/3/342
f 319/1/319 293/2/293 343/3/343
f 317/1/317 343/2/343 293/3/293
f 320/1/320 344/2/344 294/3/294
f 318/1/318 294/2/294 344/3/344
f 295/1/295 319/2/319 321/3/321
f 345/1/345 321/2/321 319/3/319
f 322/1/322 346/2/346 296/3/296
f 320/1/320 296/2/296 346/3/346
f 323/1/323 297/2/297 347/3/347
f 321/1/321 347/2/347 297/3/297
f 324/1/324 348/2/348 298/3/298
f 322/1/322 298/2/298 348/3/348
f 325/1/325 299/2/299 349/3/349
f 323/1/323 349/2/349 299/3/299
f 300/1/300 301/2/301 324/3/324
f 325/1/325 324/2/324 301/3/301
f 326/1/326 350/2/350 327/3/327
f 351/1/351 327/2/327 350/3/350
f 328/1/328 352/2/352 302/3/302
f 326/1/326 302/2/302 352/3/352
f 303/1/303 327/2/327 329/3/329
f 353/1/353 329/2/329 327/3/327
f 330/1/330 354/2/354 304/3/304
f 328/1/328 304/2/304 354/3/354
f 331/1/331 305/2/305 355/3/355
f 329/1/329 355/2/355 305/3/305
f 306/1/306 332/2/332 330/3/330
f 356/1/356 330/2/330 332/3/332
f 333/1/333 307/2/307 357/3/357
f 331/1/331 357/2/357 307/3/307
f 308/1/308 334/2/334 332/3/332
f 358/1/358 332/2/332 334/3/334
f 335/1/335 309/2/309 359/3/359
f 333/1/333 359/2/359 309/3/309
f 310/1/310 336/2/336 334/3/334
f 360/1/360 334/2/334 336/3/336
f 337/1/337 311/2/311 361/3/361
f 335/1/335 361/2/361 311/3/311
f 338/1/338 362/2/362 312/3/312
f 336/1/336 312/2/312 362/3/362
f 339/1/339 313/2/313 363/3/363
f 337/1/337 363/2/363 313/3/313
f 340/1/340 364/2/364 314/3/314
f 338/1/338 314/2/314 364/3/364
f 365/1/365 341/2/341 339/3/339
f 315/1/315 339/2/339 341/3/341
f 342/1/342 366/2/366 316/3/316
f 340/1/340 316/2/316 366/3/366
f 367/1/367 343/2/343 341/3/341
f 317/1/317 341/2/341 343/3/343
f 344/1/344 368/2/368 318/3/318
f 342/1/342 318/2/318 368/3/368
f 345/1/345 319/2/319 369/3/369
f 343/1/343 369/2/369 319/3/319
f 346/1/346 370/2/370 320/3/320
f 344/1/344 320/2/320 370/3/370
f 347/1/347 321/2/321 371/3/371
f 345/1/345 371/2/371 321/3/321
f 348/1/348 372/2/372 322/3/322
f 346/1/346 322/2/322 372/3/372
f 349/1/349 323/2/323 373/3/373
f 347/1/347 373/2/373 323/3/323
f 324/1/324 325/2/325 348/3/348
f 349/1/349 348/2/348 325/3/325
f 350/1/350 374/2/374 351/3/351
f 375/1/375 351/2/351 374/3/374
f 352/1/352 376/2/376 326/3/326
f 350/1/350 326/2/326 376/3/376
f 327/1/327 351/2/351 353/3/353
f 377/1/377 353/2/353 351/3/351
f 354/1/354 378/2/378 328/3/328
f 352/1/352 328/2/328 378/3/378
f 355/1/355 329/2/329 379/3/379
f 353/1/353 379/2/379 329/3/329
f 330/1/330 356/2/356 354/3/354
f 380/1/380 354/2/354 356/3/356
f 357/1/357 331/2/331 381/3/381
f 355/1/355 381/2/381 331/3/331
f 332/1/332 358/2/358 356/3/356
f 382/1/382 356/2/356 358/3/358
f 359/1/359 333/2/333 383/3/383
f 357/1/357 383/2/383 333/3/333
f 334/1/334 360/2/360 358/3/358
f 384/1/384 358/2/358 360/3/360
f 361/1/361 335/2/335 385/3/385
f 359/1/359 385/2/385 335/3/335
f 362/1/362 386/2/386 336/3/336
f 360/1/360 336/2/336 386/3/386
f 363/1/363 337/2/337 387/3/387
f 361/1/361 387/2/387 337/3/337
f 364/1/364 388/2/388 338/3/338
f 362/1/362 338/2/338 388/3/388
f 389/1/389 365/2/365 363/3/363
f 339/1/339 363/2/363 365/3/365
f 366/1/366 390/2/390 340/3/340
f 364/1/364 340/2/340 390/3/390
f 391/1/391 367/2/367 365/3/365
f 341/1/341 365/2/365 367/3/367
f 368/1/368 392/2/392 342/3/342
f 366/1/366 342/2/342 392/3/392
f 393/1/393 369/2/369 367/3/367
f 343/1/343 367/2/367 369/3/369
f 370/1/370 394/2/394 344/3/344
f 368/1/368 344/2/344 394/3/394
f 395/1/395 371/2/371 369/3/369
f 345/1/345 369/2/369 371/3/371
f 372/1/372 396/2/396 346/3/346
f 370/1/370 346/2/346 396/3/396
f 373/1/373 347/2/347 397/3/397
f 371/1/371 397/2/397 347/3/347
f 348/1/348 349/2/349 372/3/372
f 373/1/373 372/2/372 349/3/349
f 374/1/374 398/2/398 375/3/375
f 399/1/399 375/2/375 398/3/398
f 376/1/376 400/2/400 350/3/350
f 374/1/374 350/2/350 400/3/400
f 351/1/351 375/2/375 377/3/377
f 401/1/401 377/2/377 375/3/375
f 378/1/378 402/2/402 352/3/352
f 376/1/376 352/2/352 402/3/402
f 353/1/353 377/2/377 379/3/379
f 403/1/403 379/2/379 377/3/377
f 354/1/354 380/2/380 378/3/378
f 404/1/404 378/2/378 380/3/380
f 381/1/381 355/2/355 405/3/405
f 379/1/379 405/2/405 355/3/355
f 356/1/356 382/2/382 380/3/380
f 406/1/406 380/2/380 382/3/382
f 383/1/383 357/2/357 407/3/407
f 381/1/381 407/2/407 357/3/357
f 358/1/358 384/2/384 382/3/382
f 408/1/408 382/2/382 384/3/384
f 385/1/385 359/2/359 409/3/409
f 383/1/383 409/2/409 359/3/359
f 386/1/386 410/2/410 360/3/360
f 384/1/384 360/2/360 410/3/410
f 387/1/387 361/2/361 411/3/411
f 385/1/385 411/2/411 361/3/361
f 388/1/388 412/2/412 362/3/362
f 386/1/386 362/2/362 412/3/412
f 413/1/413 389/2/389 387/3/387
f 363/1/363 387/2/387 389/3/389
f 390/1/390 414/2/414 364/3/364
f 388/1/388 364/2/364 414/3/414
f 415/1/415 391/2/391 389/3/389
f 365/1/365 389/2/389 391/3/391
f 392/1/392 416/2/416 366/3/366
f 390/1/390 366/2/366 416/3/416
f 417/1/417 393/2/393 391/3/391
f 367/1/367 391/2/391 393/3/393
f 394/1/394 418/2/418 368/3/368
f 392/1/392 368/2/368 418/3/418
f 419/1/419 395/2/395 393/3/393
f 369/1/369 393/2/393 395/3/395
f 396/1/396 420/2/420 370/3/370
f 394/1/394 370/2/370 420/3/420
f 421/1/421 397/2/397 395/3/395
f 371/1/371 395/2/395 397/3/397
f 373/1/373 397/2/397 372/3/372
f 396/1/396 372/2/372 397/3/397
f 422/1/422 399/2/399 398/3/398
f 400/1/400 423/2/423 374/3/374
f 398/1/398 374/2/374 423/3/423
f 375/1/375 399/2/399 401/3/401
f 424/1/424 401/2/401 399/3/399
f 402/1/402 425/2/425 376/3/376
f 400/1/400 376/2/376 425/3/425
f 377/1/377 401/2/401 403/3/403
f 426/1/426 403/2/403 401/3/401
f 378/1/378 404/2/404 402/3/402
f 427/1/427 402/2/402 404/3/404
f 405/1/405 379/2/379 428/3/428
f 403/1/403 428/2/428 379/3/379
f 380/1/380 406/2/406 404/3/404
f 429/1/429 404/2/404 406/3/406
f 407/1/407 381/2/381 430/3/430
f 405/1/405 430/2/430 381/3/381
f 382/1/382 408/2/408 406/3/406
f 431/1/431 406/2/406 408/3/408
f 409/1/409 383/2/383 432/3/432
f 407/1/407 432/2/432 383/3/383
f 410/1/410 433/2/433 384/3/384
f 408/1/408 384/2/384 433/3/433
f 411/1/411 385/2/385 434/3/434
f 409/1/409 434/2/434 385/3/385
f 412/1/412 435/2/435 386/3/386
f 410/1/410 386/2/386 435/3/435
f 436/1/436 413/2/413 411/3/411
f 387/1/387 411/2/411 413/3/413
f 414/1/414 437/2/437 388/3/388
f 412/1/412 388/2/388 437/3/437
f 438/1/438 415/2/415 413/3/413
f 389/1/389 413/2/413 415/3/415
f 416/1/416 439/2/439 390/3/390
f 414/1/414 390/2/390 439/3/439
f 440/1/440 417/2/417 415/3/415
f 391/1/391 415/2/415 417/3/417
f 418/1/418 441/2/441 392/3/392
f 416/1/416 392/2/392 441/3/441
f 442/1/442 419/2/419 417/3/417
f 393/1/393 417/2/417 419/3/419
f 420/1/420 443/2/443 394/3/394
f 418/1/418 394/2/394 443/3/443
f 421/1/421 395/2/395 444/3/444
f 419/1/419 444/2/444 395/3/395
f 397/1/397 421/2/421 396/3/396
f 420/1/420 396/2/396 421/3/421
f 422/1/422 424/2/424 399/3/399
f 422/1/422 398/2/398 423/3/423
f 425/1/425 445/2/445 400/3/400
f 423/1/423 400/2/400 445/3/445
f 401/1/401 424/2/424 426/3/426
f 446/1/446 426/2/426 424/3/424
f 402/1/402 427/2/427 425/3/425
f 447/1/447 425/2/425 427/3/427
f 403/1/403 426/2/426 428/3/428
f 448/1/448 428/2/428 426/3/426
f 404/1/404 429/2/429 427/3/427
f 449/1/449 427/2/427 429/3/429
f 430/1/430 405/2/405 450/3/450
f 428/1/428 450/2/450 405/3/405
f 406/1/406 431/2/431 429/3/429
f 451/1/451 429/2/429 431/3/431
f 432/1/432 407/2/407 452/3/452
f 430/1/430 452/2/452 407/3/407
f 408/1/408 433/2/433 431/3/431
f 453/1/453 431/2/431 433/3/433
f 454/1/454 434/2/434 432/3/432
f 409/1/409 432/2/432 434/3/434
f 435/1/435 455/2/455 410/3/410
f 433/1/433 410/2/410 455/3/455
f 456/1/456 436/2/436 434/3/434
f 411/1/411 434/2/434 436/3/436
f 437/1/437 457/2/457 412/3/412
f 435/1/435 412/2/412 457/3/457
f 458/1/458 438/2/438 436/3/436
f 413/1/413 436/2/436 438/3/438
f 439/1/439 459/2/459 414/3/414
f 437/1/437 414/2/414 459/3/459
f 460/1/460 440/2/440 438/3/438
f 415/1/415 438/2/438 440/3/440
f 441/1/441 461/2/461 416/3/416
f 439/1/439 416/2/416 461/3/461
f 462/1/462 442/2/442 440/3/440
f 417/1/417 440/2/440 442/3/442
f 443/1/443 463/2/463 418/3/418
f 441/1/441 418/2/418 463/3/463
f 444/1/444 419/2/419 464/3/464
f 442/1/442 464/2/464 419/3/419
f 420/1/420 421/2/421 443/3/443
f 444/1/444 443/2/443 421/3/421
f 422/1/422 446/2/446 424/3/424
f 422/1/422 423/2/423 445/3/445
f 425/1/425 447/2/447 445/3/445
f 465/1/465 445/2/445 447/3/447
f 426/1/426 446/2/446 448/3/448
f 466/1/466 448/2/448 446/3/446
f 427/1/427 449/2/449 447/3/447
f 467/1/467 447/2/447 449/3/449
f 468/1/468 450/2/450 448/3/448
f 428/1/428 448/2/448 450/3/450
f 429/1/429 451/2/451 449/3/449
f 469/1/469 449/2/449 451/3/451
f 470/1/470 452/2/452 450/3/450
f 430/1/430 450/2/450 452/3/452
f 431/1/431 453/2/453 451/3/451
f 471/1/471 451/2/451 453/3/453
f 472/1/472 454/2/454 452/3/452
f 432/1/432 452/2/452 454/3/454
f 455/1/455 473/2/473 433/3/433
f 453/1/453 433/2/433 473/3/473
f 474/1/474 456/2/456 454/3/454
f 434/1/434 454/2/454 456/3/456
f 457/1/457 475/2/475 435/3/435
f 455/1/455 435/2/435 475/3/475
f 476/1/476 458/2/458 456/3/456
f 436/1/436 456/2/456 458/3/458
f 459/1/459 477/2/477 437/3/437
f 457/1/457 437/2/437 477/3/477
f 478/1/478 460/2/460 458/3/458
f 438/1/438 458/2/458 460/3/460
f 461/1/461 479/2/479 439/3/439
f 459/1/459 439/2/439 479/3/479
f 480/1/480 462/2/462 460/3/460
f 440/1/440 460/2/460 462/3/462
f 463/1/463 481/2/481 441/3/441
f 461/1/461 441/2/441 481/3/481
f 464/1/464 442/2/442 482/3/482
f 462/1/462 482/2/482 442/3/442
f 443/1/443 444/2/444 463/3/463
f 464/1/464 463/2/463 444/3/444
f 422/1/422 466/2/466 446/3/446
f 465/1/465 422/2/422 445/3/445
f 447/1/447 467/2/467 465/3/465
f 483/1/483 465/2/465 467/3/467
f 448/1/448 466/2/466 468/3/468
f 484/1/484 468/2/468 466/3/466
f 449/1/449 469/2/469 467/3/467
f 485/1/485 467/2/467 469/3/469
f 486/1/486 470/2/470 468/3/468
f 450/1/450 468/2/468 470/3/470
f 451/1/451 471/2/471 469/3/469
f 487/1/487 469/2/469 471/3/471
f 488/1/488 472/2/472 470/3/470
f 452/1/452 470/2/470 472/3/472
f 473/1/473 489/2/489 453/3/453
f 471/1/471 453/2/453 489/3/489
f 490/1/490 474/2/474 472/3/472
f 454/1/454 472/2/472 474/3/474
f 475/1/475 491/2/491 455/3/455
f 473/1/473 455/2/455 491/3/491
f 492/1/492 476/2/476 474/3/474
f 456/1/456 474/2/474 476/3/476
f 477/1/477 493/2/493 457/3/457
f 475/1/475 457/2/457 493/3/493
f 494/1/494 478/2/478 476/3/476
f 458/1/458 476/2/476 478/3/478
f 479/1/479 495/2/495 459/3/459
f 477/1/477 459/2/459 495/3/495
f 496/1/496 480/2/480 478/3/478
f 460/1/460 478/2/478 480/3/480
f 481/1/481 497/2/497 461/3/461
f 479/1/479 461/2/461 497/3/497
f 482/1/482 462/2/462 498/3/498
f 480/1/480 498/2/498 462/3/462
f 463/1/463 464/2/464 481/3/481
f 482/1/482 481/2/481 464/3/464
f 422/1/422 484/2/484 466/3/466
f 483/1/483 422/2/422 465/3/465
f 467/1/467 485/2/485 483/3/483
f 499/1/499 483/2/483 485/3/485
f 500/1/500 486/2/486 484/3/484
f 468/1/468 484/2/484 486/3/486
f 469/1/469 487/2/487 485/3/485
f 501/1/501 485/2/485 487/3/487
f 502/1/502 488/2/488 486/3/486
f 470/1/470 486/2/486 488/3/488
f 471/1/471 489/2/489 487/3/487
f 503/1/503 487/2/487 489/3/489
f 504/1/504 490/2/490 488/3/488
f 472/1/472 488/2/488 490/3/490
f 491/1/491 505/2/505 473/3/473
f 489/1/489 473/2/473 505/3/505
f 506/1/506 492/2/492 490/3/490
f 474/1/474 490/2/490 492/3/492
f 493/1/493 507/2/507 475/3/475
f 491/1/491 475/2/475 507/3/507
f 508/1/508 494/2/494 492/3/492
f 476/1/476 492/2/492 494/3/494
f 495/1/495 509/2/509 477/3/477
f 493/1/493 477/2/477 509/3/509
f 510/1/510 496/2/496 494/3/494
f 478/1/478 494/2/494 496/3/496
f 497/1/497 511/2/511 479/3/479
f 495/1/495 479/2/479 511/3/511
f 498/1/498 480/2/480 512/3/512
f 496/1/496 512/2/512 480/3/480
f 481/1/481 482/2/482 497/3/497
f 498/1/498 497/2/497 482/3/482
f 500/1/500 484/2/484 422/3/422
f 499/1/499 422/2/422 483/3/483
f 485/1/485 501/2/501 499/3/499
f 513/1/513 499/2/499 501/3/501
f 514/1/514 502/2/502 500/3/500
f 486/1/486 500/2/500 502/3/502
f 487/1/487 503/2/503 501/3/501
f 515/1/515 501/2/501 503/3/503
f 516/1/516 504/2/504 502/3/502
f 488/1/488 502/2/502 504/3/504
f 505/1/505 517/2/517 489/3/489
f 503/1/503 489/2/489 517/3/517
f 518/1/518 506/2/506 504/3/504
f 490/1/490 504/2/504 506/3/506
f 507/1/507 519/2/519 491/3/491
f 505/1/505 491/2/491 519/3/519
f 520/1/520 508/2/508 506/3/506
f 492/1/492 506/2/506 508/3/508
f 509/1/509 521/2/521 493/3/493
f 507/1/507 493/2/493 521/3/521
f 522/1/522 510/2/510 508/3/508
f 494/1/494 508/2/508 510/3/510
f 511/1/511 523/2/523 495/3/495
f 509/1/509 495/2/495 523/3/523
f 512/1/512 496/2/496 524/3/524
f 510/1/510 524/2/524 496/3/496
f 497/1/497 498/2/498 511/3/511
f 512/1/512 511/2/511 498/3/498
f 514/1/514 500/2/500 422/3/422
f 513/1/513 422/2/422 499/3/499
f 501/1/501 515/2/515 513/3/513
f 525/1/525 513/2/513 515/3/515
f 526/1/526 516/2/516 514/3/514
f 502/1/502 514/2/514 516/3/516
f 503/1/503 517/2/517 515/3/515
f 527/1/527 515/2/515 517/3/517
f 528/1/528 518/2/518 516/3/516
f 504/1/504 516/2/516 518/3/518
f 519/1/519 529/2/529 505/3/505
f 517/1/517 505/2/505 529/3/529
f 530/1/530 520/2/520 518/3/518
f 506/1/506 518/2/518 520/3/520
f 521/1/521 531/2/531 507/3/507
f 519/1/519 507/2/507 531/3/531
f 532/1/532 522/2/522 520/3/520
f 508/1/508 520/2/520 522/3/522
f 509/1/509 523/2/523 521/3/521
f 533/1/533 521/2/521 523/3/523
f 524/1/524 510/2/510 534/3/534
f 522/1/522 534/2/534 510/3/510
f 511/1/511 512/2/512 523/3/523
f 524/1/524 523/2/523 512/3/512
f 526/1/526 514/2/514 422/3/422
f 525/1/525 422/2/422 513/3/513
f 515/1/515 527/2/527 525/3/525
f 535/1/535 525/2/525 527/3/527
f 536/1/536 528/2/528 526/3/526
f 516/1/516 526/2/526 528/3/528
f 517/1/517 529/2/529 527/3/527
f 537/1/537 527/2/527 529/3/529
f 538/1/538 530/2/530 528/3/528
f 518/1/518 528/2/528 530/3/530
f 519/1/519 531/2/531 529/3/529
f 539/1/539 529/2/529 531/3/531
f 540/1/540 532/2/532 530/3/530
f 520/1/520 530/2/530 532/3/532
f 521/1/521 533/2/533 531/3/531
f 541/1/541 531/2/531 533/3/533
f 534/1/534 522/2/522 542/3/542
f 532/1/532 542/2/542 522/3/522
f 523/1/523 524/2/524 533/3/533
f 534/1/534 533/2/533 524/3/524
f 536/1/536 526/2/526 422/3/422
f 535/1/535 422/2/422 525/3/525
f 527/1/527 537/2/537 535/3/535
f 543/1/543 535/2/535 537/3/537
f 544/1/544 538/2/538 536/3/536
f 528/1/528 536/2/536 538/3/538
f 529/1/529 539/2/539 537/3/537
f 545/1/545 537/2/537 539/3/539
f 546/1/546 540/2/540 538/3/538
f 530/1/530 538/2/538 540/3/540
f 531/1/531 541/2/541 539/3/539
f 547/1/547 539/2/539 541/3/541
f 542/1/542 532/2/532 548/3/548
f 540/1/540 548/2/548 532/3/532
f 533/1/533 534/2/534 541/3/541
f 542/1/542 541/2/541 534/3/534
f 544/1/544 536/2/536 422/3/422
f 543/1/543 422/2/422 535/3/535
f 537/1/537 545/2/545 543/3/543
f 549/1/549 543/2/543 545/3/545
f 550/1/550 546/2/546 544/3/544
f 538/1/538 544/2/544 546/3/546
f 539/1/539 547/2/547 545/3/545
f 551/1/551 545/2/545 547/3/547
f 548/1/548 540/2/540 552/3/552
f 546/1/546 552/2/552 540/3/540
f 541/1/541 542/2/542 547/3/547
f 548/1/548 547/2/547 542/3/542
f 544/1/544 422/2/422 550/3/550
f 543/1/543 549/2/549 422/3/422
f 545/1/545 551/2/551 549/3/549
f 553/1/553 549/2/549 551/3/551
f 552/1/552 546/2/546 554/3/554
f 550/1/550 554/2/554 546/3/546
f 547/1/547 548/2/548 551/3/551
f 552/1/552 551/2/551 548/3/548
f 550/1/550 422/2/422 554/3/554
f 549/1/549 553/2/553 422/3/422
f 551/1/551 552/2/552 553/3/553
f 554/1/554 553/2/553 552/3/552
f 554/1/554 422/2/422 553/3/553
