# Blender 5.2.0 LTS
# www.blender.org
o Body_Body
v 0.037202 0.271566 -0.000874
v 0.010714 0.270769 0.025614
v 0.029432 0.271566 -0.006836
v 0.020384 0.271566 -0.010584
v 0.062910 0.273998 -0.026582
v 0.043164 0.271566 0.006896
v 0.010674 0.271566 -0.011862
v 0.029716 0.273998 -0.045747
v 0.047575 0.273998 -0.038350
v 0.074677 0.273998 -0.011247
v 0.046911 0.271566 0.015944
v 0.000963 0.271566 -0.010584
v 0.010551 0.273998 -0.048270
v 0.087130 0.278188 -0.050802
v 0.104388 0.278188 -0.028312
v 0.082075 0.273998 0.006612
v 0.048190 0.271566 0.025654
v -0.008085 0.271566 -0.006836
v -0.008614 0.273998 -0.045747
v 0.010344 0.278188 -0.082609
v 0.038449 0.278188 -0.078908
v 0.064640 0.278188 -0.068060
v 0.115236 0.278188 -0.002122
v 0.046911 0.271566 0.035364
v -0.015855 0.271566 -0.000874
v -0.026472 0.273998 -0.038350
v -0.017762 0.278188 -0.078908
v 0.080129 0.284318 -0.095105
v 0.109158 0.284318 -0.072831
v 0.145435 0.284318 -0.009996
v 0.118936 0.278188 0.025984
v 0.084598 0.273998 0.025776
v 0.082075 0.273998 0.044941
v 0.043164 0.271566 0.044413
v -0.021817 0.271566 0.006896
v -0.026231 0.284318 -0.109108
v 0.046324 0.284318 -0.109108
v 0.131433 0.284318 -0.043801
v 0.150211 0.284318 0.026281
v 0.037202 0.271566 0.052182
v -0.025565 0.271566 0.015944
v -0.053575 0.273998 -0.011247
v -0.041807 0.273998 -0.026582
v -0.043953 0.278188 -0.068060
v -0.060036 0.284318 -0.095105
v 0.010047 0.284318 -0.113884
v 0.128342 0.292598 -0.092014
v 0.155015 0.292598 -0.057253
v 0.171783 0.292598 -0.016772
v 0.177502 0.292598 0.026669
v 0.145435 0.284318 0.062558
v 0.074677 0.273998 0.062800
v 0.062910 0.273998 0.078135
v 0.029432 0.271566 0.058145
v -0.026843 0.271566 0.025654
v -0.066443 0.278188 -0.050802
v -0.074264 0.292598 -0.118688
v 0.009658 0.292598 -0.141175
v 0.053099 0.292598 -0.135455
v 0.093580 0.292598 -0.118688
v 0.171783 0.292598 0.070111
v 0.115236 0.278188 0.054090
v 0.104388 0.278188 0.080280
v 0.020384 0.271566 0.061893
v -0.025565 0.271566 0.035364
v -0.063495 0.273998 0.025776
v -0.060972 0.273998 0.006612
v -0.083700 0.278188 -0.028312
v -0.109025 0.292598 -0.092014
v -0.033783 0.292598 -0.135455
v 0.104624 0.303230 -0.138165
v 0.144157 0.303230 -0.107830
v 0.193562 0.303230 -0.022258
v 0.200066 0.303230 0.027146
v 0.193562 0.303230 0.076551
v 0.131433 0.284318 0.096363
v 0.087130 0.278188 0.102771
v 0.047575 0.273998 0.089903
v 0.029716 0.273998 0.097300
v 0.010674 0.271566 0.063171
v -0.021817 0.271566 0.044413
v -0.060972 0.273998 0.044941
v -0.094549 0.278188 -0.002122
v -0.111340 0.284318 -0.043801
v -0.089065 0.284318 -0.072831
v -0.125795 0.303230 -0.107830
v -0.086261 0.303230 -0.138165
v -0.040224 0.303230 -0.157234
v 0.058586 0.303230 -0.157234
v 0.174493 0.303230 -0.068296
v 0.174493 0.303230 0.122589
v 0.155015 0.292598 0.110591
v 0.010551 0.273998 0.099823
v 0.000963 0.271566 0.061893
v -0.015855 0.271566 0.052182
v -0.094549 0.278188 0.054090
v -0.125342 0.284318 -0.009996
v -0.135699 0.292598 -0.057253
v -0.156130 0.303230 -0.068296
v 0.009181 0.303230 -0.163739
v 0.156296 0.316369 -0.119969
v 0.189485 0.316369 -0.076717
v 0.210348 0.316369 -0.026349
v 0.217464 0.316369 0.027703
v 0.210348 0.316369 0.081754
v 0.128342 0.292598 0.145353
v 0.109158 0.284319 0.125393
v 0.064640 0.278188 0.120028
v 0.038449 0.278188 0.130876
v -0.008085 0.271566 0.058145
v -0.041807 0.273998 0.078135
v -0.053575 0.273998 0.062800
v -0.098249 0.278188 0.025984
v -0.130118 0.284318 0.026281
v -0.152467 0.292598 -0.016772
v -0.172235 0.316369 -0.076717
v -0.139046 0.316369 -0.119969
v -0.095795 0.316369 -0.153157
v -0.045427 0.316369 -0.174020
v 0.062676 0.316369 -0.174020
v 0.113045 0.316369 -0.153157
v 0.189485 0.316369 0.132122
v 0.144157 0.303230 0.162123
v 0.080129 0.284319 0.147667
v 0.010344 0.278188 0.134577
v -0.008614 0.273998 0.097300
v -0.026472 0.273998 0.089903
v -0.083700 0.278188 0.080280
v -0.125342 0.284318 0.062558
v -0.158186 0.292598 0.026669
v -0.175200 0.303230 -0.022258
v -0.193098 0.316369 -0.026349
v 0.008625 0.316369 -0.181136
v 0.118830 0.332087 -0.163630
v 0.199958 0.332087 -0.082503
v 0.222100 0.332087 -0.029046
v 0.229653 0.332087 0.028319
v 0.222100 0.332087 0.085685
v 0.199958 0.332087 0.139142
v 0.156296 0.316369 0.175374
v 0.093580 0.292598 0.172026
v 0.046324 0.284319 0.161670
v -0.017762 0.278188 0.130876
v -0.043953 0.278188 0.120028
v -0.066443 0.278188 0.102771
v -0.206084 0.332087 -0.029046
v -0.148718 0.332087 -0.128407
v -0.102814 0.332087 -0.163630
v -0.049358 0.332087 -0.185773
v 0.065374 0.332087 -0.185773
v 0.164735 0.332087 -0.128407
v 0.164735 0.332087 0.185046
v 0.104624 0.303230 0.192458
v 0.010047 0.284319 0.166446
v -0.089065 0.284319 0.125393
v -0.111340 0.284318 0.096363
v -0.152467 0.292598 0.070111
v -0.181704 0.303230 0.027146
v -0.200214 0.316369 0.027703
v -0.213637 0.332087 0.028319
v -0.183942 0.332087 -0.082503
v 0.008008 0.332087 -0.193325
v 0.122188 0.350346 -0.169922
v 0.169753 0.350346 -0.133425
v 0.229193 0.350346 -0.030471
v 0.237018 0.350346 0.028969
v 0.229193 0.350346 0.088410
v 0.206250 0.350346 0.143800
v 0.113045 0.316369 0.208563
v 0.053099 0.292598 0.188794
v 0.009658 0.292598 0.194513
v -0.026231 0.284319 0.161670
v -0.060036 0.284319 0.147667
v -0.175200 0.303230 0.076551
v -0.222302 0.350346 0.028969
v -0.191534 0.350346 -0.085861
v -0.155036 0.350346 -0.133425
v -0.107472 0.350346 -0.169922
v -0.052082 0.350346 -0.192865
v 0.066799 0.350346 -0.192865
v 0.206250 0.350346 -0.085861
v 0.169753 0.350346 0.191364
v 0.118830 0.332087 0.220270
v 0.058586 0.303230 0.211527
v -0.074264 0.292598 0.172026
v -0.135699 0.292598 0.110591
v -0.156130 0.303230 0.122589
v -0.193098 0.316369 0.081754
v -0.206084 0.332087 0.085685
v -0.214477 0.350346 -0.030471
v 0.007358 0.350346 -0.200691
v 0.171890 0.370978 -0.135562
v 0.209014 0.370978 -0.087182
v 0.232350 0.370978 -0.030842
v 0.240310 0.370978 0.029618
v 0.232350 0.370978 0.090078
v 0.171890 0.370978 0.194799
v 0.122188 0.350346 0.227861
v 0.062676 0.316369 0.229426
v -0.033783 0.292598 0.188794
v -0.109025 0.292598 0.145353
v -0.214477 0.350346 0.088410
v -0.226891 0.370978 0.029618
v -0.195595 0.370978 -0.087182
v -0.158471 0.370978 -0.135562
v -0.110091 0.370978 -0.172686
v -0.053751 0.370978 -0.196023
v 0.067170 0.370978 -0.196023
v 0.006710 0.370978 -0.203983
v 0.123510 0.370978 -0.172686
v 0.209014 0.370978 0.146418
v 0.065374 0.332087 0.242412
v 0.008625 0.316369 0.236542
v 0.009181 0.303230 0.218032
v -0.040224 0.303230 0.211527
v -0.086261 0.303230 0.192458
v -0.125795 0.303230 0.162123
v -0.172235 0.316369 0.132122
v -0.183942 0.332087 0.139142
v -0.218931 0.370978 0.090078
v -0.218931 0.370978 -0.030842
v 0.171844 0.393684 -0.135516
v 0.232510 0.393684 -0.030440
v 0.240496 0.393684 0.030226
v 0.209093 0.393684 0.147424
v 0.123510 0.370978 0.231922
v 0.066799 0.350346 0.250804
v 0.008008 0.332087 0.249964
v -0.139046 0.316369 0.175374
v -0.191534 0.350346 0.143800
v -0.195595 0.370978 0.146418
v -0.228294 0.393684 0.030226
v -0.159641 0.393684 -0.135516
v -0.220307 0.393684 -0.030440
v -0.111096 0.393684 -0.172766
v -0.054565 0.393684 -0.196182
v 0.006101 0.393684 -0.204169
v 0.066767 0.393684 -0.196182
v 0.123299 0.393684 -0.172766
v 0.209093 0.393684 -0.086971
v 0.232510 0.393684 0.090892
v 0.171844 0.393684 0.195969
v -0.049358 0.332087 0.242412
v -0.045427 0.316369 0.229426
v -0.095795 0.316369 0.208563
v -0.148718 0.332087 0.185046
v -0.196891 0.393684 0.147424
v -0.220307 0.393684 0.090892
v -0.196891 0.393684 -0.086971
v 0.170321 0.418039 -0.133993
v 0.207347 0.418039 -0.085739
v 0.230623 0.418039 -0.029546
v 0.230623 0.418039 0.091058
v 0.170321 0.418039 0.195505
v 0.123299 0.393684 0.233219
v 0.067170 0.370978 0.255259
v 0.007358 0.350346 0.258630
v -0.155036 0.350346 0.191364
v -0.158471 0.370978 0.194799
v -0.159641 0.393684 0.195969
v -0.219480 0.418039 0.091058
v -0.227419 0.418039 0.030756
v -0.196204 0.418039 -0.085739
v -0.219480 0.418039 -0.029546
v -0.110924 0.418039 -0.171019
v 0.005571 0.418039 -0.202234
v 0.065874 0.418039 -0.194295
v 0.122067 0.418039 -0.171019
v 0.238562 0.418039 0.030756
v 0.207347 0.418039 0.147251
v 0.006710 0.370978 0.263219
v -0.052082 0.350346 0.250804
v -0.102814 0.332087 0.220270
v -0.196204 0.418039 0.147251
v -0.159178 0.418039 -0.133993
v -0.054731 0.418039 -0.194295
v 0.167891 0.443512 -0.131564
v 0.204466 0.443512 -0.083899
v 0.227458 0.443512 -0.028392
v 0.235300 0.443512 0.031174
v 0.204466 0.443512 0.146247
v 0.167891 0.443512 0.193912
v 0.122067 0.418039 0.232532
v 0.066767 0.393684 0.256635
v -0.053751 0.370978 0.255259
v -0.107472 0.350346 0.227861
v -0.110091 0.370978 0.231922
v -0.111096 0.393684 0.233219
v -0.159178 0.418039 0.195505
v -0.224993 0.443512 0.031174
v -0.194159 0.443512 -0.083899
v -0.109920 0.443512 -0.168138
v 0.064720 0.443512 -0.191130
v -0.054413 0.443512 -0.191130
v 0.120227 0.443512 -0.168138
v 0.227458 0.443512 0.090740
v 0.065874 0.418039 0.255808
v 0.006101 0.393684 0.264622
v -0.110924 0.418039 0.232532
v -0.194159 0.443512 0.146247
v -0.217151 0.443512 0.090740
v -0.217151 0.443512 -0.028392
v -0.157585 0.443512 -0.131564
v 0.005154 0.443512 -0.198972
v 0.164865 0.469499 -0.128537
v 0.223426 0.469499 -0.027105
v 0.231137 0.469499 0.031457
v 0.223426 0.469499 0.090020
v 0.200822 0.469499 0.144591
v 0.164865 0.469499 0.191452
v 0.120227 0.443512 0.230487
v -0.054565 0.393684 0.256635
v -0.054731 0.418039 0.255808
v -0.109920 0.443512 0.230487
v -0.157585 0.443512 0.193912
v -0.213686 0.469499 0.090020
v -0.221396 0.469499 0.031457
v -0.213686 0.469499 -0.027105
v -0.155124 0.469499 -0.128537
v -0.053692 0.469499 -0.187099
v 0.004870 0.469499 -0.194809
v 0.063432 0.469499 -0.187099
v 0.118003 0.469499 -0.164495
v 0.200822 0.469499 -0.081676
v 0.118003 0.469499 0.227410
v 0.064720 0.443512 0.253478
v 0.005571 0.418039 0.263746
v -0.054413 0.443512 0.253478
v -0.191082 0.469499 0.144591
v -0.191082 0.469499 -0.081676
v -0.108263 0.469499 -0.164495
v 0.161208 0.495351 -0.124881
v 0.196376 0.495351 -0.079050
v 0.218483 0.495351 -0.025679
v 0.226023 0.495351 0.031596
v 0.218483 0.495351 0.088870
v 0.196376 0.495351 0.142242
v 0.161208 0.495351 0.188072
v 0.005154 0.443512 0.261320
v -0.053692 0.469499 0.250014
v -0.108263 0.469499 0.227410
v -0.155124 0.469499 0.191452
v -0.186912 0.495351 0.142242
v -0.209019 0.495351 0.088870
v -0.209019 0.495351 -0.025679
v -0.151745 0.495351 -0.124881
v -0.105914 0.495351 -0.160048
v 0.004732 0.495351 -0.189696
v 0.062006 0.495351 -0.182156
v 0.115378 0.495351 -0.160048
v 0.115378 0.495351 0.223240
v 0.063432 0.469499 0.250014
v 0.004870 0.469499 0.257724
v -0.151745 0.495351 0.188072
v -0.216560 0.495351 0.031596
v -0.186912 0.495351 -0.079050
v -0.052543 0.495351 -0.182156
v 0.112073 0.520412 -0.154322
v 0.156534 0.520412 -0.120206
v 0.212096 0.520412 -0.023969
v 0.219411 0.520412 0.031593
v 0.212096 0.520412 0.087155
v 0.190650 0.520412 0.138931
v 0.112073 0.520412 0.217508
v -0.052543 0.495351 0.245347
v -0.181181 0.520412 0.138931
v -0.209942 0.520412 0.031593
v -0.181181 0.520412 -0.075745
v -0.102604 0.520412 -0.154322
v -0.050828 0.520412 -0.175768
v 0.060297 0.520412 -0.175768
v 0.190650 0.520412 -0.075745
v 0.156534 0.520412 0.183392
v 0.060297 0.520412 0.238955
v 0.062006 0.495351 0.245347
v 0.004732 0.495351 0.252887
v -0.105914 0.495351 0.223240
v -0.147065 0.520412 0.183392
v -0.202627 0.520412 0.087155
v -0.202627 0.520412 -0.023969
v -0.147065 0.520412 -0.120206
v 0.004735 0.520412 -0.183083
v 0.150141 0.544052 -0.113813
v 0.203317 0.544052 -0.021709
v 0.210318 0.544052 0.031467
v 0.203317 0.544052 0.084644
v 0.150141 0.544052 0.176748
v 0.107589 0.544052 0.209399
v 0.058037 0.544052 0.229924
v 0.004735 0.520412 0.246270
v -0.050828 0.520412 0.238955
v -0.140420 0.544052 0.176748
v -0.193596 0.544052 0.084644
v -0.200597 0.544052 0.031467
v -0.193596 0.544052 -0.021709
v -0.140420 0.544052 -0.113813
v -0.097868 0.544052 -0.146464
v -0.048316 0.544052 -0.166989
v 0.058037 0.544052 -0.166989
v 0.004860 0.544052 -0.173990
v 0.107589 0.544052 -0.146464
v 0.182791 0.544052 -0.071261
v 0.182791 0.544052 0.134196
v -0.102604 0.520412 0.217508
v -0.173071 0.544052 0.134196
v -0.173071 0.544052 -0.071261
v 0.141139 0.565691 -0.104812
v 0.171718 0.565691 -0.064961
v 0.197497 0.565691 0.031247
v 0.171718 0.565691 0.127455
v 0.141139 0.565691 0.167306
v 0.101289 0.565691 0.197885
v 0.004860 0.544052 0.236925
v -0.048316 0.544052 0.229924
v -0.097868 0.544052 0.209399
v -0.130979 0.565691 0.167306
v -0.180779 0.565691 0.081048
v -0.161557 0.565691 0.127455
v -0.180779 0.565691 -0.018554
v -0.130979 0.565691 -0.104812
v -0.091128 0.565691 -0.135390
v -0.044721 0.565691 -0.154613
v 0.005080 0.565691 -0.161169
v 0.054881 0.565691 -0.154613
v 0.101289 0.565691 -0.135390
v 0.190940 0.565691 -0.018554
v 0.190940 0.565691 0.081048
v 0.054881 0.565691 0.217107
v -0.091128 0.565691 0.197885
v -0.187336 0.565691 0.031247
v -0.161557 0.565691 -0.064961
v 0.092525 0.584824 -0.120007
v 0.156335 0.584824 -0.056197
v 0.173750 0.584824 -0.014152
v 0.173750 0.584824 0.076089
v 0.156335 0.584824 0.118135
v 0.092525 0.584824 0.181945
v 0.005080 0.565691 0.223664
v -0.044721 0.565691 0.217107
v -0.117913 0.584824 0.154240
v -0.145617 0.584824 0.118135
v -0.163033 0.584824 0.076089
v -0.168973 0.584824 0.030969
v -0.145617 0.584824 -0.056197
v -0.117913 0.584824 -0.092303
v -0.081807 0.584824 -0.120007
v 0.005359 0.584824 -0.143363
v 0.050479 0.584824 -0.137423
v 0.128630 0.584824 -0.092303
v 0.179691 0.584824 0.030969
v 0.128630 0.584824 0.154240
v 0.050479 0.584824 0.199361
v -0.081807 0.584824 0.181945
v -0.163033 0.584824 -0.014152
v -0.039762 0.584824 -0.137423
v 0.044552 0.601025 -0.114490
v 0.080797 0.601025 -0.099476
v 0.135804 0.601025 -0.044469
v 0.150817 0.601025 -0.008224
v 0.150817 0.601025 0.069568
v 0.111921 0.601025 0.136938
v 0.080797 0.601025 0.160821
v 0.005359 0.584824 0.205301
v -0.039762 0.584824 0.199361
v -0.100610 0.601025 0.136938
v -0.124493 0.601025 0.105813
v -0.139506 0.601025 0.069568
v -0.144627 0.601025 0.030672
v -0.124493 0.601025 -0.044469
v -0.139506 0.601025 -0.008224
v -0.100610 0.601025 -0.075594
v -0.069486 0.601025 -0.099476
v 0.005656 0.601025 -0.119611
v -0.033240 0.601025 -0.114490
v 0.111921 0.601025 -0.075594
v 0.155938 0.601025 0.030672
v 0.135804 0.601025 0.105813
v 0.044552 0.601025 0.175834
v -0.033240 0.601025 0.175834
v -0.069486 0.601025 0.160821
v 0.005933 0.613958 -0.089544
v 0.065902 0.613958 -0.073475
v 0.090742 0.613958 -0.054415
v 0.109803 0.613958 -0.029575
v 0.125872 0.613958 0.030395
v 0.109803 0.613958 0.090364
v 0.090742 0.613958 0.115204
v 0.065902 0.613958 0.134265
v 0.005656 0.601025 0.180955
v -0.078877 0.613958 0.115204
v -0.109919 0.613958 0.061437
v -0.109919 0.613958 -0.000648
v -0.097937 0.613958 -0.029575
v -0.054037 0.613958 -0.073475
v -0.025110 0.613958 -0.085457
v 0.036975 0.613958 -0.085457
v 0.121785 0.613958 -0.000648
v 0.121785 0.613958 0.061437
v 0.036975 0.613958 0.146247
v 0.005933 0.613958 0.150334
v -0.025110 0.613958 0.146247
v -0.054037 0.613958 0.134265
v -0.097937 0.613958 0.090364
v -0.114006 0.613958 0.030395
v -0.078877 0.613958 -0.054415
v -0.015525 0.623368 -0.050749
v 0.006157 0.623368 -0.053603
v 0.065394 0.623368 -0.029067
v 0.027839 0.623368 -0.050749
v 0.078707 0.623368 -0.011717
v 0.089931 0.623368 0.030170
v 0.078707 0.623368 0.072057
v 0.065394 0.623368 0.089407
v 0.027839 0.623368 0.111090
v -0.053080 0.623368 0.089407
v -0.066393 0.623368 0.072057
v -0.074762 0.623368 0.051853
v -0.077616 0.623368 0.030170
v -0.074762 0.623368 0.008488
v -0.066393 0.623368 -0.011717
v -0.053080 0.623368 -0.029067
v 0.048044 0.623368 -0.042380
v 0.087076 0.623368 0.008488
v 0.087076 0.623368 0.051853
v 0.048044 0.623368 0.102721
v -0.015525 0.623368 0.111090
v -0.035730 0.623368 0.102721
v -0.035730 0.623368 -0.042380
v 0.006303 0.629081 -0.013088
v 0.027859 0.629081 -0.007312
v 0.043640 0.629081 0.008468
v 0.047947 0.629081 0.018866
v 0.049416 0.629081 0.030025
v 0.043640 0.629081 0.051581
v 0.047947 0.629081 0.041183
v 0.027859 0.629081 0.067362
v 0.006157 0.623368 0.113944
v 0.017461 0.629081 0.071669
v -0.031034 0.629081 0.051581
v -0.015254 0.629081 0.067362
v -0.035341 0.629081 0.041183
v -0.036810 0.629081 0.030025
v -0.035341 0.629081 0.018866
v -0.031034 0.629081 0.008468
v -0.024183 0.629081 -0.000461
v -0.004856 0.629081 -0.011619
v 0.017461 0.629081 -0.011619
v 0.036788 0.629081 -0.000461
v 0.036788 0.629081 0.060510
v -0.004856 0.629081 0.071669
v -0.024183 0.629081 0.060510
v -0.015254 0.629081 -0.007312
v 0.006353 0.630997 0.029975
v 0.006303 0.629081 0.073138
vn 0.0325 -0.9989 -0.0325
vn -0.0000 -1.0000 -0.0000
vn 0.0230 -0.9989 -0.0397
vn 0.0119 -0.9989 -0.0443
vn 0.0682 -0.9953 -0.0682
vn 0.0397 -0.9989 -0.0230
vn -0.0000 -0.9989 -0.0459
vn 0.0249 -0.9954 -0.0930
vn 0.0482 -0.9953 -0.0835
vn 0.0835 -0.9953 -0.0482
vn 0.0443 -0.9989 -0.0119
vn -0.0118 -0.9990 -0.0443
vn -0.0000 -0.9954 -0.0962
vn 0.1134 -0.9871 -0.1134
vn 0.1388 -0.9871 -0.0801
vn 0.0930 -0.9954 -0.0249
vn 0.0459 -0.9989 -0.0000
vn -0.0229 -0.9990 -0.0396
vn -0.0248 -0.9954 -0.0928
vn 0.0001 -0.9872 -0.1598
vn 0.0415 -0.9871 -0.1546
vn 0.0801 -0.9871 -0.1388
vn 0.1546 -0.9871 -0.0415
vn 0.0443 -0.9990 0.0118
vn -0.0323 -0.9990 -0.0323
vn -0.0479 -0.9954 -0.0831
vn -0.0412 -0.9872 -0.1540
vn 0.1234 -0.9691 -0.2136
vn 0.1745 -0.9691 -0.1745
vn 0.2378 -0.9692 -0.0638
vn 0.1598 -0.9872 -0.0001
vn 0.0962 -0.9954 -0.0000
vn 0.0928 -0.9954 0.0248
vn 0.0396 -0.9990 0.0229
vn -0.0395 -0.9990 -0.0228
vn -0.0632 -0.9696 -0.2365
vn 0.0638 -0.9692 -0.2378
vn 0.2136 -0.9691 -0.1234
vn 0.2456 -0.9694 -0.0001
vn 0.0323 -0.9990 0.0323
vn -0.0441 -0.9990 -0.0118
vn -0.0827 -0.9954 -0.0478
vn -0.0676 -0.9954 -0.0677
vn -0.0794 -0.9873 -0.1377
vn -0.1217 -0.9698 -0.2112
vn 0.0001 -0.9694 -0.2456
vn 0.2594 -0.9303 -0.2594
vn 0.3175 -0.9304 -0.1834
vn 0.3533 -0.9307 -0.0949
vn 0.3645 -0.9312 -0.0003
vn 0.2365 -0.9696 0.0632
vn 0.0831 -0.9954 0.0479
vn 0.0677 -0.9954 0.0676
vn 0.0229 -0.9990 0.0395
vn -0.0456 -0.9990 -0.0000
vn -0.1120 -0.9874 -0.1121
vn -0.1801 -0.9326 -0.3127
vn 0.0003 -0.9312 -0.3645
vn 0.0949 -0.9307 -0.3533
vn 0.1834 -0.9304 -0.3175
vn 0.3505 -0.9319 0.0936
vn 0.1540 -0.9872 0.0412
vn 0.1377 -0.9873 0.0794
vn 0.0118 -0.9990 0.0441
vn -0.0440 -0.9990 0.0118
vn -0.0952 -0.9955 -0.0000
vn -0.0921 -0.9954 -0.0247
vn -0.1368 -0.9874 -0.0791
vn -0.2535 -0.9334 -0.2540
vn -0.0936 -0.9319 -0.3505
vn 0.2637 -0.8498 -0.4565
vn 0.3731 -0.8494 -0.3731
vn 0.5077 -0.8506 -0.1364
vn 0.5234 -0.8521 -0.0005
vn 0.5029 -0.8539 0.1342
vn 0.2112 -0.9698 0.1217
vn 0.1121 -0.9874 0.1120
vn 0.0478 -0.9954 0.0827
vn 0.0247 -0.9954 0.0921
vn -0.0000 -0.9990 0.0456
vn -0.0394 -0.9990 0.0228
vn -0.0919 -0.9955 0.0246
vn -0.1522 -0.9875 -0.0409
vn -0.2093 -0.9703 -0.1210
vn -0.1715 -0.9701 -0.1718
vn -0.3626 -0.8581 -0.3635
vn -0.2580 -0.8560 -0.4481
vn -0.1342 -0.8539 -0.5029
vn 0.1364 -0.8506 -0.5077
vn 0.4565 -0.8498 -0.2637
vn 0.4481 -0.8560 0.2580
vn 0.3127 -0.9326 0.1801
vn -0.0000 -0.9955 0.0952
vn -0.0118 -0.9990 0.0440
vn -0.0322 -0.9990 0.0322
vn -0.1516 -0.9876 0.0406
vn -0.2326 -0.9706 -0.0625
vn -0.3088 -0.9342 -0.1787
vn -0.4412 -0.8603 -0.2554
vn 0.0005 -0.8521 -0.5234
vn 0.5048 -0.7002 -0.5048
vn 0.6176 -0.7009 -0.3568
vn 0.6869 -0.7030 -0.1845
vn 0.7081 -0.7062 -0.0006
vn 0.6801 -0.7103 0.1815
vn 0.2540 -0.9334 0.2535
vn 0.1718 -0.9701 0.1715
vn 0.0791 -0.9874 0.1368
vn 0.0409 -0.9875 0.1522
vn -0.0228 -0.9990 0.0394
vn -0.0672 -0.9955 0.0672
vn -0.0823 -0.9955 0.0475
vn -0.1572 -0.9876 -0.0001
vn -0.2400 -0.9708 -0.0001
vn -0.3427 -0.9349 -0.0922
vn -0.5963 -0.7248 -0.3452
vn -0.4902 -0.7199 -0.4914
vn -0.3489 -0.7150 -0.6059
vn -0.1815 -0.7103 -0.6801
vn 0.1845 -0.7029 -0.6869
vn 0.3568 -0.7009 -0.6176
vn 0.6059 -0.7150 0.3489
vn 0.3635 -0.8581 0.3626
vn 0.1210 -0.9703 0.2093
vn 0.0001 -0.9876 0.1572
vn -0.0246 -0.9955 0.0919
vn -0.0475 -0.9955 0.0823
vn -0.1358 -0.9876 0.0784
vn -0.2312 -0.9709 0.0619
vn -0.3533 -0.9355 -0.0003
vn -0.4891 -0.8622 -0.1316
vn -0.6608 -0.7292 -0.1778
vn 0.0006 -0.7062 -0.7081
vn 0.4375 -0.4845 -0.7575
vn 0.7575 -0.4845 -0.4375
vn 0.8431 -0.4879 -0.2262
vn 0.8699 -0.4933 -0.0005
vn 0.8365 -0.5002 0.2235
vn 0.7462 -0.5082 0.4300
vn 0.4914 -0.7199 0.4902
vn 0.1787 -0.9342 0.3088
vn 0.0625 -0.9706 0.2326
vn -0.0406 -0.9876 0.1516
vn -0.0784 -0.9876 0.1358
vn -0.1108 -0.9876 0.1108
vn -0.8175 -0.5324 -0.2197
vn -0.6050 -0.5166 -0.6059
vn -0.4300 -0.5082 -0.7462
vn -0.2235 -0.5002 -0.8365
vn 0.2262 -0.4879 -0.8431
vn 0.6190 -0.4834 -0.6190
vn 0.6059 -0.5166 0.6050
vn 0.2554 -0.8603 0.4412
vn 0.0001 -0.9708 0.2400
vn -0.1689 -0.9711 0.1689
vn -0.2070 -0.9710 0.1195
vn -0.3401 -0.9360 0.0909
vn -0.5037 -0.8639 -0.0004
vn -0.6803 -0.7330 -0.0006
vn -0.8424 -0.5389 -0.0005
vn -0.7368 -0.5249 -0.4262
vn 0.0005 -0.4933 -0.8699
vn 0.4836 -0.2544 -0.8375
vn 0.6841 -0.2530 -0.6841
vn 0.9331 -0.2585 -0.2501
vn 0.9642 -0.2652 -0.0001
vn 0.9291 -0.2737 0.2488
vn 0.8306 -0.2836 0.4793
vn 0.3452 -0.7248 0.5963
vn 0.0922 -0.9349 0.3427
vn 0.0003 -0.9355 0.3533
vn -0.0619 -0.9709 0.2313
vn -0.1195 -0.9710 0.2070
vn -0.4845 -0.8651 0.1295
vn -0.9467 -0.3221 -0.0002
vn -0.8248 -0.3044 -0.4765
vn -0.6757 -0.2940 -0.6760
vn -0.4793 -0.2836 -0.8306
vn -0.2488 -0.2737 -0.9291
vn 0.2501 -0.2585 -0.9331
vn 0.8375 -0.2544 -0.4836
vn 0.6760 -0.2940 0.6757
vn 0.4262 -0.5249 0.7368
vn 0.1316 -0.8622 0.4891
vn -0.1756 -0.9363 0.3043
vn -0.3043 -0.9363 0.1756
vn -0.4332 -0.8659 0.2500
vn -0.6543 -0.7358 0.1749
vn -0.8108 -0.5437 0.2169
vn -0.9170 -0.3140 -0.2460
vn 0.0001 -0.2651 -0.9642
vn 0.7053 -0.0708 -0.7053
vn 0.8638 -0.0722 -0.4987
vn 0.9631 -0.0762 -0.2580
vn 0.9966 -0.0826 0.0001
vn 0.9619 -0.0909 0.2579
vn 0.7026 -0.1109 0.7028
vn 0.4765 -0.3044 0.8248
vn 0.1778 -0.7292 0.6608
vn -0.0909 -0.9360 0.3401
vn -0.2482 -0.9364 0.2482
vn -0.9124 -0.3284 0.2443
vn -0.9903 -0.1389 0.0001
vn -0.8597 -0.1212 -0.4962
vn -0.7028 -0.1109 -0.7026
vn -0.4976 -0.1006 -0.8616
vn -0.2579 -0.0909 -0.9619
vn 0.2580 -0.0762 -0.9631
vn -0.0001 -0.0826 -0.9966
vn 0.4987 -0.0722 -0.8638
vn 0.8616 -0.1006 0.4976
vn 0.2197 -0.5324 0.8175
vn 0.0006 -0.7329 0.6803
vn 0.0004 -0.8639 0.5037
vn -0.1295 -0.8651 0.4845
vn -0.2500 -0.8659 0.4332
vn -0.3534 -0.8662 0.3534
vn -0.5849 -0.7375 0.3375
vn -0.7252 -0.5467 0.4185
vn -0.9557 -0.1452 0.2561
vn -0.9577 -0.1308 -0.2565
vn 0.7064 0.0454 -0.7064
vn 0.9652 0.0408 -0.2584
vn 0.9994 0.0354 0.0002
vn 0.8657 0.0201 0.5002
vn 0.4962 -0.1212 0.8597
vn 0.2460 -0.3140 0.9170
vn 0.0005 -0.5389 0.8424
vn -0.4771 -0.7381 0.4771
vn -0.8169 -0.3322 0.4715
vn -0.8563 -0.1491 0.4944
vn -0.9999 -0.0129 0.0002
vn -0.7073 0.0113 -0.7068
vn -0.9660 -0.0058 -0.2586
vn -0.5002 0.0201 -0.8657
vn -0.2590 0.0283 -0.9655
vn -0.0002 0.0354 -0.9994
vn 0.2584 0.0408 -0.9652
vn 0.4994 0.0442 -0.8652
vn 0.8652 0.0442 -0.4994
vn 0.9655 0.0283 0.2590
vn 0.7068 0.0113 0.7073
vn -0.2169 -0.5437 0.8108
vn -0.1749 -0.7358 0.6543
vn -0.3375 -0.7375 0.5849
vn -0.5916 -0.5478 0.5916
vn -0.8658 -0.0217 0.4999
vn -0.9657 -0.0183 0.2589
vn -0.8662 0.0024 -0.4998
vn 0.7028 0.1107 -0.7028
vn 0.8608 0.1098 -0.4969
vn 0.9604 0.1071 -0.2572
vn 0.9612 0.0974 0.2579
vn 0.7043 0.0841 0.7049
vn 0.4998 0.0024 0.8662
vn 0.2565 -0.1308 0.9577
vn 0.0002 -0.3221 0.9467
vn -0.6666 -0.3336 0.6666
vn -0.6991 -0.1504 0.6991
vn -0.7069 -0.0228 0.7069
vn -0.9641 0.0610 0.2585
vn -0.9979 0.0652 0.0002
vn -0.8636 0.0772 -0.4982
vn -0.9636 0.0708 -0.2579
vn -0.4982 0.0910 -0.8623
vn -0.0003 0.1029 -0.9947
vn 0.2572 0.1071 -0.9604
vn 0.4969 0.1098 -0.8608
vn 0.9947 0.1029 0.0003
vn 0.8623 0.0910 0.4982
vn -0.0001 -0.1389 0.9903
vn -0.2443 -0.3284 0.9124
vn -0.4185 -0.5467 0.7252
vn -0.8645 0.0583 0.4992
vn -0.7049 0.0841 -0.7043
vn -0.2579 0.0974 -0.9613
vn 0.6993 0.1479 -0.6993
vn 0.8566 0.1473 -0.4945
vn 0.9557 0.1454 -0.2559
vn 0.9898 0.1424 0.0003
vn 0.8580 0.1340 0.4958
vn 0.7009 0.1291 0.7014
vn 0.4982 0.0772 0.8636
vn 0.2586 -0.0058 0.9660
vn -0.2561 -0.1452 0.9557
vn -0.4715 -0.3322 0.8169
vn -0.4944 -0.1491 0.8563
vn -0.4999 -0.0217 0.8658
vn -0.7059 0.0574 0.7059
vn -0.9933 0.1158 0.0003
vn -0.8595 0.1242 -0.4958
vn -0.4958 0.1340 -0.8580
vn 0.2559 0.1454 -0.9557
vn -0.2566 0.1385 -0.9565
vn 0.4945 0.1473 -0.8566
vn 0.9565 0.1385 0.2566
vn 0.2579 0.0708 0.9636
vn -0.0002 -0.0129 0.9999
vn -0.4992 0.0583 0.8645
vn -0.8606 0.1109 0.4970
vn -0.9597 0.1128 0.2573
vn -0.9591 0.1197 -0.2567
vn -0.7014 0.1291 -0.7009
vn -0.0003 0.1424 -0.9898
vn 0.6957 0.1791 -0.6957
vn 0.9506 0.1776 -0.2545
vn 0.9844 0.1759 0.0002
vn 0.9512 0.1736 0.2552
vn 0.8531 0.1709 0.4929
vn 0.6968 0.1681 0.6973
vn 0.4958 0.1242 0.8595
vn -0.2589 -0.0183 0.9657
vn -0.2585 0.0610 0.9641
vn -0.4970 0.1109 0.8606
vn -0.7028 0.1102 0.7028
vn -0.9537 0.1585 0.2557
vn -0.9871 0.1602 0.0003
vn -0.9532 0.1625 -0.2551
vn -0.6973 0.1681 -0.6968
vn -0.2552 0.1736 -0.9512
vn -0.0003 0.1759 -0.9844
vn 0.2545 0.1776 -0.9506
vn 0.4919 0.1787 -0.8521
vn 0.8521 0.1787 -0.4919
vn 0.4928 0.1652 0.8543
vn 0.2567 0.1197 0.9591
vn -0.0002 0.0652 0.9979
vn -0.2573 0.1128 0.9597
vn -0.8552 0.1574 0.4939
vn -0.8543 0.1652 -0.4928
vn -0.4929 0.1709 -0.8531
vn 0.6890 0.2251 -0.6890
vn 0.8439 0.2250 -0.4871
vn 0.9413 0.2247 -0.2520
vn 0.9746 0.2241 0.0002
vn 0.9414 0.2234 0.2526
vn 0.8442 0.2225 0.4877
vn 0.6893 0.2216 0.6898
vn -0.0003 0.1158 0.9933
vn -0.2557 0.1585 0.9537
vn -0.4939 0.1574 0.8552
vn -0.6983 0.1570 0.6983
vn -0.8451 0.2182 0.4880
vn -0.9425 0.2185 0.2527
vn -0.9424 0.2198 -0.2522
vn -0.6898 0.2216 -0.6893
vn -0.4877 0.2225 -0.8442
vn -0.0002 0.2241 -0.9746
vn 0.2520 0.2247 -0.9413
vn 0.4871 0.2250 -0.8439
vn 0.4874 0.2207 0.8448
vn 0.2551 0.1625 0.9532
vn -0.0002 0.1602 0.9871
vn -0.6901 0.2181 0.6901
vn -0.9757 0.2191 0.0002
vn -0.8448 0.2207 -0.4874
vn -0.2525 0.2234 -0.9414
vn 0.4761 0.3054 -0.8247
vn 0.6733 0.3053 -0.6733
vn 0.9197 0.3057 -0.2463
vn 0.9520 0.3062 0.0002
vn 0.9193 0.3069 0.2465
vn 0.8239 0.3076 0.4760
vn 0.4753 0.3092 0.8237
vn -0.2527 0.2185 0.9425
vn -0.8229 0.3114 0.4752
vn -0.9506 0.3106 0.0002
vn -0.8237 0.3092 -0.4753
vn -0.4760 0.3076 -0.8239
vn -0.2465 0.3069 -0.9193
vn 0.2463 0.3057 -0.9197
vn 0.8247 0.3054 -0.4761
vn 0.6725 0.3084 0.6728
vn 0.2459 0.3099 0.9184
vn 0.2522 0.2198 0.9424
vn -0.0002 0.2191 0.9757
vn -0.4880 0.2182 0.8451
vn -0.6719 0.3115 0.6719
vn -0.9180 0.3111 0.2461
vn -0.9184 0.3099 -0.2459
vn -0.6728 0.3084 -0.6725
vn -0.0002 0.3062 -0.9520
vn 0.6381 0.4310 -0.6381
vn 0.8712 0.4320 -0.2334
vn 0.9013 0.4332 0.0001
vn 0.8698 0.4348 0.2332
vn 0.6354 0.4386 0.6355
vn 0.4488 0.4405 0.7775
vn 0.2320 0.4423 0.8663
vn -0.0002 0.3106 0.9506
vn -0.2461 0.3111 0.9180
vn -0.6329 0.4461 0.6329
vn -0.8650 0.4451 0.2318
vn -0.8961 0.4439 0.0001
vn -0.8663 0.4423 -0.2320
vn -0.6355 0.4386 -0.6354
vn -0.4499 0.4366 -0.7791
vn -0.2332 0.4348 -0.8698
vn 0.2334 0.4320 -0.8712
vn -0.0001 0.4332 -0.9013
vn 0.4511 0.4312 -0.7814
vn 0.7814 0.4312 -0.4511
vn 0.7791 0.4366 0.4499
vn -0.4752 0.3114 0.8229
vn -0.7752 0.4458 0.4476
vn -0.7775 0.4405 -0.4488
vn 0.5698 0.5922 -0.5698
vn 0.6977 0.5925 -0.4028
vn 0.8039 0.5947 -0.0001
vn 0.6938 0.5986 0.4005
vn 0.5653 0.6008 0.5652
vn 0.3990 0.6030 0.6908
vn -0.0001 0.4439 0.8961
vn -0.2318 0.4451 0.8650
vn -0.4476 0.4458 0.7752
vn -0.5608 0.6092 0.5608
vn -0.7669 0.6080 0.2054
vn -0.6870 0.6089 0.3966
vn -0.7691 0.6050 -0.2062
vn -0.5652 0.6008 -0.5653
vn -0.4005 0.5986 -0.6938
vn -0.2077 0.5965 -0.7753
vn 0.0001 0.5947 -0.8039
vn 0.2084 0.5933 -0.7775
vn 0.4028 0.5925 -0.6977
vn 0.7775 0.5933 -0.2084
vn 0.7753 0.5965 0.2077
vn 0.2062 0.6050 0.7691
vn -0.3966 0.6089 0.6870
vn -0.7949 0.6067 -0.0001
vn -0.6908 0.6030 -0.3990
vn 0.3295 0.7522 -0.5706
vn 0.5706 0.7522 -0.3295
vn 0.6358 0.7528 -0.1705
vn 0.6333 0.7552 0.1695
vn 0.5663 0.7567 0.3267
vn 0.3252 0.7599 0.5629
vn 0.0001 0.6067 0.7949
vn -0.2054 0.6080 0.7669
vn -0.4559 0.7644 0.4559
vn -0.5586 0.7642 0.3225
vn -0.6238 0.7636 0.1670
vn -0.6469 0.7626 -0.0002
vn -0.5629 0.7599 -0.3252
vn -0.4608 0.7583 -0.4612
vn -0.3267 0.7567 -0.5663
vn 0.0002 0.7538 -0.6571
vn 0.1705 0.7528 -0.6358
vn 0.4661 0.7520 -0.4661
vn 0.6571 0.7538 -0.0002
vn 0.4612 0.7583 0.4608
vn 0.1680 0.7614 0.6262
vn -0.3225 0.7642 0.5586
vn -0.6262 0.7614 -0.1680
vn -0.1695 0.7552 -0.6333
vn 0.1266 0.8725 -0.4719
vn 0.2446 0.8722 -0.4236
vn 0.4236 0.8722 -0.2446
vn 0.4719 0.8725 -0.1266
vn 0.4699 0.8737 0.1257
vn 0.3421 0.8753 0.3418
vn 0.2413 0.8761 0.4174
vn 0.0002 0.7626 0.6469
vn -0.1670 0.7636 0.6238
vn -0.3380 0.8784 0.3380
vn -0.4141 0.8783 0.2390
vn -0.4624 0.8780 0.1238
vn -0.4796 0.8775 -0.0002
vn -0.4174 0.8761 -0.2413
vn -0.4643 0.8768 -0.1246
vn -0.3418 0.8753 -0.3421
vn -0.2423 0.8745 -0.4202
vn 0.0002 0.8730 -0.4876
vn -0.1257 0.8737 -0.4699
vn 0.3460 0.8721 -0.3460
vn 0.4876 0.8730 -0.0002
vn 0.4202 0.8745 0.2423
vn 0.1246 0.8768 0.4643
vn -0.1238 0.8780 0.4624
vn -0.2390 0.8783 0.4141
vn 0.0001 0.9437 -0.3307
vn 0.1658 0.9434 -0.2871
vn 0.2345 0.9434 -0.2345
vn 0.2871 0.9434 -0.1658
vn 0.3307 0.9437 -0.0001
vn 0.2852 0.9443 0.1645
vn 0.2323 0.9446 0.2321
vn 0.1639 0.9449 0.2835
vn 0.0002 0.8775 0.4796
vn -0.2299 0.9457 0.2299
vn -0.3144 0.9455 0.0842
vn -0.3155 0.9451 -0.0847
vn -0.2835 0.9449 -0.1639
vn -0.1645 0.9443 -0.2852
vn -0.0853 0.9440 -0.3188
vn 0.0858 0.9436 -0.3199
vn 0.3199 0.9436 -0.0858
vn 0.3188 0.9440 0.0853
vn 0.0847 0.9451 0.3155
vn 0.0001 0.9454 0.3260
vn -0.0842 0.9455 0.3144
vn -0.1626 0.9457 0.2816
vn -0.2816 0.9457 0.1626
vn -0.3260 0.9454 -0.0001
vn -0.2321 0.9446 -0.2323
vn -0.0520 0.9796 -0.1943
vn 0.0001 0.9795 -0.2014
vn 0.1427 0.9794 -0.1427
vn 0.0522 0.9795 -0.1948
vn 0.1748 0.9794 -0.1009
vn 0.2014 0.9795 -0.0001
vn 0.1739 0.9796 0.1003
vn 0.1418 0.9797 0.1416
vn 0.0518 0.9799 0.1929
vn -0.1407 0.9800 0.1407
vn -0.1724 0.9800 0.0995
vn -0.1924 0.9800 0.0515
vn -0.1994 0.9799 -0.0001
vn -0.1929 0.9799 -0.0518
vn -0.1732 0.9798 -0.1001
vn -0.1416 0.9797 -0.1418
vn 0.1009 0.9794 -0.1748
vn 0.1948 0.9795 -0.0522
vn 0.1943 0.9796 0.0520
vn 0.1001 0.9798 0.1732
vn -0.0515 0.9800 0.1924
vn -0.0995 0.9800 0.1724
vn -0.1003 0.9796 -0.1739
vn -0.0000 0.9954 -0.0961
vn 0.0481 0.9954 -0.0833
vn 0.0833 0.9954 -0.0481
vn 0.0929 0.9954 -0.0249
vn 0.0961 0.9954 -0.0000
vn 0.0831 0.9954 0.0479
vn 0.0927 0.9954 0.0248
vn 0.0479 0.9954 0.0829
vn 0.0001 0.9799 0.1994
vn 0.0248 0.9954 0.0923
vn -0.0826 0.9954 0.0477
vn -0.0477 0.9954 0.0826
vn -0.0922 0.9954 0.0247
vn -0.0955 0.9954 -0.0000
vn -0.0923 0.9954 -0.0248
vn -0.0829 0.9954 -0.0479
vn -0.0677 0.9954 -0.0678
vn -0.0248 0.9954 -0.0927
vn 0.0249 0.9954 -0.0929
vn 0.0680 0.9954 -0.0680
vn 0.0678 0.9954 0.0677
vn -0.0247 0.9954 0.0922
vn -0.0675 0.9954 0.0675
vn -0.0479 0.9954 -0.0831
vn 0.0001 1.0000 -0.0001
vn -0.0000 0.9954 0.0955
vt 0.126667 0.190000
vt 0.206667 0.190000
vt 0.166667 0.310000
s 1
f 1/1/1 2/2/2 3/3/3
f 3/1/3 2/2/2 4/3/4
f 5/1/5 1/2/1 3/3/3
f 6/1/6 2/2/2 1/3/1
f 4/1/4 2/2/2 7/3/7
f 8/1/8 3/2/3 4/3/4
f 5/1/5 3/2/3 9/3/9
f 10/1/10 1/2/1 5/3/5
f 10/1/10 6/2/6 1/3/1
f 11/1/11 2/2/2 6/3/6
f 2/1/2 12/2/12 7/3/7
f 4/1/4 7/2/7 13/3/13
f 8/1/8 4/2/4 13/3/13
f 9/1/9 3/2/3 8/3/8
f 14/1/14 5/2/5 9/3/9
f 15/1/15 10/2/10 5/3/5
f 16/1/16 6/2/6 10/3/10
f 16/1/16 11/2/11 6/3/6
f 17/1/17 2/2/2 11/3/11
f 2/1/2 18/2/18 12/3/12
f 7/1/7 12/2/12 19/3/19
f 7/1/7 19/2/19 13/3/13
f 8/1/8 13/2/13 20/3/20
f 9/1/9 8/2/8 21/3/21
f 14/1/14 9/2/9 22/3/22
f 15/1/15 5/2/5 14/3/14
f 23/1/23 10/2/10 15/3/15
f 23/1/23 16/2/16 10/3/10
f 16/1/16 17/2/17 11/3/11
f 17/1/17 24/2/24 2/3/2
f 2/1/2 25/2/25 18/3/18
f 12/1/12 18/2/18 26/3/26
f 12/1/12 26/2/26 19/3/19
f 13/1/13 19/2/19 27/3/27
f 13/1/13 27/2/27 20/3/20
f 21/1/21 8/2/8 20/3/20
f 22/1/22 9/2/9 21/3/21
f 14/1/14 22/2/22 28/3/28
f 29/1/29 15/2/15 14/3/14
f 30/1/30 23/2/23 15/3/15
f 31/1/31 16/2/16 23/3/23
f 32/1/32 17/2/17 16/3/16
f 33/1/33 24/2/24 17/3/17
f 24/1/24 34/2/34 2/3/2
f 2/1/2 35/2/35 25/3/25
f 18/1/18 25/2/25 26/3/26
f 19/1/19 26/2/26 27/3/27
f 20/1/20 27/2/27 36/3/36
f 37/1/37 21/2/21 20/3/20
f 28/1/28 22/2/22 21/3/21
f 29/1/29 14/2/14 28/3/28
f 38/1/38 15/2/15 29/3/29
f 30/1/30 15/2/15 38/3/38
f 39/1/39 23/2/23 30/3/30
f 39/1/39 31/2/31 23/3/23
f 31/1/31 32/2/32 16/3/16
f 32/1/32 33/2/33 17/3/17
f 33/1/33 34/2/34 24/3/24
f 34/1/34 40/2/40 2/3/2
f 2/1/2 41/2/41 35/3/35
f 25/1/25 35/2/35 42/3/42
f 25/1/25 43/2/43 26/3/26
f 27/1/27 26/2/26 44/3/44
f 27/1/27 45/2/45 36/3/36
f 20/1/20 36/2/36 46/3/46
f 37/1/37 20/2/20 46/3/46
f 28/1/28 21/2/21 37/3/37
f 47/1/47 29/2/29 28/3/28
f 48/1/48 38/2/38 29/3/29
f 49/1/49 30/2/30 38/3/38
f 50/1/50 39/2/39 30/3/30
f 39/1/39 51/2/51 31/3/31
f 31/1/31 33/2/33 32/3/32
f 33/1/33 52/2/52 34/3/34
f 53/1/53 40/2/40 34/3/34
f 40/1/40 54/2/54 2/3/2
f 2/1/2 55/2/55 41/3/41
f 35/1/35 41/2/41 42/3/42
f 25/1/25 42/2/42 43/3/43
f 26/1/26 43/2/43 56/3/56
f 26/1/26 56/2/56 44/3/44
f 27/1/27 44/2/44 45/3/45
f 36/1/36 45/2/45 57/3/57
f 46/1/46 36/2/36 58/3/58
f 37/1/37 46/2/46 58/3/58
f 28/1/28 37/2/37 59/3/59
f 47/1/47 28/2/28 60/3/60
f 48/1/48 29/2/29 47/3/47
f 49/1/49 38/2/38 48/3/48
f 50/1/50 30/2/30 49/3/49
f 50/1/50 61/2/61 39/3/39
f 61/1/61 51/2/51 39/3/39
f 51/1/51 62/2/62 31/3/31
f 31/1/31 62/2/62 33/3/33
f 63/1/63 52/2/52 33/3/33
f 52/1/52 53/2/53 34/3/34
f 53/1/53 54/2/54 40/3/40
f 54/1/54 64/2/64 2/3/2
f 2/1/2 65/2/65 55/3/55
f 41/1/41 55/2/55 66/3/66
f 41/1/41 67/2/67 42/3/42
f 43/1/43 42/2/42 68/3/68
f 43/1/43 68/2/68 56/3/56
f 44/1/44 56/2/56 45/3/45
f 45/1/45 69/2/69 57/3/57
f 36/1/36 57/2/57 70/3/70
f 58/1/58 36/2/36 70/3/70
f 59/1/59 37/2/37 58/3/58
f 60/1/60 28/2/28 59/3/59
f 47/1/47 60/2/60 71/3/71
f 48/1/48 47/2/47 72/3/72
f 73/1/73 49/2/49 48/3/48
f 74/1/74 50/2/50 49/3/49
f 75/1/75 61/2/61 50/3/50
f 61/1/61 76/2/76 51/3/51
f 51/1/51 76/2/76 62/3/62
f 62/1/62 63/2/63 33/3/33
f 63/1/63 77/2/77 52/3/52
f 77/1/77 53/2/53 52/3/52
f 53/1/53 78/2/78 54/3/54
f 79/1/79 64/2/64 54/3/54
f 64/1/64 80/2/80 2/3/2
f 2/1/2 81/2/81 65/3/65
f 65/1/65 82/2/82 55/3/55
f 55/1/55 82/2/82 66/3/66
f 41/1/41 66/2/66 67/3/67
f 42/1/42 67/2/67 83/3/83
f 42/1/42 83/2/83 68/3/68
f 56/1/56 68/2/68 84/3/84
f 45/1/45 56/2/56 85/3/85
f 45/1/45 85/2/85 69/3/69
f 57/1/57 69/2/69 86/3/86
f 70/1/70 57/2/57 87/3/87
f 58/1/58 70/2/70 88/3/88
f 89/1/89 59/2/59 58/3/58
f 71/1/71 60/2/60 59/3/59
f 72/1/72 47/2/47 71/3/71
f 90/1/90 48/2/48 72/3/72
f 73/1/73 48/2/48 90/3/90
f 74/1/74 49/2/49 73/3/73
f 74/1/74 75/2/75 50/3/50
f 75/1/75 91/2/91 61/3/61
f 61/1/61 92/2/92 76/3/76
f 76/1/76 63/2/63 62/3/62
f 76/1/76 77/2/77 63/3/63
f 77/1/77 78/2/78 53/3/53
f 78/1/78 79/2/79 54/3/54
f 79/1/79 93/2/93 64/3/64
f 64/1/64 93/2/93 80/3/80
f 2/1/2 80/2/80 94/3/94
f 2/1/2 95/2/95 81/3/81
f 81/1/81 82/2/82 65/3/65
f 82/1/82 96/2/96 66/3/66
f 67/1/67 66/2/66 83/3/83
f 68/1/68 83/2/83 97/3/97
f 68/1/68 97/2/97 84/3/84
f 56/1/56 84/2/84 85/3/85
f 85/1/85 98/2/98 69/3/69
f 69/1/69 99/2/99 86/3/86
f 57/1/57 86/2/86 87/3/87
f 70/1/70 87/2/87 88/3/88
f 58/1/58 88/2/88 100/3/100
f 89/1/89 58/2/58 100/3/100
f 71/1/71 59/2/59 89/3/89
f 101/1/101 72/2/72 71/3/71
f 102/1/102 90/2/90 72/3/72
f 103/1/103 73/2/73 90/3/90
f 104/1/104 74/2/74 73/3/73
f 105/1/105 75/2/75 74/3/74
f 105/1/105 91/2/91 75/3/75
f 91/1/91 92/2/92 61/3/61
f 92/1/92 106/2/106 76/3/76
f 76/1/76 107/2/107 77/3/77
f 77/1/77 108/2/108 78/3/78
f 78/1/78 109/2/109 79/3/79
f 109/1/109 93/2/93 79/3/79
f 80/1/80 93/2/93 94/3/94
f 2/1/2 94/2/94 110/3/110
f 2/1/2 110/2/110 95/3/95
f 95/1/95 111/2/111 81/3/81
f 81/1/81 112/2/112 82/3/82
f 112/1/112 96/2/96 82/3/82
f 66/1/66 96/2/96 113/3/113
f 66/1/66 113/2/113 83/3/83
f 83/1/83 114/2/114 97/3/97
f 84/1/84 97/2/97 115/3/115
f 85/1/85 84/2/84 98/3/98
f 69/1/69 98/2/98 99/3/99
f 86/1/86 99/2/99 116/3/116
f 87/1/87 86/2/86 117/3/117
f 88/1/88 87/2/87 118/3/118
f 100/1/100 88/2/88 119/3/119
f 120/1/120 89/2/89 100/3/100
f 71/1/71 89/2/89 120/3/120
f 101/1/101 71/2/71 121/3/121
f 102/1/102 72/2/72 101/3/101
f 103/1/103 90/2/90 102/3/102
f 104/1/104 73/2/73 103/3/103
f 104/1/104 105/2/105 74/3/74
f 105/1/105 122/2/122 91/3/91
f 91/1/91 123/2/123 92/3/92
f 92/1/92 123/2/123 106/3/106
f 76/1/76 106/2/106 107/3/107
f 107/1/107 124/2/124 77/3/77
f 77/1/77 124/2/124 108/3/108
f 108/1/108 109/2/109 78/3/78
f 109/1/109 125/2/125 93/3/93
f 93/1/93 126/2/126 94/3/94
f 94/1/94 126/2/126 110/3/110
f 110/1/110 127/2/127 95/3/95
f 95/1/95 127/2/127 111/3/111
f 81/1/81 111/2/111 112/3/112
f 112/1/112 128/2/128 96/3/96
f 96/1/96 129/2/129 113/3/113
f 83/1/83 113/2/113 114/3/114
f 97/1/97 114/2/114 130/3/130
f 97/1/97 130/2/130 115/3/115
f 84/1/84 115/2/115 98/3/98
f 98/1/98 131/2/131 99/3/99
f 99/1/99 132/2/132 116/3/116
f 86/1/86 116/2/116 117/3/117
f 87/1/87 117/2/117 118/3/118
f 88/1/88 118/2/118 119/3/119
f 100/1/100 119/2/119 133/3/133
f 120/1/120 100/2/100 133/3/133
f 121/1/121 71/2/71 120/3/120
f 134/1/134 101/2/101 121/3/121
f 101/1/101 135/2/135 102/3/102
f 102/1/102 136/2/136 103/3/103
f 103/1/103 137/2/137 104/3/104
f 104/1/104 138/2/138 105/3/105
f 105/1/105 139/2/139 122/3/122
f 122/1/122 140/2/140 91/3/91
f 91/1/91 140/2/140 123/3/123
f 123/1/123 141/2/141 106/3/106
f 106/1/106 124/2/124 107/3/107
f 124/1/124 109/2/109 108/3/108
f 142/1/142 125/2/125 109/3/109
f 93/1/93 125/2/125 143/3/143
f 93/1/93 143/2/143 126/3/126
f 110/1/110 126/2/126 127/3/127
f 127/1/127 144/2/144 111/3/111
f 111/1/111 145/2/145 112/3/112
f 112/1/112 145/2/145 128/3/128
f 128/1/128 129/2/129 96/3/96
f 113/1/113 129/2/129 114/3/114
f 129/1/129 130/2/130 114/3/114
f 115/1/115 130/2/130 131/3/131
f 98/1/98 115/2/115 131/3/131
f 99/1/99 131/2/131 132/3/132
f 116/1/116 132/2/132 146/3/146
f 117/1/117 116/2/116 147/3/147
f 118/1/118 117/2/117 147/3/147
f 148/1/148 119/2/119 118/3/118
f 149/1/149 133/2/133 119/3/119
f 150/1/150 120/2/120 133/3/133
f 134/1/134 121/2/121 120/3/120
f 151/1/151 101/2/101 134/3/134
f 151/1/151 135/2/135 101/3/101
f 135/1/135 136/2/136 102/3/102
f 136/1/136 137/2/137 103/3/103
f 104/1/104 137/2/137 138/3/138
f 105/1/105 138/2/138 139/3/139
f 139/1/139 152/2/152 122/3/122
f 122/1/122 152/2/152 140/3/140
f 140/1/140 153/2/153 123/3/123
f 106/1/106 141/2/141 124/3/124
f 123/1/123 153/2/153 141/3/141
f 124/1/124 142/2/142 109/3/109
f 142/1/142 154/2/154 125/3/125
f 125/1/125 154/2/154 143/3/143
f 126/1/126 143/2/143 144/3/144
f 126/1/126 144/2/144 127/3/127
f 111/1/111 144/2/144 145/3/145
f 145/1/145 155/2/155 128/3/128
f 128/1/128 156/2/156 129/3/129
f 129/1/129 157/2/157 130/3/130
f 130/1/130 158/2/158 131/3/131
f 131/1/131 159/2/159 132/3/132
f 146/1/146 132/2/132 160/3/160
f 161/1/161 116/2/116 146/3/146
f 147/1/147 116/2/116 161/3/161
f 118/1/118 147/2/147 148/3/148
f 149/1/149 119/2/119 148/3/148
f 162/1/162 133/2/133 149/3/149
f 150/1/150 133/2/133 162/3/162
f 134/1/134 120/2/120 150/3/150
f 163/1/163 151/2/151 134/3/134
f 164/1/164 135/2/135 151/3/151
f 135/1/135 165/2/165 136/3/136
f 136/1/136 166/2/166 137/3/137
f 137/1/137 167/2/167 138/3/138
f 138/1/138 168/2/168 139/3/139
f 139/1/139 168/2/168 152/3/152
f 152/1/152 169/2/169 140/3/140
f 140/1/140 169/2/169 153/3/153
f 141/1/141 142/2/142 124/3/124
f 153/1/153 170/2/170 141/3/141
f 142/1/142 171/2/171 154/3/154
f 154/1/154 172/2/172 143/3/143
f 143/1/143 173/2/173 144/3/144
f 144/1/144 173/2/173 145/3/145
f 173/1/173 155/2/155 145/3/145
f 128/1/128 155/2/155 156/3/156
f 156/1/156 157/2/157 129/3/129
f 157/1/157 174/2/174 130/3/130
f 130/1/130 174/2/174 158/3/158
f 131/1/131 158/2/158 159/3/159
f 132/1/132 159/2/159 160/3/160
f 146/1/146 160/2/160 175/3/175
f 176/1/176 161/2/161 146/3/146
f 177/1/177 147/2/147 161/3/161
f 178/1/178 148/2/148 147/3/147
f 179/1/179 149/2/149 148/3/148
f 179/1/179 162/2/162 149/3/149
f 180/1/180 150/2/150 162/3/162
f 163/1/163 134/2/134 150/3/150
f 164/1/164 151/2/151 163/3/163
f 164/1/164 181/2/181 135/3/135
f 181/1/181 165/2/165 135/3/135
f 165/1/165 166/2/166 136/3/136
f 137/1/137 166/2/166 167/3/167
f 138/1/138 167/2/167 168/3/168
f 168/1/168 182/2/182 152/3/152
f 152/1/152 183/2/183 169/3/169
f 169/1/169 184/2/184 153/3/153
f 141/1/141 170/2/170 142/3/142
f 153/1/153 184/2/184 170/3/170
f 154/1/154 171/2/171 172/3/172
f 170/1/170 171/2/171 142/3/142
f 143/1/143 172/2/172 173/3/173
f 173/1/173 185/2/185 155/3/155
f 155/1/155 186/2/186 156/3/156
f 156/1/156 186/2/186 157/3/157
f 157/1/157 187/2/187 174/3/174
f 174/1/174 188/2/188 158/3/158
f 158/1/158 188/2/188 159/3/159
f 159/1/159 189/2/189 160/3/160
f 160/1/160 189/2/189 175/3/175
f 190/1/190 146/2/146 175/3/175
f 177/1/177 161/2/161 176/3/176
f 176/1/176 146/2/146 190/3/190
f 178/1/178 147/2/147 177/3/177
f 179/1/179 148/2/148 178/3/178
f 191/1/191 162/2/162 179/3/179
f 163/1/163 150/2/150 180/3/180
f 180/1/180 162/2/162 191/3/191
f 192/1/192 164/2/164 163/3/163
f 164/1/164 193/2/193 181/3/181
f 181/1/181 194/2/194 165/3/165
f 165/1/165 195/2/195 166/3/166
f 166/1/166 195/2/195 167/3/167
f 167/1/167 196/2/196 168/3/168
f 168/1/168 197/2/197 182/3/182
f 198/1/198 152/2/152 182/3/182
f 198/1/198 183/2/183 152/3/152
f 183/1/183 199/2/199 169/3/169
f 169/1/169 199/2/199 184/3/184
f 184/1/184 171/2/171 170/3/170
f 171/1/171 200/2/200 172/3/172
f 172/1/172 200/2/200 173/3/173
f 200/1/200 185/2/185 173/3/173
f 185/1/185 201/2/201 155/3/155
f 155/1/155 201/2/201 186/3/186
f 186/1/186 187/2/187 157/3/157
f 187/1/187 188/2/188 174/3/174
f 159/1/159 188/2/188 189/3/189
f 175/1/175 189/2/189 202/3/202
f 190/1/190 175/2/175 203/3/203
f 177/1/177 176/2/176 204/3/204
f 204/1/204 176/2/176 190/3/190
f 205/1/205 178/2/178 177/3/177
f 206/1/206 179/2/179 178/3/178
f 207/1/207 191/2/191 179/3/179
f 208/1/208 163/2/163 180/3/180
f 209/1/209 180/2/180 191/3/191
f 192/1/192 163/2/163 210/3/210
f 192/1/192 193/2/193 164/3/164
f 193/1/193 194/2/194 181/3/181
f 194/1/194 195/2/195 165/3/165
f 195/1/195 196/2/196 167/3/167
f 196/1/196 211/2/211 168/3/168
f 168/1/168 211/2/211 197/3/197
f 197/1/197 198/2/198 182/3/182
f 198/1/198 212/2/212 183/3/183
f 212/1/212 199/2/199 183/3/183
f 199/1/199 213/2/213 184/3/184
f 184/1/184 214/2/214 171/3/171
f 171/1/171 214/2/214 200/3/200
f 200/1/200 215/2/215 185/3/185
f 185/1/185 216/2/216 201/3/201
f 201/1/201 217/2/217 186/3/186
f 217/1/217 187/2/187 186/3/186
f 187/1/187 218/2/218 188/3/188
f 188/1/188 219/2/219 189/3/189
f 189/1/189 219/2/219 202/3/202
f 175/1/175 202/2/202 220/3/220
f 175/1/175 220/2/220 203/3/203
f 221/1/221 190/2/190 203/3/203
f 205/1/205 177/2/177 204/3/204
f 204/1/204 190/2/190 221/3/221
f 206/1/206 178/2/178 205/3/205
f 207/1/207 179/2/179 206/3/206
f 209/1/209 191/2/191 207/3/207
f 208/1/208 180/2/180 209/3/209
f 210/1/210 163/2/163 208/3/208
f 222/1/222 192/2/192 210/3/210
f 192/1/192 222/2/222 193/3/193
f 193/1/193 223/2/223 194/3/194
f 194/1/194 224/2/224 195/3/195
f 195/1/195 224/2/224 196/3/196
f 196/1/196 225/2/225 211/3/211
f 211/1/211 225/2/225 197/3/197
f 226/1/226 198/2/198 197/3/197
f 227/1/227 212/2/212 198/3/198
f 228/1/228 199/2/199 212/3/212
f 228/1/228 213/2/213 199/3/199
f 184/1/184 213/2/213 214/3/214
f 214/1/214 215/2/215 200/3/200
f 215/1/215 216/2/216 185/3/185
f 216/1/216 217/2/217 201/3/201
f 217/1/217 229/2/229 187/3/187
f 229/1/229 218/2/218 187/3/187
f 188/1/188 218/2/218 219/3/219
f 202/1/202 219/2/219 230/3/230
f 202/1/202 231/2/231 220/3/220
f 203/1/203 220/2/220 232/3/232
f 221/1/221 203/2/203 232/3/232
f 205/1/205 204/2/204 233/3/233
f 204/1/204 221/2/221 234/3/234
f 233/1/233 206/2/206 205/3/205
f 235/1/235 207/2/207 206/3/206
f 236/1/236 209/2/209 207/3/207
f 237/1/237 208/2/208 209/3/209
f 238/1/238 210/2/210 208/3/208
f 222/1/222 210/2/210 239/3/239
f 222/1/222 240/2/240 193/3/193
f 193/1/193 240/2/240 223/3/223
f 194/1/194 223/2/223 224/3/224
f 224/1/224 241/2/241 196/3/196
f 196/1/196 241/2/241 225/3/225
f 225/1/225 242/2/242 197/3/197
f 242/1/242 226/2/226 197/3/197
f 226/1/226 227/2/227 198/3/198
f 227/1/227 228/2/228 212/3/212
f 243/1/243 213/2/213 228/3/228
f 214/1/214 213/2/213 215/3/215
f 215/1/215 244/2/244 216/3/216
f 216/1/216 245/2/245 217/3/217
f 245/1/245 229/2/229 217/3/217
f 229/1/229 246/2/246 218/3/218
f 246/1/246 219/2/219 218/3/218
f 219/1/219 246/2/246 230/3/230
f 202/1/202 230/2/230 231/3/231
f 220/1/220 231/2/231 247/3/247
f 232/1/232 220/2/220 248/3/248
f 221/1/221 232/2/232 234/3/234
f 233/1/233 204/2/204 249/3/249
f 204/1/204 234/2/234 249/3/249
f 235/1/235 206/2/206 233/3/233
f 236/1/236 207/2/207 235/3/235
f 237/1/237 209/2/209 236/3/236
f 238/1/238 208/2/208 237/3/237
f 239/1/239 210/2/210 238/3/238
f 250/1/250 222/2/222 239/3/239
f 222/1/222 251/2/251 240/3/240
f 240/1/240 252/2/252 223/3/223
f 223/1/223 252/2/252 224/3/224
f 224/1/224 253/2/253 241/3/241
f 241/1/241 253/2/253 225/3/225
f 225/1/225 254/2/254 242/3/242
f 255/1/255 226/2/226 242/3/242
f 256/1/256 227/2/227 226/3/226
f 257/1/257 228/2/228 227/3/227
f 243/1/243 244/2/244 213/3/213
f 257/1/257 243/2/243 228/3/228
f 213/1/213 244/2/244 215/3/215
f 244/1/244 245/2/245 216/3/216
f 245/1/245 246/2/246 229/3/229
f 230/1/230 246/2/246 258/3/258
f 230/1/230 259/2/259 231/3/231
f 231/1/231 260/2/260 247/3/247
f 220/1/220 247/2/247 248/3/248
f 232/1/232 248/2/248 261/3/261
f 234/1/234 232/2/232 262/3/262
f 233/1/233 249/2/249 263/3/263
f 249/1/249 234/2/234 264/3/264
f 265/1/265 235/2/235 233/3/233
f 265/1/265 236/2/236 235/3/235
f 266/1/266 237/2/237 236/3/236
f 267/1/267 238/2/238 237/3/237
f 267/1/267 239/2/239 238/3/238
f 250/1/250 239/2/239 268/3/268
f 222/1/222 250/2/250 251/3/251
f 240/1/240 251/2/251 252/3/252
f 252/1/252 269/2/269 224/3/224
f 224/1/224 269/2/269 253/3/253
f 253/1/253 270/2/270 225/3/225
f 270/1/270 254/2/254 225/3/225
f 254/1/254 255/2/255 242/3/242
f 255/1/255 256/2/256 226/3/226
f 271/1/271 227/2/227 256/3/256
f 271/1/271 257/2/257 227/3/227
f 243/1/243 245/2/245 244/3/244
f 272/1/272 243/2/243 257/3/257
f 245/1/245 273/2/273 246/3/246
f 258/1/258 246/2/246 273/3/273
f 230/1/230 258/2/258 259/3/259
f 231/1/231 259/2/259 260/3/260
f 274/1/274 247/2/247 260/3/260
f 248/1/248 247/2/247 261/3/261
f 232/1/232 261/2/261 262/3/262
f 234/1/234 262/2/262 264/3/264
f 249/1/249 264/2/264 263/3/263
f 233/1/233 263/2/263 275/3/275
f 265/1/265 233/2/233 275/3/275
f 276/1/276 236/2/236 265/3/265
f 267/1/267 237/2/237 266/3/266
f 266/1/266 236/2/236 276/3/276
f 268/1/268 239/2/239 267/3/267
f 277/1/277 250/2/250 268/3/268
f 250/1/250 278/2/278 251/3/251
f 251/1/251 279/2/279 252/3/252
f 252/1/252 280/2/280 269/3/269
f 269/1/269 280/2/280 253/3/253
f 253/1/253 281/2/281 270/3/270
f 270/1/270 282/2/282 254/3/254
f 283/1/283 255/2/255 254/3/254
f 284/1/284 256/2/256 255/3/255
f 284/1/284 271/2/271 256/3/256
f 285/1/285 257/2/257 271/3/271
f 243/1/243 273/2/273 245/3/245
f 285/1/285 272/2/272 257/3/257
f 272/1/272 286/2/286 243/3/243
f 258/1/258 273/2/273 286/3/286
f 259/1/259 258/2/258 287/3/287
f 260/1/260 259/2/259 288/3/288
f 274/1/274 260/2/260 289/3/289
f 261/1/261 247/2/247 274/3/274
f 262/1/262 261/2/261 290/3/290
f 264/1/264 262/2/262 290/3/290
f 263/1/263 264/2/264 291/3/291
f 275/1/275 263/2/263 291/3/291
f 292/1/292 265/2/265 275/3/275
f 292/1/292 276/2/276 265/3/265
f 293/1/293 267/2/267 266/3/266
f 294/1/294 266/2/266 276/3/276
f 293/1/293 268/2/268 267/3/267
f 277/1/277 268/2/268 295/3/295
f 250/1/250 277/2/277 278/3/278
f 251/1/251 278/2/278 279/3/279
f 252/1/252 279/2/279 280/3/280
f 280/1/280 296/2/296 253/3/253
f 296/1/296 281/2/281 253/3/253
f 281/1/281 282/2/282 270/3/270
f 282/1/282 283/2/283 254/3/254
f 297/1/297 255/2/255 283/3/283
f 297/1/297 284/2/284 255/3/255
f 298/1/298 271/2/271 284/3/284
f 298/1/298 285/2/285 271/3/271
f 286/1/286 273/2/273 243/3/243
f 285/1/285 286/2/286 272/3/272
f 287/1/287 258/2/258 286/3/286
f 288/1/288 259/2/259 287/3/287
f 299/1/299 260/2/260 288/3/288
f 289/1/289 260/2/260 299/3/299
f 300/1/300 274/2/274 289/3/289
f 261/1/261 274/2/274 300/3/300
f 290/1/290 261/2/261 301/3/301
f 264/1/264 290/2/290 302/3/302
f 291/1/291 264/2/264 302/3/302
f 275/1/275 291/2/291 303/3/303
f 292/1/292 275/2/275 303/3/303
f 294/1/294 276/2/276 292/3/292
f 293/1/293 266/2/266 304/3/304
f 304/1/304 266/2/266 294/3/294
f 295/1/295 268/2/268 293/3/293
f 305/1/305 277/2/277 295/3/295
f 277/1/277 305/2/305 278/3/278
f 278/1/278 306/2/306 279/3/279
f 279/1/279 307/2/307 280/3/280
f 280/1/280 308/2/308 296/3/296
f 296/1/296 309/2/309 281/3/281
f 281/1/281 310/2/310 282/3/282
f 311/1/311 283/2/283 282/3/282
f 311/1/311 297/2/297 283/3/283
f 297/1/297 298/2/298 284/3/284
f 312/1/312 285/2/285 298/3/298
f 285/1/285 287/2/287 286/3/286
f 312/1/312 288/2/288 287/3/287
f 313/1/313 299/2/299 288/3/288
f 314/1/314 289/2/289 299/3/299
f 300/1/300 289/2/289 315/3/315
f 301/1/301 261/2/261 300/3/300
f 290/1/290 301/2/301 316/3/316
f 302/1/302 290/2/290 317/3/317
f 291/1/291 302/2/302 318/3/318
f 303/1/303 291/2/291 319/3/319
f 319/1/319 292/2/292 303/3/303
f 320/1/320 294/2/294 292/3/292
f 321/1/321 293/2/293 304/3/304
f 320/1/320 304/2/304 294/3/294
f 322/1/322 295/2/295 293/3/293
f 305/1/305 295/2/295 323/3/323
f 305/1/305 324/2/324 278/3/278
f 278/1/278 324/2/324 306/3/306
f 279/1/279 306/2/306 307/3/307
f 280/1/280 307/2/307 308/3/308
f 308/1/308 309/2/309 296/3/296
f 309/1/309 310/2/310 281/3/281
f 325/1/325 282/2/282 310/3/310
f 325/1/325 311/2/311 282/3/282
f 326/1/326 297/2/297 311/3/311
f 327/1/327 298/2/298 297/3/297
f 327/1/327 312/2/312 298/3/298
f 312/1/312 287/2/287 285/3/285
f 313/1/313 288/2/288 312/3/312
f 328/1/328 299/2/299 313/3/313
f 314/1/314 299/2/299 328/3/328
f 315/1/315 289/2/289 314/3/314
f 329/1/329 300/2/300 315/3/315
f 301/1/301 300/2/300 329/3/329
f 316/1/316 301/2/301 329/3/329
f 290/1/290 316/2/316 317/3/317
f 302/1/302 317/2/317 318/3/318
f 291/1/291 318/2/318 330/3/330
f 319/1/319 291/2/291 330/3/330
f 331/1/331 292/2/292 319/3/319
f 320/1/320 292/2/292 331/3/331
f 321/1/321 304/2/304 320/3/320
f 322/1/322 293/2/293 321/3/321
f 323/1/323 295/2/295 322/3/322
f 332/1/332 305/2/305 323/3/323
f 305/1/305 333/2/333 324/3/324
f 324/1/324 334/2/334 306/3/306
f 306/1/306 335/2/335 307/3/307
f 307/1/307 336/2/336 308/3/308
f 308/1/308 337/2/337 309/3/309
f 309/1/309 338/2/338 310/3/310
f 338/1/338 325/2/325 310/3/310
f 325/1/325 326/2/326 311/3/311
f 339/1/339 297/2/297 326/3/326
f 339/1/339 327/2/327 297/3/297
f 313/1/313 312/2/312 327/3/327
f 328/1/328 313/2/313 327/3/327
f 340/1/340 314/2/314 328/3/328
f 341/1/341 315/2/315 314/3/314
f 329/1/329 315/2/315 342/3/342
f 316/1/316 329/2/329 343/3/343
f 317/1/317 316/2/316 344/3/344
f 318/1/318 317/2/317 345/3/345
f 330/1/330 318/2/318 345/3/345
f 319/1/319 330/2/330 346/3/346
f 346/1/346 331/2/331 319/3/319
f 347/1/347 320/2/320 331/3/331
f 348/1/348 321/2/321 320/3/320
f 348/1/348 322/2/322 321/3/321
f 349/1/349 323/2/323 322/3/322
f 332/1/332 323/2/323 350/3/350
f 305/1/305 332/2/332 333/3/333
f 324/1/324 333/2/333 334/3/334
f 306/1/306 334/2/334 335/3/335
f 307/1/307 335/2/335 336/3/336
f 336/1/336 337/2/337 308/3/308
f 337/1/337 338/2/338 309/3/309
f 351/1/351 325/2/325 338/3/338
f 352/1/352 326/2/326 325/3/325
f 352/1/352 339/2/339 326/3/326
f 328/1/328 327/2/327 339/3/339
f 340/1/340 328/2/328 353/3/353
f 341/1/341 314/2/314 340/3/340
f 342/1/342 315/2/315 341/3/341
f 329/1/329 342/2/342 354/3/354
f 343/1/343 329/2/329 354/3/354
f 344/1/344 316/2/316 343/3/343
f 317/1/317 344/2/344 355/3/355
f 345/1/345 317/2/317 355/3/355
f 330/1/330 345/2/345 356/3/356
f 346/1/346 330/2/330 356/3/356
f 347/1/347 331/2/331 346/3/346
f 357/1/357 320/2/320 347/3/347
f 348/1/348 320/2/320 357/3/357
f 349/1/349 322/2/322 348/3/348
f 350/1/350 323/2/323 349/3/349
f 358/1/358 332/2/332 350/3/350
f 332/1/332 359/2/359 333/3/333
f 333/1/333 360/2/360 334/3/334
f 334/1/334 360/2/360 335/3/335
f 361/1/361 336/2/336 335/3/335
f 362/1/362 337/2/337 336/3/336
f 363/1/363 338/2/338 337/3/337
f 364/1/364 351/2/351 338/3/338
f 351/1/351 352/2/352 325/3/325
f 353/1/353 339/2/339 352/3/352
f 353/1/353 328/2/328 339/3/339
f 365/1/365 340/2/340 353/3/353
f 365/1/365 341/2/341 340/3/340
f 354/1/354 342/2/342 341/3/341
f 366/1/366 343/2/343 354/3/354
f 344/1/344 343/2/343 366/3/366
f 367/1/367 355/2/355 344/3/344
f 345/1/345 355/2/355 367/3/367
f 356/1/356 345/2/345 368/3/368
f 346/1/346 356/2/356 368/3/368
f 369/1/369 347/2/347 346/3/346
f 369/1/369 357/2/357 347/3/347
f 370/1/370 348/2/348 357/3/357
f 371/1/371 349/2/349 348/3/348
f 358/1/358 350/2/350 349/3/349
f 359/1/359 332/2/332 358/3/358
f 359/1/359 372/2/372 333/3/333
f 333/1/333 372/2/372 360/3/360
f 360/1/360 361/2/361 335/3/335
f 361/1/361 362/2/362 336/3/336
f 362/1/362 363/2/363 337/3/337
f 363/1/363 373/2/373 338/3/338
f 364/1/364 338/2/338 373/3/373
f 374/1/374 351/2/351 364/3/364
f 375/1/375 352/2/352 351/3/351
f 376/1/376 353/2/353 352/3/352
f 365/1/365 353/2/353 376/3/376
f 377/1/377 341/2/341 365/3/365
f 354/1/354 341/2/341 377/3/377
f 366/1/366 354/2/354 378/3/378
f 379/1/379 344/2/344 366/3/366
f 367/1/367 344/2/344 379/3/379
f 345/1/345 367/2/367 380/3/380
f 368/1/368 345/2/345 380/3/380
f 346/1/346 368/2/368 381/3/381
f 369/1/369 346/2/346 381/3/381
f 370/1/370 357/2/357 369/3/369
f 382/1/382 348/2/348 370/3/370
f 358/1/358 349/2/349 371/3/371
f 371/1/371 348/2/348 382/3/382
f 383/1/383 359/2/359 358/3/358
f 359/1/359 383/2/383 372/3/372
f 372/1/372 384/2/384 360/3/360
f 360/1/360 385/2/385 361/3/361
f 361/1/361 386/2/386 362/3/362
f 386/1/386 363/2/363 362/3/362
f 363/1/363 387/2/387 373/3/373
f 388/1/388 364/2/364 373/3/373
f 389/1/389 374/2/374 364/3/364
f 374/1/374 375/2/375 351/3/351
f 376/1/376 352/2/352 375/3/375
f 390/1/390 365/2/365 376/3/376
f 391/1/391 377/2/377 365/3/365
f 378/1/378 354/2/354 377/3/377
f 366/1/366 378/2/378 392/3/392
f 393/1/393 379/2/379 366/3/366
f 394/1/394 367/2/367 379/3/379
f 380/1/380 367/2/367 394/3/394
f 368/1/368 380/2/380 395/3/395
f 381/1/381 368/2/368 396/3/396
f 396/1/396 369/2/369 381/3/381
f 397/1/397 370/2/370 369/3/369
f 398/1/398 382/2/382 370/3/370
f 399/1/399 358/2/358 371/3/371
f 400/1/400 371/2/371 382/3/382
f 383/1/383 358/2/358 401/3/401
f 383/1/383 402/2/402 372/3/372
f 372/1/372 402/2/402 384/3/384
f 360/1/360 384/2/384 385/3/385
f 385/1/385 386/2/386 361/3/361
f 386/1/386 403/2/403 363/3/363
f 403/1/403 387/2/387 363/3/363
f 388/1/388 373/2/373 387/3/387
f 389/1/389 364/2/364 388/3/388
f 389/1/389 390/2/390 374/3/374
f 390/1/390 375/2/375 374/3/374
f 390/1/390 376/2/376 375/3/375
f 391/1/391 365/2/365 390/3/390
f 404/1/404 377/2/377 391/3/391
f 378/1/378 377/2/377 404/3/404
f 392/1/392 378/2/378 404/3/404
f 405/1/405 366/2/366 392/3/392
f 394/1/394 379/2/379 393/3/393
f 393/1/393 366/2/366 405/3/405
f 380/1/380 394/2/394 395/3/395
f 368/1/368 395/2/395 406/3/406
f 396/1/396 368/2/368 406/3/406
f 397/1/397 369/2/369 396/3/396
f 398/1/398 370/2/370 397/3/397
f 400/1/400 382/2/382 398/3/398
f 399/1/399 371/2/371 400/3/400
f 401/1/401 358/2/358 399/3/399
f 407/1/407 383/2/383 401/3/401
f 383/1/383 407/2/407 402/3/402
f 402/1/402 408/2/408 384/3/384
f 384/1/384 409/2/409 385/3/385
f 409/1/409 386/2/386 385/3/385
f 386/1/386 410/2/410 403/3/403
f 403/1/403 411/2/411 387/3/387
f 411/1/411 388/2/388 387/3/387
f 412/1/412 389/2/389 388/3/388
f 413/1/413 390/2/390 389/3/389
f 413/1/413 391/2/391 390/3/390
f 414/1/414 404/2/404 391/3/391
f 392/1/392 404/2/404 415/3/415
f 405/1/405 392/2/392 416/3/416
f 394/1/394 393/2/393 417/3/417
f 393/1/393 405/2/405 418/3/418
f 395/1/395 394/2/394 419/3/419
f 406/1/406 395/2/395 419/3/419
f 396/1/396 406/2/406 420/3/420
f 420/1/420 397/2/397 396/3/396
f 421/1/421 398/2/398 397/3/397
f 422/1/422 400/2/400 398/3/398
f 423/1/423 399/2/399 400/3/400
f 424/1/424 401/2/401 399/3/399
f 407/1/407 401/2/401 425/3/425
f 407/1/407 408/2/408 402/3/402
f 408/1/408 426/2/426 384/3/384
f 384/1/384 426/2/426 409/3/409
f 409/1/409 427/2/427 386/3/386
f 410/1/410 411/2/411 403/3/403
f 427/1/427 410/2/410 386/3/386
f 412/1/412 388/2/388 411/3/411
f 428/1/428 389/2/389 412/3/412
f 428/1/428 413/2/413 389/3/389
f 414/1/414 391/2/391 413/3/413
f 415/1/415 404/2/404 414/3/414
f 429/1/429 392/2/392 415/3/415
f 416/1/416 392/2/392 429/3/429
f 418/1/418 405/2/405 416/3/416
f 417/1/417 393/2/393 418/3/418
f 430/1/430 394/2/394 417/3/417
f 419/1/419 394/2/394 430/3/430
f 406/1/406 419/2/419 431/3/431
f 420/1/420 406/2/406 431/3/431
f 421/1/421 397/2/397 420/3/420
f 422/1/422 398/2/398 421/3/421
f 423/1/423 400/2/400 422/3/422
f 424/1/424 399/2/399 423/3/423
f 425/1/425 401/2/401 424/3/424
f 407/1/407 425/2/425 432/3/432
f 408/1/408 407/2/407 433/3/433
f 408/1/408 433/2/433 426/3/426
f 426/1/426 434/2/434 409/3/409
f 409/1/409 435/2/435 427/3/427
f 410/1/410 436/2/436 411/3/411
f 427/1/427 435/2/435 410/3/410
f 411/1/411 437/2/437 412/3/412
f 412/1/412 437/2/437 428/3/428
f 438/1/438 413/2/413 428/3/428
f 439/1/439 414/2/414 413/3/413
f 429/1/429 415/2/415 414/3/414
f 429/1/429 440/2/440 416/3/416
f 416/1/416 441/2/441 418/3/418
f 441/1/441 417/2/417 418/3/418
f 430/1/430 417/2/417 442/3/442
f 419/1/419 430/2/430 443/3/443
f 444/1/444 431/2/431 419/3/419
f 445/1/445 420/2/420 431/3/431
f 421/1/421 420/2/420 445/3/445
f 422/1/422 421/2/421 446/3/446
f 447/1/447 423/2/423 422/3/422
f 448/1/448 424/2/424 423/3/423
f 448/1/448 425/2/425 424/3/424
f 432/1/432 425/2/425 448/3/448
f 407/1/407 432/2/432 449/3/449
f 433/1/433 407/2/407 449/3/449
f 433/1/433 434/2/434 426/3/426
f 434/1/434 450/2/450 409/3/409
f 450/1/450 435/2/435 409/3/409
f 435/1/435 436/2/436 410/3/410
f 436/1/436 451/2/451 411/3/411
f 411/1/411 451/2/451 437/3/437
f 437/1/437 452/2/452 428/3/428
f 452/1/452 438/2/438 428/3/428
f 439/1/439 413/2/413 438/3/438
f 429/1/429 414/2/414 439/3/439
f 453/1/453 440/2/440 429/3/429
f 440/1/440 441/2/441 416/3/416
f 441/1/441 442/2/442 417/3/417
f 443/1/443 430/2/430 442/3/442
f 419/1/419 443/2/443 454/3/454
f 445/1/445 431/2/431 444/3/444
f 444/1/444 419/2/419 454/3/454
f 446/1/446 421/2/421 445/3/445
f 455/1/455 422/2/422 446/3/446
f 448/1/448 423/2/423 447/3/447
f 447/1/447 422/2/422 455/3/455
f 432/1/432 448/2/448 456/3/456
f 449/1/449 432/2/432 457/3/457
f 433/1/433 449/2/449 458/3/458
f 434/1/434 433/2/433 459/3/459
f 450/1/450 434/2/434 459/3/459
f 450/1/450 460/2/460 435/3/435
f 435/1/435 460/2/460 436/3/436
f 436/1/436 461/2/461 451/3/451
f 451/1/451 462/2/462 437/3/437
f 437/1/437 462/2/462 452/3/452
f 463/1/463 438/2/438 452/3/452
f 463/1/463 439/2/439 438/3/438
f 464/1/464 429/2/429 439/3/439
f 464/1/464 453/2/453 429/3/429
f 453/1/453 465/2/465 440/3/440
f 465/1/465 441/2/441 440/3/440
f 466/1/466 442/2/442 441/3/441
f 467/1/467 443/2/443 442/3/442
f 468/1/468 454/2/454 443/3/443
f 445/1/445 444/2/444 469/3/469
f 470/1/470 444/2/444 454/3/454
f 446/1/446 445/2/445 471/3/471
f 455/1/455 446/2/446 472/3/472
f 448/1/448 447/2/447 473/3/473
f 447/1/447 455/2/455 474/3/474
f 448/1/448 473/2/473 456/3/456
f 432/1/432 456/2/456 457/3/457
f 449/1/449 457/2/457 475/3/475
f 458/1/458 449/2/449 475/3/475
f 433/1/433 458/2/458 459/3/459
f 450/1/450 459/2/459 476/3/476
f 450/1/450 476/2/476 460/3/460
f 436/1/436 460/2/460 477/3/477
f 436/1/436 477/2/477 461/3/461
f 451/1/451 461/2/461 462/3/462
f 462/1/462 478/2/478 452/3/452
f 452/1/452 478/2/478 463/3/463
f 464/1/464 439/2/439 463/3/463
f 479/1/479 453/2/453 464/3/464
f 480/1/480 465/2/465 453/3/453
f 465/1/465 466/2/466 441/3/441
f 466/1/466 467/2/467 442/3/442
f 467/1/467 468/2/468 443/3/443
f 470/1/470 454/2/454 468/3/468
f 469/1/469 444/2/444 470/3/470
f 471/1/471 445/2/445 469/3/469
f 472/1/472 446/2/446 471/3/471
f 474/1/474 455/2/455 472/3/472
f 473/1/473 447/2/447 474/3/474
f 456/1/456 473/2/473 481/3/481
f 457/1/457 456/2/456 482/3/482
f 475/1/475 457/2/457 483/3/483
f 458/1/458 475/2/475 483/3/483
f 459/1/459 458/2/458 484/3/484
f 476/1/476 459/2/459 485/3/485
f 476/1/476 485/2/485 460/3/460
f 460/1/460 486/2/486 477/3/477
f 477/1/477 487/2/487 461/3/461
f 461/1/461 488/2/488 462/3/462
f 462/1/462 488/2/488 478/3/478
f 478/1/478 489/2/489 463/3/463
f 489/1/489 464/2/464 463/3/463
f 489/1/489 479/2/479 464/3/464
f 479/1/479 480/2/480 453/3/453
f 480/1/480 490/2/490 465/3/465
f 490/1/490 466/2/466 465/3/465
f 491/1/491 467/2/467 466/3/466
f 491/1/491 468/2/468 467/3/467
f 492/1/492 470/2/470 468/3/468
f 492/1/492 469/2/469 470/3/470
f 493/1/493 471/2/471 469/3/469
f 494/1/494 472/2/472 471/3/471
f 474/1/474 472/2/472 494/3/494
f 473/1/473 474/2/474 495/3/495
f 481/1/481 473/2/473 495/3/495
f 456/1/456 481/2/481 496/3/496
f 483/1/483 457/2/457 482/3/482
f 482/1/482 456/2/456 496/3/496
f 458/1/458 483/2/483 484/3/484
f 459/1/459 484/2/484 497/3/497
f 459/1/459 497/2/497 485/3/485
f 460/1/460 485/2/485 498/3/498
f 460/1/460 498/2/498 486/3/486
f 477/1/477 486/2/486 487/3/487
f 461/1/461 487/2/487 488/3/488
f 488/1/488 499/2/499 478/3/478
f 478/1/478 500/2/500 489/3/489
f 500/1/500 479/2/479 489/3/489
f 501/1/501 480/2/480 479/3/479
f 502/1/502 490/2/490 480/3/480
f 490/1/490 503/2/503 466/3/466
f 503/1/503 491/2/491 466/3/466
f 491/1/491 504/2/504 468/3/468
f 492/1/492 468/2/468 504/3/504
f 493/1/493 469/2/469 492/3/492
f 505/1/505 471/2/471 493/3/493
f 494/1/494 471/2/471 505/3/505
f 495/1/495 474/2/474 494/3/494
f 481/1/481 495/2/495 506/3/506
f 496/1/496 481/2/481 507/3/507
f 483/1/483 482/2/482 508/3/508
f 482/1/482 496/2/496 509/3/509
f 484/1/484 483/2/483 508/3/508
f 497/1/497 484/2/484 510/3/510
f 485/1/485 497/2/497 511/3/511
f 485/1/485 511/2/511 498/3/498
f 498/1/498 512/2/512 486/3/486
f 486/1/486 513/2/513 487/3/487
f 487/1/487 513/2/513 488/3/488
f 488/1/488 514/2/514 499/3/499
f 478/1/478 499/2/499 500/3/500
f 500/1/500 501/2/501 479/3/479
f 501/1/501 502/2/502 480/3/480
f 515/1/515 490/2/490 502/3/502
f 516/1/516 503/2/503 490/3/490
f 516/1/516 491/2/491 503/3/503
f 517/1/517 504/2/504 491/3/491
f 518/1/518 492/2/492 504/3/504
f 519/1/519 493/2/493 492/3/492
f 520/1/520 505/2/505 493/3/493
f 521/1/521 494/2/494 505/3/505
f 506/1/506 495/2/495 494/3/494
f 507/1/507 481/2/481 506/3/506
f 496/1/496 507/2/507 509/3/509
f 482/1/482 522/2/522 508/3/508
f 482/1/482 509/2/509 522/3/522
f 484/1/484 508/2/508 510/3/510
f 497/1/497 510/2/510 523/3/523
f 497/1/497 523/2/523 511/3/511
f 498/1/498 511/2/511 524/3/524
f 486/1/486 512/2/512 513/3/513
f 498/1/498 524/2/524 512/3/512
f 488/1/488 513/2/513 525/3/525
f 499/1/499 514/2/514 500/3/500
f 488/1/488 525/2/525 514/3/514
f 500/1/500 526/2/526 501/3/501
f 526/1/526 502/2/502 501/3/501
f 515/1/515 516/2/516 490/3/490
f 527/1/527 515/2/515 502/3/502
f 516/1/516 517/2/517 491/3/491
f 517/1/517 518/2/518 504/3/504
f 519/1/519 492/2/492 518/3/518
f 520/1/520 493/2/493 519/3/519
f 521/1/521 505/2/505 520/3/520
f 528/1/528 494/2/494 521/3/521
f 506/1/506 494/2/494 528/3/528
f 529/1/529 507/2/507 506/3/506
f 509/1/509 507/2/507 529/3/529
f 508/1/508 522/2/522 530/3/530
f 522/1/522 509/2/509 530/3/530
f 510/1/510 508/2/508 531/3/531
f 523/1/523 510/2/510 532/3/532
f 511/1/511 523/2/523 532/3/532
f 511/1/511 533/2/533 524/3/524
f 512/1/512 534/2/534 513/3/513
f 524/1/524 535/2/535 512/3/512
f 513/1/513 536/2/536 525/3/525
f 514/1/514 537/2/537 500/3/500
f 525/1/525 538/2/538 514/3/514
f 537/1/537 526/2/526 500/3/500
f 526/1/526 527/2/527 502/3/502
f 539/1/539 516/2/516 515/3/515
f 540/1/540 515/2/515 527/3/527
f 539/1/539 517/2/517 516/3/516
f 541/1/541 518/2/518 517/3/517
f 542/1/542 519/2/519 518/3/518
f 543/1/543 520/2/520 519/3/519
f 544/1/544 521/2/521 520/3/520
f 545/1/545 528/2/528 521/3/521
f 546/1/546 506/2/506 528/3/528
f 529/1/529 506/2/506 546/3/546
f 509/1/509 529/2/529 547/3/547
f 508/1/508 530/2/530 548/3/548
f 530/1/530 509/2/509 547/3/547
f 508/1/508 548/2/548 531/3/531
f 510/1/510 531/2/531 532/3/532
f 511/1/511 532/2/532 533/3/533
f 524/1/524 533/2/533 535/3/535
f 512/1/512 535/2/535 534/3/534
f 513/1/513 534/2/534 549/3/549
f 513/1/513 549/2/549 536/3/536
f 525/1/525 536/2/536 538/3/538
f 514/1/514 538/2/538 537/3/537
f 537/1/537 550/2/550 526/3/526
f 550/1/550 527/2/527 526/3/526
f 551/1/551 539/2/539 515/3/515
f 550/1/550 540/2/540 527/3/527
f 540/1/540 551/2/551 515/3/515
f 539/1/539 541/2/541 517/3/517
f 541/1/541 542/2/542 518/3/518
f 543/1/543 519/2/519 542/3/542
f 544/1/544 520/2/520 543/3/543
f 545/1/545 521/2/521 544/3/544
f 552/1/552 528/2/528 545/3/545
f 546/1/546 528/2/528 552/3/552
f 553/1/553 529/2/529 546/3/546
f 547/1/547 529/2/529 553/3/553
f 548/1/548 530/2/530 553/3/553
f 530/1/530 547/2/547 553/3/553
f 531/1/531 548/2/548 553/3/553
f 532/1/532 531/2/531 553/3/553
f 533/1/533 532/2/532 553/3/553
f 533/1/533 553/2/553 535/3/535
f 535/1/535 553/2/553 534/3/534
f 534/1/534 553/2/553 549/3/549
f 549/1/549 553/2/553 536/3/536
f 536/1/536 553/2/553 538/3/538
f 538/1/538 554/2/554 537/3/537
f 554/1/554 550/2/550 537/3/537
f 553/1/553 539/2/539 551/3/551
f 553/1/553 540/2/540 550/3/550
f 553/1/553 551/2/551 540/3/540
f 553/1/553 541/2/541 539/3/539
f 553/1/553 542/2/542 541/3/541
f 553/1/553 543/2/543 542/3/542
f 553/1/553 544/2/544 543/3/543
f 553/1/553 545/2/545 544/3/544
f 553/1/553 552/2/552 545/3/545
f 553/1/553 546/2/546 552/3/552
f 538/1/538 553/2/553 554/3/554
f 553/1/553 550/2/550 554/3/554
