# Blender 5.2.0 LTS
# www.blender.org
o Eyes2_Blinks
v -0.189022 0.785540 0.380786
v -0.184626 0.784834 0.374963
v -0.186501 0.784902 0.381559
v -0.187147 0.785473 0.374191
v -0.183356 0.784587 0.375329
v -0.191025 0.786225 0.380117
v -0.189150 0.786158 0.373522
v -0.185240 0.784604 0.381938
v -0.191870 0.786643 0.379794
v -0.124010 0.784829 0.388703
v -0.125885 0.784896 0.395299
v -0.128022 0.784433 0.394960
v -0.121489 0.785468 0.389074
v -0.123364 0.785535 0.395669
v -0.119486 0.786152 0.389313
v -0.121360 0.786219 0.395908
v -0.118032 0.786871 0.389416
v -0.119907 0.786938 0.396011
v -0.119025 0.787681 0.395977
v -0.117150 0.787614 0.389382
v -0.118730 0.788436 0.395807
v -0.116855 0.788369 0.389211
v -0.119025 0.789191 0.395502
v -0.117150 0.789124 0.388907
v -0.119907 0.789934 0.395069
v -0.118032 0.789867 0.388473
v -0.121360 0.790654 0.394513
v -0.119486 0.790586 0.387917
v -0.120790 0.791032 0.387482
v -0.122666 0.791100 0.394077
v -0.181627 0.784251 0.375671
v -0.189993 0.786575 0.373199
v -0.134244 0.783285 0.386327
v -0.132326 0.783696 0.393864
v -0.136132 0.783252 0.392927
v -0.130438 0.783729 0.387264
v -0.128896 0.784213 0.394727
v -0.127008 0.784247 0.388126
v -0.126137 0.784416 0.388351
v -0.183516 0.784218 0.382271
v -0.180086 0.783700 0.382973
v -0.178198 0.783733 0.376373
v -0.176280 0.783255 0.383772
v -0.174392 0.783288 0.377171
v -0.172157 0.782890 0.384656
v -0.170269 0.782923 0.378055
v -0.167783 0.782611 0.385610
v -0.165895 0.782645 0.379009
v -0.163226 0.782423 0.386620
v -0.161338 0.782456 0.380019
v -0.158559 0.782328 0.387669
v -0.156670 0.782361 0.381069
v -0.153854 0.782327 0.388742
v -0.151966 0.782360 0.382142
v -0.149186 0.782422 0.389821
v -0.147298 0.782455 0.383221
v -0.144629 0.782609 0.390890
v -0.142741 0.782643 0.384289
v -0.140255 0.782887 0.391930
v -0.138367 0.782921 0.385330
v -0.121489 0.791271 0.387247
v -0.193658 0.788444 0.378814
v -0.191486 0.787620 0.372527
v -0.193363 0.787689 0.379122
v -0.191781 0.788375 0.372219
v -0.190604 0.786877 0.372964
v -0.192481 0.786946 0.379559
v -0.123366 0.791339 0.393842
v -0.125887 0.791978 0.393066
v -0.124010 0.791910 0.386471
v -0.125987 0.792294 0.385900
v -0.127856 0.792397 0.392485
v -0.181627 0.792498 0.373208
v -0.183505 0.792566 0.379803
v -0.183262 0.792636 0.379836
v -0.186503 0.791983 0.379308
v -0.184626 0.791915 0.372713
v -0.189024 0.791345 0.378940
v -0.187147 0.791277 0.372345
v -0.191027 0.790661 0.378703
v -0.189150 0.790592 0.372109
v -0.192481 0.789941 0.378603
v -0.190604 0.789873 0.372008
v -0.191486 0.789130 0.372045
v -0.193363 0.789198 0.378640
v -0.127008 0.792493 0.385542
v -0.128866 0.792629 0.392108
v -0.130438 0.793011 0.384436
v -0.132296 0.793147 0.391003
v -0.134244 0.793456 0.383293
v -0.136102 0.793592 0.389859
v -0.138367 0.793821 0.382129
v -0.140225 0.793957 0.388695
v -0.142741 0.794100 0.380964
v -0.144599 0.794236 0.387530
v -0.147298 0.794288 0.379815
v -0.149156 0.794424 0.386382
v -0.151966 0.794383 0.378701
v -0.153823 0.794520 0.385268
v -0.156670 0.794384 0.377640
v -0.158528 0.794520 0.384206
v -0.161338 0.794289 0.376648
v -0.163196 0.794426 0.383214
v -0.165895 0.794102 0.375740
v -0.167752 0.794238 0.382307
v -0.170269 0.793824 0.374932
v -0.172127 0.793960 0.381498
v -0.174392 0.793460 0.374235
v -0.176250 0.793596 0.380802
v -0.178198 0.793015 0.373662
v -0.180055 0.793152 0.380228
v -0.125885 0.784896 0.395299
v -0.185240 0.784604 0.381938
v -0.128022 0.784433 0.394960
v -0.186501 0.784902 0.381559
v -0.123364 0.785535 0.395669
v -0.189022 0.785540 0.380786
v -0.121360 0.786219 0.395908
v -0.191025 0.786225 0.380117
v -0.119907 0.786938 0.396011
v -0.191870 0.786643 0.379794
v -0.122666 0.791100 0.394077
v -0.119025 0.787681 0.395977
v -0.118730 0.788436 0.395807
v -0.119025 0.789191 0.395502
v -0.119907 0.789934 0.395069
v -0.121360 0.790654 0.394513
v -0.149186 0.782422 0.389821
v -0.158559 0.782328 0.387669
v -0.153854 0.782327 0.388742
v -0.163226 0.782423 0.386620
v -0.144629 0.782609 0.390890
v -0.167783 0.782611 0.385610
v -0.140255 0.782887 0.391930
v -0.172157 0.782890 0.384656
v -0.136132 0.783252 0.392927
v -0.176280 0.783255 0.383772
v -0.132326 0.783696 0.393864
v -0.180086 0.783700 0.382973
v -0.128896 0.784213 0.394727
v -0.183516 0.784218 0.382271
v -0.192481 0.786946 0.379559
v -0.193363 0.787689 0.379122
v -0.193658 0.788444 0.378814
v -0.193363 0.789198 0.378640
v -0.192481 0.789941 0.378603
v -0.191027 0.790661 0.378703
v -0.189024 0.791345 0.378940
v -0.123366 0.791339 0.393842
v -0.125887 0.791978 0.393066
v -0.186503 0.791983 0.379308
v -0.127856 0.792397 0.392485
v -0.183505 0.792566 0.379803
v -0.183262 0.792636 0.379836
v -0.128866 0.792629 0.392108
v -0.132296 0.793147 0.391003
v -0.180055 0.793152 0.380228
v -0.136102 0.793592 0.389859
v -0.176250 0.793596 0.380802
v -0.140225 0.793957 0.388695
v -0.172127 0.793960 0.381498
v -0.144599 0.794236 0.387530
v -0.167752 0.794238 0.382307
v -0.149156 0.794424 0.386382
v -0.163196 0.794426 0.383214
v -0.153823 0.794520 0.385268
v -0.158528 0.794520 0.384206
v 0.198290 0.785473 0.374191
v 0.200165 0.785540 0.380786
v 0.195769 0.784834 0.374963
v 0.197644 0.784902 0.381559
v 0.194498 0.784587 0.375329
v 0.200293 0.786158 0.373522
v 0.202168 0.786225 0.380117
v 0.196383 0.784604 0.381938
v 0.203013 0.786643 0.379794
v 0.139164 0.784433 0.394960
v 0.137027 0.784896 0.395299
v 0.135152 0.784829 0.388703
v 0.132632 0.785468 0.389074
v 0.134506 0.785535 0.395669
v 0.130628 0.786152 0.389313
v 0.132503 0.786219 0.395908
v 0.129175 0.786871 0.389416
v 0.131050 0.786938 0.396011
v 0.128293 0.787614 0.389382
v 0.130168 0.787681 0.395977
v 0.127998 0.788369 0.389211
v 0.129873 0.788436 0.395807
v 0.128293 0.789124 0.388907
v 0.130168 0.789191 0.395502
v 0.129175 0.789867 0.388473
v 0.131050 0.789934 0.395069
v 0.130628 0.790586 0.387917
v 0.132503 0.790654 0.394513
v 0.133809 0.791100 0.394077
v 0.131933 0.791032 0.387482
v 0.192770 0.784251 0.375671
v 0.201136 0.786575 0.373199
v 0.141581 0.783729 0.387264
v 0.145387 0.783285 0.386327
v 0.143469 0.783696 0.393864
v 0.147275 0.783252 0.392927
v 0.138151 0.784247 0.388126
v 0.140039 0.784213 0.394727
v 0.137280 0.784416 0.388351
v 0.194658 0.784218 0.382271
v 0.189341 0.783733 0.376373
v 0.191229 0.783700 0.382973
v 0.185535 0.783288 0.377171
v 0.187423 0.783255 0.383772
v 0.181412 0.782923 0.378055
v 0.183300 0.782890 0.384656
v 0.177038 0.782645 0.379009
v 0.178926 0.782611 0.385610
v 0.172481 0.782456 0.380019
v 0.174369 0.782423 0.386620
v 0.167813 0.782361 0.381069
v 0.169701 0.782328 0.387669
v 0.163108 0.782360 0.382142
v 0.164997 0.782327 0.388742
v 0.158441 0.782455 0.383221
v 0.160329 0.782422 0.389821
v 0.153884 0.782643 0.384289
v 0.155772 0.782609 0.390890
v 0.149510 0.782921 0.385330
v 0.151398 0.782887 0.391930
v 0.132632 0.791271 0.387247
v 0.202924 0.788375 0.372219
v 0.204801 0.788444 0.378814
v 0.202629 0.787620 0.372527
v 0.204506 0.787689 0.379122
v 0.201747 0.786877 0.372964
v 0.203624 0.786946 0.379559
v 0.134509 0.791339 0.393842
v 0.135152 0.791910 0.386471
v 0.137030 0.791978 0.393066
v 0.138999 0.792397 0.392485
v 0.137130 0.792294 0.385900
v 0.194404 0.792636 0.379836
v 0.194648 0.792566 0.379803
v 0.192770 0.792498 0.373208
v 0.195769 0.791915 0.372713
v 0.197646 0.791983 0.379308
v 0.198290 0.791277 0.372345
v 0.200167 0.791345 0.378940
v 0.200293 0.790592 0.372109
v 0.202170 0.790661 0.378703
v 0.201747 0.789873 0.372008
v 0.203624 0.789941 0.378603
v 0.202629 0.789130 0.372045
v 0.204506 0.789198 0.378640
v 0.138151 0.792493 0.385542
v 0.140009 0.792629 0.392108
v 0.141581 0.793011 0.384436
v 0.143438 0.793147 0.391003
v 0.145387 0.793456 0.383293
v 0.147245 0.793592 0.389859
v 0.149510 0.793821 0.382129
v 0.151367 0.793957 0.388695
v 0.153884 0.794100 0.380964
v 0.155742 0.794236 0.387530
v 0.158441 0.794288 0.379815
v 0.160299 0.794424 0.386382
v 0.163108 0.794383 0.378701
v 0.164966 0.794520 0.385268
v 0.167813 0.794384 0.377640
v 0.169671 0.794520 0.384206
v 0.172481 0.794289 0.376648
v 0.174338 0.794426 0.383214
v 0.177038 0.794102 0.375740
v 0.178895 0.794238 0.382307
v 0.181412 0.793824 0.374932
v 0.183270 0.793960 0.381498
v 0.185535 0.793460 0.374235
v 0.187392 0.793596 0.380802
v 0.189341 0.793015 0.373662
v 0.191198 0.793152 0.380228
v 0.132503 0.790654 0.394513
v 0.131050 0.789934 0.395069
v 0.133809 0.791100 0.394077
v 0.130168 0.789191 0.395502
v 0.129873 0.788436 0.395807
v 0.130168 0.787681 0.395977
v 0.131050 0.786938 0.396011
v 0.203013 0.786643 0.379794
v 0.202168 0.786225 0.380117
v 0.132503 0.786219 0.395908
v 0.200165 0.785540 0.380786
v 0.134506 0.785535 0.395669
v 0.197644 0.784902 0.381559
v 0.137027 0.784896 0.395299
v 0.196383 0.784604 0.381938
v 0.139164 0.784433 0.394960
v 0.194658 0.784218 0.382271
v 0.140039 0.784213 0.394727
v 0.191229 0.783700 0.382973
v 0.143469 0.783696 0.393864
v 0.187423 0.783255 0.383772
v 0.147275 0.783252 0.392927
v 0.183300 0.782890 0.384656
v 0.151398 0.782887 0.391930
v 0.178926 0.782611 0.385610
v 0.155772 0.782609 0.390890
v 0.174369 0.782423 0.386620
v 0.160329 0.782422 0.389821
v 0.169701 0.782328 0.387669
v 0.164997 0.782327 0.388742
v 0.194404 0.792636 0.379836
v 0.138999 0.792397 0.392485
v 0.194648 0.792566 0.379803
v 0.197646 0.791983 0.379308
v 0.137030 0.791978 0.393066
v 0.200167 0.791345 0.378940
v 0.134509 0.791339 0.393842
v 0.202170 0.790661 0.378703
v 0.203624 0.789941 0.378603
v 0.204506 0.789198 0.378640
v 0.204801 0.788444 0.378814
v 0.204506 0.787689 0.379122
v 0.203624 0.786946 0.379559
v 0.169671 0.794520 0.384206
v 0.164966 0.794520 0.385268
v 0.174338 0.794426 0.383214
v 0.160299 0.794424 0.386382
v 0.178895 0.794238 0.382307
v 0.155742 0.794236 0.387530
v 0.183270 0.793960 0.381498
v 0.151367 0.793957 0.388695
v 0.187392 0.793596 0.380802
v 0.147245 0.793592 0.389859
v 0.191198 0.793152 0.380228
v 0.143438 0.793147 0.391003
v 0.140009 0.792629 0.392108
vn -0.2641 -0.9623 -0.0653
vn -0.2046 -0.9777 -0.0482
vn -0.2188 -0.9742 -0.0556
vn -0.2654 -0.9619 -0.0656
vn -0.1823 -0.9822 -0.0462
vn -0.3524 -0.9314 -0.0907
vn -0.3565 -0.9298 -0.0919
vn -0.2074 -0.9764 -0.0597
vn -0.4078 -0.9068 -0.1067
vn 0.2119 -0.9750 0.0675
vn 0.2165 -0.9737 0.0715
vn 0.2123 -0.9750 0.0658
vn 0.2763 -0.9570 0.0883
vn 0.2696 -0.9591 0.0864
vn 0.3787 -0.9181 0.1170
vn 0.3661 -0.9236 0.1135
vn 0.5523 -0.8171 0.1653
vn 0.5252 -0.8362 0.1578
vn 0.7807 -0.5819 0.2279
vn 0.8292 -0.5044 0.2409
vn 0.9619 0.0082 0.2734
vn 0.9526 0.1414 0.2694
vn 0.7639 0.6098 0.2110
vn 0.7299 0.6534 0.2008
vn 0.5078 0.8507 0.1357
vn 0.4953 0.8586 0.1321
vn 0.3565 0.9297 0.0919
vn 0.3524 0.9314 0.0907
vn 0.2997 0.9510 0.0755
vn 0.2998 0.9510 0.0755
vn -0.1617 -0.9857 -0.0482
vn -0.4079 -0.9068 -0.1067
vn 0.0968 -0.9950 0.0227
vn 0.1247 -0.9917 0.0307
vn 0.0961 -0.9951 0.0225
vn 0.1253 -0.9916 0.0309
vn 0.1808 -0.9822 0.0500
vn 0.1601 -0.9863 0.0408
vn 0.1824 -0.9819 0.0513
vn -0.1750 -0.9830 -0.0550
vn -0.1251 -0.9913 -0.0408
vn -0.1237 -0.9915 -0.0404
vn -0.0959 -0.9949 -0.0324
vn -0.0947 -0.9950 -0.0321
vn -0.0709 -0.9972 -0.0253
vn -0.0700 -0.9972 -0.0250
vn -0.0487 -0.9986 -0.0190
vn -0.0479 -0.9987 -0.0187
vn -0.0283 -0.9995 -0.0131
vn -0.0276 -0.9995 -0.0129
vn -0.0089 -0.9999 -0.0076
vn -0.0082 -0.9999 -0.0074
vn 0.0102 -0.9999 -0.0021
vn 0.0108 -0.9999 -0.0019
vn 0.0295 -0.9996 0.0034
vn 0.0302 -0.9995 0.0036
vn 0.0498 -0.9987 0.0092
vn 0.0504 -0.9987 0.0094
vn 0.0717 -0.9973 0.0155
vn 0.0723 -0.9973 0.0157
vn 0.2640 0.9623 0.0652
vn -0.9522 -0.1434 -0.2696
vn -0.7638 -0.6100 -0.2111
vn -0.7290 -0.6544 -0.2008
vn -0.9618 -0.0086 -0.2737
vn -0.5076 -0.8509 -0.1357
vn -0.4949 -0.8589 -0.1320
vn 0.2654 0.9619 0.0656
vn 0.2114 0.9762 0.0480
vn 0.2042 0.9777 0.0480
vn 0.1807 0.9828 0.0381
vn 0.2015 0.9787 0.0397
vn -0.1623 0.9849 -0.0609
vn -0.2193 0.9730 -0.0724
vn -0.2121 0.9745 -0.0725
vn -0.2095 0.9753 -0.0697
vn -0.2054 0.9763 -0.0686
vn -0.2764 0.9570 -0.0886
vn -0.2696 0.9591 -0.0867
vn -0.3789 0.9180 -0.1173
vn -0.3661 0.9236 -0.1138
vn -0.5528 0.8167 -0.1658
vn -0.5252 0.8361 -0.1582
vn -0.7808 0.5816 -0.2283
vn -0.8298 0.5032 -0.2414
vn 0.1621 0.9864 0.0277
vn 0.1779 0.9836 0.0299
vn 0.1277 0.9917 0.0155
vn 0.1282 0.9916 0.0157
vn 0.0998 0.9950 0.0076
vn 0.1000 0.9950 0.0076
vn 0.0757 0.9971 0.0007
vn 0.0756 0.9971 0.0007
vn 0.0540 0.9985 -0.0055
vn 0.0537 0.9985 -0.0055
vn 0.0338 0.9994 -0.0112
vn 0.0334 0.9994 -0.0113
vn 0.0144 0.9998 -0.0167
vn 0.0138 0.9998 -0.0169
vn -0.0048 0.9997 -0.0221
vn -0.0056 0.9997 -0.0223
vn -0.0245 0.9993 -0.0277
vn -0.0254 0.9993 -0.0279
vn -0.0453 0.9984 -0.0335
vn -0.0464 0.9983 -0.0339
vn -0.0679 0.9969 -0.0399
vn -0.0694 0.9968 -0.0403
vn -0.0934 0.9945 -0.0471
vn -0.0954 0.9943 -0.0476
vn -0.1233 0.9908 -0.0554
vn -0.1302 0.9900 -0.0553
vn -0.2113 0.2934 0.9323
vn -0.2132 0.2644 0.9405
vn -0.2135 0.2610 0.9414
vn -0.2113 0.2932 0.9324
vn -0.2113 0.2933 0.9324
vn -0.2113 0.2966 0.9313
vn -0.2113 0.2938 0.9322
vn -0.2114 0.2932 0.9324
vn -0.2112 0.2935 0.9323
vn -0.2198 -0.1497 0.9640
vn -0.2198 -0.1490 0.9641
vn -0.2195 -0.1521 0.9637
vn -0.2198 -0.1501 0.9639
vn -0.2198 -0.1496 0.9640
vn -0.2199 -0.1498 0.9640
vn -0.2199 -0.1496 0.9640
vn -0.2198 -0.1499 0.9640
vn -0.2199 -0.1497 0.9640
vn -0.2199 -0.1495 0.9640
vn -0.2113 0.2972 0.9311
vn -0.2113 0.2971 0.9312
vn -0.2113 0.2972 0.9312
vn -0.2113 0.2973 0.9311
vn -0.2099 0.3159 0.9253
vn -0.2113 0.2970 0.9312
vn -0.2103 0.3124 0.9264
vn -0.1866 0.5300 0.8272
vn -0.1866 0.5302 0.8271
vn -0.1865 0.5302 0.8271
vn -0.1865 0.5301 0.8272
vn -0.1866 0.5301 0.8271
vn -0.1865 0.5301 0.8271
vn -0.1867 0.5296 0.8274
vn -0.1864 0.5302 0.8271
vn -0.1866 0.5309 0.8267
vn 0.2654 -0.9619 -0.0656
vn 0.2641 -0.9623 -0.0653
vn 0.2046 -0.9777 -0.0482
vn 0.2188 -0.9742 -0.0556
vn 0.1823 -0.9822 -0.0462
vn 0.3565 -0.9298 -0.0919
vn 0.3524 -0.9314 -0.0907
vn 0.2074 -0.9764 -0.0597
vn 0.4078 -0.9068 -0.1067
vn -0.2123 -0.9750 0.0658
vn -0.2165 -0.9737 0.0715
vn -0.2119 -0.9750 0.0675
vn -0.2763 -0.9570 0.0883
vn -0.2696 -0.9591 0.0864
vn -0.3787 -0.9181 0.1170
vn -0.3661 -0.9236 0.1135
vn -0.5523 -0.8171 0.1653
vn -0.5251 -0.8363 0.1578
vn -0.8292 -0.5044 0.2409
vn -0.7807 -0.5819 0.2279
vn -0.9526 0.1414 0.2694
vn -0.9619 0.0083 0.2734
vn -0.7299 0.6534 0.2008
vn -0.7640 0.6098 0.2110
vn -0.4953 0.8586 0.1321
vn -0.5077 0.8508 0.1357
vn -0.3524 0.9314 0.0907
vn -0.3566 0.9297 0.0919
vn -0.2999 0.9510 0.0755
vn -0.2996 0.9511 0.0755
vn 0.1618 -0.9857 -0.0482
vn 0.4079 -0.9068 -0.1067
vn -0.1253 -0.9916 0.0309
vn -0.0968 -0.9950 0.0227
vn -0.1247 -0.9917 0.0307
vn -0.0962 -0.9951 0.0225
vn -0.1601 -0.9863 0.0408
vn -0.1808 -0.9822 0.0500
vn -0.1824 -0.9819 0.0513
vn 0.1750 -0.9830 -0.0550
vn 0.1237 -0.9915 -0.0404
vn 0.1251 -0.9913 -0.0408
vn 0.0947 -0.9950 -0.0321
vn 0.0959 -0.9949 -0.0324
vn 0.0700 -0.9972 -0.0250
vn 0.0709 -0.9972 -0.0253
vn 0.0479 -0.9987 -0.0187
vn 0.0487 -0.9986 -0.0190
vn 0.0276 -0.9995 -0.0129
vn 0.0283 -0.9995 -0.0131
vn 0.0082 -0.9999 -0.0074
vn 0.0089 -0.9999 -0.0076
vn -0.0108 -0.9999 -0.0019
vn -0.0102 -0.9999 -0.0021
vn -0.0302 -0.9995 0.0036
vn -0.0295 -0.9996 0.0034
vn -0.0504 -0.9987 0.0094
vn -0.0498 -0.9987 0.0092
vn -0.0723 -0.9973 0.0157
vn -0.0716 -0.9973 0.0155
vn -0.2640 0.9623 0.0652
vn 0.9618 -0.0086 -0.2737
vn 0.9522 -0.1434 -0.2696
vn 0.7637 -0.6100 -0.2111
vn 0.7290 -0.6544 -0.2008
vn 0.5076 -0.8509 -0.1357
vn 0.4948 -0.8589 -0.1320
vn -0.2654 0.9619 0.0656
vn -0.2042 0.9777 0.0480
vn -0.2114 0.9762 0.0480
vn -0.2015 0.9787 0.0397
vn -0.1806 0.9828 0.0381
vn 0.2119 0.9746 -0.0725
vn 0.2191 0.9730 -0.0724
vn 0.1623 0.9849 -0.0609
vn 0.2054 0.9763 -0.0686
vn 0.2095 0.9753 -0.0697
vn 0.2696 0.9591 -0.0867
vn 0.2764 0.9570 -0.0886
vn 0.3662 0.9236 -0.1138
vn 0.3789 0.9180 -0.1174
vn 0.5252 0.8362 -0.1581
vn 0.5527 0.8167 -0.1658
vn 0.7808 0.5816 -0.2283
vn 0.8298 0.5031 -0.2414
vn -0.1620 0.9864 0.0277
vn -0.1780 0.9836 0.0299
vn -0.1277 0.9917 0.0155
vn -0.1282 0.9916 0.0157
vn -0.0998 0.9950 0.0076
vn -0.1000 0.9950 0.0076
vn -0.0757 0.9971 0.0007
vn -0.0756 0.9971 0.0007
vn -0.0540 0.9985 -0.0055
vn -0.0537 0.9985 -0.0055
vn -0.0338 0.9994 -0.0112
vn -0.0334 0.9994 -0.0113
vn -0.0144 0.9998 -0.0167
vn -0.0138 0.9998 -0.0168
vn 0.0048 0.9997 -0.0221
vn 0.0056 0.9997 -0.0223
vn 0.0245 0.9993 -0.0277
vn 0.0254 0.9993 -0.0279
vn 0.0452 0.9984 -0.0335
vn 0.0464 0.9983 -0.0339
vn 0.0679 0.9969 -0.0399
vn 0.0694 0.9968 -0.0403
vn 0.0934 0.9945 -0.0471
vn 0.0954 0.9943 -0.0476
vn 0.1233 0.9908 -0.0555
vn 0.1302 0.9900 -0.0553
vn 0.2113 0.2942 0.9321
vn 0.2115 0.2930 0.9324
vn 0.2113 0.2938 0.9322
vn 0.2113 0.2933 0.9324
vn 0.2114 0.2933 0.9324
vn 0.2113 0.2965 0.9314
vn 0.2113 0.2934 0.9324
vn 0.2132 0.2644 0.9405
vn 0.2135 0.2609 0.9414
vn 0.2199 -0.1495 0.9640
vn 0.2198 -0.1500 0.9640
vn 0.2198 -0.1498 0.9640
vn 0.2198 -0.1496 0.9640
vn 0.2199 -0.1497 0.9640
vn 0.2199 -0.1496 0.9640
vn 0.2199 -0.1498 0.9640
vn 0.2198 -0.1501 0.9639
vn 0.2198 -0.1493 0.9641
vn 0.2200 -0.1490 0.9640
vn 0.2196 -0.1511 0.9638
vn 0.2102 0.3139 0.9259
vn 0.2099 0.3158 0.9253
vn 0.2113 0.2971 0.9312
vn 0.2113 0.2972 0.9311
vn 0.2112 0.2975 0.9311
vn 0.1866 0.5312 0.8265
vn 0.1863 0.5301 0.8272
vn 0.1867 0.5298 0.8273
vn 0.1865 0.5301 0.8272
vn 0.1866 0.5302 0.8271
vn 0.1865 0.5302 0.8271
vn 0.1865 0.5300 0.8272
vn 0.1866 0.5303 0.8271
vn 0.1866 0.5300 0.8272
vt 0.126667 0.690000
vt 0.206667 0.690000
vt 0.166667 0.810000
s 1
f 1/1/1 2/2/2 3/3/3
f 2/1/2 1/2/1 4/3/4
f 2/1/2 5/2/5 3/3/3
f 6/1/6 4/2/4 1/3/1
f 4/1/4 6/2/6 7/3/7
f 5/1/5 8/2/8 3/3/3
f 7/1/7 6/2/6 9/3/9
f 10/1/10 11/2/11 12/3/12
f 11/1/11 13/2/13 14/3/14
f 13/1/13 11/2/11 10/3/10
f 14/1/14 15/2/15 16/3/16
f 15/1/15 14/2/14 13/3/13
f 16/1/16 17/2/17 18/3/18
f 17/1/17 16/2/16 15/3/15
f 17/1/17 19/2/19 18/3/18
f 19/1/19 17/2/17 20/3/20
f 20/1/20 21/2/21 19/3/19
f 21/1/21 20/2/20 22/3/22
f 22/1/22 23/2/23 21/3/21
f 23/1/23 22/2/22 24/3/24
f 24/1/24 25/2/25 23/3/23
f 25/1/25 24/2/24 26/3/26
f 26/1/26 27/2/27 25/3/25
f 27/1/27 26/2/26 28/3/28
f 29/1/29 30/2/30 27/3/27
f 5/1/5 31/2/31 8/3/8
f 32/1/32 7/2/7 9/3/9
f 33/1/33 34/2/34 35/3/35
f 34/1/34 33/2/33 36/3/36
f 36/1/36 37/2/37 34/3/34
f 37/1/37 36/2/36 38/3/38
f 39/1/39 12/2/12 37/3/37
f 31/1/31 40/2/40 8/3/8
f 31/1/31 41/2/41 40/3/40
f 41/1/41 31/2/31 42/3/42
f 42/1/42 43/2/43 41/3/41
f 43/1/43 42/2/42 44/3/44
f 44/1/44 45/2/45 43/3/43
f 45/1/45 44/2/44 46/3/46
f 46/1/46 47/2/47 45/3/45
f 47/1/47 46/2/46 48/3/48
f 48/1/48 49/2/49 47/3/47
f 49/1/49 48/2/48 50/3/50
f 50/1/50 51/2/51 49/3/49
f 51/1/51 50/2/50 52/3/52
f 52/1/52 53/2/53 51/3/51
f 53/1/53 52/2/52 54/3/54
f 54/1/54 55/2/55 53/3/53
f 55/1/55 54/2/54 56/3/56
f 56/1/56 57/2/57 55/3/55
f 57/1/57 56/2/56 58/3/58
f 58/1/58 59/2/59 57/3/57
f 59/1/59 58/2/58 60/3/60
f 60/1/60 35/2/35 59/3/59
f 35/1/35 60/2/60 33/3/33
f 39/1/39 10/2/10 12/3/12
f 29/1/29 27/2/27 28/3/28
f 61/1/61 30/2/30 29/3/29
f 62/1/62 63/2/63 64/3/64
f 63/1/63 62/2/62 65/3/65
f 64/1/64 66/2/66 67/3/67
f 66/1/66 64/2/64 63/3/63
f 32/1/32 9/2/9 67/3/67
f 61/1/61 68/2/68 30/3/30
f 61/1/61 69/2/69 68/3/68
f 69/1/69 61/2/61 70/3/70
f 71/1/71 72/2/72 69/3/69
f 73/1/73 74/2/74 75/3/75
f 73/1/73 76/2/76 74/3/74
f 76/1/76 73/2/73 77/3/77
f 77/1/77 78/2/78 76/3/76
f 78/1/78 77/2/77 79/3/79
f 79/1/79 80/2/80 78/3/78
f 80/1/80 79/2/79 81/3/81
f 81/1/81 82/2/82 80/3/80
f 82/1/82 81/2/81 83/3/83
f 82/1/82 84/2/84 85/3/85
f 84/1/84 82/2/82 83/3/83
f 85/1/85 65/2/65 62/3/62
f 65/1/65 85/2/85 84/3/84
f 38/1/38 39/2/39 37/3/37
f 66/1/66 32/2/32 67/3/67
f 71/1/71 69/2/69 70/3/70
f 86/1/86 72/2/72 71/3/71
f 86/1/86 87/2/87 72/3/72
f 87/1/87 88/2/88 89/3/89
f 88/1/88 87/2/87 86/3/86
f 89/1/89 90/2/90 91/3/91
f 90/1/90 89/2/89 88/3/88
f 91/1/91 92/2/92 93/3/93
f 92/1/92 91/2/91 90/3/90
f 93/1/93 94/2/94 95/3/95
f 94/1/94 93/2/93 92/3/92
f 95/1/95 96/2/96 97/3/97
f 96/1/96 95/2/95 94/3/94
f 97/1/97 98/2/98 99/3/99
f 98/1/98 97/2/97 96/3/96
f 99/1/99 100/2/100 101/3/101
f 100/1/100 99/2/99 98/3/98
f 101/1/101 102/2/102 103/3/103
f 102/1/102 101/2/101 100/3/100
f 103/1/103 104/2/104 105/3/105
f 104/1/104 103/2/103 102/3/102
f 105/1/105 106/2/106 107/3/107
f 106/1/106 105/2/105 104/3/104
f 107/1/107 108/2/108 109/3/109
f 108/1/108 107/2/107 106/3/106
f 109/1/109 110/2/110 111/3/111
f 110/1/110 109/2/109 108/3/108
f 111/1/111 73/2/73 75/3/75
f 110/1/110 73/2/73 111/3/111
f 112/1/112 113/2/113 114/3/114
f 113/1/113 112/2/112 115/3/115
f 115/1/115 112/2/112 116/3/112
f 115/1/115 116/2/112 117/3/112
f 117/1/112 116/2/112 118/3/116
f 117/1/112 118/2/116 119/3/115
f 119/1/115 118/2/116 120/3/116
f 119/1/115 120/2/116 121/3/117
f 121/1/117 120/2/116 122/3/118
f 122/1/118 120/2/116 123/3/116
f 122/1/118 123/2/116 124/3/116
f 122/1/118 124/2/116 125/3/119
f 122/1/118 125/2/119 126/3/116
f 122/1/118 126/2/116 127/3/120
f 128/1/121 129/2/122 130/3/123
f 129/1/122 128/2/121 131/3/124
f 131/1/124 128/2/121 132/3/125
f 131/1/124 132/2/125 133/3/126
f 133/1/126 132/2/125 134/3/125
f 133/1/126 134/2/125 135/3/127
f 135/1/127 134/2/125 136/3/128
f 135/1/127 136/2/128 137/3/129
f 137/1/129 136/2/128 138/3/127
f 137/1/129 138/2/127 139/3/128
f 139/1/128 138/2/127 140/3/128
f 139/1/128 140/2/128 141/3/130
f 141/1/130 140/2/128 114/3/114
f 141/1/130 114/2/114 113/3/113
f 122/1/118 142/2/131 121/3/117
f 142/1/131 122/2/118 143/3/132
f 143/1/132 122/2/118 144/3/132
f 144/1/132 122/2/118 145/3/133
f 145/1/133 122/2/118 146/3/132
f 146/1/132 122/2/118 147/3/132
f 147/1/132 122/2/118 148/3/132
f 148/1/132 122/2/118 149/3/134
f 148/1/132 149/2/134 150/3/132
f 148/1/132 150/2/132 151/3/132
f 151/1/132 150/2/132 152/3/135
f 151/1/132 152/2/135 153/3/136
f 153/1/136 152/2/135 154/3/137
f 155/1/138 154/2/137 152/3/135
f 154/1/137 155/2/138 156/3/139
f 154/1/137 156/2/139 157/3/140
f 157/1/140 156/2/139 158/3/141
f 157/1/140 158/2/141 159/3/138
f 159/1/138 158/2/141 160/3/142
f 159/1/138 160/2/142 161/3/141
f 161/1/141 160/2/142 162/3/143
f 161/1/141 162/2/143 163/3/138
f 163/1/138 162/2/143 164/3/140
f 163/1/138 164/2/140 165/3/144
f 165/1/144 164/2/140 166/3/145
f 165/1/144 166/2/145 167/3/146
f 168/1/147 169/2/148 170/3/149
f 171/1/150 170/2/149 169/3/148
f 171/1/150 172/2/151 170/3/149
f 173/1/152 174/2/153 168/3/147
f 169/1/148 168/2/147 174/3/153
f 171/1/150 175/2/154 172/3/151
f 176/1/155 174/2/153 173/3/152
f 177/1/156 178/2/157 179/3/158
f 179/1/158 178/2/157 180/3/159
f 181/1/160 180/2/159 178/3/157
f 180/1/159 181/2/160 182/3/161
f 183/1/162 182/2/161 181/3/160
f 182/1/161 183/2/162 184/3/163
f 185/1/164 184/2/163 183/3/162
f 186/1/165 184/2/163 187/3/166
f 185/1/164 187/2/166 184/3/163
f 188/1/167 186/2/165 189/3/168
f 187/1/166 189/2/168 186/3/165
f 190/1/169 188/2/167 191/3/170
f 189/1/168 191/2/170 188/3/167
f 192/1/171 190/2/169 193/3/172
f 191/1/170 193/2/172 190/3/169
f 194/1/173 192/2/171 195/3/174
f 193/1/172 195/2/174 192/3/171
f 195/1/174 196/2/175 197/3/176
f 175/1/154 198/2/177 172/3/151
f 176/1/155 173/2/152 199/3/178
f 200/1/179 201/2/180 202/3/181
f 203/1/182 202/2/181 201/3/180
f 204/1/183 200/2/179 205/3/184
f 202/1/181 205/2/184 200/3/179
f 205/1/184 177/2/156 206/3/185
f 175/1/154 207/2/186 198/3/177
f 208/1/187 198/2/177 209/3/188
f 207/1/186 209/2/188 198/3/177
f 210/1/189 208/2/187 211/3/190
f 209/1/188 211/2/190 208/3/187
f 212/1/191 210/2/189 213/3/192
f 211/1/190 213/2/192 210/3/189
f 214/1/193 212/2/191 215/3/194
f 213/1/192 215/2/194 212/3/191
f 216/1/195 214/2/193 217/3/196
f 215/1/194 217/2/196 214/3/193
f 218/1/197 216/2/195 219/3/198
f 217/1/196 219/2/198 216/3/195
f 220/1/199 218/2/197 221/3/200
f 219/1/198 221/2/200 218/3/197
f 222/1/201 220/2/199 223/3/202
f 221/1/200 223/2/202 220/3/199
f 224/1/203 222/2/201 225/3/204
f 223/1/202 225/2/204 222/3/201
f 226/1/205 224/2/203 227/3/206
f 225/1/204 227/2/206 224/3/203
f 201/1/180 226/2/205 203/3/182
f 227/1/206 203/2/182 226/3/205
f 177/1/156 179/2/158 206/3/185
f 194/1/173 195/2/174 197/3/176
f 197/1/176 196/2/175 228/3/207
f 229/1/208 230/2/209 231/3/210
f 232/1/211 231/2/210 230/3/209
f 231/1/210 232/2/211 233/3/212
f 234/1/213 233/2/212 232/3/211
f 234/1/213 176/2/155 199/3/178
f 196/1/175 235/2/214 228/3/207
f 236/1/215 228/2/207 237/3/216
f 235/1/214 237/2/216 228/3/207
f 237/1/216 238/2/217 239/3/218
f 240/1/219 241/2/220 242/3/221
f 243/1/222 242/2/221 244/3/223
f 241/1/220 244/2/223 242/3/221
f 245/1/224 243/2/222 246/3/225
f 244/1/223 246/2/225 243/3/222
f 247/1/226 245/2/224 248/3/227
f 246/1/225 248/2/227 245/3/224
f 249/1/228 247/2/226 250/3/229
f 248/1/227 250/2/229 247/3/226
f 249/1/228 250/2/229 251/3/230
f 252/1/231 251/2/230 250/3/229
f 251/1/230 252/2/231 229/3/208
f 230/1/209 229/2/208 252/3/231
f 205/1/184 206/2/185 204/3/183
f 234/1/213 199/2/178 233/3/212
f 236/1/215 237/2/216 239/3/218
f 239/1/218 238/2/217 253/3/232
f 238/1/217 254/2/233 253/3/232
f 253/1/232 254/2/233 255/3/234
f 256/1/235 255/2/234 254/3/233
f 255/1/234 256/2/235 257/3/236
f 258/1/237 257/2/236 256/3/235
f 257/1/236 258/2/237 259/3/238
f 260/1/239 259/2/238 258/3/237
f 259/1/238 260/2/239 261/3/240
f 262/1/241 261/2/240 260/3/239
f 261/1/240 262/2/241 263/3/242
f 264/1/243 263/2/242 262/3/241
f 263/1/242 264/2/243 265/3/244
f 266/1/245 265/2/244 264/3/243
f 265/1/244 266/2/245 267/3/246
f 268/1/247 267/2/246 266/3/245
f 267/1/246 268/2/247 269/3/248
f 270/1/249 269/2/248 268/3/247
f 269/1/248 270/2/249 271/3/250
f 272/1/251 271/2/250 270/3/249
f 271/1/250 272/2/251 273/3/252
f 274/1/253 273/2/252 272/3/251
f 273/1/252 274/2/253 275/3/254
f 276/1/255 275/2/254 274/3/253
f 275/1/254 276/2/255 277/3/256
f 278/1/257 277/2/256 276/3/255
f 240/1/219 242/2/221 278/3/257
f 278/1/257 242/2/221 277/3/256
f 279/1/258 280/2/259 281/3/260
f 280/1/259 282/2/261 281/3/260
f 282/1/261 283/2/262 281/3/260
f 283/1/262 284/2/261 281/3/260
f 284/1/261 285/2/261 281/3/260
f 281/1/260 285/2/261 286/3/263
f 286/1/263 285/2/261 287/3/261
f 285/1/261 288/2/261 287/3/261
f 287/1/261 288/2/261 289/3/261
f 288/1/261 290/2/261 289/3/261
f 289/1/261 290/2/261 291/3/261
f 290/1/261 292/2/264 291/3/261
f 291/1/261 292/2/264 293/3/265
f 294/1/266 293/2/265 292/3/264
f 293/1/265 294/2/266 295/3/267
f 294/1/266 296/2/268 295/3/267
f 295/1/267 296/2/268 297/3/269
f 296/1/268 298/2/270 297/3/269
f 297/1/269 298/2/270 299/3/269
f 298/1/270 300/2/271 299/3/269
f 299/1/269 300/2/271 301/3/272
f 300/1/271 302/2/269 301/3/272
f 301/1/272 302/2/269 303/3/273
f 302/1/269 304/2/269 303/3/273
f 303/1/273 304/2/269 305/3/274
f 304/1/269 306/2/275 305/3/274
f 305/1/274 306/2/275 307/3/276
f 308/1/277 307/2/276 306/3/275
f 309/1/278 310/2/279 311/3/280
f 311/1/280 310/2/279 312/3/281
f 310/1/279 313/2/280 312/3/281
f 312/1/281 313/2/280 314/3/280
f 313/1/280 315/2/282 314/3/280
f 315/1/282 281/2/260 314/3/280
f 314/1/280 281/2/260 316/3/280
f 316/1/280 281/2/260 317/3/281
f 317/1/281 281/2/260 318/3/280
f 318/1/280 281/2/260 319/3/280
f 319/1/280 281/2/260 320/3/280
f 320/1/280 281/2/260 321/3/280
f 286/1/263 321/2/280 281/3/260
f 322/1/283 323/2/284 324/3/285
f 323/1/284 325/2/286 324/3/285
f 324/1/285 325/2/286 326/3/287
f 325/1/286 327/2/288 326/3/287
f 326/1/287 327/2/288 328/3/289
f 327/1/288 329/2/290 328/3/289
f 328/1/289 329/2/290 330/3/288
f 329/1/290 331/2/286 330/3/288
f 330/1/288 331/2/286 332/3/289
f 331/1/286 333/2/287 332/3/289
f 332/1/289 333/2/287 309/3/278
f 333/1/287 334/2/291 309/3/278
f 310/1/279 309/2/278 334/3/291
