# Blender 5.2.0 LTS
# www.blender.org
o Eyes
v -0.185405 0.772406 0.380786
v -0.181479 0.768483 0.374963
v -0.183154 0.768856 0.381559
v -0.183730 0.772032 0.374191
v -0.180345 0.767110 0.375329
v -0.187193 0.776209 0.380117
v -0.185519 0.775835 0.373522
v -0.182028 0.767205 0.381938
v -0.187947 0.778530 0.379794
v -0.127357 0.768454 0.388703
v -0.129032 0.768827 0.395299
v -0.130940 0.766252 0.394960
v -0.125107 0.772001 0.389074
v -0.126781 0.772374 0.395669
v -0.123318 0.775802 0.389313
v -0.124992 0.776175 0.395908
v -0.122020 0.779798 0.389416
v -0.123694 0.780171 0.396011
v -0.122907 0.784299 0.395977
v -0.121233 0.783925 0.389382
v -0.122643 0.788493 0.395807
v -0.120969 0.788119 0.389211
v -0.122907 0.792687 0.395502
v -0.121233 0.792313 0.388907
v -0.123694 0.796815 0.395069
v -0.122020 0.796442 0.388473
v -0.124992 0.800812 0.394513
v -0.123318 0.800439 0.387917
v -0.124483 0.802916 0.387482
v -0.126158 0.803292 0.394077
v -0.178802 0.765243 0.375671
v -0.186272 0.778154 0.373199
v -0.136495 0.759874 0.386327
v -0.134783 0.762158 0.393864
v -0.138181 0.759689 0.392927
v -0.133097 0.762342 0.387264
v -0.131721 0.765033 0.394727
v -0.130035 0.765217 0.388126
v -0.129257 0.766158 0.388351
v -0.180488 0.765059 0.382271
v -0.177426 0.762181 0.382973
v -0.175740 0.762365 0.376373
v -0.174027 0.759709 0.383772
v -0.172341 0.759893 0.377171
v -0.170346 0.757682 0.384656
v -0.168660 0.757867 0.378055
v -0.166441 0.756133 0.385610
v -0.164755 0.756318 0.379009
v -0.162372 0.755086 0.386620
v -0.160686 0.755270 0.380019
v -0.158205 0.754557 0.387669
v -0.156519 0.754741 0.381069
v -0.154004 0.754555 0.388742
v -0.152318 0.754739 0.382142
v -0.149837 0.755079 0.389821
v -0.148151 0.755264 0.383221
v -0.145768 0.756122 0.390890
v -0.144082 0.756307 0.384289
v -0.141862 0.757667 0.391930
v -0.140177 0.757851 0.385330
v -0.125107 0.804242 0.387247
v -0.189544 0.788534 0.378814
v -0.187604 0.783961 0.372527
v -0.189280 0.784340 0.379122
v -0.187868 0.788155 0.372219
v -0.186817 0.779833 0.372964
v -0.188493 0.780212 0.379559
v -0.126783 0.804621 0.393842
v -0.129034 0.808170 0.393066
v -0.127357 0.807792 0.386471
v -0.129123 0.809928 0.385900
v -0.130792 0.810496 0.392485
v -0.178802 0.811057 0.373208
v -0.180478 0.811436 0.379803
v -0.180261 0.811823 0.379836
v -0.183156 0.808200 0.379308
v -0.181479 0.807821 0.372713
v -0.185406 0.804653 0.378940
v -0.183730 0.804274 0.372345
v -0.187195 0.800851 0.378703
v -0.185519 0.800472 0.372109
v -0.188493 0.796855 0.378603
v -0.186817 0.796477 0.372008
v -0.187604 0.792349 0.372045
v -0.189280 0.792728 0.378640
v -0.130035 0.811031 0.385542
v -0.131694 0.811788 0.392108
v -0.133097 0.813909 0.384436
v -0.134756 0.814667 0.391003
v -0.136495 0.816381 0.383293
v -0.138154 0.817139 0.389859
v -0.140177 0.818408 0.382129
v -0.141835 0.819165 0.388695
v -0.144082 0.819957 0.380964
v -0.145741 0.820714 0.387530
v -0.148151 0.821004 0.379815
v -0.149809 0.821762 0.386382
v -0.152318 0.821533 0.378701
v -0.153977 0.822290 0.385268
v -0.156519 0.821535 0.377640
v -0.158178 0.822293 0.384206
v -0.160686 0.821011 0.376648
v -0.162345 0.821768 0.383214
v -0.164755 0.819968 0.375740
v -0.166414 0.820725 0.382307
v -0.168660 0.818423 0.374932
v -0.170319 0.819181 0.381498
v -0.172341 0.816401 0.374235
v -0.174000 0.817158 0.380802
v -0.175740 0.813932 0.373662
v -0.177398 0.814690 0.380228
v -0.129032 0.768827 0.395299
v -0.182028 0.767205 0.381938
v -0.130940 0.766252 0.394960
v -0.183154 0.768856 0.381559
v -0.126781 0.772374 0.395669
v -0.185405 0.772406 0.380786
v -0.124992 0.776175 0.395908
v -0.187193 0.776209 0.380117
v -0.123694 0.780171 0.396011
v -0.187947 0.778530 0.379794
v -0.126158 0.803292 0.394077
v -0.122907 0.784299 0.395977
v -0.122643 0.788493 0.395807
v -0.122907 0.792687 0.395502
v -0.123694 0.796815 0.395069
v -0.124992 0.800812 0.394513
v -0.149837 0.755079 0.389821
v -0.158205 0.754557 0.387669
v -0.154004 0.754555 0.388742
v -0.162372 0.755086 0.386620
v -0.145768 0.756122 0.390890
v -0.166441 0.756133 0.385610
v -0.141862 0.757667 0.391930
v -0.170346 0.757682 0.384656
v -0.138181 0.759689 0.392927
v -0.174027 0.759709 0.383772
v -0.134783 0.762158 0.393864
v -0.177426 0.762181 0.382973
v -0.131721 0.765033 0.394727
v -0.180488 0.765059 0.382271
v -0.188493 0.780212 0.379559
v -0.189280 0.784340 0.379122
v -0.189544 0.788534 0.378814
v -0.189280 0.792728 0.378640
v -0.188493 0.796855 0.378603
v -0.187195 0.800851 0.378703
v -0.185406 0.804653 0.378940
v -0.126783 0.804621 0.393842
v -0.129034 0.808170 0.393066
v -0.183156 0.808200 0.379308
v -0.130792 0.810496 0.392485
v -0.180478 0.811436 0.379803
v -0.180261 0.811823 0.379836
v -0.131694 0.811788 0.392108
v -0.134756 0.814667 0.391003
v -0.177398 0.814690 0.380228
v -0.138154 0.817139 0.389859
v -0.174000 0.817158 0.380802
v -0.141835 0.819165 0.388695
v -0.170319 0.819181 0.381498
v -0.145741 0.820714 0.387530
v -0.166414 0.820725 0.382307
v -0.149809 0.821762 0.386382
v -0.162345 0.821768 0.383214
v -0.153977 0.822290 0.385268
v -0.158178 0.822293 0.384206
v 0.194873 0.772032 0.374191
v 0.196547 0.772406 0.380786
v 0.192622 0.768483 0.374963
v 0.194297 0.768856 0.381559
v 0.191488 0.767110 0.375329
v 0.196662 0.775835 0.373522
v 0.198336 0.776209 0.380117
v 0.193171 0.767205 0.381938
v 0.199090 0.778530 0.379794
v 0.142082 0.766252 0.394960
v 0.140174 0.768827 0.395299
v 0.138500 0.768454 0.388703
v 0.136250 0.772001 0.389074
v 0.137923 0.772374 0.395669
v 0.134461 0.775802 0.389313
v 0.136135 0.776175 0.395908
v 0.133163 0.779798 0.389416
v 0.134837 0.780171 0.396011
v 0.132376 0.783925 0.389382
v 0.134050 0.784299 0.395977
v 0.132112 0.788119 0.389211
v 0.133786 0.788493 0.395807
v 0.132376 0.792313 0.388907
v 0.134050 0.792687 0.395502
v 0.133163 0.796442 0.388473
v 0.134837 0.796815 0.395069
v 0.134461 0.800439 0.387917
v 0.136135 0.800812 0.394513
v 0.137301 0.803292 0.394077
v 0.135626 0.802916 0.387482
v 0.189945 0.765243 0.375671
v 0.197415 0.778154 0.373199
v 0.144240 0.762342 0.387264
v 0.147638 0.759874 0.386327
v 0.145926 0.762158 0.393864
v 0.149324 0.759689 0.392927
v 0.141178 0.765217 0.388126
v 0.142864 0.765033 0.394727
v 0.140400 0.766158 0.388351
v 0.191631 0.765059 0.382271
v 0.186883 0.762365 0.376373
v 0.188569 0.762181 0.382973
v 0.183484 0.759893 0.377171
v 0.185170 0.759709 0.383772
v 0.179803 0.757867 0.378055
v 0.181489 0.757682 0.384656
v 0.175898 0.756318 0.379009
v 0.177584 0.756133 0.385610
v 0.171829 0.755270 0.380019
v 0.173515 0.755086 0.386620
v 0.167661 0.754741 0.381069
v 0.169348 0.754557 0.387669
v 0.163461 0.754739 0.382142
v 0.165147 0.754555 0.388742
v 0.159293 0.755264 0.383221
v 0.160980 0.755079 0.389821
v 0.155225 0.756307 0.384289
v 0.156911 0.756122 0.390890
v 0.151319 0.757851 0.385330
v 0.153005 0.757667 0.391930
v 0.136250 0.804242 0.387247
v 0.199011 0.788155 0.372219
v 0.200687 0.788534 0.378814
v 0.198747 0.783961 0.372527
v 0.200423 0.784340 0.379122
v 0.197960 0.779833 0.372964
v 0.199636 0.780212 0.379559
v 0.137925 0.804621 0.393842
v 0.138500 0.807792 0.386471
v 0.140176 0.808170 0.393066
v 0.141934 0.810496 0.392485
v 0.140266 0.809928 0.385900
v 0.191404 0.811823 0.379836
v 0.191621 0.811436 0.379803
v 0.189945 0.811057 0.373208
v 0.192622 0.807821 0.372713
v 0.194299 0.808200 0.379308
v 0.194873 0.804274 0.372345
v 0.196549 0.804653 0.378940
v 0.196662 0.800472 0.372109
v 0.198338 0.800851 0.378703
v 0.197960 0.796477 0.372008
v 0.199636 0.796855 0.378603
v 0.198747 0.792349 0.372045
v 0.200423 0.792728 0.378640
v 0.141178 0.811031 0.385542
v 0.142837 0.811788 0.392108
v 0.144240 0.813909 0.384436
v 0.145899 0.814667 0.391003
v 0.147638 0.816381 0.383293
v 0.149297 0.817139 0.389859
v 0.151319 0.818408 0.382129
v 0.152978 0.819165 0.388695
v 0.155225 0.819957 0.380964
v 0.156883 0.820714 0.387530
v 0.159293 0.821004 0.379815
v 0.160952 0.821762 0.386382
v 0.163461 0.821533 0.378701
v 0.165120 0.822290 0.385268
v 0.167661 0.821535 0.377640
v 0.169320 0.822293 0.384206
v 0.171829 0.821011 0.376648
v 0.173488 0.821768 0.383214
v 0.175898 0.819968 0.375740
v 0.177556 0.820725 0.382307
v 0.179803 0.818423 0.374932
v 0.181462 0.819181 0.381498
v 0.183484 0.816401 0.374235
v 0.185143 0.817158 0.380802
v 0.186883 0.813932 0.373662
v 0.188541 0.814690 0.380228
v 0.136135 0.800812 0.394513
v 0.134837 0.796815 0.395069
v 0.137301 0.803292 0.394077
v 0.134050 0.792687 0.395502
v 0.133786 0.788493 0.395807
v 0.134050 0.784299 0.395977
v 0.134837 0.780171 0.396011
v 0.199090 0.778530 0.379794
v 0.198336 0.776209 0.380117
v 0.136135 0.776175 0.395908
v 0.196547 0.772406 0.380786
v 0.137923 0.772374 0.395669
v 0.194297 0.768856 0.381559
v 0.140174 0.768827 0.395299
v 0.193171 0.767205 0.381938
v 0.142082 0.766252 0.394960
v 0.191631 0.765059 0.382271
v 0.142864 0.765033 0.394727
v 0.188569 0.762181 0.382973
v 0.145926 0.762158 0.393864
v 0.185170 0.759709 0.383772
v 0.149324 0.759689 0.392927
v 0.181489 0.757682 0.384656
v 0.153005 0.757667 0.391930
v 0.177584 0.756133 0.385610
v 0.156911 0.756122 0.390890
v 0.173515 0.755086 0.386620
v 0.160980 0.755079 0.389821
v 0.169348 0.754557 0.387669
v 0.165147 0.754555 0.388742
v 0.191404 0.811823 0.379836
v 0.141934 0.810496 0.392485
v 0.191621 0.811436 0.379803
v 0.194299 0.808200 0.379308
v 0.140176 0.808170 0.393066
v 0.196549 0.804653 0.378940
v 0.137925 0.804621 0.393842
v 0.198338 0.800851 0.378703
v 0.199636 0.796855 0.378603
v 0.200423 0.792728 0.378640
v 0.200687 0.788534 0.378814
v 0.200423 0.784340 0.379122
v 0.199636 0.780212 0.379559
v 0.169320 0.822293 0.384206
v 0.165120 0.822290 0.385268
v 0.173488 0.821768 0.383214
v 0.160952 0.821762 0.386382
v 0.177556 0.820725 0.382307
v 0.156883 0.820714 0.387530
v 0.181462 0.819181 0.381498
v 0.152978 0.819165 0.388695
v 0.185143 0.817158 0.380802
v 0.149297 0.817139 0.389859
v 0.188541 0.814690 0.380228
v 0.145899 0.814667 0.391003
v 0.142837 0.811788 0.392108
vn -0.8453 -0.5007 -0.1862
vn -0.7793 -0.6049 -0.1636
vn -0.7982 -0.5746 -0.1806
vn -0.8453 -0.5008 -0.1862
vn -0.7465 -0.6435 -0.1693
vn -0.8984 -0.3878 -0.2061
vn -0.8984 -0.3877 -0.2061
vn -0.7798 -0.5932 -0.2000
vn -0.9197 -0.3287 -0.2149
vn 0.7799 -0.5853 0.2215
vn 0.7889 -0.5689 0.2325
vn 0.7827 -0.5835 0.2167
vn 0.8419 -0.4827 0.2411
vn 0.8419 -0.4827 0.2410
vn 0.8969 -0.3659 0.2484
vn 0.9369 -0.2427 0.2516
vn 0.9369 -0.2426 0.2516
vn 0.9612 -0.1153 0.2505
vn 0.9694 0.0138 0.2453
vn 0.9613 0.1422 0.2360
vn 0.9374 0.2676 0.2228
vn 0.8984 0.3877 0.2061
vn 0.8735 0.4454 0.1965
vn 0.8735 0.4453 0.1965
vn -0.7020 -0.6869 -0.1878
vn -0.9197 -0.3286 -0.2149
vn 0.5117 -0.8525 0.1069
vn 0.6093 -0.7816 0.1338
vn 0.7309 -0.6587 0.1785
vn 0.6982 -0.6981 0.1588
vn 0.7442 -0.6413 0.1870
vn -0.7170 -0.6672 -0.2018
vn -0.6034 -0.7778 -0.1759
vn -0.6035 -0.7778 -0.1759
vn -0.5040 -0.8501 -0.1525
vn -0.3976 -0.9087 -0.1270
vn -0.2859 -0.9531 -0.0997
vn -0.2858 -0.9531 -0.0997
vn -0.1704 -0.9828 -0.0710
vn -0.0529 -0.9977 -0.0414
vn 0.0652 -0.9978 -0.0113
vn 0.0651 -0.9978 -0.0113
vn 0.1821 -0.9831 0.0190
vn 0.2966 -0.9537 0.0491
vn 0.2966 -0.9538 0.0491
vn 0.4069 -0.9101 0.0785
vn 0.8453 0.5009 0.1861
vn -0.9693 -0.0140 -0.2456
vn -0.9612 -0.1424 -0.2361
vn -0.9373 -0.2678 -0.2229
vn -0.9374 -0.2678 -0.2229
vn 0.8453 0.5008 0.1861
vn 0.7901 0.5918 0.1599
vn 0.7793 0.6050 0.1633
vn 0.7463 0.6507 0.1401
vn 0.7799 0.6106 0.1372
vn -0.6987 0.6766 -0.2325
vn -0.7890 0.5684 -0.2332
vn -0.7598 0.6054 -0.2372
vn -0.7731 0.5909 -0.2304
vn -0.8419 0.4826 -0.2417
vn -0.8968 0.3657 -0.2489
vn -0.9369 0.2424 -0.2520
vn -0.9612 0.1150 -0.2509
vn -0.9612 0.1151 -0.2509
vn 0.7102 0.6957 0.1075
vn 0.7341 0.6704 0.1081
vn 0.6224 0.7798 0.0673
vn 0.5277 0.8487 0.0354
vn 0.5278 0.8487 0.0354
vn 0.4255 0.9049 0.0031
vn 0.4256 0.9049 0.0031
vn 0.3171 0.9479 -0.0293
vn 0.3171 0.9479 -0.0292
vn 0.2038 0.9771 -0.0612
vn 0.2037 0.9771 -0.0612
vn 0.0869 0.9919 -0.0925
vn -0.0320 0.9920 -0.1225
vn -0.1513 0.9769 -0.1509
vn -0.1512 0.9769 -0.1509
vn -0.2692 0.9466 -0.1772
vn -0.3841 0.9012 -0.2010
vn -0.4937 0.8409 -0.2217
vn -0.4938 0.8409 -0.2217
vn -0.5961 0.7665 -0.2390
vn -0.6061 0.7603 -0.2337
vn -0.2457 0.0548 0.9678
vn -0.2463 0.0308 0.9687
vn -0.2464 0.0292 0.9687
vn -0.2458 0.0552 0.9677
vn -0.2456 0.0548 0.9678
vn -0.2455 0.0548 0.9678
vn -0.2474 -0.0271 0.9685
vn -0.2474 -0.0269 0.9685
vn -0.2474 -0.0274 0.9685
vn -0.2474 -0.0270 0.9685
vn -0.2460 0.0556 0.9677
vn -0.2459 0.0556 0.9677
vn -0.2453 0.0715 0.9668
vn -0.2453 0.0714 0.9668
vn -0.2434 0.1111 0.9635
vn -0.2434 0.1112 0.9635
vn -0.2433 0.1111 0.9636
vn -0.2435 0.1114 0.9635
vn 0.8453 -0.5008 -0.1862
vn 0.7793 -0.6050 -0.1635
vn 0.7982 -0.5746 -0.1806
vn 0.7464 -0.6436 -0.1693
vn 0.8984 -0.3877 -0.2061
vn 0.7798 -0.5932 -0.2000
vn 0.9197 -0.3286 -0.2149
vn -0.7827 -0.5835 0.2167
vn -0.7889 -0.5689 0.2324
vn -0.7800 -0.5853 0.2215
vn -0.8419 -0.4827 0.2410
vn -0.8420 -0.4827 0.2410
vn -0.8969 -0.3659 0.2484
vn -0.9369 -0.2426 0.2516
vn -0.9612 -0.1153 0.2505
vn -0.9694 0.0138 0.2453
vn -0.9613 0.1422 0.2360
vn -0.9374 0.2676 0.2228
vn -0.8984 0.3877 0.2061
vn -0.8736 0.4453 0.1965
vn -0.8735 0.4455 0.1965
vn 0.7021 -0.6869 -0.1878
vn -0.6093 -0.7816 0.1338
vn -0.5117 -0.8525 0.1069
vn -0.6982 -0.6981 0.1588
vn -0.7309 -0.6587 0.1785
vn -0.7442 -0.6413 0.1869
vn 0.7170 -0.6672 -0.2018
vn 0.6034 -0.7778 -0.1759
vn 0.5041 -0.8501 -0.1525
vn 0.5040 -0.8501 -0.1525
vn 0.3976 -0.9087 -0.1270
vn 0.2859 -0.9531 -0.0997
vn 0.1704 -0.9828 -0.0710
vn 0.0529 -0.9977 -0.0414
vn -0.0651 -0.9978 -0.0113
vn -0.0652 -0.9978 -0.0113
vn -0.1821 -0.9831 0.0190
vn -0.2966 -0.9537 0.0491
vn -0.4069 -0.9101 0.0785
vn -0.4070 -0.9101 0.0785
vn -0.8453 0.5009 0.1861
vn 0.9693 -0.0140 -0.2455
vn 0.9612 -0.1424 -0.2361
vn 0.9374 -0.2678 -0.2229
vn -0.8454 0.5007 0.1861
vn -0.7793 0.6050 0.1633
vn -0.7901 0.5918 0.1599
vn -0.7799 0.6106 0.1372
vn -0.7463 0.6507 0.1401
vn 0.7597 0.6055 -0.2372
vn 0.7889 0.5685 -0.2332
vn 0.6987 0.6766 -0.2325
vn 0.7731 0.5909 -0.2304
vn 0.8419 0.4826 -0.2417
vn 0.8968 0.3657 -0.2489
vn 0.8968 0.3657 -0.2490
vn 0.9369 0.2424 -0.2520
vn 0.9612 0.1151 -0.2509
vn -0.7102 0.6957 0.1075
vn -0.7341 0.6703 0.1081
vn -0.6224 0.7798 0.0673
vn -0.5277 0.8487 0.0354
vn -0.5278 0.8487 0.0354
vn -0.4255 0.9049 0.0031
vn -0.4256 0.9049 0.0031
vn -0.3171 0.9479 -0.0293
vn -0.2038 0.9771 -0.0612
vn -0.2037 0.9771 -0.0612
vn -0.0869 0.9919 -0.0925
vn 0.0320 0.9920 -0.1225
vn 0.1512 0.9769 -0.1509
vn 0.2692 0.9466 -0.1772
vn 0.3841 0.9012 -0.2010
vn 0.4937 0.8409 -0.2217
vn 0.4938 0.8409 -0.2217
vn 0.5961 0.7665 -0.2390
vn 0.6061 0.7603 -0.2337
vn 0.2455 0.0548 0.9679
vn 0.2457 0.0548 0.9678
vn 0.2458 0.0552 0.9677
vn 0.2456 0.0548 0.9678
vn 0.2463 0.0308 0.9687
vn 0.2464 0.0292 0.9687
vn 0.2474 -0.0271 0.9685
vn 0.2474 -0.0270 0.9685
vn 0.2474 -0.0273 0.9685
vn 0.2453 0.0716 0.9668
vn 0.2453 0.0714 0.9668
vn 0.2459 0.0557 0.9677
vn 0.2459 0.0556 0.9677
vn 0.2460 0.0556 0.9677
vn 0.2436 0.1114 0.9635
vn 0.2434 0.1111 0.9636
vn 0.2434 0.1112 0.9635
vn 0.2434 0.1111 0.9635
vt 0.126667 0.690000
vt 0.206667 0.690000
vt 0.166667 0.810000
s 1
f 1/1/1 2/2/2 3/3/3
f 2/1/2 1/2/1 4/3/4
f 2/1/2 5/2/5 3/3/3
f 6/1/6 4/2/4 1/3/1
f 4/1/4 6/2/6 7/3/7
f 5/1/5 8/2/8 3/3/3
f 7/1/7 6/2/6 9/3/9
f 10/1/10 11/2/11 12/3/12
f 11/1/11 13/2/13 14/3/14
f 13/1/13 11/2/11 10/3/10
f 14/1/14 15/2/15 16/3/15
f 15/1/15 14/2/14 13/3/13
f 16/1/15 17/2/16 18/3/17
f 17/1/16 16/2/15 15/3/15
f 17/1/16 19/2/18 18/3/17
f 19/1/18 17/2/16 20/3/18
f 20/1/18 21/2/19 19/3/18
f 21/1/19 20/2/18 22/3/19
f 22/1/19 23/2/20 21/3/19
f 23/1/20 22/2/19 24/3/20
f 24/1/20 25/2/21 23/3/20
f 25/1/21 24/2/20 26/3/21
f 26/1/21 27/2/22 25/3/21
f 27/1/22 26/2/21 28/3/22
f 29/1/23 30/2/24 27/3/22
f 5/1/5 31/2/25 8/3/8
f 32/1/26 7/2/7 9/3/9
f 33/1/27 34/2/28 35/3/27
f 34/1/28 33/2/27 36/3/28
f 36/1/28 37/2/29 34/3/28
f 37/1/29 36/2/28 38/3/30
f 39/1/31 12/2/12 37/3/29
f 31/1/25 40/2/32 8/3/8
f 31/1/25 41/2/33 40/3/32
f 41/1/33 31/2/25 42/3/34
f 42/1/34 43/2/35 41/3/33
f 43/1/35 42/2/34 44/3/35
f 44/1/35 45/2/36 43/3/35
f 45/1/36 44/2/35 46/3/36
f 46/1/36 47/2/37 45/3/36
f 47/1/37 46/2/36 48/3/38
f 48/1/38 49/2/39 47/3/37
f 49/1/39 48/2/38 50/3/39
f 50/1/39 51/2/40 49/3/39
f 51/1/40 50/2/39 52/3/40
f 52/1/40 53/2/41 51/3/40
f 53/1/41 52/2/40 54/3/42
f 54/1/42 55/2/43 53/3/41
f 55/1/43 54/2/42 56/3/43
f 56/1/43 57/2/44 55/3/43
f 57/1/44 56/2/43 58/3/45
f 58/1/45 59/2/46 57/3/44
f 59/1/46 58/2/45 60/3/46
f 60/1/46 35/2/27 59/3/46
f 35/1/27 60/2/46 33/3/27
f 39/1/31 10/2/10 12/3/12
f 29/1/23 27/2/22 28/3/22
f 61/1/47 30/2/24 29/3/23
f 62/1/48 63/2/49 64/3/49
f 63/1/49 62/2/48 65/3/48
f 64/1/49 66/2/50 67/3/51
f 66/1/50 64/2/49 63/3/49
f 32/1/26 9/2/9 67/3/51
f 61/1/47 68/2/52 30/3/24
f 61/1/47 69/2/53 68/3/52
f 69/1/53 61/2/47 70/3/54
f 71/1/55 72/2/56 69/3/53
f 73/1/57 74/2/58 75/3/59
f 73/1/57 76/2/60 74/3/58
f 76/1/60 73/2/57 77/3/60
f 77/1/60 78/2/61 76/3/60
f 78/1/61 77/2/60 79/3/61
f 79/1/61 80/2/62 78/3/61
f 80/1/62 79/2/61 81/3/62
f 81/1/62 82/2/63 80/3/62
f 82/1/63 81/2/62 83/3/63
f 82/1/63 84/2/64 85/3/65
f 84/1/64 82/2/63 83/3/63
f 85/1/65 65/2/48 62/3/48
f 65/1/48 85/2/65 84/3/64
f 38/1/30 39/2/31 37/3/29
f 66/1/50 32/2/26 67/3/51
f 71/1/55 69/2/53 70/3/54
f 86/1/66 72/2/56 71/3/55
f 86/1/66 87/2/67 72/3/56
f 87/1/67 88/2/68 89/3/68
f 88/1/68 87/2/67 86/3/66
f 89/1/68 90/2/69 91/3/70
f 90/1/69 89/2/68 88/3/68
f 91/1/70 92/2/71 93/3/72
f 92/1/71 91/2/70 90/3/69
f 93/1/72 94/2/73 95/3/74
f 94/1/73 93/2/72 92/3/71
f 95/1/74 96/2/75 97/3/76
f 96/1/75 95/2/74 94/3/73
f 97/1/76 98/2/77 99/3/77
f 98/1/77 97/2/76 96/3/75
f 99/1/77 100/2/78 101/3/78
f 100/1/78 99/2/77 98/3/77
f 101/1/78 102/2/79 103/3/80
f 102/1/79 101/2/78 100/3/78
f 103/1/80 104/2/81 105/3/81
f 104/1/81 103/2/80 102/3/79
f 105/1/81 106/2/82 107/3/82
f 106/1/82 105/2/81 104/3/81
f 107/1/82 108/2/83 109/3/84
f 108/1/83 107/2/82 106/3/82
f 109/1/84 110/2/85 111/3/86
f 110/1/85 109/2/84 108/3/83
f 111/1/86 73/2/57 75/3/59
f 110/1/85 73/2/57 111/3/86
f 112/1/87 113/2/88 114/3/89
f 113/1/88 112/2/87 115/3/87
f 115/1/87 112/2/87 116/3/87
f 115/1/87 116/2/87 117/3/87
f 117/1/87 116/2/87 118/3/87
f 117/1/87 118/2/87 119/3/87
f 119/1/87 118/2/87 120/3/87
f 119/1/87 120/2/87 121/3/90
f 121/1/90 120/2/87 122/3/90
f 122/1/90 120/2/87 123/3/87
f 122/1/90 123/2/87 124/3/91
f 122/1/90 124/2/91 125/3/87
f 122/1/90 125/2/87 126/3/91
f 122/1/90 126/2/91 127/3/92
f 128/1/93 129/2/94 130/3/95
f 129/1/94 128/2/93 131/3/93
f 131/1/93 128/2/93 132/3/93
f 131/1/93 132/2/93 133/3/93
f 133/1/93 132/2/93 134/3/96
f 133/1/93 134/2/96 135/3/93
f 135/1/93 134/2/96 136/3/93
f 135/1/93 136/2/93 137/3/93
f 137/1/93 136/2/93 138/3/93
f 137/1/93 138/2/93 139/3/93
f 139/1/93 138/2/93 140/3/93
f 139/1/93 140/2/93 141/3/93
f 141/1/93 140/2/93 114/3/89
f 141/1/93 114/2/89 113/3/88
f 122/1/90 142/2/97 121/3/90
f 142/1/97 122/2/90 143/3/97
f 143/1/97 122/2/90 144/3/98
f 144/1/98 122/2/90 145/3/98
f 145/1/98 122/2/90 146/3/97
f 146/1/97 122/2/90 147/3/97
f 147/1/97 122/2/90 148/3/97
f 148/1/97 122/2/90 149/3/98
f 148/1/97 149/2/98 150/3/97
f 148/1/97 150/2/97 151/3/98
f 151/1/98 150/2/97 152/3/99
f 151/1/98 152/2/99 153/3/98
f 153/1/98 152/2/99 154/3/100
f 155/1/101 154/2/100 152/3/99
f 154/1/100 155/2/101 156/3/102
f 154/1/100 156/2/102 157/3/101
f 157/1/101 156/2/102 158/3/102
f 157/1/101 158/2/102 159/3/101
f 159/1/101 158/2/102 160/3/102
f 159/1/101 160/2/102 161/3/102
f 161/1/102 160/2/102 162/3/101
f 161/1/102 162/2/101 163/3/101
f 163/1/101 162/2/101 164/3/101
f 163/1/101 164/2/101 165/3/101
f 165/1/101 164/2/101 166/3/103
f 165/1/101 166/2/103 167/3/104
f 168/1/105 169/2/105 170/3/106
f 171/1/107 170/2/106 169/3/105
f 171/1/107 172/2/108 170/3/106
f 173/1/109 174/2/109 168/3/105
f 169/1/105 168/2/105 174/3/109
f 171/1/107 175/2/110 172/3/108
f 176/1/111 174/2/109 173/3/109
f 177/1/112 178/2/113 179/3/114
f 179/1/114 178/2/113 180/3/115
f 181/1/116 180/2/115 178/3/113
f 180/1/115 181/2/116 182/3/117
f 183/1/117 182/2/117 181/3/116
f 182/1/117 183/2/117 184/3/118
f 185/1/118 184/2/118 183/3/117
f 186/1/119 184/2/118 187/3/119
f 185/1/118 187/2/119 184/3/118
f 188/1/120 186/2/119 189/3/120
f 187/1/119 189/2/120 186/3/119
f 190/1/121 188/2/120 191/3/121
f 189/1/120 191/2/121 188/3/120
f 192/1/122 190/2/121 193/3/122
f 191/1/121 193/2/122 190/3/121
f 194/1/123 192/2/122 195/3/123
f 193/1/122 195/2/123 192/3/122
f 195/1/123 196/2/124 197/3/125
f 175/1/110 198/2/126 172/3/108
f 176/1/111 173/2/109 199/3/111
f 200/1/127 201/2/128 202/3/127
f 203/1/128 202/2/127 201/3/128
f 204/1/129 200/2/127 205/3/130
f 202/1/127 205/2/130 200/3/127
f 205/1/130 177/2/112 206/3/131
f 175/1/110 207/2/132 198/3/126
f 208/1/133 198/2/126 209/3/133
f 207/1/132 209/2/133 198/3/126
f 210/1/134 208/2/133 211/3/135
f 209/1/133 211/2/135 208/3/133
f 212/1/136 210/2/134 213/3/136
f 211/1/135 213/2/136 210/3/134
f 214/1/137 212/2/136 215/3/137
f 213/1/136 215/2/137 212/3/136
f 216/1/138 214/2/137 217/3/138
f 215/1/137 217/2/138 214/3/137
f 218/1/139 216/2/138 219/3/139
f 217/1/138 219/2/139 216/3/138
f 220/1/140 218/2/139 221/3/141
f 219/1/139 221/2/141 218/3/139
f 222/1/142 220/2/140 223/3/142
f 221/1/141 223/2/142 220/3/140
f 224/1/143 222/2/142 225/3/143
f 223/1/142 225/2/143 222/3/142
f 226/1/144 224/2/143 227/3/145
f 225/1/143 227/2/145 224/3/143
f 201/1/128 226/2/144 203/3/128
f 227/1/145 203/2/128 226/3/144
f 177/1/112 179/2/114 206/3/131
f 194/1/123 195/2/123 197/3/125
f 197/1/125 196/2/124 228/3/146
f 229/1/147 230/2/147 231/3/148
f 232/1/148 231/2/148 230/3/147
f 231/1/148 232/2/148 233/3/149
f 234/1/149 233/2/149 232/3/148
f 234/1/149 176/2/111 199/3/111
f 196/1/124 235/2/150 228/3/146
f 236/1/151 228/2/146 237/3/152
f 235/1/150 237/2/152 228/3/146
f 237/1/152 238/2/153 239/3/154
f 240/1/155 241/2/156 242/3/157
f 243/1/158 242/2/157 244/3/158
f 241/1/156 244/2/158 242/3/157
f 245/1/159 243/2/158 246/3/159
f 244/1/158 246/2/159 243/3/158
f 247/1/160 245/2/159 248/3/161
f 246/1/159 248/2/161 245/3/159
f 249/1/162 247/2/160 250/3/162
f 248/1/161 250/2/162 247/3/160
f 249/1/162 250/2/162 251/3/163
f 252/1/163 251/2/163 250/3/162
f 251/1/163 252/2/163 229/3/147
f 230/1/147 229/2/147 252/3/163
f 205/1/130 206/2/131 204/3/129
f 234/1/149 199/2/111 233/3/149
f 236/1/151 237/2/152 239/3/154
f 239/1/154 238/2/153 253/3/164
f 238/1/153 254/2/165 253/3/164
f 253/1/164 254/2/165 255/3/166
f 256/1/166 255/2/166 254/3/165
f 255/1/166 256/2/166 257/3/167
f 258/1/168 257/2/167 256/3/166
f 257/1/167 258/2/168 259/3/169
f 260/1/170 259/2/169 258/3/168
f 259/1/169 260/2/170 261/3/171
f 262/1/171 261/2/171 260/3/170
f 261/1/171 262/2/171 263/3/172
f 264/1/173 263/2/172 262/3/171
f 263/1/172 264/2/173 265/3/174
f 266/1/174 265/2/174 264/3/173
f 265/1/174 266/2/174 267/3/175
f 268/1/175 267/2/175 266/3/174
f 267/1/175 268/2/175 269/3/176
f 270/1/176 269/2/176 268/3/175
f 269/1/176 270/2/176 271/3/177
f 272/1/177 271/2/177 270/3/176
f 271/1/177 272/2/177 273/3/178
f 274/1/178 273/2/178 272/3/177
f 273/1/178 274/2/178 275/3/179
f 276/1/180 275/2/179 274/3/178
f 275/1/179 276/2/180 277/3/181
f 278/1/182 277/2/181 276/3/180
f 240/1/155 242/2/157 278/3/182
f 278/1/182 242/2/157 277/3/181
f 279/1/183 280/2/184 281/3/185
f 280/1/184 282/2/186 281/3/185
f 282/1/186 283/2/184 281/3/185
f 283/1/184 284/2/184 281/3/185
f 284/1/184 285/2/184 281/3/185
f 281/1/185 285/2/184 286/3/185
f 286/1/185 285/2/184 287/3/184
f 285/1/184 288/2/184 287/3/184
f 287/1/184 288/2/184 289/3/184
f 288/1/184 290/2/184 289/3/184
f 289/1/184 290/2/184 291/3/184
f 290/1/184 292/2/184 291/3/184
f 291/1/184 292/2/184 293/3/187
f 294/1/188 293/2/187 292/3/184
f 293/1/187 294/2/188 295/3/189
f 294/1/188 296/2/190 295/3/189
f 295/1/189 296/2/190 297/3/189
f 296/1/190 298/2/189 297/3/189
f 297/1/189 298/2/189 299/3/189
f 298/1/189 300/2/189 299/3/189
f 299/1/189 300/2/189 301/3/189
f 300/1/189 302/2/189 301/3/189
f 301/1/189 302/2/189 303/3/189
f 302/1/189 304/2/189 303/3/189
f 303/1/189 304/2/189 305/3/189
f 304/1/189 306/2/189 305/3/189
f 305/1/189 306/2/189 307/3/190
f 308/1/191 307/2/190 306/3/189
f 309/1/192 310/2/193 311/3/194
f 311/1/194 310/2/193 312/3/195
f 310/1/193 313/2/195 312/3/195
f 312/1/195 313/2/195 314/3/196
f 313/1/195 315/2/195 314/3/196
f 315/1/195 281/2/185 314/3/196
f 314/1/196 281/2/185 316/3/196
f 316/1/196 281/2/185 317/3/196
f 317/1/196 281/2/185 318/3/196
f 318/1/196 281/2/185 319/3/195
f 319/1/195 281/2/185 320/3/196
f 320/1/196 281/2/185 321/3/196
f 286/1/185 321/2/196 281/3/185
f 322/1/197 323/2/198 324/3/199
f 323/1/198 325/2/200 324/3/199
f 324/1/199 325/2/200 326/3/199
f 325/1/200 327/2/200 326/3/199
f 326/1/199 327/2/200 328/3/200
f 327/1/200 329/2/199 328/3/200
f 328/1/200 329/2/199 330/3/200
f 329/1/199 331/2/200 330/3/200
f 330/1/200 331/2/200 332/3/200
f 331/1/200 333/2/199 332/3/200
f 332/1/200 333/2/199 309/3/192
f 333/1/199 334/2/200 309/3/192
f 310/1/193 309/2/192 334/3/200
