# Blender 5.2.0 LTS
# www.blender.org
o Hand_Grip_R
v -0.226903 0.574655 0.067936
v -0.230208 0.585750 0.069170
v -0.230518 0.577753 0.074140
v -0.227442 0.583379 0.064422
v -0.227747 0.564999 0.071194
v -0.232148 0.568771 0.078747
v -0.224631 0.572707 0.060711
v -0.225703 0.581888 0.058892
v -0.231225 0.592627 0.063923
v -0.229354 0.591023 0.060711
v -0.233814 0.588840 0.072813
v -0.235228 0.581790 0.078900
v -0.229959 0.554578 0.074140
v -0.235071 0.558959 0.082913
v -0.224981 0.562628 0.062398
v -0.237883 0.573686 0.084543
v -0.223856 0.572043 0.052958
v -0.225110 0.581380 0.052958
v -0.228178 0.590015 0.056972
v -0.233551 0.598264 0.058488
v -0.232608 0.597456 0.056868
v -0.233664 0.594716 0.066387
v -0.238012 0.592438 0.075104
v -0.240714 0.586491 0.081893
v -0.233502 0.543568 0.076723
v -0.239237 0.548484 0.086567
v -0.226746 0.551823 0.063923
v -0.241732 0.564668 0.089645
v -0.224037 0.561819 0.052958
v -0.244561 0.579411 0.088186
v -0.224631 0.572707 0.045206
v -0.225703 0.581888 0.047025
v -0.227777 0.589671 0.052958
v -0.232014 0.596947 0.054982
v -0.237146 0.602567 0.052958
v -0.234781 0.599318 0.059731
v -0.236503 0.597150 0.067936
v -0.246600 0.591537 0.082913
v -0.242517 0.596300 0.075885
v -0.238314 0.532160 0.078900
v -0.244574 0.537526 0.089646
v -0.229897 0.540478 0.065260
v -0.246711 0.554890 0.094120
v -0.225650 0.550884 0.052958
v -0.249490 0.571317 0.093878
v -0.224981 0.562628 0.043519
v -0.251728 0.585553 0.089429
v -0.227442 0.583379 0.041495
v -0.226903 0.574655 0.037981
v -0.228178 0.590015 0.048945
v -0.231812 0.596774 0.052958
v -0.236213 0.600546 0.060512
v -0.239550 0.599762 0.068464
v -0.252487 0.596582 0.081893
v -0.247023 0.600162 0.075104
v -0.244313 0.520548 0.080633
v -0.250992 0.526272 0.092096
v -0.234378 0.528787 0.066387
v -0.252733 0.544519 0.097891
v -0.228667 0.539424 0.052958
v -0.255414 0.562350 0.098868
v -0.226746 0.551823 0.041994
v -0.257815 0.578452 0.095321
v -0.227747 0.564999 0.034723
v -0.258895 0.591696 0.088186
v -0.230208 0.585750 0.036747
v -0.230518 0.577753 0.031777
v -0.229354 0.591023 0.045206
v -0.232014 0.596947 0.050934
v -0.237750 0.601863 0.060778
v -0.242597 0.602374 0.067936
v -0.251221 0.603760 0.072813
v -0.257972 0.601284 0.078900
v -0.251398 0.508930 0.081893
v -0.258380 0.514915 0.093878
v -0.240115 0.516949 0.067284
v -0.259696 0.533732 0.100892
v -0.233036 0.527636 0.052958
v -0.262234 0.552662 0.103074
v -0.229897 0.540478 0.040657
v -0.264754 0.570356 0.100488
v -0.229959 0.554578 0.031777
v -0.266139 0.585588 0.093878
v -0.232148 0.568771 0.027170
v -0.265574 0.597421 0.084543
v -0.233814 0.588840 0.033103
v -0.235228 0.581790 0.027017
v -0.231225 0.592627 0.041994
v -0.232608 0.597456 0.049048
v -0.239286 0.603180 0.060512
v -0.245437 0.604807 0.066387
v -0.254826 0.606850 0.069170
v -0.262682 0.605321 0.074140
v -0.259446 0.497506 0.082657
v -0.266613 0.503648 0.094959
v -0.247008 0.505168 0.067936
v -0.267480 0.522714 0.103074
v -0.238683 0.515722 0.052958
v -0.269831 0.542419 0.106422
v -0.234378 0.528787 0.039530
v -0.272429 0.561401 0.104842
v -0.233502 0.543568 0.029194
v -0.274095 0.578361 0.098868
v -0.235071 0.558959 0.023004
v -0.273897 0.592237 0.089645
v -0.237883 0.573686 0.021374
v -0.271309 0.602336 0.078747
v -0.238012 0.592438 0.030813
v -0.240714 0.586491 0.024024
v -0.233664 0.594716 0.039530
v -0.233551 0.598264 0.047429
v -0.240718 0.604407 0.059731
v -0.247875 0.606897 0.063923
v -0.257593 0.609221 0.064422
v -0.266297 0.608419 0.067936
v -0.268320 0.486470 0.082913
v -0.275549 0.492666 0.095321
v -0.254941 0.493644 0.068332
v -0.275953 0.511654 0.104398
v -0.245511 0.503884 0.052958
v -0.278077 0.531797 0.108855
v -0.240115 0.516949 0.038633
v -0.280708 0.551742 0.108308
v -0.238314 0.532160 0.027017
v -0.282625 0.570140 0.103074
v -0.239237 0.548484 0.019350
v -0.282799 0.585821 0.094120
v -0.241732 0.564668 0.016271
v -0.280558 0.597946 0.082913
v -0.244561 0.579411 0.017730
v -0.275710 0.606108 0.071194
v -0.246600 0.591537 0.023004
v -0.242517 0.596300 0.030032
v -0.236503 0.597150 0.037981
v -0.234781 0.599318 0.046186
v -0.241948 0.605461 0.058488
v -0.249746 0.608501 0.060711
v -0.259332 0.610712 0.058892
v -0.268569 0.610366 0.060711
v -0.285035 0.482155 0.094959
v -0.277868 0.476012 0.082657
v -0.263776 0.482575 0.068464
v -0.284970 0.500741 0.104842
v -0.253404 0.492327 0.052958
v -0.286830 0.520977 0.110332
v -0.247008 0.505168 0.037981
v -0.289449 0.541544 0.110827
v -0.244313 0.520548 0.025284
v -0.291585 0.561064 0.106422
v -0.244574 0.537526 0.016271
v -0.292126 0.578283 0.097891
v -0.246711 0.554890 0.011797
v -0.290272 0.592227 0.086567
v -0.249490 0.571317 0.012039
v -0.285670 0.602328 0.074140
v -0.251728 0.585553 0.016488
v -0.278476 0.608479 0.062398
v -0.252487 0.596582 0.024024
v -0.247023 0.600162 0.030813
v -0.239550 0.599762 0.037453
v -0.236213 0.600546 0.045405
v -0.242892 0.606270 0.056868
v -0.250922 0.609509 0.056972
v -0.259925 0.611220 0.052958
v -0.269344 0.611031 0.052958
v -0.294909 0.472296 0.093878
v -0.287926 0.466311 0.081893
v -0.273363 0.472151 0.068332
v -0.294375 0.490161 0.104398
v -0.262226 0.481247 0.052958
v -0.295940 0.510144 0.110827
v -0.254941 0.493644 0.037585
v -0.298502 0.530981 0.112356
v -0.251398 0.508930 0.024024
v -0.300821 0.551291 0.108855
v -0.250992 0.526272 0.013820
v -0.301721 0.569752 0.100892
v -0.252733 0.544519 0.008026
v -0.300285 0.585276 0.089645
v -0.255414 0.562350 0.007048
v -0.296008 0.597142 0.076723
v -0.257815 0.578452 0.010596
v -0.288883 0.605082 0.063923
v -0.258895 0.591696 0.017730
v -0.279419 0.609288 0.052958
v -0.251221 0.603760 0.033103
v -0.257972 0.601284 0.027017
v -0.242597 0.602374 0.037981
v -0.237750 0.601863 0.045139
v -0.243484 0.606778 0.054982
v -0.251323 0.609853 0.052958
v -0.268569 0.610366 0.045206
v -0.259332 0.610712 0.047025
v -0.298324 0.457533 0.080633
v -0.305002 0.463257 0.092096
v -0.283537 0.462549 0.067936
v -0.304009 0.480096 0.103074
v -0.271826 0.470834 0.052958
v -0.305252 0.499483 0.110332
v -0.263776 0.482575 0.037453
v -0.307714 0.520234 0.112868
v -0.259446 0.497506 0.023260
v -0.310175 0.540985 0.110332
v -0.258380 0.514915 0.012039
v -0.311418 0.560373 0.103074
v -0.259696 0.533732 0.005024
v -0.310425 0.577212 0.092096
v -0.262234 0.552662 0.002843
v -0.306545 0.590642 0.078900
v -0.264754 0.570356 0.005429
v -0.299613 0.600233 0.065260
v -0.266139 0.585588 0.012039
v -0.289979 0.606021 0.052958
v -0.265574 0.597421 0.021374
v -0.278476 0.608479 0.043519
v -0.254826 0.606850 0.036747
v -0.262682 0.605321 0.031777
v -0.245437 0.604807 0.039530
v -0.239286 0.603180 0.045405
v -0.243687 0.606952 0.052958
v -0.250922 0.609509 0.048945
v -0.266297 0.608419 0.037981
v -0.257593 0.609221 0.041495
v -0.308882 0.449827 0.078900
v -0.315142 0.455193 0.089646
v -0.294125 0.453934 0.067284
v -0.313706 0.470717 0.100892
v -0.282040 0.461266 0.052958
v -0.314606 0.489178 0.108855
v -0.273363 0.472151 0.037585
v -0.316925 0.509488 0.112356
v -0.268320 0.486470 0.023004
v -0.319487 0.530325 0.110827
v -0.266613 0.503648 0.010958
v -0.321052 0.550308 0.104398
v -0.267480 0.522714 0.002843
v -0.320518 0.568173 0.093878
v -0.269831 0.542419 -0.000505
v -0.317103 0.582936 0.080633
v -0.272429 0.561401 0.001075
v -0.310481 0.594015 0.066387
v -0.274095 0.578361 0.007048
v -0.300843 0.601286 0.052958
v -0.273897 0.592237 0.016271
v -0.288883 0.605082 0.041994
v -0.271309 0.602336 0.027170
v -0.275710 0.606108 0.034723
v -0.247875 0.606897 0.041994
v -0.240718 0.604407 0.046186
v -0.243484 0.606778 0.050934
v -0.249746 0.608501 0.045206
v -0.319419 0.443326 0.076723
v -0.325155 0.448242 0.086567
v -0.304946 0.446454 0.066387
v -0.323300 0.462186 0.097891
v -0.292694 0.452707 0.052958
v -0.323842 0.479404 0.106422
v -0.283537 0.462549 0.037981
v -0.325978 0.498925 0.110827
v -0.277868 0.476012 0.023260
v -0.328597 0.519492 0.110332
v -0.275549 0.492666 0.010596
v -0.330457 0.539728 0.104842
v -0.275953 0.511654 0.001519
v -0.330392 0.558314 0.094959
v -0.278077 0.531797 -0.002938
v -0.327501 0.574158 0.081893
v -0.280708 0.551742 -0.002391
v -0.321302 0.586534 0.067284
v -0.282625 0.570140 0.002843
v -0.311823 0.595165 0.052958
v -0.282799 0.585821 0.011797
v -0.299613 0.600233 0.040657
v -0.280558 0.597946 0.023004
v -0.285670 0.602328 0.031777
v -0.241948 0.605461 0.047429
v -0.242892 0.606270 0.049048
v -0.329757 0.438141 0.074140
v -0.334868 0.442523 0.082913
v -0.315814 0.440236 0.065260
v -0.332628 0.454648 0.094120
v -0.303604 0.445304 0.052958
v -0.332802 0.470329 0.103074
v -0.294125 0.453934 0.038633
v -0.334719 0.488727 0.108308
v -0.287926 0.466311 0.024024
v -0.337350 0.508672 0.108855
v -0.285035 0.482155 0.010958
v -0.339474 0.528815 0.104398
v -0.284970 0.500741 0.001075
v -0.339878 0.547803 0.095321
v -0.286830 0.520977 -0.004415
v -0.337559 0.564457 0.082657
v -0.289449 0.541544 -0.004910
v -0.331890 0.577920 0.067936
v -0.291585 0.561064 -0.000505
v -0.322734 0.587762 0.052958
v -0.292126 0.578283 0.008026
v -0.310481 0.594015 0.039530
v -0.290272 0.592227 0.019350
v -0.296008 0.597142 0.029194
v -0.339717 0.434361 0.071194
v -0.344118 0.438133 0.078747
v -0.326544 0.435387 0.063923
v -0.341530 0.448232 0.089646
v -0.314584 0.439182 0.052958
v -0.341332 0.462108 0.098868
v -0.304946 0.446454 0.039530
v -0.342997 0.479068 0.104842
v -0.298324 0.457533 0.025284
v -0.345595 0.498050 0.106422
v -0.294909 0.472296 0.012039
v -0.347947 0.517755 0.103074
v -0.294375 0.490161 0.001519
v -0.348814 0.536820 0.094959
v -0.295940 0.510144 -0.004910
v -0.347107 0.553999 0.082913
v -0.298502 0.530981 -0.006439
v -0.342064 0.568318 0.068332
v -0.300821 0.551291 -0.002938
v -0.333387 0.579203 0.052958
v -0.301721 0.569752 0.005024
v -0.321302 0.586534 0.038633
v -0.300285 0.585276 0.016271
v -0.306545 0.590642 0.027017
v -0.349130 0.432050 0.067936
v -0.352745 0.435148 0.074140
v -0.336951 0.431990 0.062398
v -0.349853 0.443048 0.084543
v -0.325448 0.434448 0.052958
v -0.349288 0.454881 0.093878
v -0.315814 0.440236 0.040657
v -0.350672 0.470113 0.100488
v -0.308882 0.449827 0.027017
v -0.353193 0.487807 0.103074
v -0.305002 0.463257 0.013820
v -0.355731 0.506737 0.100892
v -0.304009 0.480096 0.002843
v -0.357047 0.525554 0.093878
v -0.305252 0.499483 -0.004415
v -0.355981 0.542963 0.082657
v -0.307714 0.520234 -0.006951
v -0.351651 0.557894 0.068464
v -0.310175 0.540985 -0.004415
v -0.343601 0.569635 0.052958
v -0.311418 0.560373 0.002843
v -0.331890 0.577920 0.037981
v -0.310425 0.577212 0.013820
v -0.317103 0.582936 0.025284
v -0.357834 0.431248 0.064422
v -0.360601 0.433619 0.069170
v -0.346858 0.430103 0.060711
v -0.357455 0.439185 0.078900
v -0.336008 0.431181 0.052958
v -0.356531 0.448773 0.088186
v -0.326544 0.435387 0.041994
v -0.357612 0.462016 0.095321
v -0.319419 0.443326 0.029194
v -0.360013 0.478119 0.098868
v -0.315142 0.455193 0.016271
v -0.362694 0.495950 0.097891
v -0.313706 0.470717 0.005024
v -0.364435 0.514197 0.092096
v -0.314606 0.489178 -0.002938
v -0.364029 0.531539 0.081893
v -0.316925 0.509488 -0.006439
v -0.360486 0.546825 0.068332
v -0.319487 0.530325 -0.004910
v -0.353201 0.559222 0.052958
v -0.321052 0.550308 0.001519
v -0.342064 0.568318 0.037585
v -0.320518 0.568173 0.012039
v -0.327501 0.574158 0.024024
v -0.365681 0.431968 0.060711
v -0.367552 0.433572 0.063923
v -0.356095 0.429757 0.058892
v -0.364206 0.436709 0.072813
v -0.346083 0.429438 0.052958
v -0.362940 0.443887 0.081893
v -0.336951 0.431990 0.043519
v -0.363699 0.454915 0.089429
v -0.329757 0.438141 0.031777
v -0.365937 0.469152 0.093878
v -0.325155 0.448242 0.019350
v -0.368716 0.485579 0.094120
v -0.323300 0.462186 0.008026
v -0.370853 0.502943 0.089646
v -0.323842 0.479404 -0.000505
v -0.371114 0.519921 0.080633
v -0.325978 0.498925 -0.004910
v -0.368418 0.535301 0.067936
v -0.328597 0.519492 -0.004415
v -0.362023 0.548142 0.052958
v -0.330457 0.539728 0.001075
v -0.351651 0.557894 0.037453
v -0.330392 0.558314 0.010958
v -0.337559 0.564457 0.023260
v -0.372535 0.434199 0.056868
v -0.373479 0.435008 0.058488
v -0.364505 0.430960 0.056972
v -0.369990 0.435662 0.066387
v -0.355502 0.429249 0.052958
v -0.368404 0.440307 0.075104
v -0.346858 0.430103 0.045206
v -0.368827 0.448932 0.082913
v -0.339717 0.434361 0.034723
v -0.370866 0.461058 0.088186
v -0.334868 0.442522 0.023004
v -0.373695 0.475801 0.089646
v -0.332628 0.454648 0.011797
v -0.376190 0.491985 0.086567
v -0.332802 0.470329 0.002843
v -0.377113 0.508309 0.078900
v -0.334719 0.488727 -0.002391
v -0.375312 0.523520 0.067284
v -0.337350 0.508672 -0.002938
v -0.369916 0.536584 0.052958
v -0.339474 0.528815 0.001519
v -0.360486 0.546825 0.037585
v -0.339878 0.547803 0.010596
v -0.347107 0.553999 0.023004
v -0.378281 0.437902 0.052958
v -0.371942 0.433690 0.054982
v -0.374709 0.436062 0.059731
v -0.364104 0.430616 0.052958
v -0.372830 0.438095 0.067936
v -0.356095 0.429757 0.047025
v -0.372910 0.444169 0.075885
v -0.349130 0.432050 0.037981
v -0.374713 0.453978 0.081893
v -0.344118 0.438133 0.027170
v -0.377544 0.466783 0.084543
v -0.341530 0.448232 0.016271
v -0.380356 0.481510 0.082913
v -0.341332 0.462108 0.007048
v -0.381926 0.496900 0.076723
v -0.342997 0.479068 0.001075
v -0.381049 0.511682 0.066387
v -0.345595 0.498050 -0.000505
v -0.376744 0.524747 0.052958
v -0.347947 0.517755 0.002843
v -0.368418 0.535301 0.037981
v -0.348814 0.536820 0.010958
v -0.355981 0.542963 0.023260
v -0.371740 0.433517 0.052958
v -0.376141 0.437289 0.060512
v -0.364505 0.430960 0.048945
v -0.375877 0.440707 0.068464
v -0.357834 0.431248 0.041495
v -0.377415 0.448030 0.075104
v -0.352745 0.435148 0.031777
v -0.380199 0.458679 0.078900
v -0.349853 0.443048 0.021374
v -0.383279 0.471698 0.078747
v -0.349288 0.454881 0.012039
v -0.385468 0.485891 0.074140
v -0.350672 0.470113 0.005429
v -0.385531 0.499990 0.065260
v -0.353193 0.487807 0.002843
v -0.382391 0.512832 0.052958
v -0.355731 0.506737 0.005024
v -0.375312 0.523520 0.038633
v -0.357047 0.525554 0.012039
v -0.364029 0.531539 0.024024
v -0.371942 0.433690 0.050935
v -0.377677 0.438606 0.060778
v -0.365681 0.431968 0.045206
v -0.378924 0.443319 0.067936
v -0.360601 0.433619 0.036747
v -0.381613 0.451629 0.072813
v -0.357455 0.439185 0.027017
v -0.384909 0.462716 0.074140
v -0.356531 0.448773 0.017730
v -0.387680 0.475470 0.071194
v -0.357612 0.462016 0.010596
v -0.388681 0.488645 0.063923
v -0.360013 0.478119 0.007048
v -0.386760 0.501044 0.052958
v -0.362694 0.495950 0.008026
v -0.381049 0.511682 0.039530
v -0.364435 0.514197 0.013820
v -0.371114 0.519921 0.025284
v -0.372535 0.434199 0.049049
v -0.379214 0.439923 0.060512
v -0.367552 0.433572 0.041994
v -0.381763 0.445752 0.066387
v -0.364206 0.436709 0.033103
v -0.385218 0.454719 0.069170
v -0.362940 0.443887 0.024024
v -0.388524 0.465814 0.067936
v -0.363699 0.454915 0.016488
v -0.390446 0.477841 0.062398
v -0.365937 0.469152 0.012039
v -0.389777 0.489585 0.052958
v -0.368716 0.485579 0.011797
v -0.385531 0.499990 0.040657
v -0.370853 0.502943 0.016271
v -0.377113 0.508309 0.027017
v -0.373479 0.435008 0.047429
v -0.380646 0.441150 0.059731
v -0.369990 0.435662 0.039530
v -0.384202 0.447842 0.063923
v -0.368404 0.440307 0.030813
v -0.387985 0.457090 0.064422
v -0.368827 0.448932 0.023004
v -0.390796 0.467762 0.060711
v -0.370866 0.461058 0.017730
v -0.391390 0.478650 0.052958
v -0.373695 0.475801 0.016271
v -0.388681 0.488645 0.041994
v -0.376190 0.491985 0.019350
v -0.381926 0.496900 0.029194
v -0.374709 0.436062 0.046186
v -0.381876 0.442204 0.058488
v -0.372830 0.438095 0.037981
v -0.386072 0.449446 0.060711
v -0.372910 0.444169 0.030032
v -0.389724 0.458580 0.058892
v -0.374713 0.453978 0.024024
v -0.391571 0.468426 0.052958
v -0.377544 0.466783 0.021374
v -0.390446 0.477841 0.043519
v -0.380356 0.481510 0.023004
v -0.385468 0.485891 0.031777
v -0.376141 0.437289 0.045405
v -0.382819 0.443013 0.056868
v -0.375877 0.440707 0.037453
v -0.387249 0.450454 0.056972
v -0.377415 0.448030 0.030813
v -0.390317 0.459089 0.052958
v -0.380199 0.458679 0.027017
v -0.390796 0.467762 0.045206
v -0.383279 0.471698 0.027170
v -0.387680 0.475470 0.034723
v -0.377677 0.438606 0.045139
v -0.383412 0.443522 0.054982
v -0.378924 0.443319 0.037981
v -0.387650 0.450798 0.052958
v -0.381613 0.451629 0.033103
v -0.389724 0.458580 0.047025
v -0.384909 0.462716 0.031777
v -0.388524 0.465814 0.037981
v -0.379214 0.439923 0.045405
v -0.383615 0.443695 0.052958
v -0.381763 0.445752 0.039530
v -0.387249 0.450454 0.048945
v -0.385218 0.454719 0.036747
v -0.387985 0.457090 0.041495
v -0.380646 0.441150 0.046186
v -0.383412 0.443522 0.050935
v -0.384202 0.447842 0.041994
v -0.386072 0.449446 0.045206
v -0.381876 0.442204 0.047429
v -0.382819 0.443013 0.049049
vn 0.9250 0.1166 0.3617
vn 0.8428 0.3295 0.4255
vn 0.8377 0.1914 0.5115
vn 0.9154 0.2672 0.3009
vn 0.9138 -0.0143 0.4059
vn 0.8158 0.0697 0.5741
vn 0.9799 0.0696 0.1872
vn 0.9611 0.2281 0.1558
vn 0.8207 0.4791 0.3113
vn 0.8738 0.4336 0.2201
vn 0.7482 0.4106 0.5211
vn 0.7240 0.2889 0.6264
vn 0.8902 -0.1264 0.4377
vn 0.7845 -0.0359 0.6190
vn 0.9754 -0.0671 0.2101
vn 0.6882 0.1791 0.7031
vn 0.9986 0.0535 -0.0000
vn 0.9767 0.2148 -0.0000
vn 0.9072 0.4050 0.1139
vn 0.7601 0.6275 0.1688
vn 0.7889 0.6028 0.1194
vn 0.7515 0.5385 0.3813
vn 0.6380 0.5050 0.5813
vn 0.5915 0.4024 0.6987
vn 0.8593 -0.2227 0.4604
vn 0.7483 -0.1274 0.6511
vn 0.9566 -0.1833 0.2266
vn 0.6469 0.0821 0.7581
vn 0.9964 -0.0851 -0.0000
vn 0.5395 0.3065 0.7842
vn 0.9799 0.0696 -0.1872
vn 0.9611 0.2281 -0.1558
vn 0.9186 0.3952 -0.0000
vn 0.8070 0.5873 0.0618
vn 0.6508 0.7593 -0.0000
vn 0.7226 0.6596 0.2067
vn 0.6708 0.6075 0.4253
vn 0.4494 0.5243 0.7233
vn 0.5198 0.6064 0.6018
vn 0.8242 -0.3063 0.4764
vn 0.7092 -0.2077 0.6737
vn 0.9292 -0.2825 0.2383
vn 0.6035 -0.0033 0.7974
vn 0.9792 -0.2027 -0.0000
vn 0.4866 0.2195 0.8456
vn 0.9754 -0.0671 -0.2101
vn 0.3799 0.4433 0.8119
vn 0.9154 0.2672 -0.3009
vn 0.9250 0.1166 -0.3617
vn 0.9072 0.4050 -0.1140
vn 0.8132 0.5820 -0.0000
vn 0.6789 0.6971 0.2305
vn 0.5843 0.6817 0.4403
vn 0.3072 0.6461 0.6987
vn 0.4015 0.7078 0.5813
vn 0.7861 -0.3800 0.4874
vn 0.6685 -0.2792 0.6893
vn 0.8965 -0.3682 0.2466
vn 0.5594 -0.0793 0.8251
vn 0.9530 -0.3029 -0.0000
vn 0.4349 0.1412 0.8894
vn 0.9566 -0.1833 -0.2266
vn 0.3145 0.3670 0.8754
vn 0.9138 -0.0143 -0.4059
vn 0.2204 0.5800 0.7842
vn 0.8428 0.3295 -0.4255
vn 0.8377 0.1914 -0.5115
vn 0.8738 0.4336 -0.2201
vn 0.8070 0.5873 -0.0618
vn 0.6320 0.7373 0.2387
vn 0.4978 0.7559 0.4253
vn 0.2913 0.8022 0.5212
vn 0.1748 0.7596 0.6264
vn 0.7458 -0.4463 0.4946
vn 0.6264 -0.3440 0.6995
vn 0.8601 -0.4434 0.2523
vn 0.5152 -0.1478 0.8442
vn 0.9211 -0.3893 -0.0000
vn 0.3850 0.0702 0.9203
vn 0.9292 -0.2825 -0.2383
vn 0.2539 0.2963 0.9207
vn 0.8902 -0.1264 -0.4377
vn 0.1425 0.5144 0.8456
vn 0.8158 0.0697 -0.5741
vn 0.0717 0.7075 0.7031
vn 0.7482 0.4106 -0.5211
vn 0.7240 0.2889 -0.6264
vn 0.8207 0.4791 -0.3113
vn 0.7889 0.6028 -0.1194
vn 0.5851 0.7775 0.2305
vn 0.4172 0.8250 0.3813
vn 0.1967 0.8833 0.4255
vn 0.0610 0.8571 0.5115
vn 0.7030 -0.5070 0.4987
vn 0.5827 -0.4039 0.7052
vn 0.8208 -0.5106 0.2560
vn 0.4708 -0.2107 0.8567
vn 0.8853 -0.4650 -0.0000
vn 0.3367 0.0052 0.9416
vn 0.8965 -0.3682 -0.2466
vn 0.1977 0.2307 0.9527
vn 0.8594 -0.2227 -0.4604
vn 0.0730 0.4513 0.8894
vn 0.7845 -0.0359 -0.6190
vn -0.0178 0.6518 0.7581
vn 0.6882 0.1791 -0.7031
vn -0.0560 0.8169 0.5741
vn 0.6380 0.5050 -0.5813
vn 0.5915 0.4024 -0.6987
vn 0.7515 0.5385 -0.3813
vn 0.7601 0.6275 -0.1688
vn 0.5414 0.8150 0.2067
vn 0.3479 0.8843 0.3113
vn 0.1241 0.9456 0.3009
vn -0.0263 0.9319 0.3617
vn 0.6575 -0.5636 0.5000
vn 0.5369 -0.4602 0.7071
vn 0.7787 -0.5719 0.2581
vn 0.4258 -0.2695 0.8637
vn 0.8464 -0.5326 -0.0000
vn 0.2897 -0.0554 0.9555
vn 0.8601 -0.4434 -0.2523
vn 0.1452 0.1694 0.9748
vn 0.8242 -0.3063 -0.4764
vn 0.0105 0.3912 0.9203
vn 0.7483 -0.1274 -0.6511
vn -0.0956 0.5959 0.7974
vn 0.6469 0.0821 -0.7582
vn -0.1555 0.7698 0.6190
vn 0.5395 0.3065 -0.7842
vn -0.1539 0.9008 0.4059
vn 0.4493 0.5243 -0.7233
vn 0.5198 0.6064 -0.6018
vn 0.6708 0.6075 -0.4253
vn 0.7226 0.6596 -0.2067
vn 0.5038 0.8472 0.1688
vn 0.2948 0.9299 0.2202
vn 0.0784 0.9847 0.1557
vn -0.0812 0.9790 0.1872
vn 0.4883 -0.5140 0.7052
vn 0.6086 -0.6172 0.4987
vn 0.7334 -0.6286 0.2588
vn 0.3796 -0.3254 0.8660
vn 0.8045 -0.5940 -0.0000
vn 0.2432 -0.1129 0.9634
vn 0.8208 -0.5106 -0.2560
vn 0.0953 0.1112 0.9892
vn 0.7861 -0.3800 -0.4874
vn -0.0464 0.3336 0.9416
vn 0.7092 -0.2077 -0.6737
vn -0.1640 0.5407 0.8251
vn 0.6035 -0.0033 -0.7974
vn -0.2404 0.7200 0.6511
vn 0.4866 0.2195 -0.8456
vn -0.2611 0.8604 0.4377
vn 0.3799 0.4433 -0.8119
vn -0.2155 0.9536 0.2101
vn 0.3072 0.6461 -0.6987
vn 0.4015 0.7078 -0.5813
vn 0.5843 0.6817 -0.4403
vn 0.6789 0.6971 -0.2305
vn 0.4750 0.8719 0.1193
vn 0.2614 0.9585 0.1140
vn 0.0628 0.9980 -0.0000
vn -0.0999 0.9950 -0.0000
vn 0.4358 -0.5664 0.6995
vn 0.5552 -0.6687 0.4946
vn 0.6843 -0.6820 0.2581
vn 0.3314 -0.3796 0.8637
vn 0.7593 -0.6508 -0.0000
vn 0.1965 -0.1684 0.9659
vn 0.7787 -0.5719 -0.2581
vn 0.0472 0.0551 0.9974
vn 0.7458 -0.4463 -0.4946
vn -0.0991 0.2778 0.9555
vn 0.6685 -0.2792 -0.6893
vn -0.2249 0.4866 0.8442
vn 0.5594 -0.0793 -0.8251
vn -0.3138 0.6691 0.6737
vn 0.4349 0.1412 -0.8894
vn -0.3515 0.8152 0.4604
vn 0.3145 0.3670 -0.8754
vn -0.3275 0.9173 0.2266
vn 0.2204 0.5800 -0.7842
vn -0.2365 0.9716 -0.0000
vn 0.2913 0.8022 -0.5212
vn 0.1747 0.7596 -0.6264
vn 0.4978 0.7559 -0.4253
vn 0.6320 0.7373 -0.2387
vn 0.4569 0.8874 0.0618
vn 0.2500 0.9682 -0.0000
vn -0.0812 0.9790 -0.1872
vn 0.0784 0.9847 -0.1557
vn 0.4958 -0.7187 0.4874
vn 0.3782 -0.6179 0.6893
vn 0.6302 -0.7330 0.2560
vn 0.2802 -0.4331 0.8567
vn 0.7101 -0.7041 -0.0000
vn 0.1488 -0.2231 0.9634
vn 0.7334 -0.6286 -0.2588
vn -0.0000 -0.0000 1.0000
vn 0.7030 -0.5070 -0.4987
vn -0.1488 0.2231 0.9634
vn 0.6264 -0.3440 -0.6995
vn -0.2802 0.4331 0.8567
vn 0.5152 -0.1478 -0.8442
vn -0.3782 0.6179 0.6893
vn 0.3850 0.0702 -0.9203
vn -0.4287 0.7676 0.4764
vn 0.2539 0.2963 -0.9207
vn -0.4213 0.8750 0.2383
vn 0.1425 0.5144 -0.8456
vn -0.3502 0.9367 -0.0000
vn 0.0717 0.7075 -0.7031
vn -0.2155 0.9536 -0.2101
vn 0.1967 0.8833 -0.4255
vn 0.0610 0.8571 -0.5115
vn 0.4172 0.8250 -0.3813
vn 0.5851 0.7775 -0.2305
vn 0.4508 0.8926 -0.0000
vn 0.2614 0.9585 -0.1140
vn -0.0263 0.9319 -0.3617
vn 0.1241 0.9456 -0.3009
vn 0.4287 -0.7676 0.4764
vn 0.3138 -0.6691 0.6737
vn 0.5698 -0.7821 0.2523
vn 0.2249 -0.4866 0.8442
vn 0.6558 -0.7549 -0.0000
vn 0.0991 -0.2778 0.9555
vn 0.6843 -0.6820 -0.2581
vn -0.0472 -0.0551 0.9974
vn 0.6575 -0.5636 -0.5000
vn -0.1965 0.1684 0.9659
vn 0.5827 -0.4039 -0.7052
vn -0.3314 0.3796 0.8637
vn 0.4708 -0.2107 -0.8567
vn -0.4358 0.5664 0.6995
vn 0.3367 0.0052 -0.9416
vn -0.4958 0.7187 0.4874
vn 0.1977 0.2307 -0.9527
vn -0.5010 0.8296 0.2466
vn 0.0730 0.4513 -0.8894
vn -0.4452 0.8954 -0.0000
vn -0.0178 0.6518 -0.7581
vn -0.3275 0.9173 -0.2266
vn -0.0560 0.8169 -0.5741
vn -0.1539 0.9008 -0.4059
vn 0.3479 0.8843 -0.3113
vn 0.5413 0.8150 -0.2067
vn 0.4569 0.8874 -0.0618
vn 0.2948 0.9299 -0.2201
vn 0.3515 -0.8152 0.4604
vn 0.2404 -0.7200 0.6511
vn 0.5010 -0.8296 0.2466
vn 0.1640 -0.5407 0.8251
vn 0.5950 -0.8037 -0.0000
vn 0.0464 -0.3336 0.9416
vn 0.6302 -0.7330 -0.2560
vn -0.0953 -0.1112 0.9892
vn 0.6086 -0.6172 -0.4987
vn -0.2432 0.1129 0.9634
vn 0.5369 -0.4602 -0.7071
vn -0.3796 0.3254 0.8660
vn 0.4258 -0.2695 -0.8637
vn -0.4883 0.5140 0.7052
vn 0.2897 -0.0554 -0.9555
vn -0.5552 0.6687 0.4946
vn 0.1452 0.1694 -0.9748
vn -0.5698 0.7821 0.2523
vn 0.0105 0.3912 -0.9203
vn -0.5256 0.8507 -0.0000
vn -0.0956 0.5959 -0.7974
vn -0.4213 0.8750 -0.2383
vn -0.1555 0.7698 -0.6190
vn -0.2611 0.8604 -0.4377
vn 0.5038 0.8472 -0.1688
vn 0.4750 0.8719 -0.1193
vn 0.2611 -0.8604 0.4377
vn 0.1555 -0.7698 0.6190
vn 0.4213 -0.8750 0.2383
vn 0.0956 -0.5959 0.7974
vn 0.5257 -0.8507 -0.0000
vn -0.0105 -0.3912 0.9203
vn 0.5698 -0.7821 -0.2523
vn -0.1452 -0.1694 0.9748
vn 0.5552 -0.6687 -0.4946
vn -0.2897 0.0554 0.9555
vn 0.4883 -0.5140 -0.7052
vn -0.4258 0.2695 0.8637
vn 0.3796 -0.3254 -0.8660
vn -0.5369 0.4602 0.7071
vn 0.2432 -0.1129 -0.9634
vn -0.6086 0.6172 0.4987
vn 0.0953 0.1112 -0.9892
vn -0.6302 0.7330 0.2560
vn -0.0464 0.3335 -0.9416
vn -0.5950 0.8037 -0.0000
vn -0.1640 0.5407 -0.8251
vn -0.5010 0.8296 -0.2466
vn -0.2404 0.7200 -0.6511
vn -0.3515 0.8152 -0.4604
vn 0.1539 -0.9008 0.4059
vn 0.0560 -0.8169 0.5741
vn 0.3275 -0.9173 0.2266
vn 0.0178 -0.6518 0.7581
vn 0.4452 -0.8954 -0.0000
vn -0.0730 -0.4513 0.8894
vn 0.5010 -0.8296 -0.2466
vn -0.1977 -0.2307 0.9527
vn 0.4958 -0.7187 -0.4874
vn -0.3367 -0.0052 0.9416
vn 0.4358 -0.5664 -0.6995
vn -0.4708 0.2107 0.8567
vn 0.3314 -0.3796 -0.8637
vn -0.5827 0.4039 0.7052
vn 0.1965 -0.1684 -0.9659
vn -0.6575 0.5636 0.5000
vn 0.0472 0.0551 -0.9974
vn -0.6843 0.6820 0.2581
vn -0.0991 0.2778 -0.9555
vn -0.6558 0.7549 -0.0000
vn -0.2249 0.4866 -0.8442
vn -0.5698 0.7821 -0.2523
vn -0.3138 0.6691 -0.6737
vn -0.4287 0.7676 -0.4764
vn 0.0263 -0.9319 0.3617
vn -0.0610 -0.8571 0.5115
vn 0.2155 -0.9536 0.2101
vn -0.0717 -0.7075 0.7031
vn 0.3502 -0.9367 -0.0000
vn -0.1425 -0.5144 0.8456
vn 0.4213 -0.8750 -0.2383
vn -0.2539 -0.2963 0.9207
vn 0.4287 -0.7676 -0.4764
vn -0.3850 -0.0702 0.9203
vn 0.3782 -0.6179 -0.6893
vn -0.5152 0.1478 0.8442
vn 0.2802 -0.4331 -0.8567
vn -0.6264 0.3440 0.6995
vn 0.1488 -0.2231 -0.9634
vn -0.7030 0.5070 0.4987
vn -0.0000 -0.0000 -1.0000
vn -0.7334 0.6286 0.2588
vn -0.1488 0.2231 -0.9634
vn -0.7101 0.7041 -0.0000
vn -0.2802 0.4331 -0.8567
vn -0.6302 0.7330 -0.2560
vn -0.3782 0.6179 -0.6893
vn -0.4958 0.7187 -0.4874
vn -0.1241 -0.9456 0.3009
vn -0.1967 -0.8833 0.4255
vn 0.0811 -0.9790 0.1872
vn -0.1748 -0.7596 0.6264
vn 0.2365 -0.9716 -0.0000
vn -0.2204 -0.5800 0.7842
vn 0.3275 -0.9173 -0.2266
vn -0.3145 -0.3670 0.8754
vn 0.3515 -0.8152 -0.4604
vn -0.4349 -0.1412 0.8894
vn 0.3138 -0.6691 -0.6737
vn -0.5594 0.0793 0.8251
vn 0.2249 -0.4866 -0.8442
vn -0.6685 0.2792 0.6893
vn 0.0991 -0.2778 -0.9555
vn -0.7458 0.4463 0.4946
vn -0.0472 -0.0551 -0.9974
vn -0.7787 0.5719 0.2581
vn -0.1965 0.1684 -0.9659
vn -0.7593 0.6508 -0.0000
vn -0.3314 0.3796 -0.8637
vn -0.6843 0.6820 -0.2581
vn -0.4358 0.5664 -0.6995
vn -0.5552 0.6687 -0.4946
vn -0.2948 -0.9299 0.2201
vn -0.3479 -0.8843 0.3113
vn -0.0784 -0.9847 0.1558
vn -0.2913 -0.8022 0.5212
vn 0.0999 -0.9950 -0.0000
vn -0.3072 -0.6461 0.6987
vn 0.2155 -0.9536 -0.2101
vn -0.3799 -0.4433 0.8119
vn 0.2611 -0.8604 -0.4377
vn -0.4866 -0.2195 0.8456
vn 0.2404 -0.7200 -0.6511
vn -0.6035 0.0033 0.7974
vn 0.1640 -0.5407 -0.8251
vn -0.7092 0.2077 0.6737
vn 0.0464 -0.3336 -0.9416
vn -0.7861 0.3800 0.4874
vn -0.0953 -0.1112 -0.9892
vn -0.8208 0.5106 0.2560
vn -0.2432 0.1129 -0.9634
vn -0.8045 0.5940 -0.0000
vn -0.3796 0.3254 -0.8660
vn -0.7334 0.6286 -0.2588
vn -0.4883 0.5140 -0.7052
vn -0.6086 0.6172 -0.4987
vn -0.4750 -0.8719 0.1193
vn -0.5038 -0.8472 0.1687
vn -0.2614 -0.9585 0.1140
vn -0.4171 -0.8250 0.3813
vn -0.0628 -0.9980 -0.0000
vn -0.4015 -0.7078 0.5813
vn 0.0811 -0.9790 -0.1872
vn -0.4494 -0.5243 0.7233
vn 0.1539 -0.9008 -0.4059
vn -0.5395 -0.3065 0.7842
vn 0.1555 -0.7698 -0.6190
vn -0.6469 -0.0821 0.7582
vn 0.0956 -0.5959 -0.7974
vn -0.7483 0.1274 0.6511
vn -0.0105 -0.3912 -0.9203
vn -0.8242 0.3063 0.4764
vn -0.1452 -0.1694 -0.9748
vn -0.8601 0.4434 0.2523
vn -0.2897 0.0554 -0.9555
vn -0.8464 0.5326 -0.0000
vn -0.4258 0.2695 -0.8637
vn -0.7787 0.5719 -0.2581
vn -0.5369 0.4602 -0.7071
vn -0.6575 0.5636 -0.5000
vn -0.6508 -0.7593 -0.0000
vn -0.4569 -0.8874 0.0618
vn -0.5414 -0.8150 0.2067
vn -0.2500 -0.9682 -0.0000
vn -0.4978 -0.7559 0.4253
vn -0.0784 -0.9847 -0.1558
vn -0.5197 -0.6064 0.6018
vn 0.0263 -0.9319 -0.3617
vn -0.5915 -0.4024 0.6987
vn 0.0560 -0.8169 -0.5741
vn -0.6882 -0.1791 0.7031
vn 0.0178 -0.6518 -0.7581
vn -0.7845 0.0359 0.6190
vn -0.0730 -0.4513 -0.8894
vn -0.8594 0.2227 0.4604
vn -0.1977 -0.2307 -0.9527
vn -0.8965 0.3682 0.2466
vn -0.3367 -0.0052 -0.9416
vn -0.8853 0.4650 -0.0000
vn -0.4708 0.2107 -0.8567
vn -0.8208 0.5106 -0.2560
vn -0.5827 0.4039 -0.7052
vn -0.7030 0.5070 -0.4987
vn -0.4507 -0.8927 -0.0000
vn -0.5851 -0.7775 0.2306
vn -0.2614 -0.9585 -0.1140
vn -0.5843 -0.6817 0.4403
vn -0.1241 -0.9456 -0.3009
vn -0.6380 -0.5051 0.5813
vn -0.0610 -0.8571 -0.5115
vn -0.7240 -0.2889 0.6264
vn -0.0717 -0.7075 -0.7031
vn -0.8158 -0.0697 0.5741
vn -0.1425 -0.5144 -0.8456
vn -0.8902 0.1264 0.4377
vn -0.2539 -0.2963 -0.9207
vn -0.9292 0.2825 0.2383
vn -0.3850 -0.0702 -0.9203
vn -0.9211 0.3893 -0.0000
vn -0.5152 0.1478 -0.8442
vn -0.8601 0.4434 -0.2523
vn -0.6264 0.3440 -0.6995
vn -0.7458 0.4463 -0.4946
vn -0.4569 -0.8874 -0.0618
vn -0.6320 -0.7373 0.2387
vn -0.2948 -0.9299 -0.2201
vn -0.6708 -0.6076 0.4253
vn -0.1967 -0.8833 -0.4255
vn -0.7482 -0.4106 0.5211
vn -0.1747 -0.7596 -0.6264
vn -0.8377 -0.1914 0.5115
vn -0.2204 -0.5800 -0.7842
vn -0.9138 0.0143 0.4059
vn -0.3145 -0.3670 -0.8754
vn -0.9566 0.1833 0.2266
vn -0.4349 -0.1412 -0.8894
vn -0.9530 0.3029 -0.0000
vn -0.5594 0.0793 -0.8251
vn -0.8965 0.3682 -0.2466
vn -0.6685 0.2792 -0.6893
vn -0.7861 0.3800 -0.4874
vn -0.4750 -0.8719 -0.1193
vn -0.6789 -0.6971 0.2306
vn -0.3479 -0.8843 -0.3113
vn -0.7514 -0.5385 0.3813
vn -0.2913 -0.8022 -0.5212
vn -0.8428 -0.3295 0.4255
vn -0.3072 -0.6461 -0.6987
vn -0.9250 -0.1166 0.3617
vn -0.3799 -0.4433 -0.8119
vn -0.9754 0.0671 0.2101
vn -0.4866 -0.2195 -0.8456
vn -0.9792 0.2027 -0.0000
vn -0.6035 0.0033 -0.7974
vn -0.9292 0.2825 -0.2383
vn -0.7092 0.2077 -0.6737
vn -0.8242 0.3063 -0.4764
vn -0.5038 -0.8472 -0.1687
vn -0.7226 -0.6597 0.2067
vn -0.4172 -0.8250 -0.3813
vn -0.8207 -0.4791 0.3113
vn -0.4015 -0.7078 -0.5813
vn -0.9154 -0.2673 0.3009
vn -0.4494 -0.5243 -0.7233
vn -0.9799 -0.0696 0.1872
vn -0.5395 -0.3065 -0.7842
vn -0.9964 0.0851 -0.0000
vn -0.6469 -0.0821 -0.7582
vn -0.9566 0.1833 -0.2266
vn -0.7483 0.1274 -0.6511
vn -0.8594 0.2227 -0.4604
vn -0.5414 -0.8150 -0.2067
vn -0.7601 -0.6275 0.1688
vn -0.4978 -0.7559 -0.4253
vn -0.8738 -0.4336 0.2201
vn -0.5198 -0.6064 -0.6018
vn -0.9611 -0.2281 0.1557
vn -0.5915 -0.4024 -0.6987
vn -0.9986 -0.0535 -0.0000
vn -0.6882 -0.1791 -0.7031
vn -0.9754 0.0671 -0.2101
vn -0.7845 0.0359 -0.6190
vn -0.8902 0.1264 -0.4377
vn -0.5851 -0.7775 -0.2306
vn -0.7889 -0.6028 0.1193
vn -0.5843 -0.6817 -0.4403
vn -0.9072 -0.4050 0.1140
vn -0.6380 -0.5051 -0.5813
vn -0.9767 -0.2148 -0.0000
vn -0.7240 -0.2889 -0.6264
vn -0.9799 -0.0696 -0.1872
vn -0.8158 -0.0697 -0.5741
vn -0.9138 0.0143 -0.4059
vn -0.6320 -0.7373 -0.2387
vn -0.8070 -0.5873 0.0618
vn -0.6708 -0.6076 -0.4253
vn -0.9186 -0.3952 -0.0000
vn -0.7482 -0.4106 -0.5211
vn -0.9611 -0.2281 -0.1557
vn -0.8377 -0.1914 -0.5115
vn -0.9250 -0.1166 -0.3617
vn -0.6789 -0.6971 -0.2306
vn -0.8132 -0.5820 -0.0000
vn -0.7514 -0.5385 -0.3813
vn -0.9072 -0.4049 -0.1140
vn -0.8428 -0.3295 -0.4255
vn -0.9154 -0.2673 -0.3009
vn -0.7226 -0.6597 -0.2067
vn -0.8070 -0.5873 -0.0618
vn -0.8207 -0.4791 -0.3113
vn -0.8738 -0.4336 -0.2201
vn -0.7601 -0.6275 -0.1688
vn -0.7889 -0.6028 -0.1193
vt 0.126667 0.190000
vt 0.206667 0.190000
vt 0.166667 0.310000
s 1
f 1/1/1 2/2/2 3/3/3
f 2/1/2 1/2/1 4/3/4
f 5/1/5 3/2/3 6/3/6
f 3/1/3 5/2/5 1/3/1
f 7/1/7 4/2/4 1/3/1
f 4/1/4 7/2/7 8/3/8
f 4/1/4 9/2/9 2/3/2
f 9/1/9 4/2/4 10/3/10
f 3/1/3 11/2/11 12/3/12
f 11/1/11 3/2/3 2/3/2
f 13/1/13 6/2/6 14/3/14
f 6/1/6 13/2/13 5/3/5
f 15/1/15 1/2/1 5/3/5
f 1/1/1 15/2/15 7/3/7
f 6/1/6 12/2/12 16/3/16
f 12/1/12 6/2/6 3/3/3
f 17/1/17 8/2/8 7/3/7
f 8/1/8 17/2/17 18/3/18
f 8/1/8 10/2/10 4/3/4
f 10/1/10 8/2/8 19/3/19
f 10/1/10 20/2/20 9/3/9
f 20/1/20 10/2/10 21/3/21
f 2/1/2 22/2/22 11/3/11
f 22/1/22 2/2/2 9/3/9
f 12/1/12 23/2/23 24/3/24
f 23/1/23 12/2/12 11/3/11
f 25/1/25 14/2/14 26/3/26
f 14/1/14 25/2/25 13/3/13
f 27/1/27 5/2/5 13/3/13
f 5/1/5 27/2/27 15/3/15
f 14/1/14 16/2/16 28/3/28
f 16/1/16 14/2/14 6/3/6
f 29/1/29 7/2/7 15/3/15
f 7/1/7 29/2/29 17/3/17
f 12/1/12 30/2/30 16/3/16
f 30/1/30 12/2/12 24/3/24
f 31/1/31 18/2/18 17/3/17
f 18/1/18 31/2/31 32/3/32
f 18/1/18 19/2/19 8/3/8
f 19/1/19 18/2/18 33/3/33
f 19/1/19 21/2/21 10/3/10
f 21/1/21 19/2/19 34/3/34
f 35/1/35 20/2/20 21/3/21
f 9/1/9 36/2/36 22/3/22
f 36/1/36 9/2/9 20/3/20
f 11/1/11 37/2/37 23/3/23
f 37/1/37 11/2/11 22/3/22
f 23/1/23 38/2/38 24/3/24
f 38/1/38 23/2/23 39/3/39
f 40/1/40 26/2/26 41/3/41
f 26/1/26 40/2/40 25/3/25
f 42/1/42 13/2/13 25/3/25
f 13/1/13 42/2/42 27/3/27
f 14/1/14 43/2/43 26/3/26
f 43/1/43 14/2/14 28/3/28
f 44/1/44 15/2/15 27/3/27
f 15/1/15 44/2/44 29/3/29
f 16/1/16 45/2/45 28/3/28
f 45/1/45 16/2/16 30/3/30
f 46/1/46 17/2/17 29/3/29
f 17/1/17 46/2/46 31/3/31
f 24/1/24 47/2/47 30/3/30
f 47/1/47 24/2/24 38/3/38
f 31/1/31 48/2/48 32/3/32
f 48/1/48 31/2/31 49/3/49
f 32/1/32 33/2/33 18/3/18
f 33/1/33 32/2/32 50/3/50
f 33/1/33 34/2/34 19/3/19
f 34/1/34 33/2/33 51/3/51
f 35/1/35 21/2/21 34/3/34
f 20/1/20 35/2/35 36/3/36
f 22/1/22 52/2/52 37/3/37
f 52/1/52 22/2/22 36/3/36
f 23/1/23 53/2/53 39/3/39
f 53/1/53 23/2/23 37/3/37
f 39/1/39 54/2/54 38/3/38
f 54/1/54 39/2/39 55/3/55
f 56/1/56 41/2/41 57/3/57
f 41/1/41 56/2/56 40/3/40
f 58/1/58 25/2/25 40/3/40
f 25/1/25 58/2/58 42/3/42
f 26/1/26 59/2/59 41/3/41
f 59/1/59 26/2/26 43/3/43
f 60/1/60 27/2/27 42/3/42
f 27/1/27 60/2/60 44/3/44
f 28/1/28 61/2/61 43/3/43
f 61/1/61 28/2/28 45/3/45
f 62/1/62 29/2/29 44/3/44
f 29/1/29 62/2/62 46/3/46
f 30/1/30 63/2/63 45/3/45
f 63/1/63 30/2/30 47/3/47
f 46/1/46 49/2/49 31/3/31
f 49/1/49 46/2/46 64/3/64
f 38/1/38 65/2/65 47/3/47
f 65/1/65 38/2/38 54/3/54
f 49/1/49 66/2/66 48/3/48
f 66/1/66 49/2/49 67/3/67
f 32/1/32 68/2/68 50/3/50
f 68/1/68 32/2/32 48/3/48
f 50/1/50 51/2/51 33/3/33
f 51/1/51 50/2/50 69/3/69
f 35/1/35 34/2/34 51/3/51
f 36/1/36 35/2/35 52/3/52
f 37/1/37 70/2/70 53/3/53
f 70/1/70 37/2/37 52/3/52
f 39/1/39 71/2/71 55/3/55
f 71/1/71 39/2/39 53/3/53
f 54/1/54 72/2/72 73/3/73
f 72/1/72 54/2/54 55/3/55
f 74/1/74 57/2/57 75/3/75
f 57/1/57 74/2/74 56/3/56
f 76/1/76 40/2/40 56/3/56
f 40/1/40 76/2/76 58/3/58
f 41/1/41 77/2/77 57/3/57
f 77/1/77 41/2/41 59/3/59
f 78/1/78 42/2/42 58/3/58
f 42/1/42 78/2/78 60/3/60
f 43/1/43 79/2/79 59/3/59
f 79/1/79 43/2/43 61/3/61
f 80/1/80 44/2/44 60/3/60
f 44/1/44 80/2/80 62/3/62
f 45/1/45 81/2/81 61/3/61
f 81/1/81 45/2/45 63/3/63
f 62/1/62 64/2/64 46/3/46
f 64/1/64 62/2/62 82/3/82
f 47/1/47 83/2/83 63/3/63
f 83/1/83 47/2/47 65/3/65
f 64/1/64 67/2/67 49/3/49
f 67/1/67 64/2/64 84/3/84
f 54/1/54 85/2/85 65/3/65
f 85/1/85 54/2/54 73/3/73
f 67/1/67 86/2/86 66/3/66
f 86/1/86 67/2/67 87/3/87
f 48/1/48 88/2/88 68/3/68
f 88/1/88 48/2/48 66/3/66
f 50/1/50 89/2/89 69/3/69
f 89/1/89 50/2/50 68/3/68
f 69/1/69 35/2/35 51/3/51
f 52/1/52 35/2/35 70/3/70
f 53/1/53 90/2/90 71/3/71
f 90/1/90 53/2/53 70/3/70
f 55/1/55 91/2/91 72/3/72
f 91/1/91 55/2/55 71/3/71
f 73/1/73 92/2/92 93/3/93
f 92/1/92 73/2/73 72/3/72
f 94/1/94 75/2/75 95/3/95
f 75/1/75 94/2/94 74/3/74
f 96/1/96 56/2/56 74/3/74
f 56/1/56 96/2/96 76/3/76
f 57/1/57 97/2/97 75/3/75
f 97/1/97 57/2/57 77/3/77
f 98/1/98 58/2/58 76/3/76
f 58/1/58 98/2/98 78/3/78
f 59/1/59 99/2/99 77/3/77
f 99/1/99 59/2/59 79/3/79
f 100/1/100 60/2/60 78/3/78
f 60/1/60 100/2/100 80/3/80
f 61/1/61 101/2/101 79/3/79
f 101/1/101 61/2/61 81/3/81
f 80/1/80 82/2/82 62/3/62
f 82/1/82 80/2/80 102/3/102
f 63/1/63 103/2/103 81/3/81
f 103/1/103 63/2/63 83/3/83
f 82/1/82 84/2/84 64/3/64
f 84/1/84 82/2/82 104/3/104
f 65/1/65 105/2/105 83/3/83
f 105/1/105 65/2/65 85/3/85
f 84/1/84 87/2/87 67/3/67
f 87/1/87 84/2/84 106/3/106
f 85/1/85 93/2/93 107/3/107
f 93/1/93 85/2/85 73/3/73
f 87/1/87 108/2/108 86/3/86
f 108/1/108 87/2/87 109/3/109
f 66/1/66 110/2/110 88/3/88
f 110/1/110 66/2/66 86/3/86
f 68/1/68 111/2/111 89/3/89
f 111/1/111 68/2/68 88/3/88
f 89/1/89 35/2/35 69/3/69
f 35/1/35 90/2/90 70/3/70
f 71/1/71 112/2/112 91/3/91
f 112/1/112 71/2/71 90/3/90
f 72/1/72 113/2/113 92/3/92
f 113/1/113 72/2/72 91/3/91
f 93/1/93 114/2/114 115/3/115
f 114/1/114 93/2/93 92/3/92
f 116/1/116 95/2/95 117/3/117
f 95/1/95 116/2/116 94/3/94
f 118/1/118 74/2/74 94/3/94
f 74/1/74 118/2/118 96/3/96
f 75/1/75 119/2/119 95/3/95
f 119/1/119 75/2/75 97/3/97
f 120/1/120 76/2/76 96/3/96
f 76/1/76 120/2/120 98/3/98
f 77/1/77 121/2/121 97/3/97
f 121/1/121 77/2/77 99/3/99
f 122/1/122 78/2/78 98/3/98
f 78/1/78 122/2/122 100/3/100
f 79/1/79 123/2/123 99/3/99
f 123/1/123 79/2/79 101/3/101
f 100/1/100 102/2/102 80/3/80
f 102/1/102 100/2/100 124/3/124
f 81/1/81 125/2/125 101/3/101
f 125/1/125 81/2/81 103/3/103
f 102/1/102 104/2/104 82/3/82
f 104/1/104 102/2/102 126/3/126
f 83/1/83 127/2/127 103/3/103
f 127/1/127 83/2/83 105/3/105
f 104/1/104 106/2/106 84/3/84
f 106/1/106 104/2/104 128/3/128
f 105/1/105 107/2/107 129/3/129
f 107/1/107 105/2/105 85/3/85
f 130/1/130 87/2/87 106/3/106
f 87/1/87 130/2/130 109/3/109
f 107/1/107 115/2/115 131/3/131
f 115/1/115 107/2/107 93/3/93
f 132/1/132 108/2/108 109/3/109
f 108/1/108 132/2/132 133/3/133
f 86/1/86 134/2/134 110/3/110
f 134/1/134 86/2/86 108/3/108
f 88/1/88 135/2/135 111/3/111
f 135/1/135 88/2/88 110/3/110
f 111/1/111 35/2/35 89/3/89
f 35/1/35 112/2/112 90/3/90
f 91/1/91 136/2/136 113/3/113
f 136/1/136 91/2/91 112/3/112
f 92/1/92 137/2/137 114/3/114
f 137/1/137 92/2/92 113/3/113
f 115/1/115 138/2/138 139/3/139
f 138/1/138 115/2/115 114/3/114
f 116/1/116 140/2/140 141/3/141
f 140/1/140 116/2/116 117/3/117
f 142/1/142 94/2/94 116/3/116
f 94/1/94 142/2/142 118/3/118
f 95/1/95 143/2/143 117/3/117
f 143/1/143 95/2/95 119/3/119
f 144/1/144 96/2/96 118/3/118
f 96/1/96 144/2/144 120/3/120
f 97/1/97 145/2/145 119/3/119
f 145/1/145 97/2/97 121/3/121
f 120/1/120 122/2/122 98/3/98
f 122/1/122 120/2/120 146/3/146
f 99/1/99 147/2/147 121/3/121
f 147/1/147 99/2/99 123/3/123
f 122/1/122 124/2/124 100/3/100
f 124/1/124 122/2/122 148/3/148
f 101/1/101 149/2/149 123/3/123
f 149/1/149 101/2/101 125/3/125
f 124/1/124 126/2/126 102/3/102
f 126/1/126 124/2/124 150/3/150
f 103/1/103 151/2/151 125/3/125
f 151/1/151 103/2/103 127/3/127
f 152/1/152 104/2/104 126/3/126
f 104/1/104 152/2/152 128/3/128
f 105/1/105 153/2/153 127/3/127
f 153/1/153 105/2/105 129/3/129
f 154/1/154 106/2/106 128/3/128
f 106/1/106 154/2/154 130/3/130
f 129/1/129 131/2/131 155/3/155
f 131/1/131 129/2/129 107/3/107
f 156/1/156 109/2/109 130/3/130
f 109/1/109 156/2/156 132/3/132
f 131/1/131 139/2/139 157/3/157
f 139/1/139 131/2/131 115/3/115
f 158/1/158 133/2/133 132/3/132
f 133/1/133 158/2/158 159/3/159
f 108/1/108 160/2/160 134/3/134
f 160/1/160 108/2/108 133/3/133
f 110/1/110 161/2/161 135/3/135
f 161/1/161 110/2/110 134/3/134
f 111/1/111 135/2/135 35/3/35
f 35/1/35 136/2/136 112/3/112
f 113/1/113 162/2/162 137/3/137
f 162/1/162 113/2/113 136/3/136
f 114/1/114 163/2/163 138/3/138
f 163/1/163 114/2/114 137/3/137
f 139/1/139 164/2/164 165/3/165
f 164/1/164 139/2/139 138/3/138
f 141/1/141 166/2/166 167/3/167
f 166/1/166 141/2/141 140/3/140
f 141/1/141 142/2/142 116/3/116
f 142/1/142 141/2/141 168/3/168
f 117/1/117 169/2/169 140/3/140
f 169/1/169 117/2/117 143/3/143
f 170/1/170 118/2/118 142/3/142
f 118/1/118 170/2/170 144/3/144
f 119/1/119 171/2/171 143/3/143
f 171/1/171 119/2/119 145/3/145
f 172/1/172 120/2/120 144/3/144
f 120/1/120 172/2/172 146/3/146
f 121/1/121 173/2/173 145/3/145
f 173/1/173 121/2/121 147/3/147
f 146/1/146 148/2/148 122/3/122
f 148/1/148 146/2/146 174/3/174
f 123/1/123 175/2/175 147/3/147
f 175/1/175 123/2/123 149/3/149
f 148/1/148 150/2/150 124/3/124
f 150/1/150 148/2/148 176/3/176
f 125/1/125 177/2/177 149/3/149
f 177/1/177 125/2/125 151/3/151
f 178/1/178 126/2/126 150/3/150
f 126/1/126 178/2/178 152/3/152
f 127/1/127 179/2/179 151/3/151
f 179/1/179 127/2/127 153/3/153
f 180/1/180 128/2/128 152/3/152
f 128/1/128 180/2/180 154/3/154
f 153/1/153 155/2/155 181/3/181
f 155/1/155 153/2/153 129/3/129
f 182/1/182 130/2/130 154/3/154
f 130/1/130 182/2/182 156/3/156
f 155/1/155 157/2/157 183/3/183
f 157/1/157 155/2/155 131/3/131
f 184/1/184 132/2/132 156/3/156
f 132/1/132 184/2/184 158/3/158
f 157/1/157 165/2/165 185/3/185
f 165/1/165 157/2/157 139/3/139
f 186/1/186 158/2/158 187/3/187
f 158/1/158 186/2/186 159/3/159
f 188/1/188 133/2/133 159/3/159
f 133/1/133 188/2/188 160/3/160
f 189/1/189 134/2/134 160/3/160
f 134/1/134 189/2/189 161/3/161
f 135/1/135 161/2/161 35/3/35
f 35/1/35 162/2/162 136/3/136
f 137/1/137 190/2/190 163/3/163
f 190/1/190 137/2/137 162/3/162
f 138/1/138 191/2/191 164/3/164
f 191/1/191 138/2/138 163/3/163
f 164/1/164 192/2/192 165/3/165
f 192/1/192 164/2/164 193/3/193
f 194/1/194 166/2/166 195/3/195
f 166/1/166 194/2/194 167/3/167
f 196/1/196 141/2/141 167/3/167
f 141/1/141 196/2/196 168/3/168
f 140/1/140 197/2/197 166/3/166
f 197/1/197 140/2/140 169/3/169
f 168/1/168 170/2/170 142/3/142
f 170/1/170 168/2/168 198/3/198
f 143/1/143 199/2/199 169/3/169
f 199/1/199 143/2/143 171/3/171
f 200/1/200 144/2/144 170/3/170
f 144/1/144 200/2/200 172/3/172
f 145/1/145 201/2/201 171/3/171
f 201/1/201 145/2/145 173/3/173
f 172/1/172 174/2/174 146/3/146
f 174/1/174 172/2/172 202/3/202
f 147/1/147 203/2/203 173/3/173
f 203/1/203 147/2/147 175/3/175
f 174/1/174 176/2/176 148/3/148
f 176/1/176 174/2/174 204/3/204
f 149/1/149 205/2/205 175/3/175
f 205/1/205 149/2/149 177/3/177
f 206/1/206 150/2/150 176/3/176
f 150/1/150 206/2/206 178/3/178
f 151/1/151 207/2/207 177/3/177
f 207/1/207 151/2/151 179/3/179
f 208/1/208 152/2/152 178/3/178
f 152/1/152 208/2/208 180/3/180
f 179/1/179 181/2/181 209/3/209
f 181/1/181 179/2/179 153/3/153
f 210/1/210 154/2/154 180/3/180
f 154/1/154 210/2/210 182/3/182
f 181/1/181 183/2/183 211/3/211
f 183/1/183 181/2/181 155/3/155
f 212/1/212 156/2/156 182/3/182
f 156/1/156 212/2/212 184/3/184
f 183/1/183 185/2/185 213/3/213
f 185/1/185 183/2/183 157/3/157
f 214/1/214 158/2/158 184/3/184
f 158/1/158 214/2/214 187/3/187
f 165/1/165 215/2/215 185/3/185
f 215/1/215 165/2/165 192/3/192
f 216/1/216 187/2/187 217/3/217
f 187/1/187 216/2/216 186/3/186
f 218/1/218 159/2/159 186/3/186
f 159/1/159 218/2/218 188/3/188
f 219/1/219 160/2/160 188/3/188
f 160/1/160 219/2/219 189/3/189
f 161/1/161 189/2/189 35/3/35
f 35/1/35 190/2/190 162/3/162
f 163/1/163 220/2/220 191/3/191
f 220/1/220 163/2/163 190/3/190
f 191/1/191 193/2/193 164/3/164
f 193/1/193 191/2/191 221/3/221
f 193/1/193 222/2/222 192/3/192
f 222/1/222 193/2/193 223/3/223
f 224/1/224 195/2/195 225/3/225
f 195/1/195 224/2/224 194/3/194
f 226/1/226 167/2/167 194/3/194
f 167/1/167 226/2/226 196/3/196
f 166/1/166 227/2/227 195/3/195
f 227/1/227 166/2/166 197/3/197
f 228/1/228 168/2/168 196/3/196
f 168/1/168 228/2/228 198/3/198
f 169/1/169 229/2/229 197/3/197
f 229/1/229 169/2/169 199/3/199
f 230/1/230 170/2/170 198/3/198
f 170/1/170 230/2/230 200/3/200
f 171/1/171 231/2/231 199/3/199
f 231/1/231 171/2/171 201/3/201
f 200/1/200 202/2/202 172/3/172
f 202/1/202 200/2/200 232/3/232
f 173/1/173 233/2/233 201/3/201
f 233/1/233 173/2/173 203/3/203
f 202/1/202 204/2/204 174/3/174
f 204/1/204 202/2/202 234/3/234
f 175/1/175 235/2/235 203/3/203
f 235/1/235 175/2/175 205/3/205
f 236/1/236 176/2/176 204/3/204
f 176/1/176 236/2/236 206/3/206
f 177/1/177 237/2/237 205/3/205
f 237/1/237 177/2/177 207/3/207
f 238/1/238 178/2/178 206/3/206
f 178/1/178 238/2/238 208/3/208
f 207/1/207 209/2/209 239/3/239
f 209/1/209 207/2/207 179/3/179
f 240/1/240 180/2/180 208/3/208
f 180/1/180 240/2/240 210/3/210
f 209/1/209 211/2/211 241/3/241
f 211/1/211 209/2/209 181/3/181
f 242/1/242 182/2/182 210/3/210
f 182/1/182 242/2/242 212/3/212
f 211/1/211 213/2/213 243/3/243
f 213/1/213 211/2/211 183/3/183
f 244/1/244 184/2/184 212/3/212
f 184/1/184 244/2/244 214/3/214
f 185/1/185 245/2/245 213/3/213
f 245/1/245 185/2/185 215/3/215
f 217/1/217 214/2/214 246/3/246
f 214/1/214 217/2/217 187/3/187
f 192/1/192 247/2/247 215/3/215
f 247/1/247 192/2/192 222/3/222
f 223/1/223 217/2/217 222/3/222
f 217/1/217 223/2/223 216/3/216
f 248/1/248 186/2/186 216/3/216
f 186/1/186 248/2/248 218/3/218
f 249/1/249 188/2/188 218/3/218
f 188/1/188 249/2/249 219/3/219
f 35/1/35 189/2/189 219/3/219
f 35/1/35 220/2/220 190/3/190
f 220/1/220 221/2/221 191/3/191
f 221/1/221 220/2/220 250/3/250
f 221/1/221 223/2/223 193/3/193
f 223/1/223 221/2/221 251/3/251
f 252/1/252 225/2/225 253/3/253
f 225/1/225 252/2/252 224/3/224
f 254/1/254 194/2/194 224/3/224
f 194/1/194 254/2/254 226/3/226
f 195/1/195 255/2/255 225/3/225
f 255/1/255 195/2/195 227/3/227
f 256/1/256 196/2/196 226/3/226
f 196/1/196 256/2/256 228/3/228
f 197/1/197 257/2/257 227/3/227
f 257/1/257 197/2/197 229/3/229
f 230/1/230 228/2/228 258/3/258
f 228/1/228 230/2/230 198/3/198
f 199/1/199 259/2/259 229/3/229
f 259/1/259 199/2/199 231/3/231
f 260/1/260 200/2/200 230/3/230
f 200/1/200 260/2/260 232/3/232
f 201/1/201 261/2/261 231/3/231
f 261/1/261 201/2/201 233/3/233
f 232/1/232 234/2/234 202/3/202
f 234/1/234 232/2/232 262/3/262
f 203/1/203 263/2/263 233/3/233
f 263/1/263 203/2/203 235/3/235
f 264/1/264 204/2/204 234/3/234
f 204/1/204 264/2/264 236/3/236
f 205/1/205 265/2/265 235/3/235
f 265/1/265 205/2/205 237/3/237
f 266/1/266 206/2/206 236/3/236
f 206/1/206 266/2/266 238/3/238
f 237/1/237 239/2/239 267/3/267
f 239/1/239 237/2/237 207/3/207
f 268/1/268 208/2/208 238/3/238
f 208/1/208 268/2/268 240/3/240
f 239/1/239 241/2/241 269/3/269
f 241/1/241 239/2/239 209/3/209
f 270/1/270 210/2/210 240/3/240
f 210/1/210 270/2/270 242/3/242
f 241/1/241 243/2/243 271/3/271
f 243/1/243 241/2/241 211/3/211
f 272/1/272 212/2/212 242/3/242
f 212/1/212 272/2/272 244/3/244
f 213/1/213 273/2/273 243/3/243
f 273/1/273 213/2/213 245/3/245
f 246/1/246 244/2/244 274/3/274
f 244/1/244 246/2/246 214/3/214
f 215/1/215 275/2/275 245/3/245
f 275/1/275 215/2/215 247/3/247
f 222/1/222 246/2/246 247/3/247
f 246/1/246 222/2/222 217/3/217
f 251/1/251 216/2/216 223/3/223
f 216/1/216 251/2/251 248/3/248
f 276/1/276 218/2/218 248/3/248
f 218/1/218 276/2/276 249/3/249
f 35/1/35 219/2/219 249/3/249
f 35/1/35 250/2/250 220/3/220
f 250/1/250 251/2/251 221/3/221
f 251/1/251 250/2/250 277/3/277
f 278/1/278 253/2/253 279/3/279
f 253/1/253 278/2/278 252/3/252
f 280/1/280 224/2/224 252/3/252
f 224/1/224 280/2/280 254/3/254
f 225/1/225 281/2/281 253/3/253
f 281/1/281 225/2/225 255/3/255
f 282/1/282 226/2/226 254/3/254
f 226/1/226 282/2/282 256/3/256
f 227/1/227 283/2/283 255/3/255
f 283/1/283 227/2/227 257/3/257
f 258/1/258 256/2/256 284/3/284
f 256/1/256 258/2/258 228/3/228
f 229/1/229 285/2/285 257/3/257
f 285/1/285 229/2/229 259/3/259
f 260/1/260 258/2/258 286/3/286
f 258/1/258 260/2/260 230/3/230
f 231/1/231 287/2/287 259/3/259
f 287/1/287 231/2/231 261/3/261
f 288/1/288 232/2/232 260/3/260
f 232/1/232 288/2/288 262/3/262
f 233/1/233 289/2/289 261/3/261
f 289/1/289 233/2/233 263/3/263
f 290/1/290 234/2/234 262/3/262
f 234/1/234 290/2/290 264/3/264
f 235/1/235 291/2/291 263/3/263
f 291/1/291 235/2/235 265/3/265
f 292/1/292 236/2/236 264/3/264
f 236/1/236 292/2/292 266/3/266
f 237/1/237 293/2/293 265/3/265
f 293/1/293 237/2/237 267/3/267
f 294/1/294 238/2/238 266/3/266
f 238/1/238 294/2/294 268/3/268
f 267/1/267 269/2/269 295/3/295
f 269/1/269 267/2/267 239/3/239
f 296/1/296 240/2/240 268/3/268
f 240/1/240 296/2/296 270/3/270
f 269/1/269 271/2/271 297/3/297
f 271/1/271 269/2/269 241/3/241
f 298/1/298 242/2/242 270/3/270
f 242/1/242 298/2/298 272/3/272
f 243/1/243 299/2/299 271/3/271
f 299/1/299 243/2/243 273/3/273
f 300/1/300 244/2/244 272/3/272
f 244/1/244 300/2/300 274/3/274
f 245/1/245 301/2/301 273/3/273
f 301/1/301 245/2/245 275/3/275
f 247/1/247 274/2/274 275/3/275
f 274/1/274 247/2/247 246/3/246
f 277/1/277 248/2/248 251/3/251
f 248/1/248 277/2/277 276/3/276
f 35/1/35 249/2/249 276/3/276
f 35/1/35 277/2/277 250/3/250
f 302/1/302 279/2/279 303/3/303
f 279/1/279 302/2/302 278/3/278
f 304/1/304 252/2/252 278/3/278
f 252/1/252 304/2/304 280/3/280
f 253/1/253 305/2/305 279/3/279
f 305/1/305 253/2/253 281/3/281
f 306/1/306 254/2/254 280/3/280
f 254/1/254 306/2/306 282/3/282
f 255/1/255 307/2/307 281/3/281
f 307/1/307 255/2/255 283/3/283
f 284/1/284 282/2/282 308/3/308
f 282/1/282 284/2/284 256/3/256
f 257/1/257 309/2/309 283/3/283
f 309/1/309 257/2/257 285/3/285
f 286/1/286 284/2/284 310/3/310
f 284/1/284 286/2/286 258/3/258
f 259/1/259 311/2/311 285/3/285
f 311/1/311 259/2/259 287/3/287
f 312/1/312 260/2/260 286/3/286
f 260/1/260 312/2/312 288/3/288
f 261/1/261 313/2/313 287/3/287
f 313/1/313 261/2/261 289/3/289
f 314/1/314 262/2/262 288/3/288
f 262/1/262 314/2/314 290/3/290
f 263/1/263 315/2/315 289/3/289
f 315/1/315 263/2/263 291/3/291
f 316/1/316 264/2/264 290/3/290
f 264/1/264 316/2/316 292/3/292
f 265/1/265 317/2/317 291/3/291
f 317/1/317 265/2/265 293/3/293
f 318/1/318 266/2/266 292/3/292
f 266/1/266 318/2/318 294/3/294
f 293/1/293 295/2/295 319/3/319
f 295/1/295 293/2/293 267/3/267
f 320/1/320 268/2/268 294/3/294
f 268/1/268 320/2/320 296/3/296
f 295/1/295 297/2/297 321/3/321
f 297/1/297 295/2/295 269/3/269
f 322/1/322 270/2/270 296/3/296
f 270/1/270 322/2/322 298/3/298
f 271/1/271 323/2/323 297/3/297
f 323/1/323 271/2/271 299/3/299
f 324/1/324 272/2/272 298/3/298
f 272/1/272 324/2/324 300/3/300
f 273/1/273 325/2/325 299/3/299
f 325/1/325 273/2/273 301/3/301
f 275/1/275 300/2/300 301/3/301
f 300/1/300 275/2/275 274/3/274
f 35/1/35 276/2/276 277/3/277
f 326/1/326 303/2/303 327/3/327
f 303/1/303 326/2/326 302/3/302
f 328/1/328 278/2/278 302/3/302
f 278/1/278 328/2/328 304/3/304
f 303/1/303 305/2/305 329/3/329
f 305/1/305 303/2/303 279/3/279
f 330/1/330 280/2/280 304/3/304
f 280/1/280 330/2/330 306/3/306
f 281/1/281 331/2/331 305/3/305
f 331/1/331 281/2/281 307/3/307
f 308/1/308 306/2/306 332/3/332
f 306/1/306 308/2/308 282/3/282
f 283/1/283 333/2/333 307/3/307
f 333/1/333 283/2/283 309/3/309
f 310/1/310 308/2/308 334/3/334
f 308/1/308 310/2/310 284/3/284
f 285/1/285 335/2/335 309/3/309
f 335/1/335 285/2/285 311/3/311
f 312/1/312 310/2/310 336/3/336
f 310/1/310 312/2/312 286/3/286
f 287/1/287 337/2/337 311/3/311
f 337/1/337 287/2/287 313/3/313
f 338/1/338 288/2/288 312/3/312
f 288/1/288 338/2/338 314/3/314
f 289/1/289 339/2/339 313/3/313
f 339/1/339 289/2/289 315/3/315
f 340/1/340 290/2/290 314/3/314
f 290/1/290 340/2/340 316/3/316
f 317/1/317 315/2/315 291/3/291
f 315/1/315 317/2/317 341/3/341
f 342/1/342 292/2/292 316/3/316
f 292/1/292 342/2/342 318/3/318
f 293/1/293 343/2/343 317/3/317
f 343/1/343 293/2/293 319/3/319
f 344/1/344 294/2/294 318/3/318
f 294/1/294 344/2/344 320/3/320
f 319/1/319 321/2/321 345/3/345
f 321/1/321 319/2/319 295/3/295
f 346/1/346 296/2/296 320/3/320
f 296/1/296 346/2/346 322/3/322
f 297/1/297 347/2/347 321/3/321
f 347/1/347 297/2/297 323/3/323
f 348/1/348 298/2/298 322/3/322
f 298/1/298 348/2/348 324/3/324
f 299/1/299 349/2/349 323/3/323
f 349/1/349 299/2/299 325/3/325
f 301/1/301 324/2/324 325/3/325
f 324/1/324 301/2/301 300/3/300
f 350/1/350 327/2/327 351/3/351
f 327/1/327 350/2/350 326/3/326
f 352/1/352 302/2/302 326/3/326
f 302/1/302 352/2/352 328/3/328
f 327/1/327 329/2/329 353/3/353
f 329/1/329 327/2/327 303/3/303
f 354/1/354 304/2/304 328/3/328
f 304/1/304 354/2/354 330/3/330
f 305/1/305 355/2/355 329/3/329
f 355/1/355 305/2/305 331/3/331
f 332/1/332 330/2/330 356/3/356
f 330/1/330 332/2/332 306/3/306
f 307/1/307 357/2/357 331/3/331
f 357/1/357 307/2/307 333/3/333
f 334/1/334 332/2/332 358/3/358
f 332/1/332 334/2/334 308/3/308
f 309/1/309 359/2/359 333/3/333
f 359/1/359 309/2/309 335/3/335
f 336/1/336 334/2/334 360/3/360
f 334/1/334 336/2/336 310/3/310
f 311/1/311 361/2/361 335/3/335
f 361/1/361 311/2/311 337/3/337
f 362/1/362 312/2/312 336/3/336
f 312/1/312 362/2/362 338/3/338
f 313/1/313 363/2/363 337/3/337
f 363/1/363 313/2/313 339/3/339
f 364/1/364 314/2/314 338/3/338
f 314/1/314 364/2/364 340/3/340
f 341/1/341 339/2/339 315/3/315
f 339/1/339 341/2/341 365/3/365
f 366/1/366 316/2/316 340/3/340
f 316/1/316 366/2/366 342/3/342
f 343/1/343 341/2/341 317/3/317
f 341/1/341 343/2/343 367/3/367
f 368/1/368 318/2/318 342/3/342
f 318/1/318 368/2/368 344/3/344
f 319/1/319 369/2/369 343/3/343
f 369/1/369 319/2/319 345/3/345
f 370/1/370 320/2/320 344/3/344
f 320/1/320 370/2/370 346/3/346
f 321/1/321 371/2/371 345/3/345
f 371/1/371 321/2/321 347/3/347
f 372/1/372 322/2/322 346/3/346
f 322/1/322 372/2/372 348/3/348
f 323/1/323 373/2/373 347/3/347
f 373/1/373 323/2/323 349/3/349
f 325/1/325 348/2/348 349/3/349
f 348/1/348 325/2/325 324/3/324
f 374/1/374 351/2/351 375/3/375
f 351/1/351 374/2/374 350/3/350
f 376/1/376 326/2/326 350/3/350
f 326/1/326 376/2/376 352/3/352
f 351/1/351 353/2/353 377/3/377
f 353/1/353 351/2/351 327/3/327
f 378/1/378 328/2/328 352/3/352
f 328/1/328 378/2/378 354/3/354
f 329/1/329 379/2/379 353/3/353
f 379/1/379 329/2/329 355/3/355
f 356/1/356 354/2/354 380/3/380
f 354/1/354 356/2/356 330/3/330
f 331/1/331 381/2/381 355/3/355
f 381/1/381 331/2/331 357/3/357
f 358/1/358 356/2/356 382/3/382
f 356/1/356 358/2/358 332/3/332
f 333/1/333 383/2/383 357/3/357
f 383/1/383 333/2/333 359/3/359
f 360/1/360 358/2/358 384/3/384
f 358/1/358 360/2/360 334/3/334
f 335/1/335 385/2/385 359/3/359
f 385/1/385 335/2/335 361/3/361
f 386/1/386 336/2/336 360/3/360
f 336/1/336 386/2/386 362/3/362
f 337/1/337 387/2/387 361/3/361
f 387/1/387 337/2/337 363/3/363
f 388/1/388 338/2/338 362/3/362
f 338/1/338 388/2/388 364/3/364
f 365/1/365 363/2/363 339/3/339
f 363/1/363 365/2/365 389/3/389
f 390/1/390 340/2/340 364/3/364
f 340/1/340 390/2/390 366/3/366
f 367/1/367 365/2/365 341/3/341
f 365/1/365 367/2/367 391/3/391
f 392/1/392 342/2/342 366/3/366
f 342/1/342 392/2/392 368/3/368
f 369/1/369 367/2/367 343/3/343
f 367/1/367 369/2/369 393/3/393
f 394/1/394 344/2/344 368/3/368
f 344/1/344 394/2/394 370/3/370
f 371/1/371 369/2/369 345/3/345
f 369/1/369 371/2/371 395/3/395
f 396/1/396 346/2/346 370/3/370
f 346/1/346 396/2/396 372/3/372
f 347/1/347 397/2/397 371/3/371
f 397/1/397 347/2/347 373/3/373
f 349/1/349 372/2/372 373/3/373
f 372/1/372 349/2/349 348/3/348
f 398/1/398 375/2/375 399/3/399
f 375/1/375 398/2/398 374/3/374
f 400/1/400 350/2/350 374/3/374
f 350/1/350 400/2/400 376/3/376
f 375/1/375 377/2/377 401/3/401
f 377/1/377 375/2/375 351/3/351
f 402/1/402 352/2/352 376/3/376
f 352/1/352 402/2/402 378/3/378
f 377/1/377 379/2/379 403/3/403
f 379/1/379 377/2/377 353/3/353
f 380/1/380 378/2/378 404/3/404
f 378/1/378 380/2/380 354/3/354
f 355/1/355 405/2/405 379/3/379
f 405/1/405 355/2/355 381/3/381
f 382/1/382 380/2/380 406/3/406
f 380/1/380 382/2/382 356/3/356
f 357/1/357 407/2/407 381/3/381
f 407/1/407 357/2/357 383/3/383
f 384/1/384 382/2/382 408/3/408
f 382/1/382 384/2/384 358/3/358
f 359/1/359 409/2/409 383/3/383
f 409/1/409 359/2/359 385/3/385
f 410/1/410 360/2/360 384/3/384
f 360/1/360 410/2/410 386/3/386
f 361/1/361 411/2/411 385/3/385
f 411/1/411 361/2/361 387/3/387
f 412/1/412 362/2/362 386/3/386
f 362/1/362 412/2/412 388/3/388
f 389/1/389 387/2/387 363/3/363
f 387/1/387 389/2/389 413/3/413
f 414/1/414 364/2/364 388/3/388
f 364/1/364 414/2/414 390/3/390
f 391/1/391 389/2/389 365/3/365
f 389/1/389 391/2/391 415/3/415
f 416/1/416 366/2/366 390/3/390
f 366/1/366 416/2/416 392/3/392
f 393/1/393 391/2/391 367/3/367
f 391/1/391 393/2/393 417/3/417
f 418/1/418 368/2/368 392/3/392
f 368/1/368 418/2/418 394/3/394
f 395/1/395 393/2/393 369/3/369
f 393/1/393 395/2/395 419/3/419
f 420/1/420 370/2/370 394/3/394
f 370/1/370 420/2/420 396/3/396
f 397/1/397 395/2/395 371/3/371
f 395/1/395 397/2/397 421/3/421
f 397/1/397 372/2/372 396/3/396
f 372/1/372 397/2/397 373/3/373
f 398/1/398 399/2/399 422/3/422
f 423/1/423 374/2/374 398/3/398
f 374/1/374 423/2/423 400/3/400
f 399/1/399 401/2/401 424/3/424
f 401/1/401 399/2/399 375/3/375
f 425/1/425 376/2/376 400/3/400
f 376/1/376 425/2/425 402/3/402
f 401/1/401 403/2/403 426/3/426
f 403/1/403 401/2/401 377/3/377
f 404/1/404 402/2/402 427/3/427
f 402/1/402 404/2/404 378/3/378
f 379/1/379 428/2/428 403/3/403
f 428/1/428 379/2/379 405/3/405
f 406/1/406 404/2/404 429/3/429
f 404/1/404 406/2/406 380/3/380
f 381/1/381 430/2/430 405/3/405
f 430/1/430 381/2/381 407/3/407
f 408/1/408 406/2/406 431/3/431
f 406/1/406 408/2/408 382/3/382
f 383/1/383 432/2/432 407/3/407
f 432/1/432 383/2/383 409/3/409
f 433/1/433 384/2/384 408/3/408
f 384/1/384 433/2/433 410/3/410
f 385/1/385 434/2/434 409/3/409
f 434/1/434 385/2/385 411/3/411
f 435/1/435 386/2/386 410/3/410
f 386/1/386 435/2/435 412/3/412
f 413/1/413 411/2/411 387/3/387
f 411/1/411 413/2/413 436/3/436
f 437/1/437 388/2/388 412/3/412
f 388/1/388 437/2/437 414/3/414
f 415/1/415 413/2/413 389/3/389
f 413/1/413 415/2/415 438/3/438
f 439/1/439 390/2/390 414/3/414
f 390/1/390 439/2/439 416/3/416
f 417/1/417 415/2/415 391/3/391
f 415/1/415 417/2/417 440/3/440
f 441/1/441 392/2/392 416/3/416
f 392/1/392 441/2/441 418/3/418
f 419/1/419 417/2/417 393/3/393
f 417/1/417 419/2/419 442/3/442
f 443/1/443 394/2/394 418/3/418
f 394/1/394 443/2/443 420/3/420
f 395/1/395 444/2/444 419/3/419
f 444/1/444 395/2/395 421/3/421
f 421/1/421 396/2/396 420/3/420
f 396/1/396 421/2/421 397/3/397
f 399/1/399 424/2/424 422/3/422
f 423/1/423 398/2/398 422/3/422
f 445/1/445 400/2/400 423/3/423
f 400/1/400 445/2/445 425/3/425
f 424/1/424 426/2/426 446/3/446
f 426/1/426 424/2/424 401/3/401
f 427/1/427 425/2/425 447/3/447
f 425/1/425 427/2/427 402/3/402
f 426/1/426 428/2/428 448/3/448
f 428/1/428 426/2/426 403/3/403
f 429/1/429 427/2/427 449/3/449
f 427/1/427 429/2/429 404/3/404
f 405/1/405 450/2/450 428/3/428
f 450/1/450 405/2/405 430/3/430
f 431/1/431 429/2/429 451/3/451
f 429/1/429 431/2/431 406/3/406
f 407/1/407 452/2/452 430/3/430
f 452/1/452 407/2/407 432/3/432
f 433/1/433 431/2/431 453/3/453
f 431/1/431 433/2/433 408/3/408
f 434/1/434 432/2/432 409/3/409
f 432/1/432 434/2/434 454/3/454
f 455/1/455 410/2/410 433/3/433
f 410/1/410 455/2/455 435/3/435
f 436/1/436 434/2/434 411/3/411
f 434/1/434 436/2/436 456/3/456
f 457/1/457 412/2/412 435/3/435
f 412/1/412 457/2/457 437/3/437
f 438/1/438 436/2/436 413/3/413
f 436/1/436 438/2/438 458/3/458
f 459/1/459 414/2/414 437/3/437
f 414/1/414 459/2/459 439/3/439
f 440/1/440 438/2/438 415/3/415
f 438/1/438 440/2/440 460/3/460
f 461/1/461 416/2/416 439/3/439
f 416/1/416 461/2/461 441/3/441
f 442/1/442 440/2/440 417/3/417
f 440/1/440 442/2/442 462/3/462
f 463/1/463 418/2/418 441/3/441
f 418/1/418 463/2/463 443/3/443
f 419/1/419 464/2/464 442/3/442
f 464/1/464 419/2/419 444/3/444
f 421/1/421 443/2/443 444/3/444
f 443/1/443 421/2/421 420/3/420
f 424/1/424 446/2/446 422/3/422
f 445/1/445 423/2/423 422/3/422
f 447/1/447 445/2/445 465/3/465
f 445/1/445 447/2/447 425/3/425
f 446/1/446 448/2/448 466/3/466
f 448/1/448 446/2/446 426/3/426
f 449/1/449 447/2/447 467/3/467
f 447/1/447 449/2/449 427/3/427
f 450/1/450 448/2/448 428/3/428
f 448/1/448 450/2/450 468/3/468
f 451/1/451 449/2/449 469/3/469
f 449/1/449 451/2/451 429/3/429
f 452/1/452 450/2/450 430/3/430
f 450/1/450 452/2/452 470/3/470
f 453/1/453 451/2/451 471/3/471
f 451/1/451 453/2/453 431/3/431
f 454/1/454 452/2/452 432/3/432
f 452/1/452 454/2/454 472/3/472
f 473/1/473 433/2/433 453/3/453
f 433/1/433 473/2/473 455/3/455
f 456/1/456 454/2/454 434/3/434
f 454/1/454 456/2/456 474/3/474
f 475/1/475 435/2/435 455/3/455
f 435/1/435 475/2/475 457/3/457
f 458/1/458 456/2/456 436/3/436
f 456/1/456 458/2/458 476/3/476
f 477/1/477 437/2/437 457/3/457
f 437/1/437 477/2/477 459/3/459
f 460/1/460 458/2/458 438/3/438
f 458/1/458 460/2/460 478/3/478
f 479/1/479 439/2/439 459/3/459
f 439/1/439 479/2/479 461/3/461
f 462/1/462 460/2/460 440/3/440
f 460/1/460 462/2/462 480/3/480
f 481/1/481 441/2/441 461/3/461
f 441/1/441 481/2/481 463/3/463
f 442/1/442 482/2/482 462/3/462
f 482/1/482 442/2/442 464/3/464
f 444/1/444 463/2/463 464/3/464
f 463/1/463 444/2/444 443/3/443
f 446/1/446 466/2/466 422/3/422
f 445/1/445 422/2/422 465/3/465
f 467/1/467 465/2/465 483/3/483
f 465/1/465 467/2/467 447/3/447
f 466/1/466 468/2/468 484/3/484
f 468/1/468 466/2/466 448/3/448
f 469/1/469 467/2/467 485/3/485
f 467/1/467 469/2/469 449/3/449
f 470/1/470 468/2/468 450/3/450
f 468/1/468 470/2/470 486/3/486
f 471/1/471 469/2/469 487/3/487
f 469/1/469 471/2/471 451/3/451
f 472/1/472 470/2/470 452/3/452
f 470/1/470 472/2/472 488/3/488
f 489/1/489 453/2/453 471/3/471
f 453/1/453 489/2/489 473/3/473
f 474/1/474 472/2/472 454/3/454
f 472/1/472 474/2/474 490/3/490
f 491/1/491 455/2/455 473/3/473
f 455/1/455 491/2/491 475/3/475
f 476/1/476 474/2/474 456/3/456
f 474/1/474 476/2/476 492/3/492
f 493/1/493 457/2/457 475/3/475
f 457/1/457 493/2/493 477/3/477
f 478/1/478 476/2/476 458/3/458
f 476/1/476 478/2/478 494/3/494
f 495/1/495 459/2/459 477/3/477
f 459/1/459 495/2/495 479/3/479
f 480/1/480 478/2/478 460/3/460
f 478/1/478 480/2/480 496/3/496
f 497/1/497 461/2/461 479/3/479
f 461/1/461 497/2/497 481/3/481
f 462/1/462 498/2/498 480/3/480
f 498/1/498 462/2/462 482/3/482
f 464/1/464 481/2/481 482/3/482
f 481/1/481 464/2/464 463/3/463
f 466/1/466 484/2/484 422/3/422
f 465/1/465 422/2/422 483/3/483
f 485/1/485 483/2/483 499/3/499
f 483/1/483 485/2/485 467/3/467
f 486/1/486 484/2/484 468/3/468
f 484/1/484 486/2/486 500/3/500
f 487/1/487 485/2/485 501/3/501
f 485/1/485 487/2/487 469/3/469
f 488/1/488 486/2/486 470/3/470
f 486/1/486 488/2/488 502/3/502
f 489/1/489 487/2/487 503/3/503
f 487/1/487 489/2/489 471/3/471
f 490/1/490 488/2/488 472/3/472
f 488/1/488 490/2/490 504/3/504
f 505/1/505 473/2/473 489/3/489
f 473/1/473 505/2/505 491/3/491
f 492/1/492 490/2/490 474/3/474
f 490/1/490 492/2/492 506/3/506
f 507/1/507 475/2/475 491/3/491
f 475/1/475 507/2/507 493/3/493
f 494/1/494 492/2/492 476/3/476
f 492/1/492 494/2/494 508/3/508
f 509/1/509 477/2/477 493/3/493
f 477/1/477 509/2/509 495/3/495
f 496/1/496 494/2/494 478/3/478
f 494/1/494 496/2/496 510/3/510
f 511/1/511 479/2/479 495/3/495
f 479/1/479 511/2/511 497/3/497
f 480/1/480 512/2/512 496/3/496
f 512/1/512 480/2/480 498/3/498
f 482/1/482 497/2/497 498/3/498
f 497/1/497 482/2/482 481/3/481
f 422/1/422 484/2/484 500/3/500
f 483/1/483 422/2/422 499/3/499
f 501/1/501 499/2/499 513/3/513
f 499/1/499 501/2/501 485/3/485
f 502/1/502 500/2/500 486/3/486
f 500/1/500 502/2/502 514/3/514
f 503/1/503 501/2/501 515/3/515
f 501/1/501 503/2/503 487/3/487
f 504/1/504 502/2/502 488/3/488
f 502/1/502 504/2/504 516/3/516
f 517/1/517 489/2/489 503/3/503
f 489/1/489 517/2/517 505/3/505
f 506/1/506 504/2/504 490/3/490
f 504/1/504 506/2/506 518/3/518
f 519/1/519 491/2/491 505/3/505
f 491/1/491 519/2/519 507/3/507
f 508/1/508 506/2/506 492/3/492
f 506/1/506 508/2/508 520/3/520
f 521/1/521 493/2/493 507/3/507
f 493/1/493 521/2/521 509/3/509
f 510/1/510 508/2/508 494/3/494
f 508/1/508 510/2/510 522/3/522
f 523/1/523 495/2/495 509/3/509
f 495/1/495 523/2/523 511/3/511
f 496/1/496 524/2/524 510/3/510
f 524/1/524 496/2/496 512/3/512
f 498/1/498 511/2/511 512/3/512
f 511/1/511 498/2/498 497/3/497
f 422/1/422 500/2/500 514/3/514
f 499/1/499 422/2/422 513/3/513
f 515/1/515 513/2/513 525/3/525
f 513/1/513 515/2/515 501/3/501
f 516/1/516 514/2/514 502/3/502
f 514/1/514 516/2/516 526/3/526
f 517/1/517 515/2/515 527/3/527
f 515/1/515 517/2/517 503/3/503
f 518/1/518 516/2/516 504/3/504
f 516/1/516 518/2/518 528/3/528
f 529/1/529 505/2/505 517/3/517
f 505/1/505 529/2/529 519/3/519
f 520/1/520 518/2/518 506/3/506
f 518/1/518 520/2/520 530/3/530
f 531/1/531 507/2/507 519/3/519
f 507/1/507 531/2/531 521/3/521
f 522/1/522 520/2/520 508/3/508
f 520/1/520 522/2/522 532/3/532
f 523/1/523 521/2/521 533/3/533
f 521/1/521 523/2/523 509/3/509
f 510/1/510 534/2/534 522/3/522
f 534/1/534 510/2/510 524/3/524
f 512/1/512 523/2/523 524/3/524
f 523/1/523 512/2/512 511/3/511
f 422/1/422 514/2/514 526/3/526
f 513/1/513 422/2/422 525/3/525
f 527/1/527 525/2/525 535/3/535
f 525/1/525 527/2/527 515/3/515
f 528/1/528 526/2/526 516/3/516
f 526/1/526 528/2/528 536/3/536
f 529/1/529 527/2/527 537/3/537
f 527/1/527 529/2/529 517/3/517
f 530/1/530 528/2/528 518/3/518
f 528/1/528 530/2/530 538/3/538
f 531/1/531 529/2/529 539/3/539
f 529/1/529 531/2/531 519/3/519
f 532/1/532 530/2/530 520/3/520
f 530/1/530 532/2/532 540/3/540
f 533/1/533 531/2/531 541/3/541
f 531/1/531 533/2/533 521/3/521
f 522/1/522 542/2/542 532/3/532
f 542/1/542 522/2/522 534/3/534
f 524/1/524 533/2/533 534/3/534
f 533/1/533 524/2/524 523/3/523
f 422/1/422 526/2/526 536/3/536
f 525/1/525 422/2/422 535/3/535
f 537/1/537 535/2/535 543/3/543
f 535/1/535 537/2/537 527/3/527
f 538/1/538 536/2/536 528/3/528
f 536/1/536 538/2/538 544/3/544
f 539/1/539 537/2/537 545/3/545
f 537/1/537 539/2/539 529/3/529
f 540/1/540 538/2/538 530/3/530
f 538/1/538 540/2/540 546/3/546
f 541/1/541 539/2/539 547/3/547
f 539/1/539 541/2/541 531/3/531
f 532/1/532 548/2/548 540/3/540
f 548/1/548 532/2/532 542/3/542
f 534/1/534 541/2/541 542/3/542
f 541/1/541 534/2/534 533/3/533
f 422/1/422 536/2/536 544/3/544
f 535/1/535 422/2/422 543/3/543
f 545/1/545 543/2/543 549/3/549
f 543/1/543 545/2/545 537/3/537
f 546/1/546 544/2/544 538/3/538
f 544/1/544 546/2/546 550/3/550
f 547/1/547 545/2/545 551/3/551
f 545/1/545 547/2/547 539/3/539
f 540/1/540 552/2/552 546/3/546
f 552/1/552 540/2/540 548/3/548
f 542/1/542 547/2/547 548/3/548
f 547/1/547 542/2/542 541/3/541
f 550/1/550 422/2/422 544/3/544
f 422/1/422 549/2/549 543/3/543
f 551/1/551 549/2/549 553/3/553
f 549/1/549 551/2/551 545/3/545
f 546/1/546 554/2/554 550/3/550
f 554/1/554 546/2/546 552/3/552
f 548/1/548 551/2/551 552/3/552
f 551/1/551 548/2/548 547/3/547
f 554/1/554 422/2/422 550/3/550
f 422/1/422 553/2/553 549/3/549
f 552/1/552 553/2/553 554/3/554
f 553/1/553 552/2/552 551/3/551
f 553/1/553 422/2/422 554/3/554
